<svg width="132.329mm" height="95.029mm" viewBox="0 0 132.329 95.029" xmlns="http://www.w3.org/2000/svg"><g id="svgGroup" stroke-linecap="round" fill-rule="evenodd" font-size="9pt" stroke="#000" stroke-width="0.25mm" fill="none" style="stroke:#000;stroke-width:0.25mm;fill:none"><path d="M 23.39 39.763 L 39.39 39.763 A 1 1 0 0 0 40.39 38.763 L 40.39 52 A 1 1 0 0 0 41.39 53 L 57.39 53 A 1 1 0 0 0 58.39 52 L 58.39 56.762 A 1 1 0 0 0 59.39 57.762 L 75.39 57.762 A 1 1 0 0 0 76.39 56.762 L 76.39 59.62 A 1 1 0 0 0 77.39 60.62 L 93.39 60.62 A 1 1 0 0 0 94.39 59.62 L 94.39 44.62 A 1 1 0 0 0 93.39 43.62 L 77.39 43.62 A 1 1 0 0 0 76.39 44.62 L 76.39 41.762 A 1 1 0 0 0 75.39 40.762 L 59.39 40.762 A 1 1 0 0 0 58.39 41.762 L 58.39 38.763 A 1 1 0 0 0 59.39 39.763 L 75.39 39.763 A 1 1 0 0 0 76.39 38.763 L 76.39 41.62 A 1 1 0 0 0 77.39 42.62 L 93.39 42.62 A 1 1 0 0 0 94.39 41.62 L 94.39 26.62 A 1 1 0 0 0 93.39 25.62 L 77.39 25.62 A 1 1 0 0 0 76.39 26.62 L 76.39 23.763 A 1 1 0 0 0 75.39 22.763 L 59.39 22.763 A 1 1 0 0 0 58.39 23.763 L 58.39 20.763 A 1 1 0 0 0 59.39 21.763 L 75.39 21.763 A 1 1 0 0 0 76.39 20.763 L 76.39 23.62 A 1 1 0 0 0 77.39 24.62 L 93.39 24.62 A 1 1 0 0 0 94.39 23.62 L 94.39 8.62 A 1 1 0 0 0 93.39 7.62 L 77.39 7.62 A 1 1 0 0 0 76.39 8.62 L 76.39 5.763 A 1 1 0 0 0 75.39 4.763 L 59.39 4.763 A 1 1 0 0 0 58.39 5.763 L 58.39 1 A 1 1 0 0 0 57.39 0 L 41.39 0 A 1 1 0 0 0 40.39 1 L 40.39 5.763 A 1 1 0 0 0 39.39 4.763 L 23.39 4.763 A 1 1 0 0 0 22.39 5.763 L 22.39 20.763 A 1 1 0 0 0 23.39 21.763 L 39.39 21.763 A 1 1 0 0 0 40.39 20.763 L 40.39 23.762 A 1 1 0 0 0 39.39 22.763 L 23.39 22.763 A 1 1 0 0 0 22.39 23.763 L 22.39 38.763 A 1 1 0 0 0 23.39 39.763 Z M 114.829 40.082 m -17.5 0 a 17.5 17.5 0 0 1 35 0 a 17.5 17.5 0 0 1 -35 0 z M 5.532 72.678 L 21.471 71.284 A 1 1 0 0 0 22.38 70.2 L 21.073 55.257 A 1 1 0 0 0 19.99 54.348 L 4.05 55.743 A 1 1 0 0 0 3.141 56.826 L 4.449 71.769 A 1 1 0 0 0 5.532 72.678 Z M 3.963 54.747 L 19.902 53.352 A 1 1 0 0 0 20.811 52.269 L 19.504 37.326 A 1 1 0 0 0 18.421 36.417 L 2.482 37.811 A 1 1 0 0 0 1.573 38.895 L 2.88 53.838 A 1 1 0 0 0 3.963 54.747 Z M 2.394 36.815 L 18.334 35.421 A 1 1 0 0 0 19.243 34.337 L 17.935 19.394 A 1 1 0 0 0 16.852 18.485 L 0.913 19.88 A 1 1 0 0 0 0.004 20.963 L 1.311 35.906 A 1 1 0 0 0 2.394 36.815 Z M 23.39 57.763 L 39.39 57.763 A 1 1 0 0 0 40.39 56.763 L 40.39 41.763 A 1 1 0 0 0 39.39 40.763 L 23.39 40.763 A 1 1 0 0 0 22.39 41.763 L 22.39 56.763 A 1 1 0 0 0 23.39 57.763 Z M 46.817 81.575 L 62.817 81.575 A 1 1 0 0 0 63.817 80.575 L 63.817 65.575 A 1 1 0 0 0 62.817 64.575 L 46.817 64.575 A 1 1 0 0 0 45.817 65.575 L 45.817 80.575 A 1 1 0 0 0 46.817 81.575 Z M 65.044 81.875 L 80.499 86.016 A 1 1 0 0 0 81.723 85.309 L 85.606 70.82 A 1 1 0 0 0 84.899 69.595 L 69.444 65.454 A 1 1 0 0 0 68.219 66.161 L 64.337 80.65 A 1 1 0 0 0 65.044 81.875 Z M 82.621 86.895 L 96.477 94.895 A 1 1 0 0 0 97.843 94.529 L 105.343 81.538 A 1 1 0 0 0 104.977 80.172 L 91.121 72.172 A 1 1 0 0 0 89.755 72.538 L 82.255 85.529 A 1 1 0 0 0 82.621 86.895 Z M 40.39 19 L 40.39 16 A 1 1 0 0 0 41.39 17 L 57.39 17 A 1 1 0 0 0 58.39 16 L 58.39 19 A 1 1 0 0 0 57.39 18 L 41.39 18 A 1 1 0 0 0 40.39 19 Z M 40.39 37 L 40.39 34 A 1 1 0 0 0 41.39 35 L 57.39 35 A 1 1 0 0 0 58.39 34 L 58.39 37 A 1 1 0 0 0 57.39 36 L 41.39 36 A 1 1 0 0 0 40.39 37 Z" vector-effect="non-scaling-stroke"/></g></svg>