0
SECTION
2
HEADER
9
$INSUNITS
70
4
0
ENDSEC
0
SECTION
2
TABLES
0
TABLE
2
LTYPE
0
LTYPE
72
65
70
64
2
CONTINUOUS
3
______
73
0
40
0
0
ENDTAB
0
TABLE
2
LAYER
0
ENDTAB
0
ENDSEC
0
SECTION
2
ENTITIES
0
LINE
8
0
10
10.7027708
20
-7.5960975
11
26.641886
21
-6.2016056
0
ARC
8
0
10
26.5547303
20
-5.2054109
40
1
50
275
51
5
0
LINE
8
0
10
27.550925
20
-5.1182552
11
26.2435888
21
9.8246653
0
ARC
8
0
10
25.2473941
20
9.7375096
40
1
50
5
51
95
0
LINE
8
0
10
25.1602384
20
10.7337043
11
9.2211232
21
9.3392124
0
ARC
8
0
10
9.3082789
20
8.3430177
40
1
50
95
51
185
0
LINE
8
0
10
8.3120842
20
8.255862
11
9.6194204
21
-6.6870585
0
ARC
8
0
10
10.6156151
20
-6.5999028
40
1
50
185
51
275
0
LINE
8
0
10
9.1339674
20
10.335407
11
25.0730826
21
11.7298989
0
ARC
8
0
10
24.9859269
20
12.7260936
40
1
50
275
51
5
0
LINE
8
0
10
25.9821216
20
12.8132493
11
24.6747854
21
27.7561698
0
ARC
8
0
10
23.6785907
20
27.6690141
40
1
50
5
51
95
0
LINE
8
0
10
23.591435
20
28.6652088
11
7.6523198
21
27.2707169
0
ARC
8
0
10
7.7394755
20
26.2745222
40
1
50
95
51
185
0
LINE
8
0
10
6.7432808
20
26.1873665
11
8.050617
21
11.244446
0
ARC
8
0
10
9.0468117
20
11.3316017
40
1
50
185
51
275
0
LINE
8
0
10
7.565164
20
28.2669116
11
23.5042792
21
29.6614035
0
ARC
8
0
10
23.4171235
20
30.6575982
40
1
50
275
51
5
0
LINE
8
0
10
24.4133182
20
30.7447539
11
23.105982
21
45.6876744
0
ARC
8
0
10
22.1097873
20
45.6005187
40
1
50
5
51
95
0
LINE
8
0
10
22.0226316
20
46.5967134
11
6.0835164
21
45.2022215
0
ARC
8
0
10
6.1706721
20
44.2060268
40
1
50
95
51
185
0
LINE
8
0
10
5.1744774
20
44.1188711
11
6.4818136
21
29.1759506
0
ARC
8
0
10
7.4780083
20
29.2631063
40
1
50
185
51
275
0
LINE
8
0
10
28.5603504
20
7.319643
11
44.5603504
21
7.319643
0
ARC
8
0
10
44.5603504
20
8.319643
40
1
50
270
51
360
0
LINE
8
0
10
45.5603504
20
8.319643
11
45.5603504
21
23.319643
0
ARC
8
0
10
44.5603504
20
23.319643
40
1
50
0
51
90
0
LINE
8
0
10
44.5603504
20
24.319643
11
28.5603504
21
24.319643
0
ARC
8
0
10
28.5603504
20
23.319643
40
1
50
90
51
180
0
LINE
8
0
10
27.5603504
20
23.319643
11
27.5603504
21
8.319643
0
ARC
8
0
10
28.5603504
20
8.319643
40
1
50
180
51
270
0
LINE
8
0
10
28.5603505
20
25.319643
11
44.5603505
21
25.319643
0
ARC
8
0
10
44.5603505
20
26.319643
40
1
50
270
51
360
0
LINE
8
0
10
45.5603505
20
28.082143
11
45.5603505
21
31.082143
0
ARC
8
0
10
44.5603505
20
41.319643
40
1
50
0.0256227
51
90
0
LINE
8
0
10
44.5603505
20
42.319643
11
28.5603505
21
42.319643
0
ARC
8
0
10
28.5603505
20
41.319643
40
1
50
90
51
180
0
LINE
8
0
10
27.5603505
20
41.319643
11
27.5603505
21
26.319643
0
ARC
8
0
10
28.5603505
20
26.319643
40
1
50
180
51
270
0
LINE
8
0
10
28.5603504
20
43.319643
11
44.5603504
21
43.319643
0
ARC
8
0
10
44.5603504
20
44.319643
40
1
50
270
51
360
0
LINE
8
0
10
45.5603504
20
46.082143
11
45.5603504
21
49.082143
0
ARC
8
0
10
44.5603504
20
59.319643
40
1
50
0
51
90
0
LINE
8
0
10
44.5603504
20
60.319643
11
28.5603504
21
60.319643
0
ARC
8
0
10
28.5603504
20
59.319643
40
1
50
90
51
180
0
LINE
8
0
10
27.5603504
20
59.319643
11
27.5603504
21
44.319643
0
ARC
8
0
10
28.5603504
20
44.319643
40
1
50
180
51
270
0
LINE
8
0
10
46.5603505
20
12.082143
11
62.5603505
21
12.082143
0
ARC
8
0
10
62.5603505
20
13.082143
40
1
50
270
51
360
0
LINE
8
0
10
63.5603505
20
23.3196431
11
63.5603505
21
26.319643
0
ARC
8
0
10
62.5603505
20
28.082143
40
1
50
0.0256227
51
90
0
LINE
8
0
10
62.5603505
20
29.082143
11
46.5603505
21
29.082143
0
ARC
8
0
10
46.5603505
20
28.082143
40
1
50
90
51
180
0
LINE
8
0
10
45.5603505
20
26.319643
11
45.5603505
21
13.082143
0
ARC
8
0
10
46.5603505
20
13.082143
40
1
50
180
51
270
0
LINE
8
0
10
46.5603504
20
30.082143
11
62.5603504
21
30.082143
0
ARC
8
0
10
62.5603504
20
31.082143
40
1
50
270
51
360
0
LINE
8
0
10
63.5603504
20
41.319643
11
63.5603504
21
44.319643
0
ARC
8
0
10
62.5603504
20
46.082143
40
1
50
0
51
90
0
LINE
8
0
10
62.5603504
20
47.082143
11
46.5603504
21
47.082143
0
ARC
8
0
10
46.5603504
20
46.082143
40
1
50
90
51
180
0
LINE
8
0
10
45.5603504
20
44.319643
11
45.5603504
21
41.3200902
0
ARC
8
0
10
46.5603504
20
31.082143
40
1
50
180.0256227
51
270
0
LINE
8
0
10
46.5603504
20
48.082143
11
62.5603504
21
48.082143
0
ARC
8
0
10
62.5603504
20
49.082143
40
1
50
270
51
360
0
LINE
8
0
10
63.5603504
20
59.319643
11
63.5603504
21
64.082143
0
ARC
8
0
10
62.5603504
20
64.082143
40
1
50
0
51
90
0
LINE
8
0
10
62.5603504
20
65.082143
11
46.5603504
21
65.082143
0
ARC
8
0
10
46.5603504
20
64.082143
40
1
50
90
51
180
0
LINE
8
0
10
45.5603504
20
64.082143
11
45.5603504
21
59.319643
0
ARC
8
0
10
46.5603504
20
49.082143
40
1
50
180
51
270
0
LINE
8
0
10
64.5603505
20
7.3196431
11
80.5603505
21
7.3196431
0
ARC
8
0
10
80.5603505
20
8.3196431
40
1
50
270
51
360
0
LINE
8
0
10
81.5603505
20
20.462143
11
81.5603505
21
23.3196431
0
ARC
8
0
10
80.5603505
20
23.3196431
40
1
50
0
51
90
0
LINE
8
0
10
80.5603505
20
24.3196431
11
64.5603505
21
24.3196431
0
ARC
8
0
10
64.5603505
20
23.3196431
40
1
50
90
51
180
0
LINE
8
0
10
63.5603505
20
13.082143
11
63.5603505
21
8.3196431
0
ARC
8
0
10
64.5603505
20
8.3196431
40
1
50
180
51
270
0
LINE
8
0
10
64.5603504
20
25.319643
11
80.5603504
21
25.319643
0
ARC
8
0
10
80.5603504
20
26.319643
40
1
50
270
51
360
0
LINE
8
0
10
81.5603504
20
38.462143
11
81.5603504
21
41.319643
0
ARC
8
0
10
80.5603504
20
41.319643
40
1
50
0
51
90
0
LINE
8
0
10
80.5603504
20
42.319643
11
64.5603504
21
42.319643
0
ARC
8
0
10
64.5603504
20
41.319643
40
1
50
90
51
180
0
LINE
8
0
10
63.5603504
20
31.082143
11
63.5603504
21
28.0825902
0
ARC
8
0
10
64.5603504
20
26.319643
40
1
50
180.0256227
51
270
0
LINE
8
0
10
64.5603504
20
43.319643
11
80.5603504
21
43.319643
0
ARC
8
0
10
80.5603504
20
44.319643
40
1
50
270
51
360
0
LINE
8
0
10
81.5603504
20
56.462143
11
81.5603504
21
59.319643
0
ARC
8
0
10
80.5603504
20
59.319643
40
1
50
0
51
90
0
LINE
8
0
10
80.5603504
20
60.319643
11
64.5603504
21
60.319643
0
ARC
8
0
10
64.5603504
20
59.319643
40
1
50
90
51
180
0
LINE
8
0
10
63.5603504
20
49.082143
11
63.5603504
21
46.082143
0
ARC
8
0
10
64.5603504
20
44.319643
40
1
50
180
51
270
0
LINE
8
0
10
82.5603505
20
4.462143
11
98.5603505
21
4.462143
0
ARC
8
0
10
98.5603505
20
5.462143
40
1
50
270
51
360
0
LINE
8
0
10
99.5603505
20
5.462143
11
99.5603505
21
20.462143
0
ARC
8
0
10
98.5603505
20
20.462143
40
1
50
0
51
90
0
LINE
8
0
10
98.5603505
20
21.462143
11
82.5603505
21
21.462143
0
ARC
8
0
10
82.5603505
20
20.462143
40
1
50
90
51
180
0
LINE
8
0
10
81.5603505
20
8.3196431
11
81.5603505
21
5.462143
0
ARC
8
0
10
82.5603505
20
5.462143
40
1
50
180
51
270
0
LINE
8
0
10
82.5603504
20
22.462143
11
98.5603504
21
22.462143
0
ARC
8
0
10
98.5603504
20
23.462143
40
1
50
270
51
360
0
LINE
8
0
10
99.5603504
20
23.462143
11
99.5603504
21
38.462143
0
ARC
8
0
10
98.5603504
20
38.462143
40
1
50
0
51
90
0
LINE
8
0
10
98.5603504
20
39.462143
11
82.5603504
21
39.462143
0
ARC
8
0
10
82.5603504
20
38.462143
40
1
50
90
51
180
0
LINE
8
0
10
81.5603504
20
26.319643
11
81.5603504
21
23.462143
0
ARC
8
0
10
82.5603504
20
23.462143
40
1
50
180
51
270
0
LINE
8
0
10
82.5603504
20
40.462143
11
98.5603504
21
40.462143
0
ARC
8
0
10
98.5603504
20
41.462143
40
1
50
270
51
360
0
LINE
8
0
10
99.5603504
20
41.462143
11
99.5603504
21
56.462143
0
ARC
8
0
10
98.5603504
20
56.462143
40
1
50
0
51
90
0
LINE
8
0
10
98.5603504
20
57.462143
11
82.5603504
21
57.462143
0
ARC
8
0
10
82.5603504
20
56.462143
40
1
50
90
51
180
0
LINE
8
0
10
81.5603504
20
44.319643
11
81.5603504
21
41.462143
0
ARC
8
0
10
82.5603504
20
41.462143
40
1
50
180
51
270
0
LINE
8
0
10
51.9873505
20
-16.4928569
11
67.9873505
21
-16.4928569
0
ARC
8
0
10
67.9873505
20
-15.4928569
40
1
50
270
51
360
0
LINE
8
0
10
68.9873505
20
-15.4928569
11
68.9873505
21
-0.4928569
0
ARC
8
0
10
67.9873505
20
-0.4928569
40
1
50
0
51
90
0
LINE
8
0
10
67.9873505
20
0.5071431
11
51.9873505
21
0.5071431
0
ARC
8
0
10
51.9873505
20
-0.4928569
40
1
50
90
51
180
0
LINE
8
0
10
50.9873505
20
-0.4928569
11
50.9873505
21
-15.4928569
0
ARC
8
0
10
51.9873505
20
-15.4928569
40
1
50
180
51
270
0
LINE
8
0
10
70.2145763
20
-16.7926594
11
85.6693895
21
-20.9337641
0
ARC
8
0
10
85.9282086
20
-19.9678383
40
1
50
255
51
345
0
LINE
8
0
10
86.8941344
20
-20.2266573
11
90.7764201
21
-5.7377699
0
ARC
8
0
10
89.8104942
20
-5.4789509
40
1
50
345
51
75
0
LINE
8
0
10
90.0693133
20
-4.513025
11
74.6145001
21
-0.3719203
0
ARC
8
0
10
74.355681
20
-1.3378461
40
1
50
75
51
165
0
LINE
8
0
10
73.3897552
20
-1.0790271
11
69.5074695
21
-15.5679145
0
ARC
8
0
10
70.4733954
20
-15.8267335
40
1
50
165
51
255
0
LINE
8
0
10
87.7914262
20
-21.8127404
11
101.6478326
21
-29.8127404
0
ARC
8
0
10
102.1478326
20
-28.946715
40
1
50
240
51
330
0
LINE
8
0
10
103.013858
20
-29.446715
11
110.513858
21
-16.456334
0
ARC
8
0
10
109.6478326
20
-15.956334
40
1
50
330
51
60
0
LINE
8
0
10
110.1478326
20
-15.0903086
11
96.2914262
21
-7.0903086
0
ARC
8
0
10
95.7914262
20
-7.956334
40
1
50
60
51
150
0
LINE
8
0
10
94.9254008
20
-7.456334
11
87.4254008
21
-20.446715
0
ARC
8
0
10
88.2914262
20
-20.946715
40
1
50
150
51
240
0
ENDSEC
0
EOF