<?xml version="1.0" encoding="UTF-8" standalone="no"?>
<!-- Created with Inkscape (http://www.inkscape.org/) -->

<svg
   inkscape:version="1.2.2 (b0a8486541, 2022-12-01)"
   sodipodi:docname="beech_01.svg"
   xml:space="preserve"
   id="svg465"
   version="1.1"
   viewBox="0 0 600 130"
   height="130mm"
   width="600mm"
   xmlns:inkscape="http://www.inkscape.org/namespaces/inkscape"
   xmlns:sodipodi="http://sodipodi.sourceforge.net/DTD/sodipodi-0.dtd"
   xmlns="http://www.w3.org/2000/svg"
   xmlns:svg="http://www.w3.org/2000/svg"><sodipodi:namedview
     id="namedview467"
     pagecolor="#ffffff"
     bordercolor="#000000"
     borderopacity="0.25"
     inkscape:showpageshadow="2"
     inkscape:pageopacity="0.0"
     inkscape:pagecheckerboard="0"
     inkscape:deskcolor="#d1d1d1"
     inkscape:document-units="mm"
     showgrid="false"
     inkscape:zoom="1.0429825"
     inkscape:cx="533.0866"
     inkscape:cy="371.53068"
     inkscape:window-width="1920"
     inkscape:window-height="1144"
     inkscape:window-x="0"
     inkscape:window-y="0"
     inkscape:window-maximized="1"
     inkscape:current-layer="svg465" /><defs
     id="defs462"><inkscape:path-effect
       effect="bspline"
       id="path-effect18350"
       is_visible="true"
       lpeversion="1"
       weight="15"
       steps="2"
       helper_size="0"
       apply_no_weight="true"
       apply_with_weight="true"
       only_selected="false" /><inkscape:path-effect
       effect="bspline"
       id="path-effect3138"
       is_visible="true"
       lpeversion="1"
       weight="15"
       steps="2"
       helper_size="0"
       apply_no_weight="true"
       apply_with_weight="true"
       only_selected="false" /><inkscape:path-effect
       effect="bspline"
       id="path-effect3138-3"
       is_visible="true"
       lpeversion="1"
       weight="15"
       steps="2"
       helper_size="0"
       apply_no_weight="true"
       apply_with_weight="true"
       only_selected="false" /></defs><g
     id="g8555"
     transform="translate(-0.33715584,-153.57379)"><path
       style="font-size:12px;fill:none;fill-rule:evenodd;stroke:#ff0000;stroke-width:0.2;stroke-linecap:round;stroke-dasharray:none;stroke-opacity:1"
       d="m 228.79259,261.5439 1.935,-13.765 13.765,1.935 -1.935,13.765 z"
       id="path5850" /><path
       style="font-size:12px;fill:none;fill-rule:evenodd;stroke:#ff0000;stroke-width:0.2;stroke-linecap:round;stroke-dasharray:none;stroke-opacity:1"
       d="m 211.95859,259.1779 1.934,-13.765 13.765,1.935 -1.934,13.765 z"
       id="path5848" /><path
       style="font-size:12px;fill:none;fill-rule:evenodd;stroke:#ff0000;stroke-width:0.2;stroke-linecap:round;stroke-dasharray:none;stroke-opacity:1"
       d="m 195.12359,256.8119 1.935,-13.765 13.765,1.935 -1.935,13.765 z"
       id="path5846" /><path
       style="font-size:12px;fill:none;fill-rule:evenodd;stroke:#ff0000;stroke-width:0.2;stroke-linecap:round;stroke-dasharray:none;stroke-opacity:1"
       d="m 190.70359,176.2629 -1.935,-13.765 13.765,-1.934 1.935,13.764 z"
       id="path5844" /><path
       style="font-size:12px;fill:none;fill-rule:evenodd;stroke:#ff0000;stroke-width:0.2;stroke-linecap:round;stroke-dasharray:none;stroke-opacity:1"
       d="m 193.34759,195.0779 -1.934,-13.765 13.764,-1.934 1.935,13.764 z"
       id="path5842" /><path
       style="font-size:12px;fill:none;fill-rule:evenodd;stroke:#ff0000;stroke-width:0.2;stroke-linecap:round;stroke-dasharray:none;stroke-opacity:1"
       d="m 248.56259,205.6779 v -13.9 h 13.9 v 13.9 z"
       id="path5840" /><path
       style="font-size:12px;fill:none;fill-rule:evenodd;stroke:#ff0000;stroke-width:0.2;stroke-linecap:round;stroke-dasharray:none;stroke-opacity:1"
       d="m 214.56259,205.6779 v -13.9 h 13.9 v 13.9 z"
       id="path5838" /><path
       style="font-size:12px;fill:none;fill-rule:evenodd;stroke:#ff0000;stroke-width:0.2;stroke-linecap:round;stroke-dasharray:none;stroke-opacity:1"
       d="m 252.81259,223.6779 v -13.9 h 13.9 v 13.9 z"
       id="path5836" /><path
       style="font-size:12px;fill:none;fill-rule:evenodd;stroke:#ff0000;stroke-width:0.2;stroke-linecap:round;stroke-dasharray:none;stroke-opacity:1"
       d="m 235.81259,223.6779 v -13.9 h 13.9 v 13.9 z"
       id="path5834" /><path
       style="font-size:12px;fill:none;fill-rule:evenodd;stroke:#ff0000;stroke-width:0.2;stroke-linecap:round;stroke-dasharray:none;stroke-opacity:1"
       d="m 244.31259,241.6779 v -13.9 h 13.9 v 13.9 z"
       id="path5832" /><path
       style="font-size:12px;fill:none;fill-rule:evenodd;stroke:#ff0000;stroke-width:0.2;stroke-linecap:round;stroke-dasharray:none;stroke-opacity:1"
       d="m 244.31259,187.6779 v -13.9 h 13.9 v 13.9 z"
       id="path5830" /><path
       style="font-size:12px;fill:none;fill-rule:evenodd;stroke:#ff0000;stroke-width:0.2;stroke-linecap:round;stroke-dasharray:none;stroke-opacity:1"
       d="m 231.56259,205.6779 v -13.9 h 13.9 v 13.9 z"
       id="path5828" /><path
       style="font-size:12px;fill:none;fill-rule:evenodd;stroke:#ff0000;stroke-width:0.2;stroke-linecap:round;stroke-dasharray:none;stroke-opacity:1"
       d="m 218.81259,223.6779 v -13.9 h 13.9 v 13.9 z"
       id="path5826" /><path
       style="font-size:12px;fill:none;fill-rule:evenodd;stroke:#ff0000;stroke-width:0.2;stroke-linecap:round;stroke-dasharray:none;stroke-opacity:1"
       d="m 227.31259,241.6779 v -13.9 h 13.9 v 13.9 z"
       id="path5824" /><path
       style="font-size:12px;fill:none;fill-rule:evenodd;stroke:#ff0000;stroke-width:0.2;stroke-linecap:round;stroke-dasharray:none;stroke-opacity:1"
       d="m 210.31259,241.6779 v -13.9 h 13.9 v 13.9 z"
       id="path5822" /><path
       style="font-size:12px;fill:none;fill-rule:evenodd;stroke:#ff0000;stroke-width:0.2;stroke-linecap:round;stroke-dasharray:none;stroke-opacity:1"
       d="m 227.31259,187.6779 v -13.9 h 13.9 v 13.9 z"
       id="path5820" /><path
       style="font-size:12px;fill:none;fill-rule:evenodd;stroke:#ff0000;stroke-width:0.2;stroke-linecap:round;stroke-dasharray:none;stroke-opacity:1"
       d="m 210.31259,187.6779 v -13.9 h 13.9 v 13.9 z"
       id="path5818" /><path
       style="font-size:12px;fill:none;fill-rule:evenodd;stroke:#000000;stroke-width:0.2;stroke-linecap:round;stroke-dasharray:none;stroke-opacity:1"
       d="m 190.07359,197.1269 -5.256,-37.395 a 1,1 0 0 1 0.852,-1.13 l 12.515,-1.759 a 1,1 0 0 1 0.257,-0.072 l 7.827,-1.1 a 39.9,39.9 0 0 0 24.883,9.726 h 2.49 a 39.9,39.9 0 0 0 0.495,-0.019 l 0.002,0.019 h 39.935 a 1,1 0 0 1 1,1 v 105 a 1,1 0 0 1 -1,1 h -10.25 v -2 h 5.25 v -23.5 h -3.5 v -0.6 h -13 v 0.6 h -3.5 v 23.5 h 5.25 v 2 h -63.25 a 1,1 0 0 1 -1,-1 z"
       id="path5446-5" /><g
       transform="rotate(90,28.028,241.488)"
       id="g7838"
       style="fill:none;stroke:#00ff00;stroke-linecap:round;stroke-linejoin:round;stroke-opacity:1"><path
         d="M 220,662 V 0 m 0,662 h 284 l 94,-32 32,-32 32,-62 V 472 L 630,410 598,378 504,346 H 220 M 441,346 662,0"
         style="stroke:#00ff00;stroke-width:0.5331in;stroke-opacity:1"
         transform="scale(0.003175,-0.003175)"
         id="path7832" /><path
         d="M 378,662 284,630 220,536 189,378 V 284 L 220,126 284,31.5 378,0 h 63 l 95,31.5 62,94.5 32,158 v 94 l -32,158 -62,94 -95,32 h -63"
         style="stroke:#00ff00;stroke-width:0.5331in;stroke-opacity:1"
         transform="matrix(0.003175,0,0,-0.003175,2.10185,0)"
         id="path7834" /><path
         d="m 346,662 -94,-32 -32,-63 v -63 l 32,-63 63,-31 126,-32 95,-32 62,-62 32,-64 V 126 L 598,63 567,31.5 472,0 H 346 L 252,31.5 220,63 189,126 v 94 l 31,64 64,62 94,32 126,32 63,31 31,63 v 63 l -31,63 -95,32 H 346"
         style="stroke:#00ff00;stroke-width:0.5331in;stroke-opacity:1"
         transform="matrix(0.003175,0,0,-0.003175,4.1021,0)"
         id="path7836" /></g></g><g
     id="g8579"
     transform="translate(-4.3931758,-153.12334)"><path
       style="font-size:12px;fill:none;fill-rule:evenodd;stroke:#ff0000;stroke-width:0.2;stroke-linecap:round;stroke-dasharray:none;stroke-opacity:1"
       d="m 327.55644,260.96693 -1.935,-13.765 -13.765,1.935 1.935,13.765 z"
       id="path5886" /><path
       style="font-size:12px;fill:none;fill-rule:evenodd;stroke:#ff0000;stroke-width:0.2;stroke-linecap:round;stroke-dasharray:none;stroke-opacity:1"
       d="m 344.39044,258.60093 -1.934,-13.765 -13.765,1.935 1.934,13.765 z"
       id="path5884" /><path
       style="font-size:12px;fill:none;fill-rule:evenodd;stroke:#ff0000;stroke-width:0.2;stroke-linecap:round;stroke-dasharray:none;stroke-opacity:1"
       d="m 361.22544,256.23493 -1.935,-13.765 -13.765,1.935 1.935,13.765 z"
       id="path5882" /><path
       style="font-size:12px;fill:none;fill-rule:evenodd;stroke:#ff0000;stroke-width:0.2;stroke-linecap:round;stroke-dasharray:none;stroke-opacity:1"
       d="m 365.64544,175.68593 1.935,-13.765 -13.765,-1.934 -1.935,13.764 z"
       id="path5880" /><path
       style="font-size:12px;fill:none;fill-rule:evenodd;stroke:#ff0000;stroke-width:0.2;stroke-linecap:round;stroke-dasharray:none;stroke-opacity:1"
       d="m 363.00144,194.50093 1.934,-13.765 -13.764,-1.934 -1.935,13.764 z"
       id="path5878" /><path
       style="font-size:12px;fill:none;fill-rule:evenodd;stroke:#ff0000;stroke-width:0.2;stroke-linecap:round;stroke-dasharray:none;stroke-opacity:1"
       d="m 307.78644,205.10093 v -13.9 h -13.9 v 13.9 z"
       id="path5876" /><path
       style="font-size:12px;fill:none;fill-rule:evenodd;stroke:#ff0000;stroke-width:0.2;stroke-linecap:round;stroke-dasharray:none;stroke-opacity:1"
       d="m 341.78644,205.10093 v -13.9 h -13.9 v 13.9 z"
       id="path5874" /><path
       style="font-size:12px;fill:none;fill-rule:evenodd;stroke:#ff0000;stroke-width:0.2;stroke-linecap:round;stroke-dasharray:none;stroke-opacity:1"
       d="m 303.53644,223.10093 v -13.9 h -13.9 v 13.9 z"
       id="path5872" /><path
       style="font-size:12px;fill:none;fill-rule:evenodd;stroke:#ff0000;stroke-width:0.2;stroke-linecap:round;stroke-dasharray:none;stroke-opacity:1"
       d="m 320.53644,223.10093 v -13.9 h -13.9 v 13.9 z"
       id="path5870" /><path
       style="font-size:12px;fill:none;fill-rule:evenodd;stroke:#ff0000;stroke-width:0.2;stroke-linecap:round;stroke-dasharray:none;stroke-opacity:1"
       d="m 312.03644,241.10093 v -13.9 h -13.9 v 13.9 z"
       id="path5868" /><path
       style="font-size:12px;fill:none;fill-rule:evenodd;stroke:#ff0000;stroke-width:0.2;stroke-linecap:round;stroke-dasharray:none;stroke-opacity:1"
       d="m 312.03644,187.10093 v -13.9 h -13.9 v 13.9 z"
       id="path5866" /><path
       style="font-size:12px;fill:none;fill-rule:evenodd;stroke:#ff0000;stroke-width:0.2;stroke-linecap:round;stroke-dasharray:none;stroke-opacity:1"
       d="m 324.78644,205.10093 v -13.9 h -13.9 v 13.9 z"
       id="path5864" /><path
       style="font-size:12px;fill:none;fill-rule:evenodd;stroke:#ff0000;stroke-width:0.2;stroke-linecap:round;stroke-dasharray:none;stroke-opacity:1"
       d="m 337.53644,223.10093 v -13.9 h -13.9 v 13.9 z"
       id="path5862" /><path
       style="font-size:12px;fill:none;fill-rule:evenodd;stroke:#ff0000;stroke-width:0.2;stroke-linecap:round;stroke-dasharray:none;stroke-opacity:1"
       d="m 329.03644,241.10093 v -13.9 h -13.9 v 13.9 z"
       id="path5860" /><path
       style="font-size:12px;fill:none;fill-rule:evenodd;stroke:#ff0000;stroke-width:0.2;stroke-linecap:round;stroke-dasharray:none;stroke-opacity:1"
       d="m 346.03644,241.10093 v -13.9 h -13.9 v 13.9 z"
       id="path5858" /><path
       style="font-size:12px;fill:none;fill-rule:evenodd;stroke:#ff0000;stroke-width:0.2;stroke-linecap:round;stroke-dasharray:none;stroke-opacity:1"
       d="m 329.03644,187.10093 v -13.9 h -13.9 v 13.9 z"
       id="path5856" /><path
       style="font-size:12px;fill:none;fill-rule:evenodd;stroke:#ff0000;stroke-width:0.2;stroke-linecap:round;stroke-dasharray:none;stroke-opacity:1"
       d="m 346.03644,187.10093 v -13.9 h -13.9 v 13.9 z"
       id="path5854" /><path
       style="font-size:12px;fill:none;fill-rule:evenodd;stroke:#000000;stroke-width:0.2;stroke-linecap:round;stroke-dasharray:none;stroke-opacity:1"
       d="m 366.27544,196.54993 5.256,-37.395 a 1,1 0 0 0 -0.852,-1.13 l -12.515,-1.759 a 1,1 0 0 0 -0.257,-0.072 l -7.827,-1.1 a 39.9,39.9 0 0 1 -24.883,9.726 h -2.49 a 39.9,39.9 0 0 1 -0.495,-0.019 l -0.002,0.019 h -39.935 a 1,1 0 0 0 -1,1 v 105 a 1,1 0 0 0 1,1 h 10.25 v -2 h -5.25 v -23.5 h 3.5 v -0.6 h 13 v 0.6 h 3.5 v 23.5 h -5.25 v 2 h 63.25 a 1,1 0 0 0 1,-1 z"
       id="path5446" /><g
       transform="rotate(-90,252.801,-33.922)"
       id="g7848"
       style="fill:none;stroke:#00ff00;stroke-linecap:round;stroke-linejoin:round;stroke-opacity:1"><path
         d="M 220,662 V 0 m 0,0 h 378"
         style="stroke:#00ff00;stroke-width:0.5331in;stroke-opacity:1"
         transform="scale(0.003175,-0.003175)"
         id="path7842" /><path
         d="M 378,662 284,630 220,536 189,378 V 284 L 220,126 284,31.5 378,0 h 63 l 95,31.5 62,94.5 32,158 v 94 l -32,158 -62,94 -95,32 h -63"
         style="stroke:#00ff00;stroke-width:0.5331in;stroke-opacity:1"
         transform="matrix(0.003175,0,0,-0.003175,1.7018,0)"
         id="path7844" /><path
         d="m 346,662 -94,-32 -32,-63 v -63 l 32,-63 63,-31 126,-32 95,-32 62,-62 32,-64 V 126 L 598,63 567,31.5 472,0 H 346 L 252,31.5 220,63 189,126 v 94 l 31,64 64,62 94,32 126,32 63,31 31,63 v 63 l -31,63 -95,32 H 346"
         style="stroke:#00ff00;stroke-width:0.5331in;stroke-opacity:1"
         transform="matrix(0.003175,0,0,-0.003175,3.70205,0)"
         id="path7846" /></g></g><g
     id="g2990"
     transform="translate(-91.154302,-188.20847)"><path
       style="font-size:12px;fill:none;fill-rule:evenodd;stroke:#ff0000;stroke-width:0.2;stroke-linecap:round;stroke-dasharray:none;stroke-opacity:1"
       d="m 267.57056,195.43351 a 1.5,1.5 0 0 0 0,3 1.5,1.5 0 0 0 0,-3 z"
       id="path2366" /><path
       style="font-size:12px;fill:none;fill-rule:evenodd;stroke:#ff0000;stroke-width:0.2;stroke-linecap:round;stroke-dasharray:none;stroke-opacity:1"
       d="M 267.57056,196.93351"
       id="path2364" /><path
       style="font-size:12px;fill:none;fill-rule:evenodd;stroke:#ff0000;stroke-width:0.2;stroke-linecap:round;stroke-dasharray:none;stroke-opacity:1"
       d="m 270.57056,285.60052 a 1.5,1.5 0 0 0 0,3 1.5,1.5 0 0 0 0,-3 z"
       id="path2362" /><path
       style="font-size:12px;fill:none;fill-rule:evenodd;stroke:#ff0000;stroke-width:0.2;stroke-linecap:round;stroke-dasharray:none;stroke-opacity:1"
       d="M 270.57056,287.10052"
       id="path2360" /><path
       style="font-size:12px;fill:none;fill-rule:evenodd;stroke:#ff0000;stroke-width:0.2;stroke-linecap:round;stroke-dasharray:none;stroke-opacity:1"
       d="m 249.27057,297.63352 a 1.5,1.5 0 0 0 0,3 1.5,1.5 0 0 0 0,-3 z"
       id="path2358" /><path
       style="font-size:12px;fill:none;fill-rule:evenodd;stroke:#ff0000;stroke-width:0.2;stroke-linecap:round;stroke-dasharray:none;stroke-opacity:1"
       d="M 249.27057,299.13352"
       id="path2356" /><path
       style="font-size:12px;fill:none;fill-rule:evenodd;stroke:#ff0000;stroke-width:0.2;stroke-linecap:round;stroke-dasharray:none;stroke-opacity:1"
       d="m 189.17057,295.83352 a 1.5,1.5 0 0 0 0,3 1.5,1.5 0 0 0 0,-3 z"
       id="path2354" /><path
       style="font-size:12px;fill:none;fill-rule:evenodd;stroke:#ff0000;stroke-width:0.2;stroke-linecap:round;stroke-dasharray:none;stroke-opacity:1"
       d="M 189.17057,297.33352"
       id="path2352" /><path
       style="font-size:12px;fill:none;fill-rule:evenodd;stroke:#ff0000;stroke-width:0.2;stroke-linecap:round;stroke-dasharray:none;stroke-opacity:1"
       d="m 189.17057,195.43351 a 1.5,1.5 0 0 0 0,3 1.5,1.5 0 0 0 0,-3 z"
       id="path2350" /><path
       style="font-size:12px;fill:none;fill-rule:evenodd;stroke:#ff0000;stroke-width:0.2;stroke-linecap:round;stroke-dasharray:none;stroke-opacity:1"
       d="M 189.17057,196.93351"
       id="path2348" /><path
       style="font-size:12px;fill:none;fill-rule:evenodd;stroke:#ff0000;stroke-width:0.2;stroke-linecap:round;stroke-dasharray:none;stroke-opacity:1"
       d="m 260.87057,243.03352 a 5.1,5.1 0 0 0 0,10.2 5.1,5.1 0 0 0 0,-10.2 z"
       id="path2346" /><path
       style="font-size:12px;fill:none;fill-rule:evenodd;stroke:#ff0000;stroke-width:0.2;stroke-linecap:round;stroke-dasharray:none;stroke-opacity:1"
       d="M 260.87057,248.13352"
       id="path2344" /><path
       style="font-size:12px;fill:none;fill-rule:evenodd;stroke:#ff0000;stroke-width:0.2;stroke-linecap:round;stroke-dasharray:none;stroke-opacity:1"
       d="m 232.15157,204.48651 -1.935,13.765 -1.436,-0.202 -0.104,0.743 -10.893,-1.531 0.104,-0.743 -1.436,-0.202 1.935,-13.765 1.436,0.202 0.104,-0.742 10.893,1.531 -0.104,0.742 z"
       id="path2342" /><path
       style="font-size:12px;fill:none;fill-rule:evenodd;stroke:#ff0000;stroke-width:0.2;stroke-linecap:round;stroke-dasharray:none;stroke-opacity:1"
       d="m 270.24057,289.76752 1.935,13.765 -1.436,0.202 0.104,0.742 -10.893,1.531 -0.104,-0.742 -1.436,0.201 -1.935,-13.764 1.436,-0.202 -0.104,-0.743 10.893,-1.531 0.104,0.743 z"
       id="path2340" /><path
       style="font-size:12px;fill:none;fill-rule:evenodd;stroke:#ff0000;stroke-width:0.2;stroke-linecap:round;stroke-dasharray:none;stroke-opacity:1"
       d="m 248.98557,206.85251 -1.934,13.765 -1.436,-0.202 -0.105,0.743 -10.893,-1.531 0.105,-0.743 -1.436,-0.202 1.934,-13.765 1.436,0.202 0.105,-0.742 10.893,1.53 -0.105,0.743 z"
       id="path2338" /><path
       style="font-size:12px;fill:none;fill-rule:evenodd;stroke:#ff0000;stroke-width:0.2;stroke-linecap:round;stroke-dasharray:none;stroke-opacity:1"
       d="m 265.82057,209.21851 -1.935,13.765 -1.436,-0.202 -0.104,0.743 -10.893,-1.531 0.104,-0.743 -1.436,-0.202 1.935,-13.765 1.436,0.202 0.104,-0.743 10.893,1.531 -0.104,0.743 z"
       id="path2336" /><path
       style="font-size:12px;fill:none;fill-rule:evenodd;stroke:#ff0000;stroke-width:0.2;stroke-linecap:round;stroke-dasharray:none;stroke-opacity:1"
       d="m 267.59657,270.95252 1.934,13.765 -1.436,0.202 0.105,0.742 -10.893,1.531 -0.105,-0.743 -1.435,0.202 -1.935,-13.764 1.436,-0.202 -0.104,-0.743 10.893,-1.531 0.104,0.743 z"
       id="path2334" /><path
       style="font-size:12px;fill:none;fill-rule:evenodd;stroke:#ff0000;stroke-width:0.2;stroke-linecap:round;stroke-dasharray:none;stroke-opacity:1"
       d="m 216.63157,224.35251 v 13.90001 h -1.45 v 0.75 h -11 v -0.75 h -1.45 v -13.90001 h 1.45 v -0.75 h 11 v 0.75 z"
       id="path2332" /><path
       style="font-size:12px;fill:none;fill-rule:evenodd;stroke:#ff0000;stroke-width:0.2;stroke-linecap:round;stroke-dasharray:none;stroke-opacity:1"
       d="m 208.13157,242.35252 v 13.9 h -1.45 v 0.75 h -11 v -0.75 h -1.45 v -13.9 h 1.45 v -0.75 h 11 v 0.75 z"
       id="path2330" /><path
       style="font-size:12px;fill:none;fill-rule:evenodd;stroke:#ff0000;stroke-width:0.2;stroke-linecap:round;stroke-dasharray:none;stroke-opacity:1"
       d="m 225.13157,242.35252 v 13.9 h -1.45 v 0.75 h -11 v -0.75 h -1.45 v -13.9 h 1.45 v -0.75 h 11 v 0.75 z"
       id="path2328" /><path
       style="font-size:12px;fill:none;fill-rule:evenodd;stroke:#ff0000;stroke-width:0.2;stroke-linecap:round;stroke-dasharray:none;stroke-opacity:1"
       d="m 212.38157,260.35252 v 13.9 h -1.45 v 0.75 h -11 v -0.75 h -1.45 v -13.9 h 1.45 v -0.75 h 11 v 0.75 z"
       id="path2326" /><path
       style="font-size:12px;fill:none;fill-rule:evenodd;stroke:#ff0000;stroke-width:0.2;stroke-linecap:round;stroke-dasharray:none;stroke-opacity:1"
       d="m 246.38157,260.35252 v 13.9 h -1.45 v 0.75 h -11 v -0.75 h -1.45 v -13.9 h 1.45 v -0.75 h 11 v 0.75 z"
       id="path2324" /><path
       style="font-size:12px;fill:none;fill-rule:evenodd;stroke:#ff0000;stroke-width:0.2;stroke-linecap:round;stroke-dasharray:none;stroke-opacity:1"
       d="m 242.13157,242.35252 v 13.9 h -1.45 v 0.75 h -11 v -0.75 h -1.45 v -13.9 h 1.45 v -0.75 h 11 v 0.75 z"
       id="path2322" /><path
       style="font-size:12px;fill:none;fill-rule:evenodd;stroke:#ff0000;stroke-width:0.2;stroke-linecap:round;stroke-dasharray:none;stroke-opacity:1"
       d="m 233.63157,224.35251 v 13.90001 h -1.45 v 0.75 h -11 v -0.75 h -1.45 v -13.90001 h 1.45 v -0.75 h 11 v 0.75 z"
       id="path2320" /><path
       style="font-size:12px;fill:none;fill-rule:evenodd;stroke:#ff0000;stroke-width:0.2;stroke-linecap:round;stroke-dasharray:none;stroke-opacity:1"
       d="m 250.63157,224.35251 v 13.90001 h -1.45 v 0.75 h -11 v -0.75 h -1.45 v -13.90001 h 1.45 v -0.75 h 11 v 0.75 z"
       id="path2318" /><path
       style="font-size:12px;fill:none;fill-rule:evenodd;stroke:#ff0000;stroke-width:0.2;stroke-linecap:round;stroke-dasharray:none;stroke-opacity:1"
       d="m 233.63157,278.35252 v 13.9 h -1.45 v 0.75 h -11 v -0.75 h -1.45 v -13.9 h 1.45 v -0.75 h 11 v 0.75 z"
       id="path2316" /><path
       style="font-size:12px;fill:none;fill-rule:evenodd;stroke:#ff0000;stroke-width:0.2;stroke-linecap:round;stroke-dasharray:none;stroke-opacity:1"
       d="m 250.63157,278.35252 v 13.9 h -1.45 v 0.75 h -11 v -0.75 h -1.45 v -13.9 h 1.45 v -0.75 h 11 v 0.75 z"
       id="path2314" /><path
       style="font-size:12px;fill:none;fill-rule:evenodd;stroke:#ff0000;stroke-width:0.2;stroke-linecap:round;stroke-dasharray:none;stroke-opacity:1"
       d="m 229.38157,260.35252 v 13.9 h -1.45 v 0.75 h -11 v -0.75 h -1.45 v -13.9 h 1.45 v -0.75 h 11 v 0.75 z"
       id="path2312" /><path
       style="font-size:12px;fill:none;fill-rule:evenodd;stroke:#000000;stroke-width:0.2;stroke-linecap:round;stroke-dasharray:none;stroke-opacity:1"
       d="m 270.87057,268.90352 5.256,37.395 a 1,1 0 0 1 -0.852,1.13 l -12.515,1.759 a 1,1 0 0 1 -0.257,0.072 l -7.827,1.1 a 39.9,39.9 0 0 0 -24.883,-9.726 h -2.49 a 39.9,39.9 0 0 0 -0.495,0.019 l -0.002,-0.019 h -39.935 a 1,1 0 0 1 -1,-1 v -12 h 7 v -0.5 h 9.861 v 5.119 h 1.45 v 0.75 h 11 v -0.75 h 1.45 v -13.9 h -1.45 v -0.75 h -11 v 0.75 h -1.311 v -0.219 h -10 v -0.5 h -7 v -83.00001 a 1,1 0 0 1 1,-1 h 10.25 v 2 h -5.25 v 23.5 h 3.5 v 0.6 h 13 v -0.6 h 3.5 v -23.5 h -5.25 v -2 h 63.25 a 1,1 0 0 1 1,1 v 60.50001 h -6.999 v 0.5 h -10 v 3.5 h -6.001 v 6 h 8 v -0.5 h 8.001 v 0.5 h 6.999 z"
       id="path2139-3" /><g
       transform="rotate(-90,221.84978,29.998063)"
       id="g7828"
       style="fill:none;stroke:#00ff00;stroke-linecap:round;stroke-linejoin:round;stroke-opacity:1"><path
         d="M 220,662 V 0 m 0,662 h 284 l 94,-32 32,-32 32,-62 V 472 L 630,410 598,378 504,346 H 220 M 441,346 662,0"
         style="stroke:#00ff00;stroke-width:0.5331in;stroke-opacity:1"
         transform="scale(0.003175,-0.003175)"
         id="path7822" /><path
         d="M 378,662 284,630 220,536 189,378 V 284 L 220,126 284,31.5 378,0 h 63 l 95,31.5 62,94.5 32,158 v 94 l -32,158 -62,94 -95,32 h -63"
         style="stroke:#00ff00;stroke-width:0.5331in;stroke-opacity:1"
         transform="matrix(0.003175,0,0,-0.003175,2.10185,0)"
         id="path7824" /><path
         d="M 630,662 315,0 M 189,662 h 441"
         style="stroke:#00ff00;stroke-width:0.5331in;stroke-opacity:1"
         transform="matrix(0.003175,0,0,-0.003175,4.1021,0)"
         id="path7826" /></g></g><g
     id="g2955"
     transform="translate(-75.833531,-187.79654)"><path
       style="font-size:12px;fill:none;fill-rule:evenodd;stroke:#ff0000;stroke-width:0.2;stroke-linecap:round;stroke-dasharray:none;stroke-opacity:1"
       d="m 86.832675,195.2845 a 1.5,1.5 0 0 1 0,3 1.5,1.5 0 0 1 0,-3 z"
       id="path2308" /><path
       style="font-size:12px;fill:none;fill-rule:evenodd;stroke:#ff0000;stroke-width:0.2;stroke-linecap:round;stroke-dasharray:none;stroke-opacity:1"
       d="M 86.832675,196.7845"
       id="path2306" /><path
       style="font-size:12px;fill:none;fill-rule:evenodd;stroke:#ff0000;stroke-width:0.2;stroke-linecap:round;stroke-dasharray:none;stroke-opacity:1"
       d="m 83.832675,285.45151 a 1.5,1.5 0 0 1 0,3 1.5,1.5 0 0 1 0,-3 z"
       id="path2304" /><path
       style="font-size:12px;fill:none;fill-rule:evenodd;stroke:#ff0000;stroke-width:0.2;stroke-linecap:round;stroke-dasharray:none;stroke-opacity:1"
       d="M 83.832675,286.95151"
       id="path2302" /><path
       style="font-size:12px;fill:none;fill-rule:evenodd;stroke:#ff0000;stroke-width:0.2;stroke-linecap:round;stroke-dasharray:none;stroke-opacity:1"
       d="m 105.13267,297.48451 a 1.5,1.5 0 0 1 0,3 1.5,1.5 0 0 1 0,-3 z"
       id="path2300" /><path
       style="font-size:12px;fill:none;fill-rule:evenodd;stroke:#ff0000;stroke-width:0.2;stroke-linecap:round;stroke-dasharray:none;stroke-opacity:1"
       d="M 105.13267,298.98451"
       id="path2298" /><path
       style="font-size:12px;fill:none;fill-rule:evenodd;stroke:#ff0000;stroke-width:0.2;stroke-linecap:round;stroke-dasharray:none;stroke-opacity:1"
       d="m 165.23267,295.68451 a 1.5,1.5 0 0 1 0,3 1.5,1.5 0 0 1 0,-3 z"
       id="path2296" /><path
       style="font-size:12px;fill:none;fill-rule:evenodd;stroke:#ff0000;stroke-width:0.2;stroke-linecap:round;stroke-dasharray:none;stroke-opacity:1"
       d="M 165.23267,297.18451"
       id="path2294" /><path
       style="font-size:12px;fill:none;fill-rule:evenodd;stroke:#ff0000;stroke-width:0.2;stroke-linecap:round;stroke-dasharray:none;stroke-opacity:1"
       d="m 165.23267,195.2845 a 1.5,1.5 0 0 1 0,3 1.5,1.5 0 0 1 0,-3 z"
       id="path2292" /><path
       style="font-size:12px;fill:none;fill-rule:evenodd;stroke:#ff0000;stroke-width:0.2;stroke-linecap:round;stroke-dasharray:none;stroke-opacity:1"
       d="M 165.23267,196.7845"
       id="path2290" /><path
       style="font-size:12px;fill:none;fill-rule:evenodd;stroke:#ff0000;stroke-width:0.2;stroke-linecap:round;stroke-dasharray:none;stroke-opacity:1"
       d="m 93.532675,242.88451 a 5.1,5.1 0 0 1 0,10.2 5.1,5.1 0 0 1 0,-10.2 z"
       id="path2288" /><path
       style="font-size:12px;fill:none;fill-rule:evenodd;stroke:#ff0000;stroke-width:0.2;stroke-linecap:round;stroke-dasharray:none;stroke-opacity:1"
       d="M 93.532675,247.98451"
       id="path2286" /><path
       style="font-size:12px;fill:none;fill-rule:evenodd;stroke:#ff0000;stroke-width:0.2;stroke-linecap:round;stroke-dasharray:none;stroke-opacity:1"
       d="m 122.25167,204.3375 1.935,13.765 1.436,-0.202 0.104,0.743 10.893,-1.531 -0.104,-0.743 1.436,-0.202 -1.935,-13.765 -1.436,0.202 -0.104,-0.742 -10.893,1.531 0.104,0.742 z"
       id="path2284" /><path
       style="font-size:12px;fill:none;fill-rule:evenodd;stroke:#ff0000;stroke-width:0.2;stroke-linecap:round;stroke-dasharray:none;stroke-opacity:1"
       d="m 84.162675,289.61851 -1.935,13.765 1.436,0.202 -0.104,0.742 10.893,1.531 0.104,-0.742 1.436,0.201 1.935,-13.764 -1.436,-0.202 0.104,-0.743 -10.893,-1.531 -0.104,0.743 z"
       id="path2282" /><path
       style="font-size:12px;fill:none;fill-rule:evenodd;stroke:#ff0000;stroke-width:0.2;stroke-linecap:round;stroke-dasharray:none;stroke-opacity:1"
       d="m 105.41767,206.7035 1.934,13.765 1.436,-0.202 0.105,0.743 10.893,-1.531 -0.105,-0.743 1.436,-0.202 -1.934,-13.765 -1.436,0.202 -0.105,-0.742 -10.893,1.53 0.105,0.743 z"
       id="path2280" /><path
       style="font-size:12px;fill:none;fill-rule:evenodd;stroke:#ff0000;stroke-width:0.2;stroke-linecap:round;stroke-dasharray:none;stroke-opacity:1"
       d="m 88.582675,209.0695 1.935,13.765 1.436,-0.202 0.104,0.743 10.892995,-1.531 -0.104,-0.743 1.436,-0.202 -1.935,-13.765 -1.436,0.202 -0.104,-0.743 -10.892995,1.531 0.104,0.743 z"
       id="path2278" /><path
       style="font-size:12px;fill:none;fill-rule:evenodd;stroke:#ff0000;stroke-width:0.2;stroke-linecap:round;stroke-dasharray:none;stroke-opacity:1"
       d="m 86.806675,270.80351 -1.934,13.765 1.436,0.202 -0.105,0.742 10.893,1.531 0.105,-0.743 1.435,0.202 1.934995,-13.764 -1.435995,-0.202 0.104,-0.743 -10.893,-1.531 -0.104,0.743 z"
       id="path2276" /><path
       style="font-size:12px;fill:none;fill-rule:evenodd;stroke:#ff0000;stroke-width:0.2;stroke-linecap:round;stroke-dasharray:none;stroke-opacity:1"
       d="m 137.77167,224.2035 v 13.90001 h 1.45 v 0.75 h 11 v -0.75 h 1.45 V 224.2035 h -1.45 v -0.75 h -11 v 0.75 z"
       id="path2274" /><path
       style="font-size:12px;fill:none;fill-rule:evenodd;stroke:#ff0000;stroke-width:0.2;stroke-linecap:round;stroke-dasharray:none;stroke-opacity:1"
       d="m 146.27167,242.20351 v 13.9 h 1.45 v 0.75 h 11 v -0.75 h 1.45 v -13.9 h -1.45 v -0.75 h -11 v 0.75 z"
       id="path2272" /><path
       style="font-size:12px;fill:none;fill-rule:evenodd;stroke:#ff0000;stroke-width:0.2;stroke-linecap:round;stroke-dasharray:none;stroke-opacity:1"
       d="m 129.27167,242.20351 v 13.9 h 1.45 v 0.75 h 11 v -0.75 h 1.45 v -13.9 h -1.45 v -0.75 h -11 v 0.75 z"
       id="path2270" /><path
       style="font-size:12px;fill:none;fill-rule:evenodd;stroke:#ff0000;stroke-width:0.2;stroke-linecap:round;stroke-dasharray:none;stroke-opacity:1"
       d="m 142.02167,260.20351 v 13.9 h 1.45 v 0.75 h 11 v -0.75 h 1.45 v -13.9 h -1.45 v -0.75 h -11 v 0.75 z"
       id="path2268" /><path
       style="font-size:12px;fill:none;fill-rule:evenodd;stroke:#ff0000;stroke-width:0.2;stroke-linecap:round;stroke-dasharray:none;stroke-opacity:1"
       d="m 108.02167,260.20351 v 13.9 h 1.45 v 0.75 h 11 v -0.75 h 1.45 v -13.9 h -1.45 v -0.75 h -11 v 0.75 z"
       id="path2266" /><path
       style="font-size:12px;fill:none;fill-rule:evenodd;stroke:#ff0000;stroke-width:0.2;stroke-linecap:round;stroke-dasharray:none;stroke-opacity:1"
       d="m 112.27167,242.20351 v 13.9 h 1.45 v 0.75 h 11 v -0.75 h 1.45 v -13.9 h -1.45 v -0.75 h -11 v 0.75 z"
       id="path2264" /><path
       style="font-size:12px;fill:none;fill-rule:evenodd;stroke:#ff0000;stroke-width:0.2;stroke-linecap:round;stroke-dasharray:none;stroke-opacity:1"
       d="m 120.77167,224.2035 v 13.90001 h 1.45 v 0.75 h 11 v -0.75 h 1.45 V 224.2035 h -1.45 v -0.75 h -11 v 0.75 z"
       id="path2262" /><path
       style="font-size:12px;fill:none;fill-rule:evenodd;stroke:#ff0000;stroke-width:0.2;stroke-linecap:round;stroke-dasharray:none;stroke-opacity:1"
       d="m 103.77167,224.2035 v 13.90001 h 1.45 v 0.75 h 11 v -0.75 h 1.45 V 224.2035 h -1.45 v -0.75 h -11 v 0.75 z"
       id="path2260" /><path
       style="font-size:12px;fill:none;fill-rule:evenodd;stroke:#ff0000;stroke-width:0.2;stroke-linecap:round;stroke-dasharray:none;stroke-opacity:1"
       d="m 120.77167,278.20351 v 13.9 h 1.45 v 0.75 h 11 v -0.75 h 1.45 v -13.9 h -1.45 v -0.75 h -11 v 0.75 z"
       id="path2258" /><path
       style="font-size:12px;fill:none;fill-rule:evenodd;stroke:#ff0000;stroke-width:0.2;stroke-linecap:round;stroke-dasharray:none;stroke-opacity:1"
       d="m 103.77167,278.20351 v 13.9 h 1.45 v 0.75 h 11 v -0.75 h 1.45 v -13.9 h -1.45 v -0.75 h -11 v 0.75 z"
       id="path2256" /><path
       style="font-size:12px;fill:none;fill-rule:evenodd;stroke:#ff0000;stroke-width:0.2;stroke-linecap:round;stroke-dasharray:none;stroke-opacity:1"
       d="m 125.02167,260.20351 v 13.9 h 1.45 v 0.75 h 11 v -0.75 h 1.45 v -13.9 h -1.45 v -0.75 h -11 v 0.75 z"
       id="path2254" /><path
       style="font-size:12px;fill:none;fill-rule:evenodd;stroke:#000000;stroke-width:0.2;stroke-linecap:round;stroke-dasharray:none;stroke-opacity:1"
       d="m 83.532675,268.75451 -5.256,37.395 a 1,1 0 0 0 0.852,1.13 l 12.515,1.759 a 1,1 0 0 0 0.257,0.072 l 7.827,1.1 a 39.9,39.9 0 0 1 24.882995,-9.726 h 2.49 a 39.9,39.9 0 0 1 0.495,0.019 l 0.002,-0.019 h 39.935 a 1,1 0 0 0 1,-1 v -12 h -7 v -0.5 h -9.861 v 5.119 h -1.45 v 0.75 h -11 v -0.75 h -1.45 v -13.9 h 1.45 v -0.75 h 11 v 0.75 h 1.311 v -0.219 h 10 v -0.5 h 7 V 194.4845 a 1,1 0 0 0 -1,-1 h -10.25 v 2 h 5.25 v 23.5 h -3.5 v 0.6 h -13 v -0.6 h -3.5 v -23.5 h 5.25 v -2 H 84.532675 a 1,1 0 0 0 -1,1 v 60.50001 h 6.999 v 0.5 h 9.999995 v 3.5 h 6.001 v 6 h -7.999995 v -0.5 h -8.001 v 0.5 h -6.999 z"
       id="path2139" /><g
       transform="rotate(90,-41.340583,204.96441)"
       id="g7818"
       style="fill:none;stroke:#00ff00;stroke-linecap:round;stroke-linejoin:round;stroke-opacity:1"><path
         d="M 220,662 V 0 m 0,0 h 378"
         style="stroke:#00ff00;stroke-width:0.5331in;stroke-opacity:1"
         transform="scale(0.003175,-0.003175)"
         id="path7812" /><path
         d="M 378,662 284,630 220,536 189,378 V 284 L 220,126 284,31.5 378,0 h 63 l 95,31.5 62,94.5 32,158 v 94 l -32,158 -62,94 -95,32 h -63"
         style="stroke:#00ff00;stroke-width:0.5331in;stroke-opacity:1"
         transform="matrix(0.003175,0,0,-0.003175,1.7018,0)"
         id="path7814" /><path
         d="M 630,662 315,0 M 189,662 h 441"
         style="stroke:#00ff00;stroke-width:0.5331in;stroke-opacity:1"
         transform="matrix(0.003175,0,0,-0.003175,3.70205,0)"
         id="path7816" /></g></g></svg>
