<?xml version="1.0" encoding="UTF-8" standalone="no"?>
<svg
   width="210mm"
   height="297mm"
   viewBox="0 0 210.00001 297"
   version="1.1"
   id="svg2293"
   sodipodi:docname="duality.svg"
   inkscape:version="1.1.2 (0a00cf5339, 2022-02-04, custom)"
   xmlns:inkscape="http://www.inkscape.org/namespaces/inkscape"
   xmlns:sodipodi="http://sodipodi.sourceforge.net/DTD/sodipodi-0.dtd"
   xmlns="http://www.w3.org/2000/svg"
   xmlns:svg="http://www.w3.org/2000/svg">
  <defs
     id="defs2297" />
  <sodipodi:namedview
     id="namedview2295"
     pagecolor="#ffffff"
     bordercolor="#666666"
     borderopacity="1.0"
     inkscape:pageshadow="2"
     inkscape:pageopacity="0.0"
     inkscape:pagecheckerboard="0"
     inkscape:document-units="mm"
     showgrid="false"
     inkscape:zoom="1.2403147"
     inkscape:cx="488.18257"
     inkscape:cy="389.41731"
     inkscape:window-width="2560"
     inkscape:window-height="1367"
     inkscape:window-x="0"
     inkscape:window-y="0"
     inkscape:window-maximized="1"
     inkscape:current-layer="svg2293" />
  <path
     style="font-size:12px;fill:none;fill-rule:evenodd;stroke:#000000;stroke-width:0.1;stroke-linecap:round;stroke-miterlimit:4;stroke-dasharray:none"
     d="m 66.926498,45.265767 v -3 a 1,1 0 0 0 1,1 h 16 a 1,1 0 0 0 1,-1 v 3 a 1,1 0 0 0 -1,-1 h -16 a 1,1 0 0 0 -1,1 z"
     id="path2358" />
  <path
     style="font-size:12px;fill:none;fill-rule:evenodd;stroke:#000000;stroke-width:0.1;stroke-linecap:round;stroke-miterlimit:4;stroke-dasharray:none"
     d="m 66.926498,27.265767 v -3 a 1,1 0 0 0 1,1 h 16 a 1,1 0 0 0 1,-1 v 3 a 1,1 0 0 0 -1,-1 h -16 a 1,1 0 0 0 -1,1 z"
     id="path2356" />
  <path
     style="font-size:12px;fill:none;fill-rule:evenodd;stroke:#000000;stroke-width:0.1;stroke-linecap:round;stroke-miterlimit:4;stroke-dasharray:none"
     d="m 109.1575,95.160767 13.856,8.000003 a 1,1 0 0 0 1.366,-0.366 l 7.5,-12.991003 a 1,1 0 0 0 -0.366,-1.366 l -13.856,-8 a 1,1 0 0 0 -1.366,0.366 l -7.5,12.991 a 1,1 0 0 0 0.366,1.366 z"
     id="path2354" />
  <path
     style="font-size:12px;fill:none;fill-rule:evenodd;stroke:#000000;stroke-width:0.1;stroke-linecap:round;stroke-miterlimit:4;stroke-dasharray:none"
     d="m 91.580498,90.140767 15.455002,4.141 a 1,1 0 0 0 1.224,-0.707 l 3.883,-14.489 a 1,1 0 0 0 -0.707,-1.225 l -15.455002,-4.141 a 1,1 0 0 0 -1.225,0.707 l -3.882,14.489 a 1,1 0 0 0 0.707,1.225 z"
     id="path2352" />
  <path
     style="font-size:12px;fill:none;fill-rule:evenodd;stroke:#000000;stroke-width:0.1;stroke-linecap:round;stroke-miterlimit:4;stroke-dasharray:none"
     d="m 73.353498,89.840767 h 16 a 1,1 0 0 0 1,-1 v -15 a 1,1 0 0 0 -1,-1 h -16 a 1,1 0 0 0 -1,1 v 15 a 1,1 0 0 0 1,1 z"
     id="path2350" />
  <path
     style="font-size:12px;fill:none;fill-rule:evenodd;stroke:#000000;stroke-width:0.1;stroke-linecap:round;stroke-miterlimit:4;stroke-dasharray:none"
     d="m 49.926498,66.028767 h 16 a 1,1 0 0 0 1,-1 v -15 a 1,1 0 0 0 -1,-1 h -16 a 1,1 0 0 0 -1,1 v 15 a 1,1 0 0 0 1,1 z"
     id="path2348" />
  <path
     style="font-size:12px;fill:none;fill-rule:evenodd;stroke:#000000;stroke-width:0.1;stroke-linecap:round;stroke-miterlimit:4;stroke-dasharray:none"
     d="m 28.930498,45.080767 15.94,-1.394 a 1,1 0 0 0 0.909,-1.084 l -1.308,-14.943 a 1,1 0 0 0 -1.083,-0.909 l -15.939,1.395 a 1,1 0 0 0 -0.909,1.083 l 1.307,14.943 a 1,1 0 0 0 1.083,0.909 z"
     id="path2346" />
  <path
     style="font-size:12px;fill:none;fill-rule:evenodd;stroke:#000000;stroke-width:0.1;stroke-linecap:round;stroke-miterlimit:4;stroke-dasharray:none"
     d="m 30.499498,63.012767 15.939,-1.395 a 1,1 0 0 0 0.909,-1.083 l -1.307,-14.943 a 1,1 0 0 0 -1.083,-0.909 l -15.939,1.394 a 1,1 0 0 0 -0.909,1.084 l 1.307,14.943 a 1,1 0 0 0 1.083,0.909 z"
     id="path2344" />
  <path
     style="font-size:12px;fill:none;fill-rule:evenodd;stroke:#000000;stroke-width:0.1;stroke-linecap:round;stroke-miterlimit:4;stroke-dasharray:none"
     d="m 32.068498,80.943767 15.939,-1.394 a 1,1 0 0 0 0.909,-1.084 l -1.307,-14.943 a 1,1 0 0 0 -1.083,-0.909 l -15.94,1.395 a 1,1 0 0 0 -0.909,1.083 l 1.308,14.943 a 1,1 0 0 0 1.083,0.909 z"
     id="path2342" />
  <path
     style="font-size:12px;fill:none;fill-rule:evenodd;stroke:#000000;stroke-width:0.1;stroke-linecap:round;stroke-miterlimit:4;stroke-dasharray:none"
     d="m 123.8655,48.347767 a 17.5,17.5 0 0 1 35,0 17.5,17.5 0 0 1 -35,0 z"
     id="path2340" />
  <path
     style="font-size:12px;fill:none;fill-rule:evenodd;stroke:#000000;stroke-width:0.1;stroke-linecap:round;stroke-miterlimit:4;stroke-dasharray:none"
     d="M 141.3655,48.347767"
     id="path2338" />
  <path
     style="font-size:12px;fill:none;fill-rule:evenodd;stroke:#000000;stroke-width:0.1;stroke-linecap:round;stroke-miterlimit:4;stroke-dasharray:none"
     d="m 49.926498,48.028767 h 16 a 1,1 0 0 0 1,-1 v 13.237 a 1,1 0 0 0 1,1 h 16 a 1,1 0 0 0 1,-1 v 4.762 a 1,1 0 0 0 1,1 H 101.9265 a 1,1 0 0 0 1,-1 v 2.858 a 1,1 0 0 0 1,1 h 16 a 1,1 0 0 0 1,-1 v -15 a 1,1 0 0 0 -1,-1 h -16 a 1,1 0 0 0 -1,1 v -2.858 a 1,1 0 0 0 -1,-1 H 85.926498 a 1,1 0 0 0 -1,1 v -2.999 a 1,1 0 0 0 1,1 H 101.9265 a 1,1 0 0 0 1,-1 v 2.857 a 1,1 0 0 0 1,1 h 16 a 1,1 0 0 0 1,-1 v -15 a 1,1 0 0 0 -1,-1 h -16 a 1,1 0 0 0 -1,1 v -2.857 a 1,1 0 0 0 -1,-1 H 85.926498 a 1,1 0 0 0 -1,1 v -3 a 1,1 0 0 0 1,1 H 101.9265 a 1,1 0 0 0 1,-1 v 2.857 a 1,1 0 0 0 1,1 h 16 a 1,1 0 0 0 1,-1 v -15 a 1,1 0 0 0 -1,-1 h -16 a 1,1 0 0 0 -1,1 v -2.857 a 1,1 0 0 0 -1,-1 H 85.926498 a 1,1 0 0 0 -1,1 v -4.763 a 1,1 0 0 0 -1,-1 h -16 a 1,1 0 0 0 -1,1 v 4.763 a 1,1 0 0 0 -1,-1 h -16 a 1,1 0 0 0 -1,1 v 15 a 1,1 0 0 0 1,1 h 16 a 1,1 0 0 0 1,-1 v 2.999 a 1,1 0 0 0 -1,-0.999 h -16 a 1,1 0 0 0 -1,1 v 15 a 1,1 0 0 0 1,1 z"
     id="path2290" />
  <g
     id="svgGroup"
     stroke-linecap="round"
     fill-rule="evenodd"
     font-size="12px"
     stroke="#000"
     stroke-width="0.25mm"
     fill="none"
     style="fill:none;stroke:#000000;stroke-width:0.25mm"
     transform="translate(26.436294,7.7380701)">
    <path
       d="M 3.138,55.832 21.069,54.263 22.638,72.195 4.706,73.763 Z M 1.569,37.9 19.5,36.332 21.069,54.263 3.138,55.832 Z M 0,19.969 17.932,18.4 19.5,36.332 1.569,37.9 Z m 22.517,20.794 h 18 v 18 h -18 z m 0,-18 h 18 v 18 h -18 z m 0,-18 h 18 v 18 h -18 z m 18,31.237 h 18 v 18 h -18 z m 0,-18 h 18 v 18 h -18 z m 18,0 V 0 h -18 v 18 z m 0,22.762 h 18 v 18 h -18 z m 0,-17.999 h 18 v 18 h -18 z m 18,0 v -18 h -18 v 18 z m 0,20.857 h 18 v 18 h -18 z m 0,-18 h 18 v 18 h -18 z m 18,0 v -18 h -18 v 18 z M 45.944,64.575 h 18 v 18 h -18 z m 44.688,7.164 15.588,9 -9,15.589 -15.588,-9 z M 68.734,65.212 86.121,69.871 81.462,87.258 64.075,82.599 Z"
       vector-effect="non-scaling-stroke"
       id="path3604" />
  </g>
  <path
     id="path1116-1-2"
     style="fill:none;stroke:#000000;stroke-width:0.1;stroke-linecap:butt;stroke-linejoin:miter;stroke-miterlimit:4;stroke-dasharray:none;stroke-opacity:1"
     d="m 48.953294,30.50108 18,-18.00001 m -18,0 18,18.00001 M 50.979487,14.52793 H 64.959474 V 28.50792 H 50.979487 Z m -2.026193,-2.02686 h 18 v 18.00001 h -18 z" />
  <path
     id="path1116-1-2-5"
     style="fill:none;stroke:#000000;stroke-width:0.1;stroke-linecap:butt;stroke-linejoin:miter;stroke-miterlimit:4;stroke-dasharray:none;stroke-opacity:1"
     d="m 48.953294,48.50108 18,-18.00001 m -18,0 18,18.00001 M 50.979487,32.52793 H 64.959474 V 46.50792 H 50.979487 Z m -2.026193,-2.02686 h 18 v 18.00001 h -18 z" />
  <path
     id="path1116-1-2-9"
     style="fill:none;stroke:#000000;stroke-width:0.1;stroke-linecap:butt;stroke-linejoin:miter;stroke-miterlimit:4;stroke-dasharray:none;stroke-opacity:1"
     d="m 48.953294,66.50107 18,-18.00001 m -18,0 18,18.00001 M 50.979484,50.52792 h 13.97998 v 13.97999 h -13.97998 z m -2.0262,-2.02686 h 18 v 18.00001 h -18 z" />
  <path
     id="path1116-1-2-2"
     style="fill:none;stroke:#000000;stroke-width:0.1;stroke-linecap:butt;stroke-linejoin:miter;stroke-miterlimit:4;stroke-dasharray:none;stroke-opacity:1"
     d="m 66.953294,25.73807 18,-18.0000099 m -18,0 18,18.0000099 M 68.979487,9.7649201 H 82.959474 V 23.74491 H 68.979487 Z m -2.026193,-2.02686 h 18 V 25.73807 h -18 z" />
  <path
     id="path1116-1-2-28"
     style="fill:none;stroke:#000000;stroke-width:0.1;stroke-linecap:butt;stroke-linejoin:miter;stroke-miterlimit:4;stroke-dasharray:none;stroke-opacity:1"
     d="m 66.953294,43.73807 18,-18.00001 m -18,0 18,18.00001 m -15.9738,-15.97315 h 13.97998 v 13.97999 h -13.97998 z m -2.0262,-2.02686 h 18 v 18.00001 h -18 z" />
  <path
     id="path1116-1-2-97"
     style="fill:none;stroke:#000000;stroke-width:0.1;stroke-linecap:butt;stroke-linejoin:miter;stroke-miterlimit:4;stroke-dasharray:none;stroke-opacity:1"
     d="m 66.953294,61.73807 18,-18.00001 m -18,0 18,18.00001 M 68.979487,45.76492 H 82.959474 V 59.74491 H 68.979487 Z m -2.026193,-2.02686 h 18 v 18.00001 h -18 z" />
  <path
     id="path1116-1-2-3"
     style="fill:none;stroke:#000000;stroke-width:0.1;stroke-linecap:butt;stroke-linejoin:miter;stroke-miterlimit:4;stroke-dasharray:none;stroke-opacity:1"
     d="M 84.953294,66.50007 102.95329,48.50006 m -17.999996,0 17.999996,18.00001 M 86.979487,50.52692 H 100.95947 V 64.50691 H 86.979487 Z M 84.953294,48.50006 H 102.95329 V 66.50007 H 84.953294 Z" />
  <path
     id="path1116-1-2-6"
     style="fill:none;stroke:#000000;stroke-width:0.1;stroke-linecap:butt;stroke-linejoin:miter;stroke-miterlimit:4;stroke-dasharray:none;stroke-opacity:1"
     d="M 84.953294,48.50108 102.95329,30.50107 m -17.999996,0 17.999996,18.00001 M 86.979487,32.52793 H 100.95947 V 46.50792 H 86.979487 Z M 84.953294,30.50107 H 102.95329 V 48.50108 H 84.953294 Z" />
  <path
     id="path1116-1-2-1"
     style="fill:none;stroke:#000000;stroke-width:0.1;stroke-linecap:butt;stroke-linejoin:miter;stroke-miterlimit:4;stroke-dasharray:none;stroke-opacity:1"
     d="M 84.953294,30.50107 102.95329,12.50106 m -17.999996,0 17.999996,18.00001 M 86.979487,14.52792 H 100.95947 V 28.50791 H 86.979487 Z M 84.953294,12.50106 H 102.95329 V 30.50107 H 84.953294 Z" />
  <path
     id="path1116-1-2-29"
     style="fill:none;stroke:#000000;stroke-width:0.1;stroke-linecap:butt;stroke-linejoin:miter;stroke-miterlimit:4;stroke-dasharray:none;stroke-opacity:1"
     d="m 102.95329,33.35807 18,-18.00001 m -18,0 18,18.00001 m -15.9738,-15.97315 h 13.97998 v 13.97999 h -13.97998 z m -2.0262,-2.02686 h 18 v 18.00001 h -18 z" />
  <path
     id="path1116-1-2-31"
     style="fill:none;stroke:#000000;stroke-width:0.1;stroke-linecap:butt;stroke-linejoin:miter;stroke-miterlimit:4;stroke-dasharray:none;stroke-opacity:1"
     d="m 102.95329,51.35807 18,-18.00001 m -18,0 18,18.00001 m -15.9738,-15.97315 h 13.97998 v 13.97999 h -13.97998 z m -2.0262,-2.02686 h 18 v 18.00001 h -18 z" />
  <path
     id="path1116-1-2-94"
     style="fill:none;stroke:#000000;stroke-width:0.1;stroke-linecap:butt;stroke-linejoin:miter;stroke-miterlimit:4;stroke-dasharray:none;stroke-opacity:1"
     d="m 102.95329,69.35807 18,-18.00001 m -18,0 18,18.00001 m -15.9738,-15.97315 h 13.97998 v 13.97999 h -13.97998 z m -2.0262,-2.02686 h 18 v 18.00001 h -18 z" />
  <path
     id="path1116-1-2-7"
     style="fill:none;stroke:#000000;stroke-width:0.1;stroke-linecap:butt;stroke-linejoin:miter;stroke-miterlimit:4;stroke-dasharray:none;stroke-opacity:1"
     d="m 72.380294,90.31307 18,-18.00001 m -18,0 18,18.00001 M 74.406487,74.33992 H 88.386474 V 88.31991 H 74.406487 Z m -2.026193,-2.02686 h 18 v 18.00001 h -18 z" />
  <path
     id="path1116-1-2-8"
     style="fill:none;stroke:#000000;stroke-width:0.1;stroke-linecap:butt;stroke-linejoin:miter;stroke-miterlimit:4;stroke-dasharray:none;stroke-opacity:1"
     d="M 90.380294,90.31307 112.4257,77.585138 M 95.039039,72.926396 107.76696,94.971812 M 96.471601,75.408609 109.97523,79.026896 106.35694,92.530529 92.853314,88.912243 Z M 95.039039,72.926396 112.4257,77.585138 107.76696,94.971812 90.380294,90.31307 Z" />
  <path
     id="path1116-1-2-4"
     style="fill:none;stroke:#000000;stroke-width:0.1;stroke-linecap:butt;stroke-linejoin:miter;stroke-miterlimit:4;stroke-dasharray:none;stroke-opacity:1"
     d="m 108.06783,95.066069 24.58848,-6.588464 m -15.58848,-9.000002 6.58846,24.588467 m -5.84715,-21.820058 12.10703,6.989993 -6.99,12.107025 -12.10702,-6.989992 z m -0.74131,-2.768409 15.58848,9.000002 -9.00002,15.588465 -15.58846,-9.000001 z" />
  <path
     id="path1116-1-2-50"
     style="fill:none;stroke:#000000;stroke-width:0.1;stroke-linecap:butt;stroke-linejoin:miter;stroke-miterlimit:4;stroke-dasharray:none;stroke-opacity:1"
     d="M 31.142294,81.50107 47.636658,62.111994 M 29.694943,63.559343 49.08401,80.053721 M 31.877552,65.416719 45.812271,64.29261 46.936379,78.227334 33.001661,79.351441 Z M 29.694943,63.559343 47.636658,62.111994 49.08401,80.053721 31.142294,81.50107 Z" />
  <path
     id="path1116-1-2-50-3"
     style="fill:none;stroke:#000000;stroke-width:0.1;stroke-linecap:butt;stroke-linejoin:miter;stroke-miterlimit:4;stroke-dasharray:none;stroke-opacity:1"
     d="M 29.44193,63.459146 45.936294,44.07007 M 27.994579,45.517419 47.383646,62.011797 M 30.177188,47.374795 44.111907,46.250686 45.236015,60.18541 31.301297,61.309517 Z M 27.994579,45.517419 45.936294,44.07007 47.383646,62.011797 29.44193,63.459146 Z" />
  <path
     id="path1116-1-2-50-6"
     style="fill:none;stroke:#000000;stroke-width:0.1;stroke-linecap:butt;stroke-linejoin:miter;stroke-miterlimit:4;stroke-dasharray:none;stroke-opacity:1"
     d="M 27.87393,45.527146 44.368294,26.13807 M 26.426579,27.585419 45.815646,44.079797 M 28.609188,29.442795 42.543907,28.318686 43.668015,42.25341 29.733297,43.377517 Z M 26.426579,27.585419 44.368294,26.13807 45.815646,44.079797 27.87393,45.527146 Z" />
  <path
     style="font-size:12px;fill:none;fill-rule:evenodd;stroke:#000000;stroke-width:0.1;stroke-linecap:round;stroke-miterlimit:4;stroke-dasharray:none"
     d="m 117.25603,157.07721 v -3 a 1,1 0 0 1 -1,1 h -16 a 1,1 0 0 1 -1.000005,-1 v 3 a 1,1 0 0 1 1.000005,-1 h 16 a 1,1 0 0 1 1,1 z"
     id="path2358-1" />
  <path
     style="font-size:12px;fill:none;fill-rule:evenodd;stroke:#000000;stroke-width:0.1;stroke-linecap:round;stroke-miterlimit:4;stroke-dasharray:none"
     d="m 117.25603,139.07722 v -3 a 1,1 0 0 1 -1,1 h -16 a 1,1 0 0 1 -1.000005,-1 v 3 a 1,1 0 0 1 1.000005,-1 h 16 a 1,1 0 0 1 1,1 z"
     id="path2356-0" />
  <path
     style="font-size:12px;fill:none;fill-rule:evenodd;stroke:#000000;stroke-width:0.1;stroke-linecap:round;stroke-miterlimit:4;stroke-dasharray:none"
     d="m 75.025025,206.97221 -13.856,8 a 1,1 0 0 1 -1.366,-0.366 l -7.5,-12.991 a 1,1 0 0 1 0.366,-1.366 l 13.856,-8 a 1,1 0 0 1 1.366,0.366 l 7.5,12.991 a 1,1 0 0 1 -0.366,1.366 z"
     id="path2354-6" />
  <path
     style="font-size:12px;fill:none;fill-rule:evenodd;stroke:#000000;stroke-width:0.1;stroke-linecap:round;stroke-miterlimit:4;stroke-dasharray:none"
     d="m 92.602025,201.95221 -15.455,4.141 a 1,1 0 0 1 -1.224,-0.707 l -3.883,-14.489 a 1,1 0 0 1 0.707,-1.225 l 15.455,-4.141 a 1,1 0 0 1 1.225,0.707 l 3.882,14.489 a 1,1 0 0 1 -0.707,1.225 z"
     id="path2352-3" />
  <path
     style="font-size:12px;fill:none;fill-rule:evenodd;stroke:#000000;stroke-width:0.1;stroke-linecap:round;stroke-miterlimit:4;stroke-dasharray:none"
     d="M 110.82903,201.65221 H 94.829025 a 1,1 0 0 1 -1,-1 v -15 a 1,1 0 0 1 1,-1 h 16.000005 a 1,1 0 0 1 1,1 v 15 a 1,1 0 0 1 -1,1 z"
     id="path2350-2" />
  <path
     style="font-size:12px;fill:none;fill-rule:evenodd;stroke:#000000;stroke-width:0.1;stroke-linecap:round;stroke-miterlimit:4;stroke-dasharray:none"
     d="m 134.25604,177.84021 h -16.00001 a 1,1 0 0 1 -1,-1 v -15 a 1,1 0 0 1 1,-1 h 16.00001 a 1,1 0 0 1 1,1 v 15 a 1,1 0 0 1 -1,1 z"
     id="path2348-0" />
  <path
     style="font-size:12px;fill:none;fill-rule:evenodd;stroke:#000000;stroke-width:0.1;stroke-linecap:round;stroke-miterlimit:4;stroke-dasharray:none"
     d="m 155.25203,156.89221 -15.93999,-1.394 a 1,1 0 0 1 -0.909,-1.084 l 1.308,-14.94299 a 1,1 0 0 1 1.083,-0.909 l 15.93899,1.395 a 1,1 0 0 1 0.909,1.08299 l -1.307,14.943 a 1,1 0 0 1 -1.083,0.909 z"
     id="path2346-6" />
  <path
     style="font-size:12px;fill:none;fill-rule:evenodd;stroke:#000000;stroke-width:0.1;stroke-linecap:round;stroke-miterlimit:4;stroke-dasharray:none"
     d="m 153.68303,174.82421 -15.93899,-1.395 a 1,1 0 0 1 -0.909,-1.083 l 1.307,-14.943 a 1,1 0 0 1 1.083,-0.909 l 15.93899,1.394 a 1,1 0 0 1 0.909,1.084 l -1.307,14.943 a 1,1 0 0 1 -1.083,0.909 z"
     id="path2344-1" />
  <path
     style="font-size:12px;fill:none;fill-rule:evenodd;stroke:#000000;stroke-width:0.1;stroke-linecap:round;stroke-miterlimit:4;stroke-dasharray:none"
     d="m 152.11403,192.75521 -15.93899,-1.394 a 1,1 0 0 1 -0.909,-1.084 l 1.307,-14.943 a 1,1 0 0 1 1.083,-0.909 l 15.93999,1.395 a 1,1 0 0 1 0.909,1.083 l -1.308,14.943 a 1,1 0 0 1 -1.083,0.909 z"
     id="path2342-5" />
  <path
     style="font-size:12px;fill:none;fill-rule:evenodd;stroke:#000000;stroke-width:0.1;stroke-linecap:round;stroke-miterlimit:4;stroke-dasharray:none"
     d="m 60.317025,160.15921 a 17.500002,17.500002 0 0 0 -35.000003,0 17.500002,17.500002 0 0 0 35.000003,0 z"
     id="path2340-5" />
  <path
     style="font-size:12px;fill:none;fill-rule:evenodd;stroke:#000000;stroke-width:0.1;stroke-linecap:round;stroke-miterlimit:4;stroke-dasharray:none"
     d="M 42.817025,160.15921"
     id="path2338-4" />
  <path
     style="font-size:12px;fill:none;fill-rule:evenodd;stroke:#000000;stroke-width:0.1;stroke-linecap:round;stroke-miterlimit:4;stroke-dasharray:none"
     d="m 134.25604,159.84021 h -16.00001 a 1,1 0 0 1 -1,-1 v 13.237 a 1,1 0 0 1 -1,1 h -16 a 1,1 0 0 1 -1.000005,-1 v 4.762 a 1,1 0 0 1 -1,1 h -16 a 1,1 0 0 1 -1,-1 v 2.858 a 1,1 0 0 1 -1,1 h -16 a 1,1 0 0 1 -1,-1 v -15 a 1,1 0 0 1 1,-1 h 16 a 1,1 0 0 1 1,1 v -2.858 a 1,1 0 0 1 1,-1 h 16 a 1,1 0 0 1 1,1 v -2.999 a 1,1 0 0 1 -1,1 h -16 a 1,1 0 0 1 -1,-1 v 2.857 a 1,1 0 0 1 -1,1 h -16 a 1,1 0 0 1 -1,-1 v -15 a 1,1 0 0 1 1,-1 h 16 a 1,1 0 0 1 1,1 v -2.857 a 1,1 0 0 1 1,-1 h 16 a 1,1 0 0 1 1,1 v -3 a 1,1 0 0 1 -1,1 h -16 a 1,1 0 0 1 -1,-1 v 2.857 a 1,1 0 0 1 -1,1 h -16 a 1,1 0 0 1 -1,-1 v -14.99999 a 1,1 0 0 1 1,-1 h 16 a 1,1 0 0 1 1,1 v -2.857 a 1,1 0 0 1 1,-1 h 16 a 1,1 0 0 1 1,1 v -4.763 a 1,1 0 0 1 1.000005,-1 h 16 a 1,1 0 0 1 1,1 v 4.763 a 1,1 0 0 1 1,-1 h 16.00001 a 1,1 0 0 1 1,1 v 14.99999 a 1,1 0 0 1 -1,1 h -16.00001 a 1,1 0 0 1 -1,-1 v 2.999 a 1,1 0 0 1 1,-0.999 h 16.00001 a 1,1 0 0 1 1,1 v 15 a 1,1 0 0 1 -1,1 z"
     id="path2290-7" />
  <g
     id="svgGroup-6"
     stroke-linecap="round"
     fill-rule="evenodd"
     font-size="12px"
     stroke="#000"
     stroke-width="0.25mm"
     fill="none"
     style="fill:none;stroke:#000000;stroke-width:0.25mm"
     transform="matrix(-1,0,0,1,157.74623,119.54952)">
    <path
       d="M 3.138,55.832 21.069,54.263 22.638,72.195 4.706,73.763 Z M 1.569,37.9 19.5,36.332 21.069,54.263 3.138,55.832 Z M 0,19.969 17.932,18.4 19.5,36.332 1.569,37.9 Z m 22.517,20.794 h 18 v 18 h -18 z m 0,-18 h 18 v 18 h -18 z m 0,-18 h 18 v 18 h -18 z m 18,31.237 h 18 v 18 h -18 z m 0,-18 h 18 v 18 h -18 z m 18,0 V 0 h -18 v 18 z m 0,22.762 h 18 v 18 h -18 z m 0,-17.999 h 18 v 18 h -18 z m 18,0 v -18 h -18 v 18 z m 0,20.857 h 18 v 18 h -18 z m 0,-18 h 18 v 18 h -18 z m 18,0 v -18 h -18 v 18 z M 45.944,64.575 h 18 v 18 h -18 z m 44.688,7.164 15.588,9 -9,15.589 -15.588,-9 z M 68.734,65.212 86.121,69.871 81.462,87.258 64.075,82.599 Z"
       vector-effect="non-scaling-stroke"
       id="path3604-5" />
  </g>
  <path
     id="path1116-1-2-69"
     style="fill:none;stroke:#000000;stroke-width:0.1;stroke-linecap:butt;stroke-linejoin:miter;stroke-miterlimit:4;stroke-dasharray:none;stroke-opacity:1"
     d="m 135.22924,142.31253 -18,-18.00001 m 18,0 -18,18.00001 m 15.97381,-15.97315 h -13.97999 v 13.97999 h 13.97999 z m 2.02619,-2.02686 h -18 v 18.00001 h 18 z" />
  <path
     id="path1116-1-2-5-3"
     style="fill:none;stroke:#000000;stroke-width:0.1;stroke-linecap:butt;stroke-linejoin:miter;stroke-miterlimit:4;stroke-dasharray:none;stroke-opacity:1"
     d="m 135.22924,160.31253 -18,-18.00001 m 18,0 -18,18.00001 m 15.97381,-15.97315 h -13.97999 v 13.97999 h 13.97999 z m 2.02619,-2.02686 h -18 v 18.00001 h 18 z" />
  <path
     id="path1116-1-2-9-7"
     style="fill:none;stroke:#000000;stroke-width:0.1;stroke-linecap:butt;stroke-linejoin:miter;stroke-miterlimit:4;stroke-dasharray:none;stroke-opacity:1"
     d="m 135.22924,178.31252 -18,-18.00001 m 18,0 -18,18.00001 m 15.97381,-15.97315 h -13.97998 v 13.97999 h 13.97998 z m 2.0262,-2.02686 h -18 v 18.00001 h 18 z" />
  <path
     id="path1116-1-2-2-4"
     style="fill:none;stroke:#000000;stroke-width:0.1;stroke-linecap:butt;stroke-linejoin:miter;stroke-miterlimit:4;stroke-dasharray:none;stroke-opacity:1"
     d="M 117.22924,137.54952 99.229235,119.54951 m 18.000005,0 -18.000005,18.00001 m 15.973805,-15.97315 h -13.97998 v 13.97999 h 13.97998 z m 2.0262,-2.02686 H 99.229235 v 18.00001 h 18.000005 z" />
  <path
     id="path1116-1-2-28-5"
     style="fill:none;stroke:#000000;stroke-width:0.1;stroke-linecap:butt;stroke-linejoin:miter;stroke-miterlimit:4;stroke-dasharray:none;stroke-opacity:1"
     d="M 117.22924,155.54952 99.229235,137.54951 m 18.000005,0 -18.000005,18.00001 m 15.973805,-15.97315 h -13.97998 v 13.97999 h 13.97998 z m 2.0262,-2.02686 H 99.229235 v 18.00001 h 18.000005 z" />
  <path
     id="path1116-1-2-97-2"
     style="fill:none;stroke:#000000;stroke-width:0.1;stroke-linecap:butt;stroke-linejoin:miter;stroke-miterlimit:4;stroke-dasharray:none;stroke-opacity:1"
     d="M 117.22924,173.54952 99.229235,155.54951 m 18.000005,0 -18.000005,18.00001 m 15.973805,-15.97315 h -13.97998 v 13.97999 h 13.97998 z m 2.0262,-2.02686 H 99.229235 v 18.00001 h 18.000005 z" />
  <path
     id="path1116-1-2-3-5"
     style="fill:none;stroke:#000000;stroke-width:0.1;stroke-linecap:butt;stroke-linejoin:miter;stroke-miterlimit:4;stroke-dasharray:none;stroke-opacity:1"
     d="m 99.229235,178.31152 -18,-18.00001 m 18,0 -18,18.00001 m 15.9738,-15.97315 h -13.97998 v 13.97999 h 13.97998 z m 2.0262,-2.02686 h -18 v 18.00001 h 18 z" />
  <path
     id="path1116-1-2-6-4"
     style="fill:none;stroke:#000000;stroke-width:0.1;stroke-linecap:butt;stroke-linejoin:miter;stroke-miterlimit:4;stroke-dasharray:none;stroke-opacity:1"
     d="m 99.229235,160.31253 -18,-18.00001 m 18,0 -18,18.00001 m 15.9738,-15.97315 h -13.97998 v 13.97999 h 13.97998 z m 2.0262,-2.02686 h -18 v 18.00001 h 18 z" />
  <path
     id="path1116-1-2-1-7"
     style="fill:none;stroke:#000000;stroke-width:0.1;stroke-linecap:butt;stroke-linejoin:miter;stroke-miterlimit:4;stroke-dasharray:none;stroke-opacity:1"
     d="m 99.229235,142.31252 -18,-18.00001 m 18,0 -18,18.00001 m 15.9738,-15.97315 h -13.97998 v 13.97999 h 13.97998 z m 2.0262,-2.02686 h -18 v 18.00001 h 18 z" />
  <path
     id="path1116-1-2-29-4"
     style="fill:none;stroke:#000000;stroke-width:0.1;stroke-linecap:butt;stroke-linejoin:miter;stroke-miterlimit:4;stroke-dasharray:none;stroke-opacity:1"
     d="m 81.229235,145.16952 -18,-18.00001 m 18,0 -18,18.00001 m 15.9738,-15.97315 h -13.97998 v 13.97999 h 13.97998 z m 2.0262,-2.02686 h -18 v 18.00001 h 18 z" />
  <path
     id="path1116-1-2-31-4"
     style="fill:none;stroke:#000000;stroke-width:0.1;stroke-linecap:butt;stroke-linejoin:miter;stroke-miterlimit:4;stroke-dasharray:none;stroke-opacity:1"
     d="m 81.229235,163.16952 -18,-18.00001 m 18,0 -18,18.00001 m 15.9738,-15.97315 h -13.97998 v 13.97999 h 13.97998 z m 2.0262,-2.02686 h -18 v 18.00001 h 18 z" />
  <path
     id="path1116-1-2-94-3"
     style="fill:none;stroke:#000000;stroke-width:0.1;stroke-linecap:butt;stroke-linejoin:miter;stroke-miterlimit:4;stroke-dasharray:none;stroke-opacity:1"
     d="m 81.229235,181.16952 -18,-18.00001 m 18,0 -18,18.00001 m 15.9738,-15.97315 h -13.97998 v 13.97999 h 13.97998 z m 2.0262,-2.02686 h -18 v 18.00001 h 18 z" />
  <path
     id="path1116-1-2-7-0"
     style="fill:none;stroke:#000000;stroke-width:0.1;stroke-linecap:butt;stroke-linejoin:miter;stroke-miterlimit:4;stroke-dasharray:none;stroke-opacity:1"
     d="M 111.80224,202.12452 93.802235,184.12451 m 18.000005,0 -18.000005,18.00001 M 109.77604,186.15137 H 95.796055 v 13.97999 h 13.979985 z m 2.0262,-2.02686 H 93.802235 v 18.00001 h 18.000005 z" />
  <path
     id="path1116-1-2-8-7"
     style="fill:none;stroke:#000000;stroke-width:0.1;stroke-linecap:butt;stroke-linejoin:miter;stroke-miterlimit:4;stroke-dasharray:none;stroke-opacity:1"
     d="m 93.802235,202.12452 -22.04541,-12.72793 m 17.38666,-4.65875 -12.72792,22.04542 m 11.29536,-19.5632 -13.50363,3.61828 3.61829,13.50364 13.50363,-3.61829 z m 1.43256,-2.48222 -17.38666,4.65875 4.65874,17.38667 17.38667,-4.65874 z" />
  <path
     id="path1116-1-2-4-8"
     style="fill:none;stroke:#000000;stroke-width:0.1;stroke-linecap:butt;stroke-linejoin:miter;stroke-miterlimit:4;stroke-dasharray:none;stroke-opacity:1"
     d="m 76.114695,206.87752 -24.58848,-6.58847 m 15.58848,-9 -6.58846,24.58847 m 5.84715,-21.82006 -12.10703,6.98999 6.99,12.10703 12.10703,-6.99 z m 0.74131,-2.76841 -15.58848,9 9.00002,15.58847 15.58846,-9 z" />
  <path
     id="path1116-1-2-50-68"
     style="fill:none;stroke:#000000;stroke-width:0.1;stroke-linecap:butt;stroke-linejoin:miter;stroke-miterlimit:4;stroke-dasharray:none;stroke-opacity:1"
     d="m 153.04023,193.31252 -16.49435,-19.38908 m 17.94171,1.44735 -19.38907,16.49438 m 17.20646,-14.637 -13.93472,-1.12411 -1.12411,13.93472 13.93472,1.12411 z m 2.18261,-1.85738 -17.94171,-1.44735 -1.44736,17.94173 17.94171,1.44735 z" />
  <path
     id="path1116-1-2-50-3-8"
     style="fill:none;stroke:#000000;stroke-width:0.1;stroke-linecap:butt;stroke-linejoin:miter;stroke-miterlimit:4;stroke-dasharray:none;stroke-opacity:1"
     d="m 154.7406,175.27059 -16.49436,-19.38907 m 17.94171,1.44735 -19.38906,16.49437 m 17.20645,-14.637 -13.93471,-1.12411 -1.12411,13.93473 13.93471,1.1241 z m 2.18261,-1.85737 -17.94171,-1.44735 -1.44735,17.94172 17.94171,1.44735 z" />
  <path
     id="path1116-1-2-50-6-4"
     style="fill:none;stroke:#000000;stroke-width:0.1;stroke-linecap:butt;stroke-linejoin:miter;stroke-miterlimit:4;stroke-dasharray:none;stroke-opacity:1"
     d="m 156.3086,157.33859 -16.49436,-19.38907 m 17.94171,1.44735 -19.38906,16.49437 m 17.20645,-14.637 -13.93471,-1.12411 -1.12411,13.93473 13.93471,1.1241 z m 2.18261,-1.85737 -17.94171,-1.44735 -1.44735,17.94172 17.94171,1.44735 z" />
</svg>
