<svg width="117.033mm" height="92.83mm" viewBox="0 0 117.033 92.83" xmlns="http://www.w3.org/2000/svg"><g id="svgGroup" stroke-linecap="round" fill-rule="evenodd" font-size="9pt" stroke="#000" stroke-width="0.25mm" fill="none" style="stroke:#000;stroke-width:0.25mm;fill:none"><path d="M 1 88.202 L 80.661 88.202 L 113.521 92.82 A 1 1 0 0 0 114.651 91.969 L 117.023 75.085 A 1 1 0 0 0 116.172 73.955 L 108 72.807 L 108 4.202 A 1 1 0 0 0 107 3.202 L 70.65 3.202 A 4 4 0 0 1 67.93 2.134 A 8 8 0 0 0 62.489 0 L 48.489 0 A 8 8 0 0 0 43.049 2.134 A 4 4 0 0 1 40.329 3.202 L 1 3.202 A 1 1 0 0 0 0 4.202 L 0 12.775 L 1.739 12.775 L 1.739 8.525 L 25.239 8.525 L 25.239 26.525 L 1.739 26.525 L 1.739 22.275 L 0 22.275 L 0 87.202 A 1 1 0 0 0 1 88.202 Z M 27.989 84.865 L 59.989 84.865 L 59.989 70.865 L 27.989 70.865 L 27.989 84.865 Z M 13.042 82.608 L 26.906 80.659 L 24.958 66.796 L 11.094 68.744 L 13.042 82.608 Z M 10.391 63.743 L 24.255 61.795 L 22.306 47.931 L 8.443 49.879 L 10.391 63.743 Z M 7.74 44.878 L 21.604 42.93 L 19.655 29.066 L 5.791 31.015 L 7.74 44.878 Z M 60.868 82.87 L 74.732 84.819 L 76.681 70.955 L 62.817 69.006 L 60.868 82.87 Z M 79.683 85.514 L 93.547 87.463 L 95.496 73.599 L 81.632 71.651 L 79.683 85.514 Z M 98.499 88.159 L 112.362 90.107 L 114.311 76.243 L 100.447 74.295 L 98.499 88.159 Z M 29.489 69.625 L 43.489 69.625 L 43.489 55.625 L 29.489 55.625 L 29.489 69.625 Z M 29.489 50.575 L 43.489 50.575 L 43.489 36.575 L 29.489 36.575 L 29.489 50.575 Z M 29.489 31.525 L 43.489 31.525 L 43.489 17.525 L 29.489 17.525 L 29.489 31.525 Z M 48.489 60.1 L 62.489 60.1 L 62.489 46.1 L 48.489 46.1 L 48.489 60.1 Z M 48.489 41.05 L 62.489 41.05 L 62.489 27.05 L 48.489 27.05 L 48.489 41.05 Z M 48.489 22 L 62.489 22 L 62.489 8 L 48.489 8 L 48.489 22 Z M 67.489 64.862 L 81.489 64.862 L 81.489 50.862 L 67.489 50.862 L 67.489 64.862 Z M 67.489 45.812 L 81.489 45.812 L 81.489 31.812 L 67.489 31.812 L 67.489 45.812 Z M 67.489 26.762 L 81.489 26.762 L 81.489 12.762 L 67.489 12.762 L 67.489 26.762 Z M 86.489 67.72 L 100.489 67.72 L 100.489 53.72 L 86.489 53.72 L 86.489 67.72 Z M 86.489 48.67 L 100.489 48.67 L 100.489 34.67 L 86.489 34.67 L 86.489 48.67 Z M 86.489 29.62 L 100.489 29.62 L 100.489 15.62 L 86.489 15.62 L 86.489 29.62 Z M 3 6.202 m -1.5 0 a 1.5 1.5 0 0 1 3 0 a 1.5 1.5 0 0 1 -3 0 z M 105 6.202 m -1.5 0 a 1.5 1.5 0 0 1 3 0 a 1.5 1.5 0 0 1 -3 0 z M 105 71.702 m -1.5 0 a 1.5 1.5 0 0 1 3 0 a 1.5 1.5 0 0 1 -3 0 z M 96.2 86.702 m -1.5 0 a 1.5 1.5 0 0 1 3 0 a 1.5 1.5 0 0 1 -3 0 z M 3 84.702 m -1.5 0 a 1.5 1.5 0 0 1 3 0 a 1.5 1.5 0 0 1 -3 0 z" vector-effect="non-scaling-stroke"/></g></svg>