<svg width="150mm" height="123.523mm" viewBox="0 0 150 123.523" xmlns="http://www.w3.org/2000/svg"><g id="svgGroup" stroke-linecap="round" fill-rule="evenodd" font-size="9pt" stroke="#000" stroke-width="0.25mm" fill="none" style="stroke:#000;stroke-width:0.25mm;fill:none"><path d="M 113.905 2.815 A 130 130 0 0 0 16.455 20.805 A 20 20 0 0 0 9.966 27.643 A 75 75 0 0 0 7.093 96.839 A 20 20 0 0 0 26.382 108.313 A 180 180 0 0 1 106.53 121.971 A 20 20 0 0 0 128.53 117.532 A 75 75 0 0 0 122.408 6.884 A 20 20 0 0 0 113.905 2.815 Z M 12.882 97.58 L 28.821 96.186 A 1 1 0 0 0 29.73 95.103 L 28.644 82.682 A 1 1 0 0 0 29.126 82.806 L 45.126 82.806 A 1 1 0 0 0 46.126 81.806 L 46.126 66.806 A 1 1 0 0 0 45.126 65.806 L 29.126 65.806 A 1 1 0 0 0 28.126 66.806 L 28.126 76.764 L 26.926 63.055 A 1 1 0 0 0 25.843 62.146 L 9.904 63.54 A 1 1 0 0 0 8.995 64.624 L 10.302 79.567 A 1 1 0 0 0 11.386 80.476 L 27.325 79.081 A 1 1 0 0 0 28.126 78.544 L 28.126 79.532 A 1 1 0 0 0 27.34 79.251 L 11.4 80.645 A 1 1 0 0 0 10.491 81.728 L 11.799 96.671 A 1 1 0 0 0 12.882 97.58 Z M 124.93 65.375 m -19.5 0 a 19.5 19.5 0 0 1 39 0 a 19.5 19.5 0 0 1 -39 0 z M 9.889 63.371 L 25.828 61.977 A 1 1 0 0 0 26.737 60.893 L 25.43 45.95 A 1 1 0 0 0 24.347 45.041 L 8.408 46.436 A 1 1 0 0 0 7.498 47.519 L 8.806 62.462 A 1 1 0 0 0 9.889 63.371 Z M 29.126 65.636 L 45.126 65.636 A 1 1 0 0 0 46.126 64.636 L 46.126 49.636 A 1 1 0 0 0 45.126 48.636 L 29.126 48.636 A 1 1 0 0 0 28.126 49.636 L 28.126 64.636 A 1 1 0 0 0 29.126 65.636 Z M 29.126 48.466 L 45.126 48.466 A 1 1 0 0 0 46.126 47.466 L 46.126 32.466 A 1 1 0 0 0 45.126 31.466 L 29.126 31.466 A 1 1 0 0 0 28.126 32.466 L 28.126 47.466 A 1 1 0 0 0 29.126 48.466 Z M 47.306 78.043 L 63.306 78.043 A 1 1 0 0 0 64.306 77.043 L 64.306 62.043 A 1 1 0 0 0 63.306 61.043 L 47.306 61.043 A 1 1 0 0 0 46.306 62.043 L 46.306 77.043 A 1 1 0 0 0 47.306 78.043 Z M 47.306 60.873 L 63.306 60.873 A 1 1 0 0 0 64.306 59.873 L 64.306 44.873 A 1 1 0 0 0 63.306 43.873 L 47.306 43.873 A 1 1 0 0 0 46.306 44.873 L 46.306 59.873 A 1 1 0 0 0 47.306 60.873 Z M 47.306 43.703 L 63.306 43.703 A 1 1 0 0 0 64.306 42.703 L 64.306 27.703 A 1 1 0 0 0 63.306 26.703 L 47.306 26.703 A 1 1 0 0 0 46.306 27.703 L 46.306 42.703 A 1 1 0 0 0 47.306 43.703 Z M 65.486 65.636 L 81.486 65.636 A 1 1 0 0 0 82.486 64.636 L 82.486 49.636 A 1 1 0 0 0 81.486 48.636 L 65.486 48.636 A 1 1 0 0 0 64.486 49.636 L 64.486 64.636 A 1 1 0 0 0 65.486 65.636 Z M 65.486 48.466 L 81.486 48.466 A 1 1 0 0 0 82.486 47.466 L 82.486 32.466 A 1 1 0 0 0 81.486 31.466 L 65.486 31.466 A 1 1 0 0 0 64.486 32.466 L 64.486 47.466 A 1 1 0 0 0 65.486 48.466 Z M 83.666 85.663 L 99.666 85.663 A 1 1 0 0 0 100.666 84.663 L 100.666 69.663 A 1 1 0 0 0 99.666 68.663 L 83.666 68.663 A 1 1 0 0 0 82.666 69.663 L 82.666 84.663 A 1 1 0 0 0 83.666 85.663 Z M 83.666 68.493 L 99.666 68.493 A 1 1 0 0 0 100.666 67.493 L 100.666 52.493 A 1 1 0 0 0 99.666 51.493 L 83.666 51.493 A 1 1 0 0 0 82.666 52.493 L 82.666 67.493 A 1 1 0 0 0 83.666 68.493 Z M 83.666 51.323 L 99.666 51.323 A 1 1 0 0 0 100.666 50.323 L 100.666 35.323 A 1 1 0 0 0 99.666 34.323 L 83.666 34.323 A 1 1 0 0 0 82.666 35.323 L 82.666 50.323 A 1 1 0 0 0 83.666 51.323 Z M 55.961 103.761 L 71.961 103.761 A 1 1 0 0 0 72.961 102.761 L 72.961 87.761 A 1 1 0 0 0 71.961 86.761 L 55.961 86.761 A 1 1 0 0 0 54.961 87.761 L 54.961 102.761 A 1 1 0 0 0 55.961 103.761 Z M 65.486 82.806 L 81.486 82.806 A 1 1 0 0 0 82.486 81.806 L 82.486 66.806 A 1 1 0 0 0 81.486 65.806 L 65.486 65.806 A 1 1 0 0 0 64.486 66.806 L 64.486 81.806 A 1 1 0 0 0 65.486 82.806 Z M 74.188 104.061 L 89.643 108.202 A 1 1 0 0 0 90.868 107.495 L 94.75 93.006 A 1 1 0 0 0 94.043 91.781 L 78.588 87.64 A 1 1 0 0 0 77.363 88.347 L 73.481 102.836 A 1 1 0 0 0 74.188 104.061 Z M 91.765 109.081 L 105.621 117.081 A 1 1 0 0 0 106.987 116.715 L 114.487 103.724 A 1 1 0 0 0 114.121 102.358 L 100.265 94.358 A 1 1 0 0 0 98.899 94.724 L 91.399 107.715 A 1 1 0 0 0 91.765 109.081 Z M 83 10 L 114 10 L 114 7 L 83 7 L 83 10 Z M 83 25 L 114 25 L 114 22 L 83 22 L 83 25 Z M 13.748 95.999 L 27.694 94.779 L 26.474 80.832 L 12.527 82.052 L 13.748 95.999 Z M 12.251 78.894 L 26.198 77.674 L 24.978 63.727 L 11.031 64.948 L 12.251 78.894 Z M 10.755 61.79 L 24.701 60.569 L 23.481 46.623 L 9.534 47.843 L 10.755 61.79 Z M 75.542 102.871 L 89.065 106.494 L 92.689 92.971 L 79.166 89.348 L 75.542 102.871 Z M 56.961 102.261 L 70.961 102.261 L 70.961 88.261 L 56.961 88.261 L 56.961 102.261 Z M 30.126 81.306 L 44.126 81.306 L 44.126 67.306 L 30.126 67.306 L 30.126 81.306 Z M 30.126 64.136 L 44.126 64.136 L 44.126 50.136 L 30.126 50.136 L 30.126 64.136 Z M 30.126 46.966 L 44.126 46.966 L 44.126 32.966 L 30.126 32.966 L 30.126 46.966 Z M 48.306 76.543 L 62.306 76.543 L 62.306 62.543 L 48.306 62.543 L 48.306 76.543 Z M 48.306 59.373 L 62.306 59.373 L 62.306 45.373 L 48.306 45.373 L 48.306 59.373 Z M 48.306 42.203 L 62.306 42.203 L 62.306 28.203 L 48.306 28.203 L 48.306 42.203 Z M 66.486 81.306 L 80.486 81.306 L 80.486 67.306 L 66.486 67.306 L 66.486 81.306 Z M 66.486 64.136 L 80.486 64.136 L 80.486 50.136 L 66.486 50.136 L 66.486 64.136 Z M 66.486 46.966 L 80.486 46.966 L 80.486 32.966 L 66.486 32.966 L 66.486 46.966 Z M 84.666 84.163 L 98.666 84.163 L 98.666 70.163 L 84.666 70.163 L 84.666 84.163 Z M 84.666 66.993 L 98.666 66.993 L 98.666 52.993 L 84.666 52.993 L 84.666 66.993 Z M 84.666 49.823 L 98.666 49.823 L 98.666 35.823 L 84.666 35.823 L 84.666 49.823 Z M 93.381 108.282 L 105.505 115.282 L 112.505 103.157 L 100.381 96.157 L 93.381 108.282 Z M 57 19 L 65 19 A 2 2 0 0 0 67 17 L 67 15 A 2 2 0 0 0 65 13 L 57 13 A 2 2 0 0 0 55 15 L 55 17 A 2 2 0 0 0 57 19 Z M 18 27 m -2.5 0 a 2.5 2.5 0 0 1 5 0 a 2.5 2.5 0 0 1 -5 0 z M 124 15 m -2.5 0 a 2.5 2.5 0 0 1 5 0 a 2.5 2.5 0 0 1 -5 0 z M 22 102 m -2.5 0 a 2.5 2.5 0 0 1 5 0 a 2.5 2.5 0 0 1 -5 0 z M 122 115 m -2.5 0 a 2.5 2.5 0 0 1 5 0 a 2.5 2.5 0 0 1 -5 0 z" vector-effect="non-scaling-stroke"/></g></svg>