<svg width="150mm" height="123.523mm" viewBox="0 0 150 123.523" xmlns="http://www.w3.org/2000/svg"><g id="svgGroup" stroke-linecap="round" fill-rule="evenodd" font-size="9pt" stroke="#000" stroke-width="0.25mm" fill="none" style="stroke:#000;stroke-width:0.25mm;fill:none"><path d="M 113.905 2.815 A 130 130 0 0 0 16.455 20.805 A 20 20 0 0 0 9.966 27.643 A 75 75 0 0 0 7.093 96.839 A 20 20 0 0 0 26.382 108.313 A 180 180 0 0 1 106.53 121.971 A 20 20 0 0 0 128.53 117.532 A 75 75 0 0 0 122.408 6.884 A 20 20 0 0 0 113.905 2.815 Z M 12.882 97.58 L 28.821 96.186 A 1 1 0 0 0 29.73 95.103 L 28.592 82.092 L 44.355 83.471 A 1 1 0 0 0 45.438 82.562 L 46.745 67.619 A 1 1 0 0 0 45.836 66.535 L 29.897 65.141 A 1 1 0 0 0 28.814 66.05 L 28.001 75.338 L 26.926 63.055 A 1 1 0 0 0 25.843 62.146 L 9.904 63.54 A 1 1 0 0 0 8.995 64.624 L 10.302 79.567 A 1 1 0 0 0 11.386 80.476 L 27.325 79.081 A 1 1 0 0 0 27.682 78.981 L 27.657 79.274 A 1 1 0 0 0 27.34 79.251 L 11.4 80.645 A 1 1 0 0 0 10.491 81.728 L 11.799 96.671 A 1 1 0 0 0 12.882 97.58 Z M 129.169 73.394 m -19.5 0 a 19.5 19.5 0 0 1 39 0 a 19.5 19.5 0 0 1 -39 0 z M 66.134 68.141 L 82.073 69.535 A 1 1 0 0 0 83.156 68.626 L 84.463 53.683 A 1 1 0 0 0 83.554 52.6 L 67.615 51.205 A 1 1 0 0 0 66.532 52.114 L 65.225 67.057 A 1 1 0 0 0 66.134 68.141 Z M 29.912 64.972 L 45.851 66.366 A 1 1 0 0 0 46.934 65.457 L 48.242 50.514 A 1 1 0 0 0 47.333 49.431 L 31.394 48.036 A 1 1 0 0 0 30.31 48.945 L 29.003 63.888 A 1 1 0 0 0 29.912 64.972 Z M 46.941 78.916 L 62.88 80.311 A 1 1 0 0 0 63.964 79.402 L 65.271 64.459 A 1 1 0 0 0 64.362 63.376 L 48.423 61.981 A 1 1 0 0 0 47.34 62.89 L 46.032 77.833 A 1 1 0 0 0 46.941 78.916 Z M 48.438 61.812 L 64.377 63.206 A 1 1 0 0 0 65.46 62.297 L 66.768 47.354 A 1 1 0 0 0 65.859 46.271 L 49.919 44.876 A 1 1 0 0 0 48.836 45.785 L 47.529 60.728 A 1 1 0 0 0 48.438 61.812 Z M 49.934 44.707 L 65.873 46.102 A 1 1 0 0 0 66.957 45.193 L 68.264 30.25 A 1 1 0 0 0 67.355 29.166 L 51.416 27.772 A 1 1 0 0 0 50.333 28.681 L 49.025 43.624 A 1 1 0 0 0 49.934 44.707 Z M 64.637 85.245 L 80.576 86.64 A 1 1 0 0 0 81.66 85.731 L 82.967 70.788 A 1 1 0 0 0 82.058 69.704 L 66.119 68.31 A 1 1 0 0 0 65.035 69.219 L 63.728 84.162 A 1 1 0 0 0 64.637 85.245 Z M 67.63 51.036 L 83.569 52.43 A 1 1 0 0 0 84.652 51.521 L 85.96 36.578 A 1 1 0 0 0 85.051 35.495 L 69.112 34.101 A 1 1 0 0 0 68.028 35.01 L 66.721 49.953 A 1 1 0 0 0 67.63 51.036 Z M 82.499 89.676 L 98.438 91.071 A 1 1 0 0 0 99.521 90.162 L 100.829 75.219 A 1 1 0 0 0 99.92 74.136 L 83.981 72.741 A 1 1 0 0 0 82.897 73.65 L 81.59 88.593 A 1 1 0 0 0 82.499 89.676 Z M 83.995 72.572 L 99.934 73.966 A 1 1 0 0 0 101.018 73.057 L 102.325 58.114 A 1 1 0 0 0 101.416 57.031 L 85.477 55.636 A 1 1 0 0 0 84.394 56.545 L 83.086 71.488 A 1 1 0 0 0 83.995 72.572 Z M 85.492 55.467 L 101.431 56.862 A 1 1 0 0 0 102.514 55.952 L 103.822 41.01 A 1 1 0 0 0 102.913 39.926 L 86.973 38.532 A 1 1 0 0 0 85.89 39.441 L 84.583 54.384 A 1 1 0 0 0 85.492 55.467 Z M 57.117 105.622 L 73.057 107.017 A 1 1 0 0 0 74.14 106.108 L 75.447 91.165 A 1 1 0 0 0 74.538 90.082 L 58.599 88.687 A 1 1 0 0 0 57.516 89.596 L 56.208 104.539 A 1 1 0 0 0 57.117 105.622 Z M 9.889 63.371 L 25.828 61.977 A 1 1 0 0 0 26.737 60.893 L 25.43 45.95 A 1 1 0 0 0 24.347 45.041 L 8.408 46.436 A 1 1 0 0 0 7.498 47.519 L 8.806 62.462 A 1 1 0 0 0 9.889 63.371 Z M 31.408 47.867 L 47.347 49.261 A 1 1 0 0 0 48.431 48.352 L 49.738 33.409 A 1 1 0 0 0 48.829 32.326 L 32.89 30.932 A 1 1 0 0 0 31.807 31.841 L 30.499 46.784 A 1 1 0 0 0 31.408 47.867 Z M 92.875 114.055 L 107.376 120.817 A 1 1 0 0 0 108.705 120.333 L 115.044 106.739 A 1 1 0 0 0 114.56 105.41 L 100.06 98.648 A 1 1 0 0 0 98.731 99.132 L 92.391 112.726 A 1 1 0 0 0 92.875 114.055 Z M 75.249 107.51 L 90.284 112.982 A 1 1 0 0 0 91.566 112.384 L 96.696 98.289 A 1 1 0 0 0 96.099 97.007 L 81.064 91.535 A 1 1 0 0 0 79.782 92.133 L 74.652 106.228 A 1 1 0 0 0 75.249 107.51 Z M 83 10 L 114 10 L 114 7 L 83 7 L 83 10 Z M 83 25 L 114 25 L 114 22 L 83 22 L 83 25 Z M 58.244 104.215 L 72.191 105.435 L 73.411 91.489 L 59.465 90.269 L 58.244 104.215 Z M 32.535 46.46 L 46.482 47.68 L 47.702 33.733 L 33.755 32.513 L 32.535 46.46 Z M 67.26 66.733 L 81.207 67.954 L 82.427 54.007 L 68.481 52.787 L 67.26 66.733 Z M 68.757 49.629 L 82.704 50.849 L 83.924 36.902 L 69.977 35.682 L 68.757 49.629 Z M 13.748 95.999 L 27.694 94.779 L 26.474 80.832 L 12.527 82.052 L 13.748 95.999 Z M 12.251 78.894 L 26.198 77.674 L 24.978 63.727 L 11.031 64.948 L 12.251 78.894 Z M 29.542 80.669 L 43.489 81.889 L 44.709 67.943 L 30.763 66.722 L 29.542 80.669 Z M 31.039 63.564 L 44.986 64.785 L 46.206 50.838 L 32.259 49.618 L 31.039 63.564 Z M 48.068 77.509 L 62.015 78.729 L 63.235 64.783 L 49.288 63.563 L 48.068 77.509 Z M 49.565 60.405 L 63.511 61.625 L 64.732 47.678 L 50.785 46.458 L 49.565 60.405 Z M 65.764 83.838 L 79.711 85.058 L 80.931 71.112 L 66.984 69.891 L 65.764 83.838 Z M 83.626 88.269 L 97.573 89.489 L 98.793 75.543 L 84.846 74.323 L 83.626 88.269 Z M 85.122 71.165 L 99.069 72.385 L 100.289 58.438 L 86.342 57.218 L 85.122 71.165 Z M 10.755 61.79 L 24.701 60.569 L 23.481 46.623 L 9.534 47.843 L 10.755 61.79 Z M 51.061 43.3 L 65.008 44.52 L 66.228 30.573 L 52.281 29.353 L 51.061 43.3 Z M 86.619 54.06 L 100.565 55.28 L 101.786 41.333 L 87.839 40.113 L 86.619 54.06 Z M 94.415 113.118 L 107.104 119.035 L 113.02 106.347 L 100.332 100.43 L 94.415 113.118 Z M 76.702 106.442 L 89.858 111.23 L 94.646 98.075 L 81.49 93.286 L 76.702 106.442 Z M 45 19 L 53 19 A 2 2 0 0 0 55 17 L 55 15 A 2 2 0 0 0 53 13 L 45 13 A 2 2 0 0 0 43 15 L 43 17 A 2 2 0 0 0 45 19 Z M 18 27 m -2.5 0 a 2.5 2.5 0 0 1 5 0 a 2.5 2.5 0 0 1 -5 0 z M 124 15 m -2.5 0 a 2.5 2.5 0 0 1 5 0 a 2.5 2.5 0 0 1 -5 0 z M 22 102 m -2.5 0 a 2.5 2.5 0 0 1 5 0 a 2.5 2.5 0 0 1 -5 0 z M 122 115 m -2.5 0 a 2.5 2.5 0 0 1 5 0 a 2.5 2.5 0 0 1 -5 0 z" vector-effect="non-scaling-stroke"/></g></svg>