<svg width="116.433mm" height="92.993mm" viewBox="0 0 116.433 92.993" xmlns="http://www.w3.org/2000/svg"><g id="svgGroup" stroke-linecap="round" fill-rule="evenodd" font-size="9pt" stroke="#000" stroke-width="0.25mm" fill="none" style="stroke:#000;stroke-width:0.25mm;fill:none"><path d="M 1 89.202 L 86.015 89.202 L 112.921 92.983 A 1 1 0 0 0 114.05 92.132 L 116.423 75.248 A 1 1 0 0 0 115.572 74.118 L 108 73.054 L 108 3.202 A 1 1 0 0 0 107 2.202 L 69.417 2.202 A 4 4 0 0 1 67.108 1.468 A 8 8 0 0 0 62.489 0 L 48.489 0 A 8 8 0 0 0 43.871 1.468 A 4 4 0 0 1 41.562 2.202 L 1 2.202 A 1 1 0 0 0 0 3.202 L 0 88.202 A 1 1 0 0 0 1 89.202 Z M 3.05 5.252 m -1.8 0 a 1.8 1.8 0 0 1 3.6 0 a 1.8 1.8 0 0 1 -3.6 0 z M 104.95 5.252 m -1.8 0 a 1.8 1.8 0 0 1 3.6 0 a 1.8 1.8 0 0 1 -3.6 0 z M 104.95 71.802 m -1.8 0 a 1.8 1.8 0 0 1 3.6 0 a 1.8 1.8 0 0 1 -3.6 0 z M 95.8 86.152 m -1.8 0 a 1.8 1.8 0 0 1 3.6 0 a 1.8 1.8 0 0 1 -3.6 0 z M 3.05 86.152 m -1.8 0 a 1.8 1.8 0 0 1 3.6 0 a 1.8 1.8 0 0 1 -3.6 0 z" vector-effect="non-scaling-stroke"/></g></svg>