<svg width="281.607mm" height="105.125mm" viewBox="0 0 281.607 105.125" xmlns="http://www.w3.org/2000/svg"><g id="svgGroup" stroke-linecap="round" fill-rule="evenodd" font-size="9pt" stroke="#000" stroke-width="0.25mm" fill="none" style="stroke:#000;stroke-width:0.25mm;fill:none"><path d="M 14.173 95.128 L 40.978 90.401 L 56.672 93.169 A 2 2 0 0 0 57.082 93.287 L 124.049 105.095 A 2 2 0 0 0 126.366 103.473 L 131.575 73.929 A 2 2 0 0 0 129.953 71.612 L 116.521 69.243 L 116.521 2 A 2 2 0 0 0 114.521 0 L 2.021 0 A 2 2 0 0 0 0.021 2 L 0.021 25.804 A 2 2 0 0 0 0.021 26.381 L 0.021 28 A 2 2 0 0 0 0.543 29.348 L 11.856 93.505 A 2 2 0 0 0 14.173 95.128 Z M 240.629 90.401 L 267.434 95.128 A 2 2 0 0 0 269.751 93.505 L 281.064 29.348 A 2 2 0 0 0 281.586 28 L 281.586 26.381 A 2 2 0 0 0 281.586 25.804 L 281.586 2 A 2 2 0 0 0 279.586 0 L 167.086 0 A 2 2 0 0 0 165.086 2 L 165.086 69.243 L 151.654 71.612 A 2 2 0 0 0 150.032 73.929 L 155.242 103.473 A 2 2 0 0 0 157.559 105.095 L 224.525 93.287 A 2 2 0 0 0 224.935 93.169 L 240.629 90.401 Z M 35.521 67.1 L 49.521 67.1 L 49.521 53.1 L 35.521 53.1 L 35.521 67.1 Z M 35.521 48.05 L 49.521 48.05 L 49.521 34.05 L 35.521 34.05 L 35.521 48.05 Z M 35.521 29 L 49.521 29 L 49.521 15 L 35.521 15 L 35.521 29 Z M 54.521 62.337 L 68.521 62.337 L 68.521 48.337 L 54.521 48.337 L 54.521 62.337 Z M 54.521 43.287 L 68.521 43.287 L 68.521 29.287 L 54.521 29.287 L 54.521 43.287 Z M 54.521 24.237 L 68.521 24.237 L 68.521 10.237 L 54.521 10.237 L 54.521 24.237 Z M 73.521 67.1 L 87.521 67.1 L 87.521 53.1 L 73.521 53.1 L 73.521 67.1 Z M 73.521 48.05 L 87.521 48.05 L 87.521 34.05 L 73.521 34.05 L 73.521 48.05 Z M 73.521 29 L 87.521 29 L 87.521 15 L 73.521 15 L 73.521 29 Z M 92.521 69.958 L 106.521 69.958 L 106.521 55.957 L 92.521 55.957 L 92.521 69.958 Z M 92.521 50.908 L 106.521 50.908 L 106.521 36.908 L 92.521 36.908 L 92.521 50.908 Z M 92.521 31.858 L 106.521 31.858 L 106.521 17.858 L 92.521 17.858 L 92.521 31.858 Z M 232.086 67.1 L 246.086 67.1 L 246.086 53.1 L 232.086 53.1 L 232.086 67.1 Z M 232.086 48.05 L 246.086 48.05 L 246.086 34.05 L 232.086 34.05 L 232.086 48.05 Z M 232.086 29 L 246.086 29 L 246.086 15 L 232.086 15 L 232.086 29 Z M 213.086 62.337 L 227.086 62.337 L 227.086 48.337 L 213.086 48.337 L 213.086 62.337 Z M 213.086 43.287 L 227.086 43.287 L 227.086 29.287 L 213.086 29.287 L 213.086 43.287 Z M 213.086 24.237 L 227.086 24.237 L 227.086 10.237 L 213.086 10.237 L 213.086 24.237 Z M 194.086 67.1 L 208.086 67.1 L 208.086 53.1 L 194.086 53.1 L 194.086 67.1 Z M 194.086 48.05 L 208.086 48.05 L 208.086 34.05 L 194.086 34.05 L 194.086 48.05 Z M 194.086 29 L 208.086 29 L 208.086 15 L 194.086 15 L 194.086 29 Z M 175.086 69.958 L 189.086 69.958 L 189.086 55.957 L 175.086 55.957 L 175.086 69.958 Z M 175.086 50.908 L 189.086 50.908 L 189.086 36.908 L 175.086 36.908 L 175.086 50.908 Z M 175.086 31.858 L 189.086 31.858 L 189.086 17.858 L 175.086 17.858 L 175.086 31.858 Z M 247.505 81.459 L 261.292 83.89 L 263.724 70.103 L 249.936 67.672 L 247.505 81.459 Z M 250.813 62.699 L 264.6 65.13 L 267.032 51.343 L 253.244 48.912 L 250.813 62.699 Z M 201.123 87.259 L 214.91 84.828 L 212.479 71.041 L 198.692 73.472 L 201.123 87.259 Z M 182.412 90.559 L 196.199 88.127 L 193.768 74.34 L 179.981 76.771 L 182.412 90.559 Z M 163.7 93.858 L 177.488 91.427 L 175.057 77.639 L 161.269 80.071 L 163.7 93.858 Z M 13.699 46.369 L 27.486 43.938 L 25.055 30.151 L 11.268 32.582 L 13.699 46.369 Z M 66.697 84.828 L 80.484 87.259 L 82.915 73.472 L 69.128 71.041 L 66.697 84.828 Z M 254.121 43.938 L 267.908 46.369 L 270.34 32.582 L 256.552 30.151 L 254.121 43.938 Z M 20.315 83.89 L 34.102 81.459 L 31.671 67.672 L 17.884 70.103 L 20.315 83.89 Z M 17.007 65.13 L 30.794 62.699 L 28.363 48.912 L 14.576 51.343 L 17.007 65.13 Z M 85.408 88.127 L 99.195 90.559 L 101.626 76.771 L 87.839 74.34 L 85.408 88.127 Z M 104.119 91.427 L 117.907 93.858 L 120.338 80.071 L 106.55 77.639 L 104.119 91.427 Z" vector-effect="non-scaling-stroke"/></g></svg>