<svg width="116.433mm" height="92.993mm" viewBox="0 0 116.433 92.993" xmlns="http://www.w3.org/2000/svg"><g id="svgGroup" stroke-linecap="round" fill-rule="evenodd" font-size="9pt" stroke="#000" stroke-width="0.25mm" fill="none" style="stroke:#000;stroke-width:0.25mm;fill:none"><path d="M 13.042 83.608 L 26.906 81.659 L 26.489 78.688 L 35.489 77.423 L 35.489 87.625 L 67.489 87.625 L 67.489 77.989 L 79.918 79.736 L 79.083 85.678 L 92.947 87.626 L 93.782 81.684 L 98.734 82.38 L 97.898 88.322 L 111.762 90.27 L 113.711 76.407 L 43.489 66.538 L 43.489 59.202 L 48.489 59.202 L 48.489 61.1 L 62.489 61.1 L 62.489 59.202 L 67.489 59.202 L 67.489 65.862 L 81.489 65.862 L 81.489 59.202 L 86.489 59.202 L 86.489 68.72 L 100.489 68.72 L 100.489 54.72 L 93 54.72 L 93 49.67 L 100.489 49.67 L 100.489 35.67 L 93 35.67 L 93 30.62 L 100.489 30.62 L 100.489 16.62 L 93 16.62 L 93 12.202 L 62.489 12.202 L 62.489 9 L 48.489 9 L 48.489 12.202 L 25.167 12.202 L 25.167 7.402 L 1.667 7.402 L 1.667 25.402 L 15 25.402 L 15 30.721 L 5.791 32.015 L 7.74 45.878 L 15 44.858 L 15 49.958 L 8.443 50.879 L 10.391 64.743 L 24.255 62.795 L 23.75 59.202 L 29.489 59.202 L 29.489 70.188 L 25.375 70.766 L 24.958 67.796 L 11.094 69.744 L 13.042 83.608 Z M 1 89.202 L 86.015 89.202 L 112.921 92.983 A 1 1 0 0 0 114.05 92.132 L 116.423 75.248 A 1 1 0 0 0 115.572 74.118 L 108 73.054 L 108 3.202 A 1 1 0 0 0 107 2.202 L 69.417 2.202 A 4 4 0 0 1 67.108 1.468 A 8 8 0 0 0 62.489 0 L 48.489 0 A 8 8 0 0 0 43.871 1.468 A 4 4 0 0 1 41.562 2.202 L 1 2.202 A 1 1 0 0 0 0 3.202 L 0 88.202 A 1 1 0 0 0 1 89.202 Z M 3.05 5.252 m -1.5 0 a 1.5 1.5 0 0 1 3 0 a 1.5 1.5 0 0 1 -3 0 z M 104.95 5.252 m -1.5 0 a 1.5 1.5 0 0 1 3 0 a 1.5 1.5 0 0 1 -3 0 z M 104.95 71.802 m -1.5 0 a 1.5 1.5 0 0 1 3 0 a 1.5 1.5 0 0 1 -3 0 z M 95.8 86.152 m -1.5 0 a 1.5 1.5 0 0 1 3 0 a 1.5 1.5 0 0 1 -3 0 z M 3.05 86.152 m -1.5 0 a 1.5 1.5 0 0 1 3 0 a 1.5 1.5 0 0 1 -3 0 z" vector-effect="non-scaling-stroke"/></g></svg>