<svg width="117.033mm" height="92.83mm" viewBox="0 0 117.033 92.83" xmlns="http://www.w3.org/2000/svg"><g id="svgGroup" stroke-linecap="round" fill-rule="evenodd" font-size="9pt" stroke="#000" stroke-width="0.25mm" fill="none" style="stroke:#000;stroke-width:0.25mm;fill:none"><path d="M 1 88.202 L 80.661 88.202 L 113.521 92.82 A 1 1 0 0 0 114.651 91.969 L 117.023 75.085 A 1 1 0 0 0 116.172 73.955 L 108 72.807 L 108 4.202 A 1 1 0 0 0 107 3.202 L 70.65 3.202 A 4 4 0 0 1 67.93 2.134 A 8 8 0 0 0 62.489 0 L 48.489 0 A 8 8 0 0 0 43.049 2.134 A 4 4 0 0 1 40.329 3.202 L 1 3.202 A 1 1 0 0 0 0 4.202 L 0 87.202 A 1 1 0 0 0 1 88.202 Z M 105 71.702 m -1 0 a 1 1 0 0 1 2 0 a 1 1 0 0 1 -2 0 z M 96.2 86.702 m -1 0 a 1 1 0 0 1 2 0 a 1 1 0 0 1 -2 0 z M 3 84.702 m -1 0 a 1 1 0 0 1 2 0 a 1 1 0 0 1 -2 0 z M 3 6.202 m -0.9 0 a 0.9 0.9 0 0 1 1.8 0 a 0.9 0.9 0 0 1 -1.8 0 z M 105 6.202 m -0.8 0 a 0.8 0.8 0 0 1 1.6 0 a 0.8 0.8 0 0 1 -1.6 0 z" vector-effect="non-scaling-stroke"/></g></svg>