<svg width="114.112mm" height="89.773mm" viewBox="0 0 114.112 89.773" xmlns="http://www.w3.org/2000/svg"><g id="svgGroup" stroke-linecap="round" fill-rule="evenodd" font-size="9pt" stroke="#000" stroke-width="0.25mm" fill="none" style="stroke:#000;stroke-width:0.25mm;fill:none"><path d="M 15.042 80.695 L 28.906 78.747 L 28.489 75.776 L 36.169 74.697 L 36.169 82.5 L 68.169 82.5 L 68.169 75.191 L 77.598 76.516 L 76.763 82.458 L 90.626 84.406 L 91.461 78.464 L 96.413 79.16 L 95.578 85.102 L 109.441 87.05 L 111.39 73.187 L 44.169 63.739 L 44.169 54.689 L 48.169 54.689 L 48.169 57 L 62.169 57 L 62.169 54.689 L 66.169 54.689 L 66.169 61.25 L 80.169 61.25 L 80.169 54.689 L 84.169 54.689 L 84.169 65.5 L 98.169 65.5 L 98.169 51.5 L 90 51.5 L 90 48.5 L 98.169 48.5 L 98.169 34.5 L 90 34.5 L 90 31.5 L 98.169 31.5 L 98.169 17.5 L 90 17.5 L 90 14.689 L 80.169 14.689 L 80.169 13.25 L 66.169 13.25 L 66.169 14.689 L 62.169 14.689 L 62.169 9 L 48.169 9 L 48.169 14.689 L 25.167 14.689 L 25.167 9.889 L 1.667 9.889 L 1.667 27.889 L 15 27.889 L 15 32.23 L 8.362 33.163 L 10.31 47.026 L 15 46.367 L 15 49.397 L 10.728 49.997 L 12.676 63.861 L 26.54 61.912 L 25.525 54.689 L 30.169 54.689 L 30.169 65.5 L 39.763 65.5 L 39.675 66.125 L 27.375 67.854 L 26.958 64.883 L 13.094 66.832 L 15.042 80.695 Z M 1 84.689 L 74.499 84.689 L 110.6 89.763 A 1 1 0 0 0 111.73 88.912 L 114.103 72.028 A 1 1 0 0 0 113.251 70.898 L 105 69.739 L 105 5.689 A 1 1 0 0 0 104 4.689 L 71.685 4.689 A 4 4 0 0 1 68.513 3.126 A 8 8 0 0 0 62.169 0 L 48.169 0 A 8 8 0 0 0 41.825 3.126 A 4 4 0 0 1 38.653 4.689 L 1 4.689 A 1 1 0 0 0 0 5.689 L 0 83.689 A 1 1 0 0 0 1 84.689 Z M 3.05 7.739 m -1.5 0 a 1.5 1.5 0 0 1 3 0 a 1.5 1.5 0 0 1 -3 0 z M 101.95 7.739 m -1.5 0 a 1.5 1.5 0 0 1 3 0 a 1.5 1.5 0 0 1 -3 0 z M 101.95 68.689 m -1.5 0 a 1.5 1.5 0 0 1 3 0 a 1.5 1.5 0 0 1 -3 0 z M 93.3 81.639 m -1.5 0 a 1.5 1.5 0 0 1 3 0 a 1.5 1.5 0 0 1 -3 0 z M 3.05 81.639 m -1.5 0 a 1.5 1.5 0 0 1 3 0 a 1.5 1.5 0 0 1 -3 0 z" vector-effect="non-scaling-stroke"/></g></svg>