<svg width="281.607mm" height="104.888mm" viewBox="0 0 281.607 104.888" xmlns="http://www.w3.org/2000/svg"><g id="svgGroup" stroke-linecap="round" fill-rule="evenodd" font-size="9pt" stroke="#000" stroke-width="0.25mm" fill="none" style="stroke:#000;stroke-width:0.25mm;fill:none"><path d="M 240.629 90.164 L 267.434 94.89 A 2 2 0 0 0 269.751 93.268 L 281.577 26.203 A 2 2 0 0 0 279.954 23.886 L 256.086 19.677 L 256.086 2.263 A 2 2 0 0 0 254.086 0.263 L 236.077 0.263 A 2 2 0 0 0 235.086 0 L 205.086 0 A 2 2 0 0 0 204.096 0.263 L 167.086 0.263 A 2 2 0 0 0 165.086 2.263 L 165.086 69.006 L 151.654 71.374 A 2 2 0 0 0 150.032 73.691 L 155.242 103.235 A 2 2 0 0 0 157.559 104.858 L 224.525 93.05 A 2 2 0 0 0 224.935 92.931 L 240.629 90.164 Z M 14.173 94.89 L 40.978 90.164 L 56.672 92.931 A 2 2 0 0 0 57.082 93.05 L 124.049 104.858 A 2 2 0 0 0 126.366 103.235 L 131.575 73.691 A 2 2 0 0 0 129.953 71.374 L 116.521 69.006 L 116.521 2.263 A 2 2 0 0 0 114.521 0.263 L 77.511 0.263 A 2 2 0 0 0 76.521 0 L 46.521 0 A 2 2 0 0 0 45.53 0.263 L 27.521 0.263 A 2 2 0 0 0 25.521 2.263 L 25.521 19.677 L 1.653 23.886 A 2 2 0 0 0 0.03 26.203 L 11.856 93.268 A 2 2 0 0 0 14.173 94.89 Z M 35.521 66.862 L 49.521 66.862 L 49.521 52.862 L 35.521 52.862 L 35.521 66.862 Z M 35.521 47.813 L 49.521 47.813 L 49.521 33.813 L 35.521 33.813 L 35.521 47.813 Z M 35.521 28.763 L 49.521 28.763 L 49.521 14.763 L 35.521 14.763 L 35.521 28.763 Z M 54.521 62.1 L 68.521 62.1 L 68.521 48.1 L 54.521 48.1 L 54.521 62.1 Z M 54.521 43.05 L 68.521 43.05 L 68.521 29.05 L 54.521 29.05 L 54.521 43.05 Z M 54.521 24 L 68.521 24 L 68.521 10 L 54.521 10 L 54.521 24 Z M 73.521 66.862 L 87.521 66.862 L 87.521 52.862 L 73.521 52.862 L 73.521 66.862 Z M 73.521 47.812 L 87.521 47.812 L 87.521 33.812 L 73.521 33.812 L 73.521 47.812 Z M 73.521 28.762 L 87.521 28.762 L 87.521 14.762 L 73.521 14.762 L 73.521 28.762 Z M 92.521 69.72 L 106.521 69.72 L 106.521 55.72 L 92.521 55.72 L 92.521 69.72 Z M 92.521 50.67 L 106.521 50.67 L 106.521 36.67 L 92.521 36.67 L 92.521 50.67 Z M 92.521 31.62 L 106.521 31.62 L 106.521 17.62 L 92.521 17.62 L 92.521 31.62 Z M 232.086 66.862 L 246.086 66.862 L 246.086 52.862 L 232.086 52.862 L 232.086 66.862 Z M 232.086 47.813 L 246.086 47.813 L 246.086 33.813 L 232.086 33.813 L 232.086 47.813 Z M 232.086 28.763 L 246.086 28.763 L 246.086 14.763 L 232.086 14.763 L 232.086 28.763 Z M 213.086 62.1 L 227.086 62.1 L 227.086 48.1 L 213.086 48.1 L 213.086 62.1 Z M 213.086 43.05 L 227.086 43.05 L 227.086 29.05 L 213.086 29.05 L 213.086 43.05 Z M 213.086 24 L 227.086 24 L 227.086 10 L 213.086 10 L 213.086 24 Z M 194.086 66.862 L 208.086 66.862 L 208.086 52.862 L 194.086 52.862 L 194.086 66.862 Z M 194.086 47.812 L 208.086 47.812 L 208.086 33.812 L 194.086 33.812 L 194.086 47.812 Z M 194.086 28.762 L 208.086 28.762 L 208.086 14.762 L 194.086 14.762 L 194.086 28.762 Z M 175.086 69.72 L 189.086 69.72 L 189.086 55.72 L 175.086 55.72 L 175.086 69.72 Z M 175.086 50.67 L 189.086 50.67 L 189.086 36.67 L 175.086 36.67 L 175.086 50.67 Z M 175.086 31.62 L 189.086 31.62 L 189.086 17.62 L 175.086 17.62 L 175.086 31.62 Z M 247.505 81.222 L 261.292 83.653 L 263.724 69.866 L 249.936 67.435 L 247.505 81.222 Z M 250.813 62.461 L 264.6 64.892 L 267.032 51.105 L 253.244 48.674 L 250.813 62.461 Z M 201.123 87.022 L 214.91 84.591 L 212.479 70.803 L 198.692 73.234 L 201.123 87.022 Z M 182.412 90.321 L 196.199 87.89 L 193.768 74.103 L 179.981 76.534 L 182.412 90.321 Z M 163.7 93.62 L 177.488 91.189 L 175.057 77.402 L 161.269 79.833 L 163.7 93.62 Z M 13.699 46.132 L 27.486 43.701 L 25.055 29.913 L 11.268 32.345 L 13.699 46.132 Z M 66.697 84.591 L 80.484 87.022 L 82.915 73.234 L 69.128 70.803 L 66.697 84.591 Z M 254.121 43.701 L 267.908 46.132 L 270.34 32.345 L 256.552 29.913 L 254.121 43.701 Z M 20.315 83.653 L 34.102 81.222 L 31.671 67.435 L 17.884 69.866 L 20.315 83.653 Z M 17.007 64.892 L 30.794 62.461 L 28.363 48.674 L 14.576 51.105 L 17.007 64.892 Z M 85.408 87.89 L 99.195 90.321 L 101.626 76.534 L 87.839 74.103 L 85.408 87.89 Z M 104.119 91.189 L 117.907 93.62 L 120.338 79.833 L 106.55 77.402 L 104.119 91.189 Z" vector-effect="non-scaling-stroke"/></g></svg>