<svg width="150mm" height="124.119mm" viewBox="0 0 150 124.119" xmlns="http://www.w3.org/2000/svg"><g id="svgGroup" stroke-linecap="round" fill-rule="evenodd" font-size="9pt" stroke="#000" stroke-width="0.25mm" fill="none" style="stroke:#000;stroke-width:0.25mm;fill:none"><path d="M 115.147 3.544 A 130 130 0 0 0 18.237 18.453 A 20 20 0 0 0 11.602 24.928 A 75 75 0 0 0 7.026 96.694 A 20 20 0 0 0 26.137 108.218 A 180 180 0 0 1 105.796 122.507 A 20 20 0 0 0 127.721 118.344 A 75 75 0 0 0 123.421 7.725 A 20 20 0 0 0 115.147 3.544 Z M 10.882 97.58 L 26.821 96.186 A 1 1 0 0 0 27.73 95.103 L 26.644 82.682 A 1 1 0 0 0 27.126 82.806 L 43.126 82.806 A 1 1 0 0 0 44.126 81.806 L 44.126 66.806 A 1 1 0 0 0 43.126 65.806 L 27.126 65.806 A 1 1 0 0 0 26.126 66.806 L 26.126 76.764 L 24.926 63.055 A 1 1 0 0 0 23.843 62.146 L 7.904 63.54 A 1 1 0 0 0 6.995 64.624 L 8.302 79.567 A 1 1 0 0 0 9.386 80.476 L 25.325 79.081 A 1 1 0 0 0 26.126 78.544 L 26.126 79.532 A 1 1 0 0 0 25.34 79.251 L 9.4 80.645 A 1 1 0 0 0 8.491 81.728 L 9.799 96.671 A 1 1 0 0 0 10.882 97.58 Z M 122.93 65.375 m -19.5 0 a 19.5 19.5 0 0 1 39 0 a 19.5 19.5 0 0 1 -39 0 z M 7.889 63.371 L 23.828 61.977 A 1 1 0 0 0 24.737 60.893 L 23.43 45.95 A 1 1 0 0 0 22.347 45.041 L 6.408 46.436 A 1 1 0 0 0 5.498 47.519 L 6.806 62.462 A 1 1 0 0 0 7.889 63.371 Z M 27.126 65.636 L 43.126 65.636 A 1 1 0 0 0 44.126 64.636 L 44.126 49.636 A 1 1 0 0 0 43.126 48.636 L 27.126 48.636 A 1 1 0 0 0 26.126 49.636 L 26.126 64.636 A 1 1 0 0 0 27.126 65.636 Z M 27.126 48.466 L 43.126 48.466 A 1 1 0 0 0 44.126 47.466 L 44.126 32.466 A 1 1 0 0 0 43.126 31.466 L 27.126 31.466 A 1 1 0 0 0 26.126 32.466 L 26.126 47.466 A 1 1 0 0 0 27.126 48.466 Z M 45.306 78.043 L 61.306 78.043 A 1 1 0 0 0 62.306 77.043 L 62.306 62.043 A 1 1 0 0 0 61.306 61.043 L 45.306 61.043 A 1 1 0 0 0 44.306 62.043 L 44.306 77.043 A 1 1 0 0 0 45.306 78.043 Z M 45.306 60.873 L 61.306 60.873 A 1 1 0 0 0 62.306 59.873 L 62.306 44.873 A 1 1 0 0 0 61.306 43.873 L 45.306 43.873 A 1 1 0 0 0 44.306 44.873 L 44.306 59.873 A 1 1 0 0 0 45.306 60.873 Z M 45.306 43.703 L 61.306 43.703 A 1 1 0 0 0 62.306 42.703 L 62.306 27.703 A 1 1 0 0 0 61.306 26.703 L 45.306 26.703 A 1 1 0 0 0 44.306 27.703 L 44.306 42.703 A 1 1 0 0 0 45.306 43.703 Z M 63.486 65.636 L 79.486 65.636 A 1 1 0 0 0 80.486 64.636 L 80.486 49.636 A 1 1 0 0 0 79.486 48.636 L 63.486 48.636 A 1 1 0 0 0 62.486 49.636 L 62.486 64.636 A 1 1 0 0 0 63.486 65.636 Z M 63.486 48.466 L 79.486 48.466 A 1 1 0 0 0 80.486 47.466 L 80.486 32.466 A 1 1 0 0 0 79.486 31.466 L 63.486 31.466 A 1 1 0 0 0 62.486 32.466 L 62.486 47.466 A 1 1 0 0 0 63.486 48.466 Z M 81.666 85.663 L 97.666 85.663 A 1 1 0 0 0 98.666 84.663 L 98.666 69.663 A 1 1 0 0 0 97.666 68.663 L 81.666 68.663 A 1 1 0 0 0 80.666 69.663 L 80.666 84.663 A 1 1 0 0 0 81.666 85.663 Z M 81.666 68.493 L 97.666 68.493 A 1 1 0 0 0 98.666 67.493 L 98.666 52.493 A 1 1 0 0 0 97.666 51.493 L 81.666 51.493 A 1 1 0 0 0 80.666 52.493 L 80.666 67.493 A 1 1 0 0 0 81.666 68.493 Z M 81.666 51.323 L 97.666 51.323 A 1 1 0 0 0 98.666 50.323 L 98.666 35.323 A 1 1 0 0 0 97.666 34.323 L 81.666 34.323 A 1 1 0 0 0 80.666 35.323 L 80.666 50.323 A 1 1 0 0 0 81.666 51.323 Z M 53.961 103.761 L 69.961 103.761 A 1 1 0 0 0 70.961 102.761 L 70.961 87.761 A 1 1 0 0 0 69.961 86.761 L 53.961 86.761 A 1 1 0 0 0 52.961 87.761 L 52.961 102.761 A 1 1 0 0 0 53.961 103.761 Z M 63.486 82.806 L 79.486 82.806 A 1 1 0 0 0 80.486 81.806 L 80.486 66.806 A 1 1 0 0 0 79.486 65.806 L 63.486 65.806 A 1 1 0 0 0 62.486 66.806 L 62.486 81.806 A 1 1 0 0 0 63.486 82.806 Z M 72.188 104.061 L 87.643 108.202 A 1 1 0 0 0 88.868 107.495 L 92.75 93.006 A 1 1 0 0 0 92.043 91.781 L 76.588 87.64 A 1 1 0 0 0 75.363 88.347 L 71.481 102.836 A 1 1 0 0 0 72.188 104.061 Z M 89.765 109.081 L 103.621 117.081 A 1 1 0 0 0 104.987 116.715 L 112.487 103.724 A 1 1 0 0 0 112.121 102.358 L 98.265 94.358 A 1 1 0 0 0 96.899 94.724 L 89.399 107.715 A 1 1 0 0 0 89.765 109.081 Z M 83 10 L 114 10 L 114 7 L 83 7 L 83 10 Z M 83 25 L 114 25 L 114 22 L 83 22 L 83 25 Z M 11.748 95.999 L 25.694 94.779 L 24.474 80.832 L 10.527 82.052 L 11.748 95.999 Z M 10.251 78.894 L 24.198 77.674 L 22.978 63.727 L 9.031 64.948 L 10.251 78.894 Z M 8.755 61.79 L 22.701 60.569 L 21.481 46.623 L 7.534 47.843 L 8.755 61.79 Z M 73.542 102.871 L 87.065 106.494 L 90.689 92.971 L 77.166 89.348 L 73.542 102.871 Z M 54.961 102.261 L 68.961 102.261 L 68.961 88.261 L 54.961 88.261 L 54.961 102.261 Z M 28.126 81.306 L 42.126 81.306 L 42.126 67.306 L 28.126 67.306 L 28.126 81.306 Z M 28.126 64.136 L 42.126 64.136 L 42.126 50.136 L 28.126 50.136 L 28.126 64.136 Z M 28.126 46.966 L 42.126 46.966 L 42.126 32.966 L 28.126 32.966 L 28.126 46.966 Z M 46.306 76.543 L 60.306 76.543 L 60.306 62.543 L 46.306 62.543 L 46.306 76.543 Z M 46.306 59.373 L 60.306 59.373 L 60.306 45.373 L 46.306 45.373 L 46.306 59.373 Z M 46.306 42.203 L 60.306 42.203 L 60.306 28.203 L 46.306 28.203 L 46.306 42.203 Z M 64.486 81.306 L 78.486 81.306 L 78.486 67.306 L 64.486 67.306 L 64.486 81.306 Z M 64.486 64.136 L 78.486 64.136 L 78.486 50.136 L 64.486 50.136 L 64.486 64.136 Z M 64.486 46.966 L 78.486 46.966 L 78.486 32.966 L 64.486 32.966 L 64.486 46.966 Z M 82.666 84.163 L 96.666 84.163 L 96.666 70.163 L 82.666 70.163 L 82.666 84.163 Z M 82.666 66.993 L 96.666 66.993 L 96.666 52.993 L 82.666 52.993 L 82.666 66.993 Z M 82.666 49.823 L 96.666 49.823 L 96.666 35.823 L 82.666 35.823 L 82.666 49.823 Z M 91.381 108.282 L 103.505 115.282 L 110.505 103.157 L 98.381 96.157 L 91.381 108.282 Z M 57 17 L 65 17 A 2 2 0 0 0 67 15 L 67 13 A 2 2 0 0 0 65 11 L 57 11 A 2 2 0 0 0 55 13 L 55 15 A 2 2 0 0 0 57 17 Z M 18 26 m -2.5 0 a 2.5 2.5 0 0 1 5 0 a 2.5 2.5 0 0 1 -5 0 z M 122 15 m -2.5 0 a 2.5 2.5 0 0 1 5 0 a 2.5 2.5 0 0 1 -5 0 z M 20 102 m -2.5 0 a 2.5 2.5 0 0 1 5 0 a 2.5 2.5 0 0 1 -5 0 z M 120 115 m -2.5 0 a 2.5 2.5 0 0 1 5 0 a 2.5 2.5 0 0 1 -5 0 z" vector-effect="non-scaling-stroke"/></g></svg>