<svg width="116.433mm" height="92.993mm" viewBox="0 0 116.433 92.993" xmlns="http://www.w3.org/2000/svg"><g id="svgGroup" stroke-linecap="round" fill-rule="evenodd" font-size="9pt" stroke="#000" stroke-width="0.25mm" fill="none" style="stroke:#000;stroke-width:0.25mm;fill:none"><path d="M 1 89.202 L 86.015 89.202 L 112.921 92.983 A 1 1 0 0 0 114.05 92.132 L 116.423 75.248 A 1 1 0 0 0 115.572 74.118 L 108 73.054 L 108 3.202 A 1 1 0 0 0 107 2.202 L 69.417 2.202 A 4 4 0 0 1 67.108 1.468 A 8 8 0 0 0 62.489 0 L 48.489 0 A 8 8 0 0 0 43.871 1.468 A 4 4 0 0 1 41.562 2.202 L 1 2.202 A 1 1 0 0 0 0 3.202 L 0 11.652 L 1.667 11.652 L 1.667 7.402 L 25.167 7.402 L 25.167 25.402 L 1.667 25.402 L 1.667 21.152 L 0 21.152 L 0 88.202 A 1 1 0 0 0 1 89.202 Z M 35.489 87.625 L 67.489 87.625 L 67.489 73.625 L 35.489 73.625 L 35.489 87.625 Z M 13.042 83.608 L 26.906 81.659 L 24.958 67.796 L 11.094 69.744 L 13.042 83.608 Z M 10.391 64.743 L 24.255 62.795 L 22.306 48.931 L 8.443 50.879 L 10.391 64.743 Z M 7.74 45.878 L 21.604 43.93 L 19.655 30.066 L 5.791 32.015 L 7.74 45.878 Z M 79.083 85.678 L 92.947 87.626 L 94.896 73.762 L 81.032 71.814 L 79.083 85.678 Z M 97.898 88.322 L 111.762 90.27 L 113.711 76.407 L 99.847 74.458 L 97.898 88.322 Z M 29.489 70.625 L 43.489 70.625 L 43.489 56.625 L 29.489 56.625 L 29.489 70.625 Z M 29.489 51.575 L 43.489 51.575 L 43.489 37.575 L 29.489 37.575 L 29.489 51.575 Z M 29.489 32.525 L 43.489 32.525 L 43.489 18.525 L 29.489 18.525 L 29.489 32.525 Z M 48.489 61.1 L 62.489 61.1 L 62.489 47.1 L 48.489 47.1 L 48.489 61.1 Z M 48.489 42.05 L 62.489 42.05 L 62.489 28.05 L 48.489 28.05 L 48.489 42.05 Z M 48.489 23 L 62.489 23 L 62.489 9 L 48.489 9 L 48.489 23 Z M 67.489 65.862 L 81.489 65.862 L 81.489 51.862 L 67.489 51.862 L 67.489 65.862 Z M 67.489 46.812 L 81.489 46.812 L 81.489 32.812 L 67.489 32.812 L 67.489 46.812 Z M 67.489 27.762 L 81.489 27.762 L 81.489 13.762 L 67.489 13.762 L 67.489 27.762 Z M 86.489 68.72 L 100.489 68.72 L 100.489 54.72 L 86.489 54.72 L 86.489 68.72 Z M 86.489 49.67 L 100.489 49.67 L 100.489 35.67 L 86.489 35.67 L 86.489 49.67 Z M 86.489 30.62 L 100.489 30.62 L 100.489 16.62 L 86.489 16.62 L 86.489 30.62 Z M 3.05 5.252 m -1.5 0 a 1.5 1.5 0 0 1 3 0 a 1.5 1.5 0 0 1 -3 0 z M 104.95 5.252 m -1.5 0 a 1.5 1.5 0 0 1 3 0 a 1.5 1.5 0 0 1 -3 0 z M 104.95 71.802 m -1.5 0 a 1.5 1.5 0 0 1 3 0 a 1.5 1.5 0 0 1 -3 0 z M 95.8 86.152 m -1.5 0 a 1.5 1.5 0 0 1 3 0 a 1.5 1.5 0 0 1 -3 0 z M 3.05 86.152 m -1.5 0 a 1.5 1.5 0 0 1 3 0 a 1.5 1.5 0 0 1 -3 0 z" vector-effect="non-scaling-stroke"/></g></svg>