<svg width="122.338mm" height="98.159mm" viewBox="0 0 122.338 98.159" xmlns="http://www.w3.org/2000/svg"><g id="svgGroup" stroke-linecap="round" fill-rule="evenodd" font-size="9pt" stroke="#000" stroke-width="0.25mm" fill="none" style="stroke:#000;stroke-width:0.25mm;fill:none"><path d="M 12.784 86.256 L 30.435 83.144 L 60.751 88.49 L 60.774 88.361 L 116.17 98.129 A 2 2 0 0 0 118.487 96.506 L 122.307 74.841 A 2 2 0 0 0 120.685 72.524 L 107.814 70.254 A 2 2 0 0 0 107.887 69.72 L 107.887 9.62 A 2 2 0 0 0 107.859 9.286 L 107.859 2.044 A 2 2 0 0 0 105.859 0.044 L 68.303 0.044 A 2 2 0 0 0 67.887 0 L 45.887 0 A 2 2 0 0 0 45.471 0.044 L 26.359 0.044 A 2 2 0 0 0 24.359 2.044 L 24.359 18.989 L 6.15 22.2 L 6.173 22.333 L 1.653 23.13 A 2 2 0 0 0 0.03 25.447 L 10.467 84.634 A 2 2 0 0 0 12.784 86.256 Z M 30.887 62.862 L 44.887 62.862 L 44.887 48.862 L 30.887 48.862 L 30.887 62.862 Z M 30.887 43.813 L 44.887 43.813 L 44.887 29.813 L 30.887 29.813 L 30.887 43.813 Z M 30.887 24.763 L 44.887 24.763 L 44.887 10.763 L 30.887 10.763 L 30.887 24.763 Z M 49.887 58.1 L 63.887 58.1 L 63.887 44.1 L 49.887 44.1 L 49.887 58.1 Z M 49.887 39.05 L 63.887 39.05 L 63.887 25.05 L 49.887 25.05 L 49.887 39.05 Z M 49.887 20 L 63.887 20 L 63.887 6 L 49.887 6 L 49.887 20 Z M 68.887 62.862 L 82.887 62.862 L 82.887 48.862 L 68.887 48.862 L 68.887 62.862 Z M 68.887 43.812 L 82.887 43.812 L 82.887 29.812 L 68.887 29.812 L 68.887 43.812 Z M 68.887 24.762 L 82.887 24.762 L 82.887 10.762 L 68.887 10.762 L 68.887 24.762 Z M 87.887 65.72 L 101.887 65.72 L 101.887 51.72 L 87.887 51.72 L 87.887 65.72 Z M 87.887 46.67 L 101.887 46.67 L 101.887 32.67 L 87.887 32.67 L 87.887 46.67 Z M 87.887 27.62 L 101.887 27.62 L 101.887 13.62 L 87.887 13.62 L 87.887 27.62 Z M 9.065 42.132 L 22.852 39.701 L 20.421 25.913 L 6.634 28.345 L 9.065 42.132 Z M 62.063 82.496 L 75.85 84.927 L 78.281 71.139 L 64.494 68.708 L 62.063 82.496 Z M 15.681 79.653 L 29.468 77.222 L 27.037 63.435 L 13.25 65.866 L 15.681 79.653 Z M 12.373 60.892 L 26.16 58.461 L 23.729 44.674 L 9.942 47.105 L 12.373 60.892 Z M 80.774 85.795 L 94.562 88.226 L 96.993 74.439 L 83.205 72.008 L 80.774 85.795 Z M 99.486 89.094 L 113.273 91.525 L 115.704 77.738 L 101.917 75.307 L 99.486 89.094 Z" vector-effect="non-scaling-stroke"/></g></svg>