<svg width="150mm" height="124.119mm" viewBox="0 0 150 124.119" xmlns="http://www.w3.org/2000/svg"><g id="svgGroup" stroke-linecap="round" fill-rule="evenodd" font-size="9pt" stroke="#000" stroke-width="0.25mm" fill="none" style="stroke:#000;stroke-width:0.25mm;fill:none"><path d="M 115.147 3.544 A 130 130 0 0 0 18.237 18.453 A 20 20 0 0 0 11.602 24.928 A 75 75 0 0 0 7.026 96.694 A 20 20 0 0 0 26.137 108.218 A 180 180 0 0 1 105.796 122.507 A 20 20 0 0 0 127.721 118.344 A 75 75 0 0 0 123.421 7.725 A 20 20 0 0 0 115.147 3.544 Z M 126 65 m -19.5 0 a 19.5 19.5 0 0 1 39 0 a 19.5 19.5 0 0 1 -39 0 z M 11.643 98.016 L 27.582 96.621 A 1 1 0 0 0 28.491 95.538 L 27.097 79.599 A 1 1 0 0 0 26.013 78.69 L 10.074 80.084 A 1 1 0 0 0 9.165 81.168 L 10.56 97.107 A 1 1 0 0 0 11.643 98.016 Z M 9.996 79.188 L 25.935 77.793 A 1 1 0 0 0 26.844 76.71 L 25.449 60.771 A 1 1 0 0 0 24.366 59.862 L 8.427 61.256 A 1 1 0 0 0 7.518 62.34 L 8.912 78.279 A 1 1 0 0 0 9.996 79.188 Z M 8.348 60.36 L 24.288 58.965 A 1 1 0 0 0 25.197 57.882 L 23.802 41.943 A 1 1 0 0 0 22.719 41.034 L 6.78 42.428 A 1 1 0 0 0 5.871 43.511 L 7.265 59.451 A 1 1 0 0 0 8.348 60.36 Z M 28.56 83.18 L 44.56 83.18 A 1 1 0 0 0 45.56 82.18 L 45.56 66.18 A 1 1 0 0 0 44.56 65.18 L 28.56 65.18 A 1 1 0 0 0 27.56 66.18 L 27.56 82.18 A 1 1 0 0 0 28.56 83.18 Z M 28.56 64.28 L 44.56 64.28 A 1 1 0 0 0 45.56 63.28 L 45.56 47.28 A 1 1 0 0 0 44.56 46.28 L 28.56 46.28 A 1 1 0 0 0 27.56 47.28 L 27.56 63.28 A 1 1 0 0 0 28.56 64.28 Z M 28.56 45.38 L 44.56 45.38 A 1 1 0 0 0 45.56 44.38 L 45.56 28.38 A 1 1 0 0 0 44.56 27.38 L 28.56 27.38 A 1 1 0 0 0 27.56 28.38 L 27.56 44.38 A 1 1 0 0 0 28.56 45.38 Z M 47.46 78.418 L 63.46 78.418 A 1 1 0 0 0 64.46 77.418 L 64.46 61.418 A 1 1 0 0 0 63.46 60.418 L 47.46 60.418 A 1 1 0 0 0 46.46 61.418 L 46.46 77.418 A 1 1 0 0 0 47.46 78.418 Z M 47.46 59.518 L 63.46 59.518 A 1 1 0 0 0 64.46 58.518 L 64.46 42.518 A 1 1 0 0 0 63.46 41.518 L 47.46 41.518 A 1 1 0 0 0 46.46 42.518 L 46.46 58.518 A 1 1 0 0 0 47.46 59.518 Z M 47.46 40.618 L 63.46 40.618 A 1 1 0 0 0 64.46 39.618 L 64.46 23.618 A 1 1 0 0 0 63.46 22.618 L 47.46 22.618 A 1 1 0 0 0 46.46 23.618 L 46.46 39.618 A 1 1 0 0 0 47.46 40.618 Z M 66.36 83.18 L 82.36 83.18 A 1 1 0 0 0 83.36 82.18 L 83.36 66.18 A 1 1 0 0 0 82.36 65.18 L 66.36 65.18 A 1 1 0 0 0 65.36 66.18 L 65.36 82.18 A 1 1 0 0 0 66.36 83.18 Z M 66.36 64.28 L 82.36 64.28 A 1 1 0 0 0 83.36 63.28 L 83.36 47.28 A 1 1 0 0 0 82.36 46.28 L 66.36 46.28 A 1 1 0 0 0 65.36 47.28 L 65.36 63.28 A 1 1 0 0 0 66.36 64.28 Z M 66.36 45.38 L 82.36 45.38 A 1 1 0 0 0 83.36 44.38 L 83.36 28.38 A 1 1 0 0 0 82.36 27.38 L 66.36 27.38 A 1 1 0 0 0 65.36 28.38 L 65.36 44.38 A 1 1 0 0 0 66.36 45.38 Z M 85.26 67.138 L 101.26 67.138 A 1 1 0 0 0 102.26 66.138 L 102.26 50.138 A 1 1 0 0 0 101.26 49.138 L 85.26 49.138 A 1 1 0 0 0 84.26 50.138 L 84.26 66.138 A 1 1 0 0 0 85.26 67.138 Z M 85.26 48.238 L 101.26 48.238 A 1 1 0 0 0 102.26 47.238 L 102.26 31.238 A 1 1 0 0 0 101.26 30.238 L 85.26 30.238 A 1 1 0 0 0 84.26 31.238 L 84.26 47.238 A 1 1 0 0 0 85.26 48.238 Z M 56.835 104.135 L 72.835 104.135 A 1 1 0 0 0 73.835 103.135 L 73.835 87.135 A 1 1 0 0 0 72.835 86.135 L 56.835 86.135 A 1 1 0 0 0 55.835 87.135 L 55.835 103.135 A 1 1 0 0 0 56.835 104.135 Z M 85.26 86.038 L 101.26 86.038 A 1 1 0 0 0 102.26 85.038 L 102.26 69.038 A 1 1 0 0 0 101.26 68.038 L 85.26 68.038 A 1 1 0 0 0 84.26 69.038 L 84.26 85.038 A 1 1 0 0 0 85.26 86.038 Z M 74.933 104.418 L 90.388 108.559 A 1 1 0 0 0 91.613 107.852 L 95.754 92.397 A 1 1 0 0 0 95.047 91.173 L 79.592 87.031 A 1 1 0 0 0 78.367 87.739 L 74.226 103.193 A 1 1 0 0 0 74.933 104.418 Z M 92.389 109.388 L 106.246 117.388 A 1 1 0 0 0 107.612 117.022 L 115.612 103.166 A 1 1 0 0 0 115.246 101.8 L 101.389 93.8 A 1 1 0 0 0 100.023 94.166 L 92.023 108.022 A 1 1 0 0 0 92.389 109.388 Z M 83 10 L 114 10 L 114 7 L 83 7 L 83 10 Z M 83 25 L 114 25 L 114 22 L 83 22 L 83 25 Z M 12.465 95.936 L 26.412 94.716 L 25.191 80.769 L 11.245 81.989 L 12.465 95.936 Z M 10.818 77.108 L 24.764 75.888 L 23.544 61.941 L 9.597 63.161 L 10.818 77.108 Z M 9.17 58.28 L 23.117 57.06 L 21.897 43.113 L 7.95 44.333 L 9.17 58.28 Z M 76.417 102.745 L 89.94 106.369 L 93.563 92.846 L 80.04 89.222 L 76.417 102.745 Z M 29.56 81.18 L 43.56 81.18 L 43.56 67.18 L 29.56 67.18 L 29.56 81.18 Z M 29.56 62.28 L 43.56 62.28 L 43.56 48.28 L 29.56 48.28 L 29.56 62.28 Z M 29.56 43.38 L 43.56 43.38 L 43.56 29.38 L 29.56 29.38 L 29.56 43.38 Z M 48.46 76.418 L 62.46 76.418 L 62.46 62.418 L 48.46 62.418 L 48.46 76.418 Z M 48.46 57.518 L 62.46 57.518 L 62.46 43.518 L 48.46 43.518 L 48.46 57.518 Z M 48.46 38.618 L 62.46 38.618 L 62.46 24.618 L 48.46 24.618 L 48.46 38.618 Z M 67.36 81.18 L 81.36 81.18 L 81.36 67.18 L 67.36 67.18 L 67.36 81.18 Z M 67.36 62.28 L 81.36 62.28 L 81.36 48.28 L 67.36 48.28 L 67.36 62.28 Z M 67.36 43.38 L 81.36 43.38 L 81.36 29.38 L 67.36 29.38 L 67.36 43.38 Z M 86.26 84.038 L 100.26 84.038 L 100.26 70.038 L 86.26 70.038 L 86.26 84.038 Z M 86.26 65.138 L 100.26 65.138 L 100.26 51.138 L 86.26 51.138 L 86.26 65.138 Z M 86.26 46.238 L 100.26 46.238 L 100.26 32.238 L 86.26 32.238 L 86.26 46.238 Z M 57.835 102.135 L 71.835 102.135 L 71.835 88.135 L 57.835 88.135 L 57.835 102.135 Z M 94.255 108.156 L 106.38 115.156 L 113.38 103.032 L 101.255 96.032 L 94.255 108.156 Z M 57 17 L 65 17 A 2 2 0 0 0 67 15 L 67 13 A 2 2 0 0 0 65 11 L 57 11 A 2 2 0 0 0 55 13 L 55 15 A 2 2 0 0 0 57 17 Z M 18 26 m -2.5 0 a 2.5 2.5 0 0 1 5 0 a 2.5 2.5 0 0 1 -5 0 z M 122 15 m -2.5 0 a 2.5 2.5 0 0 1 5 0 a 2.5 2.5 0 0 1 -5 0 z M 20 102 m -2.5 0 a 2.5 2.5 0 0 1 5 0 a 2.5 2.5 0 0 1 -5 0 z M 120 115 m -2.5 0 a 2.5 2.5 0 0 1 5 0 a 2.5 2.5 0 0 1 -5 0 z" vector-effect="non-scaling-stroke"/></g></svg>