<svg width="114.112mm" height="89.773mm" viewBox="0 0 114.112 89.773" xmlns="http://www.w3.org/2000/svg"><g id="svgGroup" stroke-linecap="round" fill-rule="evenodd" font-size="9pt" stroke="#000" stroke-width="0.25mm" fill="none" style="stroke:#000;stroke-width:0.25mm;fill:none"><path d="M 1 84.689 L 74.499 84.689 L 110.6 89.763 A 1 1 0 0 0 111.73 88.912 L 114.103 72.028 A 1 1 0 0 0 113.251 70.898 L 105 69.739 L 105 5.689 A 1 1 0 0 0 104 4.689 L 71.685 4.689 A 4 4 0 0 1 68.513 3.126 A 8 8 0 0 0 62.169 0 L 48.169 0 A 8 8 0 0 0 41.825 3.126 A 4 4 0 0 1 38.653 4.689 L 1 4.689 A 1 1 0 0 0 0 5.689 L 0 83.689 A 1 1 0 0 0 1 84.689 Z M 3.05 7.739 m -1 0 a 1 1 0 0 1 2 0 a 1 1 0 0 1 -2 0 z M 101.95 7.739 m -1 0 a 1 1 0 0 1 2 0 a 1 1 0 0 1 -2 0 z M 101.95 68.689 m -1 0 a 1 1 0 0 1 2 0 a 1 1 0 0 1 -2 0 z M 93.3 81.639 m -1 0 a 1 1 0 0 1 2 0 a 1 1 0 0 1 -2 0 z M 3.05 81.639 m -1 0 a 1 1 0 0 1 2 0 a 1 1 0 0 1 -2 0 z" vector-effect="non-scaling-stroke"/></g></svg>