<?xml version="1.0" encoding="UTF-8" standalone="no"?>
<!-- Created with Inkscape (http://www.inkscape.org/) -->

<svg
   width="117.37594mm"
   height="93.171936mm"
   viewBox="0 0 117.37594 93.171936"
   version="1.1"
   id="svg66913"
   xml:space="preserve"
   sodipodi:docname="duality_bottom_voronoi.svg"
   inkscape:version="1.2.2 (b0a8486541, 2022-12-01)"
   xmlns:inkscape="http://www.inkscape.org/namespaces/inkscape"
   xmlns:sodipodi="http://sodipodi.sourceforge.net/DTD/sodipodi-0.dtd"
   xmlns="http://www.w3.org/2000/svg"
   xmlns:svg="http://www.w3.org/2000/svg"><sodipodi:namedview
     id="namedview66915"
     pagecolor="#ffffff"
     bordercolor="#000000"
     borderopacity="0.25"
     inkscape:showpageshadow="2"
     inkscape:pageopacity="0.0"
     inkscape:pagecheckerboard="0"
     inkscape:deskcolor="#d1d1d1"
     inkscape:document-units="mm"
     showgrid="false"
     inkscape:zoom="1.6819304"
     inkscape:cx="89.183238"
     inkscape:cy="172.12365"
     inkscape:window-width="1920"
     inkscape:window-height="1144"
     inkscape:window-x="0"
     inkscape:window-y="0"
     inkscape:window-maximized="1"
     inkscape:current-layer="svg66913" /><defs
     id="defs66910" /><path
     id="voronoi"
     style="color:#000000;font-variation-settings:normal;opacity:1;vector-effect:none;fill:none;fill-opacity:0.467313;stroke:#000000;stroke-width:0.2;stroke-linecap:round;stroke-linejoin:round;stroke-miterlimit:4;stroke-dasharray:none;stroke-dashoffset:0;stroke-opacity:1;-inkscape-stroke:none;stop-color:#000000;stop-opacity:1"
     d="m 49.486766,5.1604681 c 1.203148,-0.05982 11.002913,-0.05982 12.052893,-0.05982 1.04997,0 1.05097,0 1.20451,0.06015 0.15354,0.06016 1.58096,0.619399 1.78243,0.7205 0.20147,0.101101 0.65509,0.48346 0.40835,1.700221 -0.24674,1.216761 -2.99738,12.1918059 -4.14113,13.3673459 -1.14376,1.17554 -9.073668,1.17554 -10.456413,0.11314 -1.382745,-1.06239 -6.356603,-10.983695 -6.616994,-12.2012519 -0.260391,-1.217557 2.284415,-2.653645 2.710108,-2.867441 0.425692,-0.213795 1.853098,-0.773037 3.056246,-0.832852 z m 20.249793,4.294119 c 0.35578,-1.18328 0.89729,-1.157961 1.91279,-1.155272 1.0155,0.0027 9.95217,0.0027 10.69943,1.396894 0.74726,1.3942059 -1.20973,14.4029259 -2.36332,15.7962959 -1.15359,1.39338 -9.96872,1.39338 -11.07179,1.1831 -1.10308,-0.21028 -2.58257,-2.17812 -2.44445,-3.57483 0.13813,-1.39672 2.91156,-12.462908 3.26734,-13.6461879 z M 5.470907,11.083962 c 0.370245,-2.7819589 3.821197,-2.7819589 5.261555,-0.820669 1.440357,1.96129 11.434371,20.261102 12.318044,22.866102 0.883673,2.60501 -0.858802,8.62102 -2.298818,9.44139 -1.440016,0.82038 -13.142507,2.46483 -14.396767,-0.13988 C 5.100662,39.826195 5.100662,13.86592 5.470907,11.083962 Z m 12.846789,-1.030269 c 0.676529,-1.7516899 15.914617,-1.7516899 18.160792,-0.5268619 2.246176,1.2248279 7.974249,12.6509539 8.323402,14.4016439 0.349153,1.7507 -2.116436,6.66813 -3.405912,7.19479 -1.289476,0.52667 -10.864602,0.52667 -12.846982,-1.22383 -1.982379,-1.7505 -10.907829,-18.094051 -10.2313,-19.845742 z M 89.430879,9.8270931 c 1.31967,-1.52509 11.490931,-1.52509 12.580211,0.08368 1.08928,1.6087739 1.08928,16.6193319 -0.15805,18.2271119 -1.24733,1.60777 -12.893761,1.60777 -14.212911,1.52471 -1.31915,-0.0831 -1.98438,-0.86333 -1.82684,-2.47172 0.15753,-1.6084 2.29792,-15.838697 3.61759,-17.3637859 z M 50.658941,27.651215 c 1.167002,-0.5271 9.588198,-0.5271 10.648908,-0.31566 1.06071,0.21144 2.5402,2.17963 2.48702,3.23324 -0.0532,1.05361 -2.02428,8.92097 -3.08448,9.76356 -1.0602,0.84258 -8.98979,0.84258 -10.103719,0.31627 -1.113929,-0.5263 -3.579155,-5.44409 -3.579555,-6.4983 -4.01e-4,-1.05421 2.464825,-5.972 3.631826,-6.49911 z m 18.928038,5.0782 c 1.17827,-0.84332 10.19705,-0.84332 11.23454,-0.7593 1.03749,0.084 1.70236,0.8632 1.62716,1.91689 -0.0752,1.05369 -1.43714,10.11008 -2.52694,11.08 -1.0898,0.96991 -9.90455,0.96991 -11.00763,0.75963 -1.10307,-0.21028 -2.58294,-2.17811 -2.53062,-3.23213 0.0523,-1.05402 2.02523,-8.92176 3.20349,-9.76509 z m 18.89863,2.98657 c 1.31967,-0.97063 12.269391,-0.97063 13.442071,0.0835 1.17269,1.05415 1.17269,10.88828 -0.0748,11.94143 -1.24748,1.05316 -12.895361,1.05316 -14.214511,0.97025 -1.31915,-0.0829 -1.98293,-0.86172 -1.90864,-1.91549 0.0743,-1.05378 1.43621,-10.1091 2.75588,-11.07972 z m -58.793975,1.55491 c 1.176647,-0.62126 10.474322,-0.62126 11.734472,-0.0938 1.260149,0.52746 3.725738,5.44489 3.725337,6.4983 -4.02e-4,1.05341 -2.465988,5.97156 -3.642021,6.4983 -1.176034,0.52675 -9.692362,0.52675 -10.868557,0.0945 -1.176194,-0.4323 -3.636356,-4.47252 -3.720524,-5.52659 -0.08417,-1.05406 1.594646,-6.84942 2.771293,-7.47068 z m 20.966505,9.43128 c 1.167157,-0.52703 9.59016,-0.52703 10.65095,-0.31575 1.06078,0.21129 2.53919,2.17804 2.4309,3.45059 -0.1083,1.27254 -2.5927,11.18481 -3.39374,12.54497 -0.80105,1.36017 -5.795531,4.14698 -6.85417,3.40175 -1.05864,-0.74523 -5.946042,-10.49399 -6.206,-12.06573 -0.259958,-1.57174 2.204902,-6.4888 3.37206,-7.01583 z m -29.221067,1.88855 c 1.555695,0.23063 3.904438,4.0878 3.937894,5.14687 0.03346,1.05907 -1.998773,7.0892 -3.554008,7.92293 -1.555236,0.83374 -14.043416,2.58852 -15.381856,1.713 -1.33844,-0.87551 -1.33844,-10.80694 -0.03391,-12.05487 1.304528,-1.24792 13.476187,-2.95856 15.031882,-2.72793 z m 48.132307,3.25785 c 1.19559,-0.91196 10.21545,-0.91196 11.25298,-0.82794 1.03753,0.084 1.70167,0.86319 1.61209,2.01219 -0.0896,1.14899 -1.585,11.0949 -1.84947,12.22309 -0.26446,1.12818 -1.23934,1.71673 -2.34483,1.47949 -1.10549,-0.23724 -10.45272,-3.04249 -11.2263,-4.25449 -0.77359,-1.212 1.35993,-9.72038 2.55553,-10.63234 z m 18.9245,2.86503 c 1.31184,-0.91928 12.261201,-0.91928 13.433851,0.0572 1.17264,0.97653 1.17264,10.0861 0.78618,11.294 -0.38646,1.20791 -3.994771,3.37759 -5.305591,3.3207 -1.31083,-0.0569 -9.9411,-2.76014 -10.7283,-3.9684 -0.7872,-1.20827 0.50202,-9.78427 1.81386,-10.70354 z m -57.43935,1.6091 c 1.093441,-0.62204 9.338105,-0.62204 10.783359,0.49973 1.445255,1.12177 6.691501,11.58605 6.833258,13.65579 0.141757,2.06974 -3.777641,10.92646 -4.431843,11.87516 -0.654202,0.9487 -2.846316,0.9487 -4.081422,-0.49909 -1.235106,-1.44779 -10.569682,-14.96583 -11.360826,-17.03621 -0.791144,-2.07038 1.164034,-7.87333 2.257474,-8.49538 z m -7.966254,12.16007 c 2.230883,1.02274 10.077279,12.38556 8.687158,13.60244 -1.390121,1.21687 -22.21195,1.21687 -24.44336,0.19526 -2.231411,-1.02161 -2.231411,-10.56128 -0.840764,-11.77929 1.390647,-1.218 14.366083,-3.04115 16.596966,-2.01841 z m 40.355114,-0.31258 c 1.67606,-0.0573 11.219,2.80617 12.11732,3.99165 0.89832,1.18548 -0.25417,9.38421 -2.29247,10.26223 -2.03831,0.87801 -19.915258,0.87801 -21.468015,0.0574 -1.552758,-0.8206 1.837426,-8.4818 2.854107,-9.66737 1.016682,-1.18556 7.113008,-4.58659 8.789058,-4.64391 z m 20.53579,2.6959 c 1.02872,0.22848 9.67095,2.93498 10.48314,4.03007 0.8122,1.09509 -0.24334,8.60723 -1.322,9.276 -1.07865,0.66876 -10.09635,-0.59839 -11.1377,-0.73424 -1.04135,-0.13584 -1.7424,-0.13584 -1.69195,-1.03273 0.0504,-0.89689 1.22754,-9.27178 1.45618,-10.23138 0.22864,-0.95959 1.18361,-1.5362 2.21233,-1.30772 z m 18.589181,4.24101 c 0.42316,0.31282 1.78669,1.70882 2.69514,2.05858 0.90845,0.34975 4.99231,1.05132 5.54642,2.06466 0.55412,1.01333 -0.20181,6.38974 -1.46846,7.12512 -1.26664,0.73537 -8.11428,-0.22673 -9.09241,-1.55189 -0.978131,-1.32516 0.004,-8.31605 0.36402,-9.40178 0.35957,-1.08573 1.53213,-0.60751 1.95529,-0.29469 z" /><path
     d="m 1.472441,88.674441 h 79.661001 l 32.859998,4.618 a 1,1 0 0 0 1.13,-0.851 l 2.372,-16.884 a 1,1 0 0 0 -0.851,-1.13 l -8.172,-1.148 V 4.6744411 a 1,1 0 0 0 -1,-1 H 71.122442 a 4,4 0 0 1 -2.72,-1.068 8,8 0 0 0 -5.441,-2.13400003 h -14 a 8,8 0 0 0 -5.44,2.13400003 4,4 0 0 1 -2.72,1.068 H 1.472441 a 1,1 0 0 0 -1.00000004,1 V 87.674441 a 1,1 0 0 0 1.00000004,1 z M 3.4724409,6.6744411 m -1.9999999,0 a 2,2 0 0 1 3.9999999,0 2,2 0 0 1 -3.9999999,0 z m 103.999999,0 m -2,0 a 2,2 0 0 1 4,0 2,2 0 0 1 -4,0 z m 2,65.4999999 m -2,0 a 2,2 0 0 1 4,0 2,2 0 0 1 -4,0 z m -6.799999,15 m -2,0 a 2,2 0 0 1 4,0 2,2 0 0 1 -4,0 z m -91.2000001,-2 m -1.9999999,0 a 2,2 0 0 1 3.9999999,0 2,2 0 0 1 -3.9999999,0 z M 19.472442,6.6744411 m -1.5,0 a 1.5,1.5 0 0 1 3,0 1.5,1.5 0 0 1 -3,0 z m 37.989,-4.202 m -1.5,0 a 1.5,1.5 0 0 1 3,0 1.5,1.5 0 0 1 -3,0 z m 35.010999,4.202 m -1.499999,0 a 1.5,1.5 0 0 1 2.999999,0 1.5,1.5 0 0 1 -2.999999,0 z M 3.4724409,60.174441 m -1.5,0 a 1.5,1.5 0 0 1 3,0 1.5,1.5 0 0 1 -3,0 z m 75.5000011,25 m -1.5,0 a 1.5,1.5 0 0 1 3,0 1.5,1.5 0 0 1 -3,0 z m 29.999998,-25 m -1.5,0 a 1.5,1.5 0 0 1 3,0 1.5,1.5 0 0 1 -3,0 z m 1.5,-37 m -1.5,0 a 1.5,1.5 0 0 1 3,0 1.5,1.5 0 0 1 -3,0 z"
     vector-effect="non-scaling-stroke"
     id="path905"
     style="font-size:12px;fill:none;fill-rule:evenodd;stroke:#000000;stroke-width:0.25mm;stroke-linecap:round" /></svg>
