<svg width="108mm" height="88.202mm" viewBox="0 0 108 88.202" xmlns="http://www.w3.org/2000/svg"><g id="svgGroup" stroke-linecap="round" fill-rule="evenodd" font-size="9pt" stroke="#000" stroke-width="0.25mm" fill="none" style="stroke:#000;stroke-width:0.25mm;fill:none"><path d="M 108 67.337 L 108 4.202 A 1 1 0 0 0 107 3.202 L 70.65 3.202 A 4 4 0 0 1 67.93 2.134 A 8 8 0 0 0 62.489 0 L 48.489 0 A 8 8 0 0 0 43.049 2.134 A 4 4 0 0 1 40.329 3.202 L 1 3.202 A 1 1 0 0 0 0 4.202 L 0 12.775 L 1.739 12.775 L 1.739 8.525 L 25.239 8.525 L 25.239 26.525 L 22.327 26.525 L 26.391 55.436 L 26.489 14.525 L 45.489 14.525 L 45.489 5 L 65.489 5 L 65.489 9.762 L 84.489 9.762 L 84.489 12.62 L 103.489 12.62 L 103.489 66.72 L 108 67.337 Z M 1 88.202 L 57.09 88.202 L 60.264 65.618 L 64.489 66.1 L 64.489 62.1 L 46.489 62.1 L 46.489 71.625 L 28.489 71.625 L 30.155 82.222 L 10.35 85.006 L 2.403 28.461 L 16.182 26.525 L 1.739 26.525 L 1.739 22.275 L 0 22.275 L 0 87.202 A 1 1 0 0 0 1 88.202 Z M 36.489 9.285 m -4 0 a 4 4 0 0 1 8 0 a 4 4 0 0 1 -8 0 z M 98.489 8.332 m -4 0 a 4 4 0 0 1 8 0 a 4 4 0 0 1 -8 0 z M 4.981 82.731 m -4 0 a 4 4 0 0 1 8 0 a 4 4 0 0 1 -8 0 z" vector-effect="non-scaling-stroke"/></g></svg>