<svg width="270.023mm" height="99.333mm" viewBox="0 0 270.023 99.333" xmlns="http://www.w3.org/2000/svg"><g id="svgGroup" stroke-linecap="round" fill-rule="evenodd" font-size="9pt" stroke="#000" stroke-width="0.25mm" fill="none" style="stroke:#000;stroke-width:0.25mm;fill:none"><path d="M 12.436 89.335 L 32.132 85.863 A 2 2 0 0 0 33.411 85.057 L 57.081 89.231 L 75.792 92.53 L 94.504 95.83 L 114.201 99.303 A 2 2 0 0 0 116.518 97.68 L 119.99 77.984 A 2 2 0 0 0 118.368 75.667 L 105.672 73.429 A 2 2 0 0 0 105.729 72.958 L 105.729 2 A 2 2 0 0 0 103.729 0 L 2.029 0 A 2 2 0 0 0 0.029 2 L 0.029 28 A 2 2 0 0 0 0.328 29.052 A 2 2 0 0 0 0.03 30.496 L 3.503 50.192 L 6.811 68.953 L 10.119 87.713 A 2 2 0 0 0 12.436 89.335 Z M 237.89 85.863 L 257.586 89.335 A 2 2 0 0 0 259.903 87.713 L 263.211 68.953 L 266.519 50.193 L 269.992 30.496 A 2 2 0 0 0 269.695 29.052 A 2 2 0 0 0 269.994 28 L 269.994 2 A 2 2 0 0 0 267.994 0 L 166.294 0 A 2 2 0 0 0 164.294 2 L 164.294 72.958 A 2 2 0 0 0 164.35 73.429 L 151.654 75.667 A 2 2 0 0 0 150.032 77.984 L 153.505 97.68 A 2 2 0 0 0 155.822 99.303 L 175.518 95.83 L 194.23 92.531 L 212.941 89.231 L 236.612 85.057 A 2 2 0 0 0 237.89 85.863 Z M 29.729 67.1 L 43.729 67.1 L 43.729 53.1 L 29.729 53.1 L 29.729 67.1 Z M 29.729 48.05 L 43.729 48.05 L 43.729 34.05 L 29.729 34.05 L 29.729 48.05 Z M 29.729 29 L 43.729 29 L 43.729 15 L 29.729 15 L 29.729 29 Z M 48.729 62.337 L 62.729 62.337 L 62.729 48.337 L 48.729 48.337 L 48.729 62.337 Z M 48.729 43.287 L 62.729 43.287 L 62.729 29.287 L 48.729 29.287 L 48.729 43.287 Z M 48.729 24.237 L 62.729 24.237 L 62.729 10.237 L 48.729 10.237 L 48.729 24.237 Z M 67.729 67.1 L 81.729 67.1 L 81.729 53.1 L 67.729 53.1 L 67.729 67.1 Z M 67.729 48.05 L 81.729 48.05 L 81.729 34.05 L 67.729 34.05 L 67.729 48.05 Z M 67.729 29 L 81.729 29 L 81.729 15 L 67.729 15 L 67.729 29 Z M 86.729 69.958 L 100.729 69.958 L 100.729 55.957 L 86.729 55.957 L 86.729 69.958 Z M 86.729 50.908 L 100.729 50.908 L 100.729 36.908 L 86.729 36.908 L 86.729 50.908 Z M 86.729 31.858 L 100.729 31.858 L 100.729 17.858 L 86.729 17.858 L 86.729 31.858 Z M 226.294 67.1 L 240.294 67.1 L 240.294 53.1 L 226.294 53.1 L 226.294 67.1 Z M 226.294 48.05 L 240.294 48.05 L 240.294 34.05 L 226.294 34.05 L 226.294 48.05 Z M 226.294 29 L 240.294 29 L 240.294 15 L 226.294 15 L 226.294 29 Z M 207.294 62.337 L 221.294 62.337 L 221.294 48.337 L 207.294 48.337 L 207.294 62.337 Z M 207.294 43.287 L 221.294 43.287 L 221.294 29.287 L 207.294 29.287 L 207.294 43.287 Z M 207.294 24.237 L 221.294 24.237 L 221.294 10.237 L 207.294 10.237 L 207.294 24.237 Z M 188.294 67.1 L 202.294 67.1 L 202.294 53.1 L 188.294 53.1 L 188.294 67.1 Z M 188.294 48.05 L 202.294 48.05 L 202.294 34.05 L 188.294 34.05 L 188.294 48.05 Z M 188.294 29 L 202.294 29 L 202.294 15 L 188.294 15 L 188.294 29 Z M 169.294 69.958 L 183.294 69.958 L 183.294 55.957 L 169.294 55.957 L 169.294 69.958 Z M 169.294 50.908 L 183.294 50.908 L 183.294 36.908 L 169.294 36.908 L 169.294 50.908 Z M 169.294 31.858 L 183.294 31.858 L 183.294 17.858 L 169.294 17.858 L 169.294 31.858 Z M 241.713 81.459 L 255.5 83.89 L 257.931 70.103 L 244.144 67.672 L 241.713 81.459 Z M 245.021 62.699 L 258.808 65.13 L 261.239 51.343 L 247.452 48.912 L 245.021 62.699 Z M 195.331 87.259 L 209.118 84.828 L 206.687 71.041 L 192.9 73.472 L 195.331 87.259 Z M 176.62 90.559 L 190.407 88.127 L 187.976 74.34 L 174.188 76.771 L 176.62 90.559 Z M 157.908 93.858 L 171.696 91.427 L 169.264 77.639 L 155.477 80.071 L 157.908 93.858 Z M 7.906 46.369 L 21.694 43.938 L 19.263 30.151 L 5.475 32.582 L 7.906 46.369 Z M 60.904 84.828 L 74.692 87.259 L 77.123 73.472 L 63.336 71.041 L 60.904 84.828 Z M 248.329 43.938 L 262.116 46.369 L 264.547 32.582 L 250.76 30.151 L 248.329 43.938 Z M 14.522 83.89 L 28.31 81.459 L 25.879 67.672 L 12.091 70.103 L 14.522 83.89 Z M 11.214 65.13 L 25.002 62.699 L 22.571 48.912 L 8.783 51.343 L 11.214 65.13 Z M 79.616 88.127 L 93.403 90.559 L 95.834 76.771 L 82.047 74.34 L 79.616 88.127 Z M 98.327 91.427 L 112.114 93.858 L 114.546 80.071 L 100.758 77.639 L 98.327 91.427 Z M 24.729 32.356 L 24.313 30 L 24.729 30 L 24.729 32.356 Z M 245.709 30 L 245.294 32.356 L 245.294 30 L 245.709 30 Z" vector-effect="non-scaling-stroke"/></g></svg>