<svg width="108mm" height="89.202mm" viewBox="0 0 108 89.202" xmlns="http://www.w3.org/2000/svg"><g id="svgGroup" stroke-linecap="round" fill-rule="evenodd" font-size="9pt" stroke="#000" stroke-width="0.25mm" fill="none" style="stroke:#000;stroke-width:0.25mm;fill:none"><path d="M 1 89.202 L 75.559 89.202 L 78.339 69.416 L 64.489 68.862 L 64.489 64.1 L 46.489 64.1 L 46.489 73.625 L 28.489 73.625 L 30.294 84.213 L 10.489 86.996 L 2.403 29.461 L 22.208 26.678 L 25.973 53.465 L 26.489 15.525 L 45.489 15.525 L 45.489 6 L 65.489 6 L 65.489 10.762 L 84.489 10.762 L 84.489 13.62 L 103.489 13.62 L 103.489 67.72 L 108 68.16 L 108 3.202 A 1 1 0 0 0 107 2.202 L 69.417 2.202 A 4 4 0 0 1 67.108 1.468 A 8 8 0 0 0 62.489 0 L 48.489 0 A 8 8 0 0 0 43.871 1.468 A 4 4 0 0 1 41.562 2.202 L 1 2.202 A 1 1 0 0 0 0 3.202 L 0 88.202 A 1 1 0 0 0 1 89.202 Z M 1.667 25.402 L 25.167 25.402 L 25.167 7.402 L 1.667 7.402 L 1.667 25.402 Z M 33.85 7.552 m -4.1 0 a 4.1 4.1 0 0 1 8.2 0 a 4.1 4.1 0 0 1 -8.2 0 z M 102.65 7.552 m -4.1 0 a 4.1 4.1 0 0 1 8.2 0 a 4.1 4.1 0 0 1 -8.2 0 z M 5.35 83.852 m -4.1 0 a 4.1 4.1 0 0 1 8.2 0 a 4.1 4.1 0 0 1 -8.2 0 z" vector-effect="non-scaling-stroke"/></g></svg>