<svg width="274.824mm" height="99.333mm" viewBox="0 0 274.824 99.333" xmlns="http://www.w3.org/2000/svg"><g id="svgGroup" stroke-linecap="round" fill-rule="evenodd" font-size="9pt" stroke="#000" stroke-width="0.25mm" fill="none" style="stroke:#000;stroke-width:0.25mm;fill:none"><path d="M 14.837 89.335 L 34.533 85.863 L 37.455 85.347 L 59.482 89.231 L 78.193 92.53 L 96.905 95.83 L 116.601 99.303 A 2 2 0 0 0 118.918 97.68 L 123.433 72.075 A 10 10 0 0 0 115.321 60.491 L 110.397 59.623 A 10 10 0 0 0 108.129 59.485 L 108.129 2 A 2 2 0 0 0 106.129 0 L 25.129 0 L 25.129 8 L 16.129 8 L 16.129 0 L 2.129 0 A 2 2 0 0 0 0.129 2 L 0.129 16.686 L 0 16.709 L 0.129 17.442 L 0.129 18 A 2 2 0 0 0 0.407 19.017 L 5.904 50.192 L 9.212 68.953 L 12.52 87.713 A 2 2 0 0 0 14.837 89.335 Z M 240.291 85.863 L 259.987 89.335 A 2 2 0 0 0 262.304 87.713 L 265.612 68.953 L 268.92 50.193 L 274.417 19.017 A 2 2 0 0 0 274.695 18 L 274.695 17.442 L 274.824 16.709 L 274.695 16.686 L 274.695 2 A 2 2 0 0 0 272.695 0 L 258.695 0 L 258.695 8 L 249.695 8 L 249.695 0 L 168.695 0 A 2 2 0 0 0 166.695 2 L 166.695 59.485 A 10 10 0 0 0 164.427 59.623 L 159.503 60.491 A 10 10 0 0 0 151.391 72.075 L 155.906 97.68 A 2 2 0 0 0 158.223 99.303 L 177.919 95.83 L 196.63 92.531 L 215.342 89.231 L 237.369 85.347 L 240.29 85.862 Z M 32.129 67.1 L 46.129 67.1 L 46.129 53.1 L 32.129 53.1 L 32.129 67.1 Z M 32.129 48.05 L 46.129 48.05 L 46.129 34.05 L 32.129 34.05 L 32.129 48.05 Z M 32.129 29 L 46.129 29 L 46.129 15 L 32.129 15 L 32.129 29 Z M 51.129 62.337 L 65.129 62.337 L 65.129 48.337 L 51.129 48.337 L 51.129 62.337 Z M 51.129 43.287 L 65.129 43.287 L 65.129 29.287 L 51.129 29.287 L 51.129 43.287 Z M 51.129 24.237 L 65.129 24.237 L 65.129 10.237 L 51.129 10.237 L 51.129 24.237 Z M 70.129 67.1 L 84.129 67.1 L 84.129 53.1 L 70.129 53.1 L 70.129 67.1 Z M 70.129 48.05 L 84.129 48.05 L 84.129 34.05 L 70.129 34.05 L 70.129 48.05 Z M 70.129 29 L 84.129 29 L 84.129 15 L 70.129 15 L 70.129 29 Z M 89.129 69.958 L 103.129 69.958 L 103.129 55.957 L 89.129 55.957 L 89.129 69.958 Z M 89.129 50.908 L 103.129 50.908 L 103.129 36.908 L 89.129 36.908 L 89.129 50.908 Z M 89.129 31.858 L 103.129 31.858 L 103.129 17.858 L 89.129 17.858 L 89.129 31.858 Z M 228.695 67.1 L 242.695 67.1 L 242.695 53.1 L 228.695 53.1 L 228.695 67.1 Z M 228.695 48.05 L 242.695 48.05 L 242.695 34.05 L 228.695 34.05 L 228.695 48.05 Z M 228.695 29 L 242.695 29 L 242.695 15 L 228.695 15 L 228.695 29 Z M 209.695 62.337 L 223.695 62.337 L 223.695 48.337 L 209.695 48.337 L 209.695 62.337 Z M 209.695 43.287 L 223.695 43.287 L 223.695 29.287 L 209.695 29.287 L 209.695 43.287 Z M 209.695 24.237 L 223.695 24.237 L 223.695 10.237 L 209.695 10.237 L 209.695 24.237 Z M 190.695 67.1 L 204.695 67.1 L 204.695 53.1 L 190.695 53.1 L 190.695 67.1 Z M 190.695 48.05 L 204.695 48.05 L 204.695 34.05 L 190.695 34.05 L 190.695 48.05 Z M 190.695 29 L 204.695 29 L 204.695 15 L 190.695 15 L 190.695 29 Z M 171.695 69.958 L 185.695 69.958 L 185.695 55.957 L 171.695 55.957 L 171.695 69.958 Z M 171.695 50.908 L 185.695 50.908 L 185.695 36.908 L 171.695 36.908 L 171.695 50.908 Z M 171.695 31.858 L 185.695 31.858 L 185.695 17.858 L 171.695 17.858 L 171.695 31.858 Z M 244.114 81.459 L 257.901 83.89 L 260.332 70.103 L 246.545 67.672 L 244.114 81.459 Z M 247.422 62.699 L 261.209 65.13 L 263.64 51.343 L 249.853 48.912 L 247.422 62.699 Z M 197.732 87.259 L 211.519 84.828 L 209.088 71.041 L 195.301 73.472 L 197.732 87.259 Z M 179.02 90.559 L 192.808 88.127 L 190.376 74.34 L 176.589 76.771 L 179.02 90.559 Z M 160.309 93.858 L 174.096 91.427 L 171.665 77.639 L 157.878 80.071 L 160.309 93.858 Z M 10.307 46.369 L 24.094 43.938 L 21.663 30.151 L 7.876 32.582 L 10.307 46.369 Z M 63.305 84.828 L 77.092 87.259 L 79.524 73.472 L 65.736 71.041 L 63.305 84.828 Z M 250.73 43.938 L 264.517 46.369 L 266.948 32.582 L 253.161 30.151 L 250.73 43.938 Z M 16.923 83.89 L 30.71 81.459 L 28.279 67.672 L 14.492 70.103 L 16.923 83.89 Z M 13.615 65.13 L 27.402 62.699 L 24.971 48.912 L 11.184 51.343 L 13.615 65.13 Z M 82.016 88.127 L 95.804 90.559 L 98.235 76.771 L 84.448 74.34 L 82.016 88.127 Z M 100.728 91.427 L 114.515 93.858 L 116.946 80.071 L 103.159 77.639 L 100.728 91.427 Z M 111.442 70.977 m -2.5 0 a 2.5 2.5 0 0 1 5 0 a 2.5 2.5 0 0 1 -5 0 z M 163.382 70.977 m -2.5 0 a 2.5 2.5 0 0 1 5 0 a 2.5 2.5 0 0 1 -5 0 z M 43.166 77.232 m -2.5 0 a 2.5 2.5 0 0 1 5 0 a 2.5 2.5 0 0 1 -5 0 z M 231.658 77.232 m -2.5 0 a 2.5 2.5 0 0 1 5 0 a 2.5 2.5 0 0 1 -5 0 z M 99.129 8.858 m -2.5 0 a 2.5 2.5 0 0 1 5 0 a 2.5 2.5 0 0 1 -5 0 z M 175.695 8.858 m -2.5 0 a 2.5 2.5 0 0 1 5 0 a 2.5 2.5 0 0 1 -5 0 z M 7.474 7.267 m -2.5 0 a 2.5 2.5 0 0 1 5 0 a 2.5 2.5 0 0 1 -5 0 z M 267.35 7.267 m -2.5 0 a 2.5 2.5 0 0 1 5 0 a 2.5 2.5 0 0 1 -5 0 z" vector-effect="non-scaling-stroke"/></g></svg>