<svg width="105mm" height="84.689mm" viewBox="0 0 105 84.689" xmlns="http://www.w3.org/2000/svg"><g id="svgGroup" stroke-linecap="round" fill-rule="evenodd" font-size="9pt" stroke="#000" stroke-width="0.25mm" fill="none" style="stroke:#000;stroke-width:0.25mm;fill:none"><path d="M 1 84.689 L 78.271 84.689 L 74.009 84.09 L 76.514 66.265 L 81.669 66.99 L 81.669 63.25 L 63.669 63.25 L 63.669 59 L 46.669 59 L 46.669 67.5 L 29.85 67.5 L 31.66 80.38 L 12.845 83.024 L 5.608 31.53 L 24.423 28.886 L 27.669 51.979 L 27.669 15.5 L 45.669 15.5 L 45.669 7 L 64.669 7 L 64.669 11.25 L 82.669 11.25 L 82.669 15.5 L 100.669 15.5 L 100.669 67.5 L 85.298 67.5 L 105 70.269 L 105 5.689 A 1 1 0 0 0 104 4.689 L 71.685 4.689 A 4 4 0 0 1 68.513 3.126 A 8 8 0 0 0 62.169 0 L 48.169 0 A 8 8 0 0 0 41.825 3.126 A 4 4 0 0 1 38.653 4.689 L 1 4.689 A 1 1 0 0 0 0 5.689 L 0 83.689 A 1 1 0 0 0 1 84.689 Z M 1.667 27.889 L 25.167 27.889 L 25.167 9.889 L 1.667 9.889 L 1.667 27.889 Z M 33.85 10.039 m -4.1 0 a 4.1 4.1 0 0 1 8.2 0 a 4.1 4.1 0 0 1 -8.2 0 z M 99.65 10.039 m -4.1 0 a 4.1 4.1 0 0 1 8.2 0 a 4.1 4.1 0 0 1 -8.2 0 z M 5.35 79.339 m -4.1 0 a 4.1 4.1 0 0 1 8.2 0 a 4.1 4.1 0 0 1 -8.2 0 z" vector-effect="non-scaling-stroke"/></g></svg>