<svg width="117.033mm" height="92.83mm" viewBox="0 0 117.033 92.83" xmlns="http://www.w3.org/2000/svg"><g id="svgGroup" stroke-linecap="round" fill-rule="evenodd" font-size="9pt" stroke="#000" stroke-width="0.25mm" fill="none" style="stroke:#000;stroke-width:0.25mm;fill:none"><path d="M 13.042 82.608 L 26.906 80.659 L 25.963 73.951 L 27.989 74.235 L 27.989 84.865 L 59.989 84.865 L 59.989 78.733 L 61.422 78.934 L 60.868 82.87 L 74.732 84.819 L 75.285 80.882 L 80.237 81.578 L 79.683 85.514 L 93.547 87.463 L 94.1 83.527 L 99.052 84.222 L 98.499 88.159 L 112.362 90.107 L 114.311 76.243 L 101.719 74.474 L 101.723 74.449 L 43.489 66.265 L 43.489 58.202 L 48.489 58.202 L 48.489 60.1 L 62.489 60.1 L 62.489 58.202 L 67.489 58.202 L 67.489 64.862 L 81.489 64.862 L 81.489 58.202 L 86.489 58.202 L 86.489 67.72 L 100.489 67.72 L 100.489 53.72 L 93 53.72 L 93 48.67 L 100.489 48.67 L 100.489 34.67 L 93 34.67 L 93 29.62 L 100.489 29.62 L 100.489 15.62 L 93 15.62 L 93 13.202 L 81.489 13.202 L 81.489 12.762 L 67.489 12.762 L 67.489 13.202 L 62.489 13.202 L 62.489 8 L 48.489 8 L 48.489 13.202 L 25.239 13.202 L 25.239 8.525 L 1.739 8.525 L 1.739 26.525 L 15 26.525 L 15 29.721 L 5.791 31.015 L 7.74 44.878 L 15 43.858 L 15 48.958 L 8.443 49.879 L 10.391 63.743 L 24.255 61.795 L 23.75 58.202 L 29.489 58.202 L 29.489 64.297 L 22.492 63.314 L 21.943 67.219 L 11.094 68.744 L 13.042 82.608 Z M 1 88.202 L 80.661 88.202 L 113.521 92.82 A 1 1 0 0 0 114.651 91.969 L 117.023 75.085 A 1 1 0 0 0 116.172 73.955 L 108 72.807 L 108 4.202 A 1 1 0 0 0 107 3.202 L 70.65 3.202 A 4 4 0 0 1 67.93 2.134 A 8 8 0 0 0 62.489 0 L 48.489 0 A 8 8 0 0 0 43.049 2.134 A 4 4 0 0 1 40.329 3.202 L 1 3.202 A 1 1 0 0 0 0 4.202 L 0 87.202 A 1 1 0 0 0 1 88.202 Z M 89 6.202 m -1.5 0 a 1.5 1.5 0 0 1 3 0 a 1.5 1.5 0 0 1 -3 0 z M 3 59.702 m -1.5 0 a 1.5 1.5 0 0 1 3 0 a 1.5 1.5 0 0 1 -3 0 z M 77 84.702 m -1.5 0 a 1.5 1.5 0 0 1 3 0 a 1.5 1.5 0 0 1 -3 0 z M 105.5 59.702 m -1.5 0 a 1.5 1.5 0 0 1 3 0 a 1.5 1.5 0 0 1 -3 0 z M 105.5 22.702 m -1.5 0 a 1.5 1.5 0 0 1 3 0 a 1.5 1.5 0 0 1 -3 0 z M 55.489 65.1 m -1.5 0 a 1.5 1.5 0 0 1 3 0 a 1.5 1.5 0 0 1 -3 0 z M 105 71.702 m -1.5 0 a 1.5 1.5 0 0 1 3 0 a 1.5 1.5 0 0 1 -3 0 z M 96.2 86.702 m -1.5 0 a 1.5 1.5 0 0 1 3 0 a 1.5 1.5 0 0 1 -3 0 z M 3 84.702 m -1.5 0 a 1.5 1.5 0 0 1 3 0 a 1.5 1.5 0 0 1 -3 0 z M 19 6.202 m -1.4 0 a 1.4 1.4 0 0 1 2.8 0 a 1.4 1.4 0 0 1 -2.8 0 z M 3 6.202 m -1.4 0 a 1.4 1.4 0 0 1 2.8 0 a 1.4 1.4 0 0 1 -2.8 0 z M 55.489 2 m -1.3 0 a 1.3 1.3 0 0 1 2.6 0 a 1.3 1.3 0 0 1 -2.6 0 z M 105 6.202 m -1.3 0 a 1.3 1.3 0 0 1 2.6 0 a 1.3 1.3 0 0 1 -2.6 0 z" vector-effect="non-scaling-stroke"/></g></svg>