<?xml version="1.0" encoding="UTF-8" standalone="no"?>
<svg
   width="114.112mm"
   height="89.773mm"
   viewBox="0 0 114.112 89.773"
   version="1.1"
   id="svg17155"
   sodipodi:docname="voronoi_only.svg"
   xml:space="preserve"
   inkscape:version="1.2.2 (b0a8486541, 2022-12-01)"
   xmlns:inkscape="http://www.inkscape.org/namespaces/inkscape"
   xmlns:sodipodi="http://sodipodi.sourceforge.net/DTD/sodipodi-0.dtd"
   xmlns="http://www.w3.org/2000/svg"
   xmlns:svg="http://www.w3.org/2000/svg"><defs
     id="defs17159"><inkscape:path-effect
       effect="bspline"
       id="path-effect18350"
       is_visible="true"
       lpeversion="1"
       weight="15"
       steps="2"
       helper_size="0"
       apply_no_weight="true"
       apply_with_weight="true"
       only_selected="false" /></defs><sodipodi:namedview
     id="namedview17157"
     pagecolor="#ffffff"
     bordercolor="#000000"
     borderopacity="0.25"
     inkscape:showpageshadow="2"
     inkscape:pageopacity="0.0"
     inkscape:pagecheckerboard="0"
     inkscape:deskcolor="#d1d1d1"
     inkscape:document-units="mm"
     showgrid="false"
     inkscape:zoom="1.9673142"
     inkscape:cx="148.93401"
     inkscape:cy="160.37093"
     inkscape:window-width="1920"
     inkscape:window-height="1144"
     inkscape:window-x="0"
     inkscape:window-y="0"
     inkscape:window-maximized="1"
     inkscape:current-layer="svg17155" /><g
     id="svgGroup"
     stroke-linecap="round"
     fill-rule="evenodd"
     font-size="12px"
     stroke="#000"
     stroke-width="0.25mm"
     fill="none"
     style="display:inline;fill:none;stroke:#000000;stroke-width:0.25mm"
     inkscape:label="generated"><path
       d="m 1.000002,84.689 h 73.499 L 110.6,89.763 a 1,1 0 0 0 1.13,-0.851 l 2.373,-16.884 a 1,1 0 0 0 -0.852,-1.13 L 105,69.739 V 3.689 a 1,1 0 0 0 -1,-1 H 69.739002 A 4,4 0 0 1 67.216002,1.793 8,8 0 0 0 62.169002,1.0000002e-8 h -14 A 8,8 0 0 0 43.122002,1.793 a 4,4 0 0 1 -2.524,0.896 h -39.598 a 1,1 0 0 0 -0.99999996,1 v 80 a 1,1 0 0 0 0.99999996,1 z m 2.05,-78.95 m -1,0 a 1,1 0 0 1 2,0 1,1 0 0 1 -2,0 z m 99.899998,0 m -1,0 a 1,1 0 0 1 2,0 1,1 0 0 1 -2,0 z m 1,62.55 m -1,0 a 1,1 0 0 1 2,0 1,1 0 0 1 -2,0 z m -7.649998,13.35 m -1,0 a 1,1 0 0 1 2,0 1,1 0 0 1 -2,0 z m -89.25,0 m -1,0 a 1,1 0 0 1 2,0 1,1 0 0 1 -2,0 z"
       vector-effect="non-scaling-stroke"
       id="path18429"
       style="font-size:12px;display:none;fill:none;fill-rule:evenodd;stroke:#000000;stroke-width:0.25mm;stroke-linecap:round"
       inkscape:label="layer_03" /><path
       d="m 1.000002,84.689 h 73.499 L 110.6,89.763 a 1,1 0 0 0 1.13,-0.851 l 2.373,-16.884 a 1,1 0 0 0 -0.852,-1.13 L 105,69.739 V 3.689 a 1,1 0 0 0 -1,-1 H 69.739002 a 4,4 0 0 1 -2.523,-0.896 8,8 0 0 0 -5.047,-1.793 h -14 a 8,8 0 0 0 -5.047,1.793 4,4 0 0 1 -2.524,0.896 h -39.598 a 1,1 0 0 0 -0.9999998,1 v 80 a 1,1 0 0 0 0.9999998,1 z m 7.3,-73.7 m -4,0 a 4,4 0 0 1 8,0 4,4 0 0 1 -8,0 z m 92.4,0 m -4,0 a 4,4 0 0 1 7.999998,0 4,4 0 0 1 -7.999998,0 z m -84.4,65.4 m -4,0 a 4,4 0 0 1 8,0 4,4 0 0 1 -8,0 z M 105,79.189 m -4,0 a 4,4 0 0 1 8,0 4,4 0 0 1 -8,0 z M 3.050002,5.739 m -1.8,0 a 1.8,1.8 0 0 1 3.6,0 1.8,1.8 0 0 1 -3.6,0 z m 100.699998,0 m -1.8,0 a 1.8,1.8 0 0 1 3.6,0 1.8,1.8 0 0 1 -3.6,0 z m 1.8,62.549999 m -1.8,0 a 1.8,1.8 0 0 1 3.6,0 1.8,1.8 0 0 1 -3.6,0 z m -6.849998,13.35 m -1.8,0 a 1.8,1.8 0 0 1 3.6,0 1.8,1.8 0 0 1 -3.6,0 z m -88.45,0 m -1.8,0 a 1.8,1.8 0 0 1 3.6,0 1.8,1.8 0 0 1 -3.6,0 z"
       vector-effect="non-scaling-stroke"
       id="path18482"
       style="font-size:12px;display:inline;fill:none;fill-rule:evenodd;stroke:#000000;stroke-width:0.9;stroke-linecap:round;stroke-dasharray:none"
       inkscape:label="layer_01" /></g><g
     inkscape:label="Voronoi"
     id="g17642"><path
       id="path18305"
       style="color:#000000;display:inline;fill:none;fill-opacity:0.488602;stroke:#ff0000;stroke-width:0.2;stroke-linecap:round;stroke-linejoin:round;stroke-dasharray:none;stroke-opacity:1"
       d="m 48.960175,2.5924404 c 1.310522,-0.092335 11.110647,-0.092335 12.379773,-0.028755 1.269126,0.063579 3.313291,0.6553778 3.201261,2.118075 C 64.429178,6.1444576 61.345749,19.20273 60.196559,20.601469 59.04737,22.000208 51.399568,22.000208 49.980756,20.731818 48.561945,19.463427 42.969522,7.6194984 42.58991,6.2487227 42.210298,4.8779471 44.26025,3.9345417 44.740246,3.7410272 45.220242,3.5475127 47.649654,2.684775 48.960175,2.5924404 Z M 31.132193,6.4886722 c 0.977674,-1.2993249 4.422477,-1.2993249 5.475336,0.1495994 1.05286,1.4489242 7.436759,14.9666004 7.907856,16.8645094 0.471097,1.897909 -1.512296,6.097652 -2.753557,6.547409 -1.24126,0.449757 -10.84858,0.449757 -12.297236,-0.14886 -1.448656,-0.598618 -5.361183,-6.191042 -5.172897,-8.089689 0.188286,-1.898647 5.862823,-14.0236438 6.840498,-15.3229688 z m 38.953569,0.110137 c 0.959558,-1.4094619 6.805558,-1.4094619 7.690164,-0.7520769 0.884606,0.6573851 3.297378,6.7873477 3.337712,8.3666607 0.04033,1.579313 -1.992979,10.191862 -3.089071,11.114273 -1.096092,0.922411 -9.298433,0.922411 -10.298159,0.752525 -0.999726,-0.169886 -2.127255,-1.760797 -1.915934,-3.340558 0.21132,-1.579761 3.31573,-14.7313619 4.275288,-16.1408238 z M 87.009406,18.520021 c 1.436454,-0.320715 13.011614,4.417652 14.251204,5.416643 1.23959,0.99899 1.23959,5.582172 -0.0749,6.072727 -1.314456,0.490556 -13.5874,0.490556 -15.023261,0.32067 -1.435862,-0.169886 -2.563391,-1.760797 -2.489116,-2.759741 0.07427,-0.998944 1.899589,-8.729583 3.336043,-9.050299 z m -68.494495,8.087397 c 1.684499,0.243169 5.604983,5.8497 5.935212,7.235374 0.330229,1.385674 -0.503932,8.713341 -2.187893,9.722085 C 20.57827,44.573621 5.691064,46.665534 4.0955849,45.638482 2.5001058,44.611429 2.5001058,32.928474 3.7648176,31.317939 5.0295295,29.707405 16.830412,26.364249 18.514911,26.607418 Z m 31.90489,0.842711 c 1.083869,-0.450227 9.210246,-0.450227 10.201639,-0.279203 0.991394,0.171023 2.118922,1.761934 2.067041,2.66175 -0.05188,0.899816 -1.659069,7.709115 -2.649974,8.438321 -0.990904,0.729206 -8.637621,0.729206 -9.669712,0.279796 -1.03209,-0.449409 -3.016208,-4.649514 -3.016594,-5.549923 -3.86e-4,-0.900409 1.983731,-5.100514 3.0676,-5.550741 z m 17.939955,4.529573 c 1.051607,-0.72993 9.253948,-0.72993 10.25348,-0.558868 0.999532,0.171062 2.127061,1.762335 2.07518,2.66215 -0.05188,0.899816 -1.659069,7.708755 -2.709505,8.437922 -1.050436,0.729167 -9.252777,0.729167 -10.252503,0.559281 -0.999726,-0.169886 -2.127255,-1.760797 -2.076351,-2.661026 0.0509,-0.900229 1.658093,-7.709529 2.709699,-8.439459 z m -37.702753,4.278445 c 1.046455,-0.757988 10.003014,-0.757988 11.174936,-0.307375 1.171922,0.450613 3.155315,4.650718 3.154967,5.550316 -3.47e-4,0.899597 -1.983379,5.099342 -3.130071,5.549098 -1.146692,0.449757 -9.871741,0.449757 -10.917753,0.307877 -1.046012,-0.141879 -2.083107,-1.471256 -2.108431,-2.371356 -0.02532,-0.900099 0.779897,-7.970572 1.826352,-8.72856 z m 56.087432,-0.0281 c 1.43635,-0.729891 13.229633,-0.729891 14.492695,0.170593 1.26307,0.900484 1.26307,9.300332 -0.0514,10.199816 -1.314456,0.899484 -13.5874,0.899484 -15.023261,0.729598 -1.435862,-0.169886 -2.563391,-1.760797 -2.512487,-2.660987 0.0509,-0.90019 1.658093,-7.709129 3.094443,-8.43902 z m -36.324673,8.220075 c 1.083908,-0.450227 9.210285,-0.450227 10.201678,-0.279204 0.991393,0.171023 2.118922,1.761935 1.793957,3.818579 -0.324965,2.056645 -4.480939,19.663012 -5.684682,19.942808 -1.203743,0.279797 -8.286152,-14.717375 -8.832745,-16.774613 -0.546593,-2.057238 1.437885,-6.257343 2.521792,-6.70757 z m 17.706055,5.520055 c 1.285546,-1.720412 9.487887,-1.720412 10.487419,-1.54935 0.999532,0.171062 2.127061,1.762335 2.026152,2.86989 -0.100909,1.107555 -2.165692,9.855393 -3.571183,11.404489 -1.405491,1.549096 -12.461199,7.263787 -13.239877,6.156485 C 63.04965,67.744393 66.840271,51.690592 68.125817,49.97018 Z M 23.365474,49.372403 c 1.783079,-0.108567 2.710929,1.080818 2.702339,1.990748 -0.0086,0.909931 -1.012043,8.214447 -2.045182,9.126699 -1.033139,0.912252 -9.676798,2.126597 -11.352176,1.878099 C 10.995076,62.11945 4.0002056,58.582405 3.2501557,57.779047 2.5001058,56.975688 2.5001058,53.012881 4.1841842,52.351122 5.8682625,51.689363 21.582394,49.48097 23.365474,49.372403 Z m 8.468736,3.882548 c 0.966933,-0.754796 9.019516,-0.754796 10.770511,1.127241 1.750996,1.882038 10.043047,19.442103 10.800211,21.668458 0.757163,2.226356 -0.464416,5.448691 -1.017461,5.79367 -0.553046,0.344979 -4.498851,0.344979 -6.22281,-1.126806 C 44.440703,79.24573 32.296535,65.50414 31.098447,63.277348 29.900358,61.050557 30.867276,54.009747 31.83421,53.254951 Z m 54.894334,0.04191 c 1.452241,-0.796708 13.245524,-0.796708 14.508586,-0.748653 1.26307,0.04806 1.26307,0.491904 0.39256,1.497608 -0.87051,1.005704 -8.995081,9.952858 -10.446111,10.701842 -1.45103,0.748984 -6.875247,-1.20945 -7.269011,-2.215484 -0.393764,-1.006035 1.361736,-8.438604 2.813976,-9.235313 z m -60.390232,14.04778 c 1.884001,1.099397 11.888869,12.419895 11.388312,13.632276 -0.500557,1.212382 -15.177595,1.212382 -17.061881,0.114167 -1.884286,-1.098215 -4.790827,-11.353765 -4.289985,-12.567329 0.500843,-1.213563 8.079554,-2.278511 9.963554,-1.179114 z m 53.226358,1.131582 c 2.227407,-0.530117 8.825454,1.85227 9.571101,2.190038 0.745646,0.337767 1.109913,1.104283 0.635342,2.047959 -0.474571,0.943676 -5.264666,8.989025 -6.437706,9.758132 -1.17304,0.769107 -7.337367,-0.09725 -9.246573,-0.190151 -1.909206,-0.0929 -13.563585,-0.0929 -14.716676,-0.34653 -1.15309,-0.253628 -0.255264,-2.623354 -0.09884,-2.944469 0.156425,-0.321116 0.717838,-0.946193 2.298267,-1.798981 1.58043,-0.852788 15.767677,-8.185881 17.995085,-8.715998 z"
       inkscape:label="path18305" /></g></svg>
