<?xml version="1.0" encoding="UTF-8" standalone="no"?>
<svg
   xml:space="preserve"
   sodipodi:docname="layer_01_02_voronoi.svg"
   id="svg1316"
   version="1.1"
   viewBox="0 0 116.764 91.235"
   height="91.235mm"
   width="116.764mm"
   inkscape:version="1.2.2 (b0a8486541, 2022-12-01)"
   xmlns:inkscape="http://www.inkscape.org/namespaces/inkscape"
   xmlns:sodipodi="http://sodipodi.sourceforge.net/DTD/sodipodi-0.dtd"
   xmlns="http://www.w3.org/2000/svg"
   xmlns:svg="http://www.w3.org/2000/svg"><defs
     id="defs1320"><inkscape:path-effect
       effect="bspline"
       id="path-effect3138"
       is_visible="true"
       lpeversion="1"
       weight="15"
       steps="2"
       helper_size="0"
       apply_no_weight="true"
       apply_with_weight="true"
       only_selected="false" /></defs><sodipodi:namedview
     id="namedview1318"
     pagecolor="#ffffff"
     bordercolor="#000000"
     borderopacity="0.25"
     inkscape:showpageshadow="2"
     inkscape:pageopacity="0.0"
     inkscape:pagecheckerboard="0"
     inkscape:deskcolor="#d1d1d1"
     inkscape:document-units="mm"
     showgrid="false"
     inkscape:zoom="1.3688095"
     inkscape:cx="102.27866"
     inkscape:cy="231.95339"
     inkscape:window-width="1920"
     inkscape:window-height="1144"
     inkscape:window-x="0"
     inkscape:window-y="0"
     inkscape:window-maximized="1"
     inkscape:current-layer="svg1316" /><g
     id="svgGroup"
     stroke-linecap="round"
     fill-rule="evenodd"
     font-size="12px"
     stroke="#000"
     stroke-width="0.25mm"
     fill="none"
     style="display:inline;fill:none;stroke:#000000;stroke-width:0.25mm"
     inkscape:label="layer1"><path
       d="m 68.426,85 44.296,6.225 a 1,1 0 0 0 1.129,-0.851 l 2.903,-20.657 A 1,1 0 0 0 116.26,68.71 l 0.054,-0.388 A 39.9,39.9 0 0 1 107,43.922 V 1 A 1,1 0 0 0 106,0 H 1 A 1,1 0 0 0 0,1 v 83 a 1,1 0 0 0 1,1 z M 8.8,8.8 m -4,0 a 4,4 0 0 1 8,0 4,4 0 0 1 -8,0 z m 93.4,0 m -4,0 a 4,4 0 0 1 8,0 4,4 0 0 1 -8,0 z M 8.8,76.2 m -4,0 a 4,4 0 0 1 8,0 4,4 0 0 1 -8,0 z M 107,79.5 m -4,0 a 4,4 0 0 1 8,0 4,4 0 0 1 -8,0 z M 3.3,3.3 m -1.8,0 a 1.8,1.8 0 0 1 3.6,0 1.8,1.8 0 0 1 -3.6,0 z m 102.2,0 m -1.8,0 a 1.8,1.8 0 0 1 3.6,0 1.8,1.8 0 0 1 -3.6,0 z m 3.6,60.1 m -1.8,0 a 1.8,1.8 0 0 1 3.6,0 1.8,1.8 0 0 1 -3.6,0 z M 93.467,84.7 m -1.8,0 a 1.8,1.8 0 0 1 3.6,0 1.8,1.8 0 0 1 -3.6,0 z M 3.3,81.7 m -1.8,0 a 1.8,1.8 0 0 1 3.6,0 1.8,1.8 0 0 1 -3.6,0 z"
       vector-effect="non-scaling-stroke"
       id="path1313" /></g><g
     inkscape:label="Voronoi"
     id="g2693"><path
       id="path3095"
       style="color:#000000;fill:none;stroke-linecap:round;stroke-linejoin:round;stroke:#ff0000;stroke-opacity:1;stroke-width:0.2;stroke-dasharray:none"
       d="m 32.083909,5.3009118 c 0.984995,-1.3011559 3.857895,-1.3011559 4.867152,0.185363 1.009258,1.4865189 7.558108,15.3550782 8.046956,17.2905042 0.488847,1.935426 -1.493822,6.134446 -2.735198,6.584125 -1.241377,0.449679 -10.850506,0.449679 -12.324238,-0.184595 -1.473732,-0.634275 -5.618492,-6.559494 -5.386484,-8.495688 0.232008,-1.936193 6.546816,-14.0785532 7.531812,-15.3797092 z m 12.3553,-0.00226 C 45.565402,3.9997559 61.796453,3.9997559 63.228299,5.2984105 64.660146,6.597065 61.79846,18.714465 60.673068,20.012396 59.547676,21.310327 51.900235,21.310327 50.467587,20.012636 49.03494,18.714945 43.313015,6.5975455 44.439209,5.2986507 Z m 26.254423,0.1480066 c 0.96669,-1.4469014 6.796049,-1.4469014 7.690449,-0.830638 0.8944,0.6162633 3.414969,6.3624237 3.448183,7.9792547 0.03321,1.61683 -2.174093,10.96334 -3.288828,11.96439 -1.114734,1.00105 -9.317075,1.00105 -10.31684,0.831087 -0.999765,-0.169964 -2.127654,-1.761598 -1.907459,-3.378877 0.220196,-1.617278 3.407806,-15.1183153 4.374495,-16.5652167 z M 87.71776,16.891364 c 1.436454,-0.374844 12.83979,4.586714 14.06097,5.663784 1.22118,1.077071 1.22118,6.165959 -0.0932,6.710697 -1.31442,0.544738 -13.587,0.544738 -15.022862,0.374813 -1.435862,-0.169925 -2.563751,-1.761196 -2.471106,-2.838237 0.09265,-1.07704 2.089785,-9.536214 3.526238,-9.911057 z M 18.761106,25.36039 c 1.609534,0.330836 5.800958,6.324425 6.160216,7.751531 0.359258,1.427105 -0.474904,8.754409 -2.083908,9.752572 C 21.22841,43.862657 7.0408007,45.856178 5.5202783,44.741496 3.9997559,43.626813 3.9997559,31.224365 5.1604911,29.582943 6.3212264,27.941522 17.151573,25.029555 18.761106,25.36039 Z m 32.158367,1.400454 c 1.083908,-0.450305 9.210285,-0.450305 10.201717,-0.279243 0.991432,0.171063 2.119321,1.762334 2.06748,2.662111 -0.05184,0.899778 -1.65903,7.708354 -2.650051,8.437482 -0.991021,0.729129 -8.638823,0.729129 -9.670991,0.279836 -1.032169,-0.449293 -3.015923,-4.648313 -3.016232,-5.548683 -3.08e-4,-0.90037 1.98417,-5.101199 3.068077,-5.551503 z m 17.939994,4.529417 c 1.051607,-0.729852 9.253948,-0.729852 10.253519,-0.558751 0.999571,0.171101 2.12746,1.762735 2.075618,2.662551 -0.05184,0.899816 -1.65903,7.708392 -2.709466,8.43752 -1.050436,0.729129 -9.252777,0.729129 -10.252542,0.559166 -0.999765,-0.169964 -2.127654,-1.761598 -2.076789,-2.661828 0.05087,-0.900229 1.658053,-7.708805 2.70966,-8.438658 z m -37.702715,4.278444 c 1.046494,-0.75791 10.003415,-0.75791 11.175376,-0.307258 1.17196,0.450652 3.155354,4.651119 3.155045,5.550717 -3.09e-4,0.899598 -1.982978,5.098979 -3.129709,5.548697 -1.146731,0.449718 -9.872504,0.449718 -10.918594,0.307761 -1.046089,-0.141957 -2.083184,-1.472057 -2.108508,-2.372157 -0.02533,-0.900099 0.779897,-7.969849 1.82639,-8.72776 z m 56.087833,-0.02806 c 1.43635,-0.729852 13.229275,-0.729852 14.492305,-0.04133 1.26302,0.68852 1.26302,7.11004 1.26319,7.802761 1.6e-4,0.69272 0.002,0.73651 0.0127,0.916277 0.0111,0.179767 0.11311,1.81372 0.0716,2.02038 -0.0416,0.206661 -0.53243,0.507259 -1.85807,0.539553 -1.325641,0.03229 -13.210758,0.03229 -14.605106,-0.137631 -1.394348,-0.169925 -2.522237,-1.761197 -2.471333,-2.661388 0.0509,-0.900191 1.658454,-7.708767 3.094804,-8.43862 z M 50.919473,43.76084 c 1.083908,-0.450305 9.210285,-0.450305 10.201717,-0.279243 0.991432,0.171063 2.119321,1.762334 1.794357,3.818978 -0.324965,2.056645 -4.481301,19.662651 -5.685082,19.942486 -1.203782,0.279835 -8.286191,-14.716613 -8.832784,-16.773851 -0.546593,-2.057237 1.437885,-6.258066 2.521792,-6.70837 z m 17.706055,5.519976 c 1.285546,-1.720412 9.487887,-1.720412 10.487458,-1.549311 0.999571,0.171101 2.12746,1.762735 2.026591,2.87029 -0.10087,1.107555 -2.165653,9.855032 -3.571183,11.404089 -1.40553,1.549057 -12.461599,7.263747 -13.240316,6.156446 -0.778717,-1.107301 3.011904,-17.161102 4.29745,-18.881514 z M 23.940619,48.671981 c 1.708085,-0.0981 2.635573,1.09092 2.626944,2.000889 -0.0086,0.90997 -1.012082,8.21521 -2.077971,9.132113 -1.065889,0.916903 -10.015214,2.173932 -11.615596,1.992128 C 11.273614,61.615308 5.2843668,58.658123 4.6420614,57.839656 3.9997559,57.021188 3.9997559,52.337444 5.6088776,51.608945 7.2179992,50.880445 22.232535,48.770083 23.940619,48.671981 Z m 8.39334,3.893606 c 0.966972,-0.754796 9.019917,-0.754796 10.770912,1.127319 1.750995,1.882115 10.042686,19.442904 10.814073,21.631781 0.771387,2.188877 -0.317073,5.060691 -0.903256,5.368114 -0.586183,0.307423 -4.974391,0.307423 -6.712612,-1.126883 C 44.564855,78.131612 32.729971,64.73982 31.56502,62.550507 c -1.164951,-2.189313 -0.198033,-9.230124 0.768939,-9.98492 z m 54.628008,0.04191 c 1.185436,-0.796709 10.488537,-0.796709 11.05286,0.271854 0.564324,1.068563 -3.466128,11.039427 -4.650272,11.835735 -1.184145,0.796309 -8.212295,-1.741986 -8.777909,-2.810149 -0.565614,-1.068163 1.189885,-8.500731 2.375321,-9.29744 z M 26.781722,66.621093 c 1.874544,1.058624 11.570128,12.029325 11.076004,13.204228 -0.494123,1.174903 -14.801828,1.174903 -16.676633,0.117466 -1.874804,-1.057437 -5.062413,-10.932442 -4.568029,-12.108532 0.494384,-1.17609 8.294114,-2.271786 10.168658,-1.213162 z m 53.517981,1.249896 c 2.46154,-0.445393 11.245552,2.727385 12.236642,3.150015 0.991091,0.42263 1.459538,1.190955 0.657968,2.067469 -0.80157,0.876514 -8.748165,8.294614 -10.651927,8.941569 -1.903761,0.646955 -11.730655,-0.733788 -12.804525,-0.881803 -1.073871,-0.148015 -1.269205,-0.148015 -2.018461,-0.148015 -0.749257,0 -7.546983,0 -8.193864,-0.216265 -0.646881,-0.216266 0.118912,-2.23728 0.261229,-2.520995 0.142317,-0.283714 0.704092,-0.908431 2.284482,-1.761141 1.580391,-0.85271 15.766916,-8.185441 18.228456,-8.630834 z" /></g></svg>
