<?xml version="1.0" encoding="UTF-8" standalone="no"?>
<svg
   width="115.05758mm"
   height="90.717598mm"
   viewBox="0 0 115.05758 90.717595"
   version="1.1"
   id="svg401"
   sodipodi:docname="layer_01_voronoi.svg"
   inkscape:version="1.2.2 (b0a8486541, 2022-12-01)"
   xml:space="preserve"
   xmlns:inkscape="http://www.inkscape.org/namespaces/inkscape"
   xmlns:sodipodi="http://sodipodi.sourceforge.net/DTD/sodipodi-0.dtd"
   xmlns="http://www.w3.org/2000/svg"
   xmlns:svg="http://www.w3.org/2000/svg"><path
     id="path5202"
     style="color:#000000;display:inline;fill:none;fill-opacity:0.512274;stroke:#000000;stroke-width:0.2;stroke-dasharray:none;stroke-opacity:1"
     d="m 47.871538,3.1462191 c 0.297781,-0.1464022 0.298181,-0.1464022 1.348694,-0.1464022 1.050514,0 10.850639,0 12.076893,0.044564 1.226254,0.044564 2.870339,0.4591127 2.728662,1.8468383 C 63.88411,6.2789451 60.923999,18.81451 59.841468,20.157245 58.758938,21.49998 51.609969,21.49998 50.304097,20.357822 48.998224,19.215665 43.961064,8.5499067 43.520227,7.3082932 c -0.440836,-1.2416135 0.484482,-2.1586123 0.88121,-2.403463 0.396728,-0.2448508 3.17232,-1.612209 3.470101,-1.7586111 z m 21.760254,5.5302678 c 0.43492,-1.2139691 1.768999,-1.0269521 2.463433,-1.006993 0.694433,0.019959 5.842284,0.019959 6.542895,0.5045581 0.70061,0.484599 2.094737,5.001946 2.038231,6.35624 -0.05651,1.354293 -1.975512,9.479224 -3.010328,10.349391 -1.034817,0.870166 -8.779563,0.870166 -9.709255,0.729891 C 67.027077,25.469299 66.095609,24.154753 66.286659,22.779979 66.47771,21.405205 69.196872,9.8904559 69.631792,8.6764869 Z M 30.405001,8.8415027 c 0.950933,-1.1520496 5.534115,-1.1520496 6.620267,0.1093282 1.086153,1.2613781 6.642402,13.0286181 7.042534,14.7015411 0.400133,1.672923 -1.417947,5.523229 -2.598165,5.935547 C 40.28942,30.000236 31.086518,30.000236 29.73557,29.479288 28.384621,28.95834 24.979609,24.090833 25.073559,22.417213 25.167508,20.743594 29.454068,9.9935523 30.405001,8.8415027 Z M 87.21257,19.658495 c 1.35855,-0.163086 12.418602,5.151525 13.60301,6.025054 1.1844,0.87353 1.1844,3.709895 -0.0731,4.013291 -1.257529,0.303396 -12.999089,0.303396 -14.357049,0.163082 -1.357961,-0.140315 -2.289789,-1.45522 -2.217259,-2.328746 0.07253,-0.873526 1.685868,-7.709594 3.044418,-7.872681 z m -68.448218,8.18028 c 1.6082,0.133217 4.959675,4.924759 5.233861,6.180131 0.274185,1.255371 -0.514035,8.181874 -2.121683,9.137636 C 20.268883,44.112305 6.0479931,46.110891 4.523905,45.236775 2.9998169,44.362659 2.9998169,34.200437 4.2491672,32.730201 5.4985175,31.259965 17.156152,27.705557 18.764352,27.838775 Z m 31.945962,0.07407 c 1.022981,-0.41271 8.74747,-0.41271 9.674797,-0.271297 0.927327,0.141412 1.858795,1.455958 1.796605,2.28074 -0.06219,0.824782 -1.56954,7.210128 -2.49634,7.89391 -0.9268,0.683783 -8.075046,0.683783 -9.035939,0.271891 -0.960894,-0.411892 -2.778974,-4.261839 -2.779399,-5.087213 -4.25e-4,-0.825374 1.817294,-4.675321 2.840276,-5.088031 z m 18.006914,4.521666 C 69.709071,31.75 77.453456,31.75 78.382914,31.891413 c 0.929459,0.141412 1.860927,1.455958 1.798737,2.28074 -0.06219,0.824781 -1.56954,7.210127 -2.560212,7.89391 -0.990672,0.683782 -8.735057,0.683782 -9.66471,0.543507 -0.929652,-0.140275 -1.86112,-1.454821 -1.799907,-2.280016 0.06121,-0.825195 1.568564,-7.210541 2.560406,-7.895048 z m -37.666476,4.274789 c 0.983668,-0.709425 9.405944,-0.709425 10.50291,-0.29629 1.096965,0.413135 2.915045,4.263442 2.914659,5.088083 -3.86e-4,0.824641 -1.818466,4.674587 -2.90524,5.086866 -1.086773,0.412278 -9.417532,0.412278 -10.400718,0.296792 -0.983187,-0.115486 -1.828199,-1.198521 -1.838486,-2.023664 -0.01029,-0.825143 0.743206,-7.442362 1.726875,-8.151787 z m 56.033016,-0.02492 c 1.358449,-0.684506 12.524489,-0.684506 13.720352,0.141021 1.19586,0.825527 1.19586,8.525781 -0.0617,9.350308 -1.257529,0.824527 -12.999089,0.824527 -14.357049,0.684213 -1.357961,-0.140315 -2.289789,-1.45522 -2.228615,-2.280455 0.06118,-0.825234 1.568524,-7.21058 2.926972,-7.895087 z m -36.373454,8.22846 c 1.022981,-0.41271 8.74747,-0.41271 9.674797,-0.271297 0.927327,0.141412 1.858795,1.455958 1.541349,3.362263 -0.317446,1.906305 -4.207183,18.385867 -5.328993,18.657757 -1.12181,0.27189 -7.705748,-13.672271 -8.216801,-15.579169 -0.511053,-1.906897 1.306666,-5.756844 2.329648,-6.169554 z m 17.787419,5.449129 c 1.210899,-1.611969 8.955645,-1.611969 9.885143,-1.470556 0.929497,0.141412 1.860965,1.455958 1.746956,2.500454 -0.114008,1.044497 -2.104998,9.48052 -3.414836,10.950822 -1.309838,1.470303 -11.546577,6.761401 -12.263127,5.717158 -0.71655,-1.044243 2.834964,-16.085909 4.045864,-17.697878 z M 23.180846,49.871559 c 1.706224,-0.130697 2.417033,0.781598 2.391235,1.618045 -0.0258,0.836447 -0.97282,7.732202 -1.960459,8.595116 -0.987638,0.862915 -9.26305,2.025531 -10.867619,1.787225 C 11.139434,61.63364 4.4372072,58.24346 3.7185121,57.511569 2.9998169,56.779679 2.9998169,53.337047 4.6302939,52.738579 6.2607709,52.14011 21.474623,50.002256 23.180846,49.871559 Z m 9.038947,3.833648 c 0.903604,-0.705341 8.429501,-0.705341 10.10709,1.140691 1.677588,1.846032 9.811201,19.070045 10.566232,21.221444 0.755032,2.151398 -0.328002,5.01019 -0.823338,5.316218 -0.495336,0.306027 -4.041062,0.306027 -5.69956,-1.140255 C 44.71172,78.797023 32.778444,65.293455 31.596052,63.14162 30.413661,60.989786 31.31619,54.410549 32.219793,53.705207 Z m 54.851999,0.03001 c 1.370425,-0.735356 12.536465,-0.735356 13.732328,-0.699471 1.19586,0.03589 1.19586,0.36615 0.35431,1.291423 -0.84156,0.925273 -8.695909,9.235409 -10.065133,9.93522 -1.369223,0.699812 -6.300034,-1.080648 -6.655545,-2.006261 -0.35551,-0.925613 1.263616,-7.785555 2.63404,-8.520911 z M 26.135495,67.789795 c 1.753117,1.030835 11.119522,11.629671 10.662063,12.764731 -0.457459,1.135061 -14.093783,1.135061 -15.847186,0.105408 -1.753403,-1.029653 -4.479076,-10.645294 -4.021332,-11.781537 0.457745,-1.136242 7.453338,-2.119438 9.206455,-1.088602 z m 53.451473,1.208024 c 2.173767,-0.531357 8.463978,1.739977 9.177365,2.071583 0.713387,0.331606 1.084527,1.151659 0.897816,2.064982 -0.186711,0.913322 -2.297072,8.620087 -3.437824,9.316878 C 85.083573,83.148054 76.54084,81.947093 74.428545,81.81834 72.31625,81.689587 61.144787,81.689587 60.02185,81.492933 c -1.122938,-0.196655 -0.426598,-2.03463 -0.301295,-2.288114 0.125303,-0.253484 0.597729,-0.779085 2.147966,-1.610556 1.550237,-0.831471 15.54468,-8.065087 17.718447,-8.596444 z"
     inkscape:path-effect="#path-effect5249"
     inkscape:original-d="m 48.168119,2.9998169 c 0.0012,10e-4 0.0024,10e-4 0.0016,0 2.101027,10e-4 11.901152,10e-4 14.000179,0 0.353304,0.089832 1.997389,0.5043801 2.348693,0.5922119 -0.63331,2.6871927 -3.593421,15.2227582 -4.228731,17.9079512 -1.530922,10e-4 -8.679891,10e-4 -10.212813,0 C 48.998656,19.215461 43.961495,8.5497031 42.881104,6.2631836 43.080386,6.067684 44.005705,5.1506856 44.202987,4.953186 44.798757,4.6611806 47.574349,3.2938223 48.168119,2.9998169 Z M 69.77972,7.422286 c 0.286874,0.041075 1.620953,0.228092 1.905827,0.2671671 1.104111,0.001 6.251962,0.001 7.354073,0 0.299742,0.9690029 1.693868,5.4863499 1.99161,6.4533529 -0.410215,1.742056 -2.32922,9.866987 -2.741435,11.607043 -1.658589,10e-4 -9.403335,10e-4 -11.063924,0 -0.1986,-0.280688 -1.130068,-1.595233 -1.330668,-1.877921 C 66.478881,21.405482 69.198042,9.8907323 69.77972,7.422286 Z M 30.372823,7.6894531 c 0.983111,0.001 5.566293,0.001 6.547404,0 1.191625,2.5225519 6.747875,14.2897919 7.9375,16.8103439 -0.388589,0.826066 -2.206668,4.676373 -2.597257,5.500439 -1.97105,10e-4 -11.173952,10e-4 -13.147002,0 -0.728645,-1.042037 -4.133657,-5.909544 -4.864302,-6.953581 0.919549,-2.30258 5.206108,-13.0526216 6.123657,-15.3572019 z M 86.199906,18.355986 c 2.371011,1.139845 13.431063,6.454456 15.800074,7.592301 0.001,0.608792 0.001,3.445157 0,4.051949 -2.515049,10e-4 -14.256609,10e-4 -16.773658,0 -0.198678,-0.280766 -1.130506,-1.595672 -1.331184,-1.878438 0.346715,-1.463872 1.960053,-8.29994 2.304768,-9.765812 z m -66.546325,8.588106 c 0.719173,1.027759 4.070648,5.819301 4.787821,6.84506 -0.167904,1.48525 -0.956125,8.411753 -1.126029,9.895003 -3.046333,0.429268 -17.2672227,2.427855 -20.3155561,2.855123 10e-4,-2.176619 10e-4,-12.338841 0,-14.51746 2.4990646,-0.760659 14.1566991,-4.315067 16.6537641,-5.077726 z m 30.423466,0.556038 c 1.656248,0.001 9.380737,0.001 11.034985,0 0.2006,0.282688 1.132068,1.597234 1.330668,1.877922 -0.322004,1.369289 -1.829353,7.754635 -2.153357,9.121924 -1.530767,0.001 -8.679013,0.001 -10.21178,0 -0.388589,-0.823988 -2.206668,-4.673935 -2.597257,-5.499923 0.390511,-0.823988 2.20823,-4.673935 2.596741,-5.499923 z M 68.04856,31.75 c 1.660511,0.001 9.404896,0.001 11.063407,0 0.2006,0.282688 1.132068,1.597234 1.330668,1.877922 -0.322004,1.369288 -1.829353,7.754635 -2.153357,9.121923 -1.658511,10e-4 -9.402896,10e-4 -11.063407,0 -0.1986,-0.280688 -1.130068,-1.595233 -1.330668,-1.877921 0.324004,-1.367289 1.831353,-7.752635 2.153357,-9.121924 z m -37.819914,4.24987 c 1.805774,10e-4 10.22805,10e-4 12.031824,0 0.390589,0.826066 2.208668,4.676373 2.597257,5.500439 -0.388589,0.825988 -2.206668,4.675935 -2.597257,5.499923 -1.784162,0.001 -10.114921,0.001 -11.901083,0 -0.180074,-0.231079 -1.025087,-1.314113 -1.207161,-1.547192 0.162463,-1.416976 0.915957,-8.034195 1.07642,-9.45317 z m 55.819848,0 c 2.393723,10e-4 13.559763,10e-4 15.951486,0 0.001,1.651054 0.001,9.351308 0,11.000362 -2.515049,0.001 -14.256609,0.001 -16.773658,0 -0.198678,-0.280766 -1.130506,-1.595672 -1.331184,-1.878438 0.324003,-1.367289 1.831353,-7.752635 2.153356,-9.121924 z m -35.971447,8.500256 c 1.656248,10e-4 9.380737,10e-4 11.034985,0 0.2006,0.282688 1.132068,1.597234 1.330668,1.877922 -0.832515,3.532335 -4.722252,20.011897 -5.556767,23.542232 -1.409844,-2.987035 -7.993783,-16.931196 -9.405627,-19.920231 0.390511,-0.823988 2.20823,-4.673935 2.596741,-5.499923 z m 17.970996,4.24987 c 1.660589,10e-4 9.405335,10e-4 11.063924,0 0.2006,0.282688 1.132068,1.597233 1.330668,1.877921 -0.425641,1.808719 -2.41663,10.244742 -2.844271,12.051461 -2.192587,1.134807 -12.429326,6.425905 -14.623913,7.558712 0.762039,-3.222214 4.313553,-18.26388 5.073592,-21.488094 z m -43.314152,0.794267 c 0.153316,0.196492 0.864126,1.108787 1.015442,1.303279 -0.201933,1.478662 -1.148956,8.374417 -1.352889,9.851079 -1.772303,0.250132 -10.047715,1.412748 -11.822018,1.66088 -1.435191,-0.725467 -8.1374177,-4.115648 -9.5746091,-4.843115 10e-4,-0.736707 10e-4,-4.179339 0,-4.918046 C 6.260928,52.141228 21.47478,50.003375 24.733891,49.544263 Z m 6.775814,3.455603 c 1.613692,0.001 9.139589,0.001 10.751281,0 1.743917,3.69186 9.877529,20.915873 11.619446,24.605733 -0.231079,0.613598 -1.314113,3.47239 -1.547192,4.083988 -0.758799,10e-4 -4.304525,10e-4 -5.065324,0 -2.556131,-2.892622 -14.489407,-16.39619 -17.047538,-19.290812 0.194399,-1.408836 1.096928,-7.988073 1.289327,-9.398909 z m 54.538789,0 c 2.393723,0.001 13.559763,0.001 15.951486,0 0.001,0.07177 0.001,0.402035 0,0.471806 -1.68208,1.781744 -9.536432,10.091882 -11.220508,11.871626 -1.055602,-0.380527 -5.986413,-2.160987 -7.044015,-2.543514 0.347956,-1.468988 1.967081,-8.32893 2.313037,-9.799918 z M 25.880591,66.548393 c 2.008087,2.272179 11.374491,12.871015 13.380578,15.141194 -2.92107,10e-4 -16.557394,10e-4 -19.480464,0 -0.583073,-2.059494 -3.308746,-11.675135 -3.893819,-13.736629 1.500056,-0.209685 8.495649,-1.19288 9.993705,-1.404565 z m 54.531038,1.43092 c 1.348902,0.487714 7.639113,2.759049 8.986015,3.244763 0.08053,0.176726 0.45167,0.996779 0.5302,1.171505 -0.45122,1.65245 -2.561583,9.359214 -3.014803,11.009664 -1.829586,-0.256349 -10.37232,-1.457309 -12.203906,-1.715658 -2.392885,10e-4 -13.564348,10e-4 -15.959233,0 0.150216,-0.392852 0.846556,-2.230827 0.994772,-2.625679 0.102234,-0.111629 0.57466,-0.63723 0.674894,-0.750859 2.999809,-1.54906 16.994252,-8.782676 19.992061,-10.333736 z"
     inkscape:label="voronoi" /><defs
     id="defs405"><inkscape:path-effect
       effect="bspline"
       id="path-effect5249"
       is_visible="true"
       lpeversion="1"
       weight="15"
       steps="2"
       helper_size="0"
       apply_no_weight="true"
       apply_with_weight="true"
       only_selected="false" /></defs><sodipodi:namedview
     id="namedview403"
     pagecolor="#ffffff"
     bordercolor="#000000"
     borderopacity="0.25"
     inkscape:showpageshadow="2"
     inkscape:pageopacity="0.0"
     inkscape:pagecheckerboard="0"
     inkscape:deskcolor="#d1d1d1"
     inkscape:document-units="mm"
     showgrid="false"
     inkscape:zoom="1.9673142"
     inkscape:cx="175.36599"
     inkscape:cy="161.89585"
     inkscape:window-width="1920"
     inkscape:window-height="1144"
     inkscape:window-x="0"
     inkscape:window-y="0"
     inkscape:window-maximized="1"
     inkscape:current-layer="svg401" /><path
     d="m 1.472441,85.161441 h 73.499 l 36.100999,5.074 a 1,1 0 0 0 1.13,-0.851 l 2.373,-16.884 a 1,1 0 0 0 -0.852,-1.13 l -8.251,-1.159 v -64.05 a 1,1 0 0 0 -1,-1 H 72.157441 a 4,4 0 0 1 -3.172,-1.563 8,8 0 0 0 -6.344,-3.12600004 h -14 a 8,8 0 0 0 -6.344,3.12600004 4,4 0 0 1 -3.172,1.563 h -37.653 a 1,1 0 0 0 -1.00000004,1 v 78 a 1,1 0 0 0 1.00000004,1 z m 7.2999999,-71.7 m -4,0 a 4,4 0 0 1 8.0000001,0 4.0000001,4.0000001 0 0 1 -8.0000001,0 z m 92.4000001,0 m -4,0 a 4,4 0 0 1 7.999999,0 4,4 0 0 1 -7.999999,0 z m -84.4000001,63.4 m -4,0 a 4.0000001,4.0000001 0 0 1 8.0000001,0 4,4 0 0 1 -8.0000001,0 z m 100.6999991,2.8 m -4,0 a 4,4 0 0 1 8,0 4,4 0 0 1 -8,0 z m -97.9499991,-71.45 m -1.7999999,0 a 1.8,1.8 0 0 1 3.5999999,0 1.8,1.8 0 0 1 -3.5999999,0 z m 100.699999,0 m -1.8,0 a 1.8,1.8 0 0 1 3.6,0 1.8,1.8 0 0 1 -3.6,0 z m 1.8,60.95 m -1.8,0 a 1.8,1.8 0 0 1 3.6,0 1.8,1.8 0 0 1 -3.6,0 z m -6.849999,12.95 m -1.8,0 a 1.8,1.8 0 0 1 3.6,0 1.8,1.8 0 0 1 -3.6,0 z m -88.4500001,0 m -1.7999999,0 a 1.8,1.8 0 0 1 3.5999999,0 1.8,1.8 0 0 1 -3.5999999,0 z"
     vector-effect="non-scaling-stroke"
     id="path301"
     style="font-size:12px;fill:none;fill-rule:evenodd;stroke:#000000;stroke-width:0.25mm;stroke-linecap:round" /></svg>
