<?xml version="1.0" encoding="UTF-8" standalone="no"?>
<!-- Created with Inkscape (http://www.inkscape.org/) -->

<svg
   width="210mm"
   height="297mm"
   viewBox="0 0 210 297"
   version="1.1"
   id="svg16785"
   xml:space="preserve"
   inkscape:version="1.2.2 (b0a8486541, 2022-12-01)"
   sodipodi:docname="walnut_01.svg"
   xmlns:inkscape="http://www.inkscape.org/namespaces/inkscape"
   xmlns:sodipodi="http://sodipodi.sourceforge.net/DTD/sodipodi-0.dtd"
   xmlns="http://www.w3.org/2000/svg"
   xmlns:svg="http://www.w3.org/2000/svg"><sodipodi:namedview
     id="namedview16787"
     pagecolor="#ffffff"
     bordercolor="#000000"
     borderopacity="0.25"
     inkscape:showpageshadow="2"
     inkscape:pageopacity="0.0"
     inkscape:pagecheckerboard="0"
     inkscape:deskcolor="#d1d1d1"
     inkscape:document-units="mm"
     showgrid="false"
     inkscape:zoom="0.80087682"
     inkscape:cx="397.06481"
     inkscape:cy="561.25984"
     inkscape:window-width="1920"
     inkscape:window-height="1144"
     inkscape:window-x="0"
     inkscape:window-y="0"
     inkscape:window-maximized="1"
     inkscape:current-layer="layer1" /><defs
     id="defs16782" /><g
     inkscape:label="Layer 1"
     inkscape:groupmode="layer"
     id="layer1"><g
       id="g17546"><path
         style="font-size:12px;fill:none;fill-rule:evenodd;stroke:#ff0000;stroke-width:0.2;stroke-linecap:round;stroke-opacity:1;stroke-dasharray:none"
         d="m 21.443259,17.815447 a 1,1 0 0 1 0,2 1,1 0 0 1 0,-2 z"
         id="path17136" /><path
         style="font-size:12px;fill:none;fill-rule:evenodd;stroke:#ff0000;stroke-width:0.2;stroke-linecap:round;stroke-opacity:1;stroke-dasharray:none"
         d="M 21.443259,18.815447"
         id="path17134" /><path
         style="font-size:12px;fill:none;fill-rule:evenodd;stroke:#ff0000;stroke-width:0.2;stroke-linecap:round;stroke-opacity:1;stroke-dasharray:none"
         d="m 18.443259,107.98245 a 1,1 0 0 1 0,2 1,1 0 0 1 0,-2 z"
         id="path17132" /><path
         style="font-size:12px;fill:none;fill-rule:evenodd;stroke:#ff0000;stroke-width:0.2;stroke-linecap:round;stroke-opacity:1;stroke-dasharray:none"
         d="M 18.443259,108.98245"
         id="path17130" /><path
         style="font-size:12px;fill:none;fill-rule:evenodd;stroke:#ff0000;stroke-width:0.2;stroke-linecap:round;stroke-opacity:1;stroke-dasharray:none"
         d="m 39.743259,120.01545 a 1,1 0 0 1 0,2 1,1 0 0 1 0,-2 z"
         id="path17128" /><path
         style="font-size:12px;fill:none;fill-rule:evenodd;stroke:#ff0000;stroke-width:0.2;stroke-linecap:round;stroke-opacity:1;stroke-dasharray:none"
         d="M 39.743259,121.01545"
         id="path17126" /><path
         style="font-size:12px;fill:none;fill-rule:evenodd;stroke:#ff0000;stroke-width:0.2;stroke-linecap:round;stroke-opacity:1;stroke-dasharray:none"
         d="m 99.84326,118.21545 a 1,1 0 0 1 0,2 1,1 0 0 1 0,-2 z"
         id="path17124" /><path
         style="font-size:12px;fill:none;fill-rule:evenodd;stroke:#ff0000;stroke-width:0.2;stroke-linecap:round;stroke-opacity:1;stroke-dasharray:none"
         d="M 99.84326,119.21545"
         id="path17122" /><path
         style="font-size:12px;fill:none;fill-rule:evenodd;stroke:#ff0000;stroke-width:0.2;stroke-linecap:round;stroke-opacity:1;stroke-dasharray:none"
         d="m 99.84326,17.815447 a 1,1 0 0 1 0,2 1,1 0 0 1 0,-2 z"
         id="path17120" /><path
         style="font-size:12px;fill:none;fill-rule:evenodd;stroke:#ff0000;stroke-width:0.2;stroke-linecap:round;stroke-opacity:1;stroke-dasharray:none"
         d="M 99.84326,18.815447"
         id="path17118" /><path
         style="font-size:12px;fill:none;fill-rule:evenodd;stroke:#000000;stroke-width:0.2;stroke-linecap:round;stroke-opacity:1;stroke-dasharray:none"
         d="m 18.143259,90.785448 -5.256,37.395002 a 1,1 0 0 0 0.852,1.13 l 12.515,1.759 a 1,1 0 0 0 0.257,0.072 l 7.827,1.1 a 39.9,39.9 0 0 1 24.883,-9.726 h 2.49 a 39.9,39.9 0 0 1 0.495,0.019 l 0.002,-0.019 h 39.935001 a 1,1 0 0 0 1,-1 V 16.515447 a 1,1 0 0 0 -1,-1 H 19.143259 a 1,1 0 0 0 -1,1 z"
         id="path16947" /></g><g
       id="g17559"><path
         style="font-size:12px;fill:none;fill-rule:evenodd;stroke:#ff0000;stroke-width:0.2;stroke-linecap:round;stroke-opacity:1;stroke-dasharray:none"
         d="m 192.71365,18.771029 a 1,1 0 0 0 0,2 1,1 0 0 0 0,-2 z"
         id="path17158" /><path
         style="font-size:12px;fill:none;fill-rule:evenodd;stroke:#ff0000;stroke-width:0.2;stroke-linecap:round;stroke-opacity:1;stroke-dasharray:none"
         d="M 192.71365,19.771029"
         id="path17156" /><path
         style="font-size:12px;fill:none;fill-rule:evenodd;stroke:#ff0000;stroke-width:0.2;stroke-linecap:round;stroke-opacity:1;stroke-dasharray:none"
         d="m 195.71365,108.93803 a 1,1 0 0 0 0,2 1,1 0 0 0 0,-2 z"
         id="path17154" /><path
         style="font-size:12px;fill:none;fill-rule:evenodd;stroke:#ff0000;stroke-width:0.2;stroke-linecap:round;stroke-opacity:1;stroke-dasharray:none"
         d="M 195.71365,109.93803"
         id="path17152" /><path
         style="font-size:12px;fill:none;fill-rule:evenodd;stroke:#ff0000;stroke-width:0.2;stroke-linecap:round;stroke-opacity:1;stroke-dasharray:none"
         d="m 174.41365,120.97103 a 1,1 0 0 0 0,2 1,1 0 0 0 0,-2 z"
         id="path17150" /><path
         style="font-size:12px;fill:none;fill-rule:evenodd;stroke:#ff0000;stroke-width:0.2;stroke-linecap:round;stroke-opacity:1;stroke-dasharray:none"
         d="M 174.41365,121.97103"
         id="path17148" /><path
         style="font-size:12px;fill:none;fill-rule:evenodd;stroke:#ff0000;stroke-width:0.2;stroke-linecap:round;stroke-opacity:1;stroke-dasharray:none"
         d="m 114.31365,119.17103 a 1,1 0 0 0 0,2 1,1 0 0 0 0,-2 z"
         id="path17146" /><path
         style="font-size:12px;fill:none;fill-rule:evenodd;stroke:#ff0000;stroke-width:0.2;stroke-linecap:round;stroke-opacity:1;stroke-dasharray:none"
         d="M 114.31365,120.17103"
         id="path17144" /><path
         style="font-size:12px;fill:none;fill-rule:evenodd;stroke:#ff0000;stroke-width:0.2;stroke-linecap:round;stroke-opacity:1;stroke-dasharray:none"
         d="m 114.31365,18.771029 a 1,1 0 0 0 0,2 1,1 0 0 0 0,-2 z"
         id="path17142" /><path
         style="font-size:12px;fill:none;fill-rule:evenodd;stroke:#ff0000;stroke-width:0.2;stroke-linecap:round;stroke-opacity:1;stroke-dasharray:none"
         d="M 114.31365,19.771029"
         id="path17140" /><path
         style="font-size:12px;fill:none;fill-rule:evenodd;stroke:#000000;stroke-width:0.2;stroke-linecap:round;stroke-opacity:1;stroke-dasharray:none"
         d="m 196.01365,91.741029 5.256,37.395001 a 1,1 0 0 1 -0.852,1.13 l -12.515,1.759 a 1,1 0 0 1 -0.257,0.072 l -7.827,1.1 a 39.9,39.9 0 0 0 -24.883,-9.726 h -2.49 a 39.9,39.9 0 0 0 -0.495,0.019 l -0.002,-0.019 h -39.935 a 1,1 0 0 1 -1,-1 V 17.471029 a 1,1 0 0 1 1,-1 h 83 a 1,1 0 0 1 1,1 z"
         id="path16947-7" /></g><g
       id="g17564"
       transform="translate(11.723555,-30.330698)"><path
         style="font-size:12px;fill:none;fill-rule:evenodd;stroke:#000000;stroke-width:0.2;stroke-linecap:round;stroke-dasharray:none"
         d="m 69.417332,168.40215 a 4.15,4.15 0 1 0 3.586,-2.061 v 4.15 z"
         id="path17164" /><path
         style="font-size:12px;fill:none;fill-rule:evenodd;stroke:#000000;stroke-width:0.2;stroke-linecap:round;stroke-dasharray:none"
         d="m 73.003332,162.69115 a 4.2,4.2 0 1 0 -3.629,-2.086 l 3.629,-2.114 z"
         id="path17162" /><path
         style="font-size:12px;fill:none;fill-rule:evenodd;stroke:#000000;stroke-width:0.2;stroke-linecap:round;stroke-dasharray:none"
         d="m 66.375332,162.35215 a 4.25,4.25 0 1 0 0,4.278 l -3.672,-2.139 z"
         id="path17073" /></g><g
       id="g17569"
       transform="translate(-4.4263219,-45.775157)"><path
         style="font-size:12px;fill:none;fill-rule:evenodd;stroke:#000000;stroke-width:0.2;stroke-linecap:round;stroke-dasharray:none"
         d="m 128.08371,184.85975 a 4.15,4.15 0 1 0 3.586,-2.061 v 4.15 z"
         id="path17170" /><path
         style="font-size:12px;fill:none;fill-rule:evenodd;stroke:#000000;stroke-width:0.2;stroke-linecap:round;stroke-dasharray:none"
         d="m 131.66971,179.14875 a 4.2,4.2 0 1 0 -3.629,-2.086 l 3.629,-2.114 z"
         id="path17168" /><path
         style="font-size:12px;fill:none;fill-rule:evenodd;stroke:#000000;stroke-width:0.2;stroke-linecap:round;stroke-dasharray:none"
         d="m 125.04171,178.80975 a 4.25,4.25 0 1 0 0,4.278 l -3.672,-2.139 z"
         id="path17073-1" /></g></g></svg>
