<?xml version="1.0" encoding="UTF-8" standalone="no"?>
<!-- Created with Inkscape (http://www.inkscape.org/) -->

<svg
   inkscape:version="1.2.2 (b0a8486541, 2022-12-01)"
   sodipodi:docname="beech_03.svg"
   xml:space="preserve"
   id="svg465"
   version="1.1"
   viewBox="0 0 600 130"
   height="130mm"
   width="600mm"
   xmlns:inkscape="http://www.inkscape.org/namespaces/inkscape"
   xmlns:sodipodi="http://sodipodi.sourceforge.net/DTD/sodipodi-0.dtd"
   xmlns="http://www.w3.org/2000/svg"
   xmlns:svg="http://www.w3.org/2000/svg"><sodipodi:namedview
     id="namedview467"
     pagecolor="#ffffff"
     bordercolor="#000000"
     borderopacity="0.25"
     inkscape:showpageshadow="2"
     inkscape:pageopacity="0.0"
     inkscape:pagecheckerboard="0"
     inkscape:deskcolor="#d1d1d1"
     inkscape:document-units="mm"
     showgrid="false"
     inkscape:zoom="0.70710678"
     inkscape:cx="1332.1892"
     inkscape:cy="157.68481"
     inkscape:window-width="1920"
     inkscape:window-height="1144"
     inkscape:window-x="0"
     inkscape:window-y="0"
     inkscape:window-maximized="1"
     inkscape:current-layer="svg465" /><defs
     id="defs462"><inkscape:path-effect
       effect="bspline"
       id="path-effect18350"
       is_visible="true"
       lpeversion="1"
       weight="15"
       steps="2"
       helper_size="0"
       apply_no_weight="true"
       apply_with_weight="true"
       only_selected="false" /><inkscape:path-effect
       effect="bspline"
       id="path-effect3138"
       is_visible="true"
       lpeversion="1"
       weight="15"
       steps="2"
       helper_size="0"
       apply_no_weight="true"
       apply_with_weight="true"
       only_selected="false" /><inkscape:path-effect
       effect="bspline"
       id="path-effect3138-3"
       is_visible="true"
       lpeversion="1"
       weight="15"
       steps="2"
       helper_size="0"
       apply_no_weight="true"
       apply_with_weight="true"
       only_selected="false" /></defs><g
     id="g11130"
     transform="rotate(-90,-10.3462,141.38001)"><path
       style="font-size:12px;fill:none;fill-rule:evenodd;stroke:#ff0000;stroke-width:0.2;stroke-linecap:round;stroke-dasharray:none;stroke-opacity:1"
       d="m 10.936361,234.61261 a 5.1,5.1 0 0 1 10.2,0 5.1,5.1 0 0 1 -10.2,0 z"
       id="path9252" /><path
       style="font-size:12px;fill:none;fill-rule:evenodd;stroke:#ff0000;stroke-width:0.2;stroke-linecap:round;stroke-dasharray:none;stroke-opacity:1"
       d="M 16.036361,234.61261"
       id="path9250" /><path
       style="font-size:12px;fill:none;fill-rule:evenodd;stroke:#ff0000;stroke-width:0.2;stroke-linecap:round;stroke-dasharray:none;stroke-opacity:1"
       d="m 103.23636,163.81261 a 5.1,5.1 0 0 1 10.2,0 5.1,5.1 0 0 1 -10.2,0 z"
       id="path9248" /><path
       style="font-size:12px;fill:none;fill-rule:evenodd;stroke:#ff0000;stroke-width:0.2;stroke-linecap:round;stroke-dasharray:none;stroke-opacity:1"
       d="M 108.33636,163.81261"
       id="path9246" /><path
       style="font-size:12px;fill:none;fill-rule:evenodd;stroke:#ff0000;stroke-width:0.2;stroke-linecap:round;stroke-dasharray:none;stroke-opacity:1"
       d="m 12.436361,163.81261 a 5.1,5.1 0 0 1 10.2,0 5.1,5.1 0 0 1 -10.2,0 z"
       id="path9244" /><path
       style="font-size:12px;fill:none;fill-rule:evenodd;stroke:#ff0000;stroke-width:0.2;stroke-linecap:round;stroke-dasharray:none;stroke-opacity:1"
       d="M 17.536361,163.81261"
       id="path9242" /><path
       style="font-size:12px;fill:none;fill-rule:evenodd;stroke:#000000;stroke-width:0.2;stroke-linecap:round;stroke-dasharray:none;stroke-opacity:1"
       d="m 116.45536,197.64961 -0.019,-0.002 v -39.935 a 1,1 0 0 0 -1,-1 H 10.436361 a 1,1 0 0 0 -1.0000001,1 v 83 a 1,1 0 0 0 1.0000001,1 h 32.076 a 22,22 0 0 1 41.704,-3.528 l 2.657,-18.911 h -13.268 v -4.25 h -17 v 8.5 h -16.819 l 1.81,12.879 -18.815,2.645 -7.237,-51.494 18.815,-2.645 3.246,23.094 v -36.479 h 18 v -8.5 h 19 v 4.25 h 18 v 4.25 h 17.999999 v 49.111 l 13.176,1.852 a 39.9,39.9 0 0 1 -7.345,-21.852 v -2.49 a 39.9,39.9 0 0 1 0.019,-0.495 z"
       id="path9054" /><g
       inkscape:label="Hershey Text"
       style="fill:none;stroke:#00ff00;stroke-linecap:round;stroke-linejoin:round;stroke-opacity:1"
       id="g10516"><g
         transform="translate(62.1697,160.949)"
         id="g10514"
         style="stroke:#00ff00;stroke-opacity:1"><path
           d="M 220,662 V 0 m 0,0 h 378"
           style="stroke:#00ff00;stroke-width:0.5331in;stroke-opacity:1"
           transform="scale(0.003175,-0.003175)"
           id="path10508" /><path
           d="M 378,662 284,630 220,536 189,378 V 284 L 220,126 284,31.5 378,0 h 63 l 95,31.5 62,94.5 32,158 v 94 l -32,158 -62,94 -95,32 h -63"
           style="stroke:#00ff00;stroke-width:0.5331in;stroke-opacity:1"
           transform="matrix(0.003175,0,0,-0.003175,1.7018,0)"
           id="path10510" /><path
           d="m 598,441 -31,-95 -63,-62 -94,-32 h -32 l -94,32 -64,62 -31,95 v 31 l 31,95 64,63 94,32 h 32 l 94,-32 63,-63 31,-126 V 284 L 567,126 504,31.5 410,0 h -64 l -94,31.5 -32,63"
           style="stroke:#00ff00;stroke-width:0.5331in;stroke-opacity:1"
           transform="matrix(0.003175,0,0,-0.003175,3.70205,0)"
           id="path10512" /></g></g></g><g
     id="g11144"
     transform="rotate(90,225.61041,91.982241)"><path
       style="font-size:12px;fill:none;fill-rule:evenodd;stroke:#ff0000;stroke-width:0.2;stroke-linecap:round;stroke-dasharray:none;stroke-opacity:1"
       d="m 138.76424,234.7475 a 5.1,5.1 0 0 1 10.2,0 5.1,5.1 0 0 1 -10.2,0 z"
       id="path9252-1" /><path
       style="font-size:12px;fill:none;fill-rule:evenodd;stroke:#ff0000;stroke-width:0.2;stroke-linecap:round;stroke-dasharray:none;stroke-opacity:1"
       d="M 143.86424,234.7475"
       id="path9250-0" /><path
       style="font-size:12px;fill:none;fill-rule:evenodd;stroke:#ff0000;stroke-width:0.2;stroke-linecap:round;stroke-dasharray:none;stroke-opacity:1"
       d="m 231.06424,163.9475 a 5.1,5.1 0 0 1 10.2,0 5.1,5.1 0 0 1 -10.2,0 z"
       id="path9248-6" /><path
       style="font-size:12px;fill:none;fill-rule:evenodd;stroke:#ff0000;stroke-width:0.2;stroke-linecap:round;stroke-dasharray:none;stroke-opacity:1"
       d="M 236.16424,163.9475"
       id="path9246-3" /><path
       style="font-size:12px;fill:none;fill-rule:evenodd;stroke:#ff0000;stroke-width:0.2;stroke-linecap:round;stroke-dasharray:none;stroke-opacity:1"
       d="m 140.26424,163.9475 a 5.1,5.1 0 0 1 10.2,0 5.1,5.1 0 0 1 -10.2,0 z"
       id="path9244-2" /><path
       style="font-size:12px;fill:none;fill-rule:evenodd;stroke:#ff0000;stroke-width:0.2;stroke-linecap:round;stroke-dasharray:none;stroke-opacity:1"
       d="M 145.36424,163.9475"
       id="path9242-0" /><path
       style="font-size:12px;fill:none;fill-rule:evenodd;stroke:#000000;stroke-width:0.2;stroke-linecap:round;stroke-dasharray:none;stroke-opacity:1"
       d="m 244.28324,197.7845 -0.019,-0.002 v -39.935 a 1,1 0 0 0 -1,-1 h -105 a 1,1 0 0 0 -1,1 v 83 a 1,1 0 0 0 1,1 h 32.076 a 22,22 0 0 1 41.704,-3.528 l 2.657,-18.911 h -13.268 v -4.25 h -17 v 8.5 h -16.819 l 1.81,12.879 -18.815,2.645 -7.237,-51.494 18.815,-2.645 3.246,23.094 v -36.479 h 18 v -8.5 h 19 v 4.25 h 18 v 4.25 h 18 v 49.111 l 13.176,1.852 a 39.9,39.9 0 0 1 -7.345,-21.852 v -2.49 a 39.9,39.9 0 0 1 0.019,-0.495 z"
       id="path9054-6" /><g
       inkscape:label="Hershey Text"
       style="fill:none;stroke:#00ff00;stroke-linecap:round;stroke-linejoin:round;stroke-opacity:1"
       id="g10526"><g
         transform="translate(189.998,161.084)"
         id="g10524"
         style="stroke:#00ff00;stroke-opacity:1"><path
           d="M 220,662 V 0 m 0,0 h 378"
           style="stroke:#00ff00;stroke-width:0.5331in;stroke-opacity:1"
           transform="scale(0.003175,-0.003175)"
           id="path10518" /><path
           d="m 284,536 62,31 95,95 V 0"
           style="stroke:#00ff00;stroke-width:0.5331in;stroke-opacity:1"
           transform="matrix(0.003175,0,0,-0.003175,1.7018,0)"
           id="path10520" /><path
           d="M 378,662 284,630 220,536 189,378 V 284 L 220,126 284,31.5 378,0 h 63 l 95,31.5 62,94.5 32,158 v 94 l -32,158 -62,94 -95,32 h -63"
           style="stroke:#00ff00;stroke-width:0.5331in;stroke-opacity:1"
           transform="matrix(0.003175,0,0,-0.003175,3.70205,0)"
           id="path10522" /></g></g></g><g
     id="g11158"
     transform="rotate(-90,196.00199,186.33277)"><path
       style="font-size:12px;fill:none;fill-rule:evenodd;stroke:#ff0000;stroke-width:0.2;stroke-linecap:round;stroke-dasharray:none;stroke-opacity:1"
       d="m 262.82084,234.12792 a 5.1,5.1 0 0 1 10.2,0 5.1,5.1 0 0 1 -10.2,0 z"
       id="path9252-5" /><path
       style="font-size:12px;fill:none;fill-rule:evenodd;stroke:#ff0000;stroke-width:0.2;stroke-linecap:round;stroke-dasharray:none;stroke-opacity:1"
       d="M 267.92084,234.12792"
       id="path9250-4" /><path
       style="font-size:12px;fill:none;fill-rule:evenodd;stroke:#ff0000;stroke-width:0.2;stroke-linecap:round;stroke-dasharray:none;stroke-opacity:1"
       d="m 355.12084,163.32792 a 5.1,5.1 0 0 1 10.2,0 5.1,5.1 0 0 1 -10.2,0 z"
       id="path9248-7" /><path
       style="font-size:12px;fill:none;fill-rule:evenodd;stroke:#ff0000;stroke-width:0.2;stroke-linecap:round;stroke-dasharray:none;stroke-opacity:1"
       d="M 360.22084,163.32792"
       id="path9246-6" /><path
       style="font-size:12px;fill:none;fill-rule:evenodd;stroke:#ff0000;stroke-width:0.2;stroke-linecap:round;stroke-dasharray:none;stroke-opacity:1"
       d="m 264.32084,163.32792 a 5.1,5.1 0 0 1 10.2,0 5.1,5.1 0 0 1 -10.2,0 z"
       id="path9244-5" /><path
       style="font-size:12px;fill:none;fill-rule:evenodd;stroke:#ff0000;stroke-width:0.2;stroke-linecap:round;stroke-dasharray:none;stroke-opacity:1"
       d="M 269.42084,163.32792"
       id="path9242-6" /><path
       style="font-size:12px;fill:none;fill-rule:evenodd;stroke:#000000;stroke-width:0.2;stroke-linecap:round;stroke-dasharray:none;stroke-opacity:1"
       d="m 368.33984,197.16492 -0.019,-0.002 v -39.935 a 1,1 0 0 0 -1,-1 h -105 a 1,1 0 0 0 -1,1 v 83 a 1,1 0 0 0 1,1 h 32.076 a 22,22 0 0 1 41.704,-3.528 l 2.657,-18.911 h -13.268 v -4.25 h -17 v 8.5 h -16.819 l 1.81,12.879 -18.815,2.645 -7.237,-51.494 18.815,-2.645 3.246,23.094 v -36.479 h 18 v -8.5 h 19 v 4.25 h 18 v 4.25 h 18 v 49.111 l 13.176,1.852 a 39.9,39.9 0 0 1 -7.345,-21.852 v -2.49 a 39.9,39.9 0 0 1 0.019,-0.495 z"
       id="path9054-9" /><g
       inkscape:label="Hershey Text"
       style="fill:none;stroke:#00ff00;stroke-linecap:round;stroke-linejoin:round;stroke-opacity:1"
       id="g10536"><g
         transform="translate(314.054,160.464)"
         id="g10534"
         style="stroke:#00ff00;stroke-opacity:1"><path
           d="M 220,662 V 0 m 0,0 h 378"
           style="stroke:#00ff00;stroke-width:0.5331in;stroke-opacity:1"
           transform="scale(0.003175,-0.003175)"
           id="path10528" /><path
           d="m 284,536 62,31 95,95 V 0"
           style="stroke:#00ff00;stroke-width:0.5331in;stroke-opacity:1"
           transform="matrix(0.003175,0,0,-0.003175,1.7018,0)"
           id="path10530" /><path
           d="m 284,536 62,31 95,95 V 0"
           style="stroke:#00ff00;stroke-width:0.5331in;stroke-opacity:1"
           transform="matrix(0.003175,0,0,-0.003175,3.70205,0)"
           id="path10532" /></g></g></g><g
     id="g11172"
     transform="rotate(90,428.81045,49.397382)"><path
       style="font-size:12px;fill:none;fill-rule:evenodd;stroke:#ff0000;stroke-width:0.2;stroke-linecap:round;stroke-dasharray:none;stroke-opacity:1"
       d="m 383.44566,233.25537 a 5.1,5.1 0 0 1 10.2,0 5.1,5.1 0 0 1 -10.2,0 z"
       id="path9252-4" /><path
       style="font-size:12px;fill:none;fill-rule:evenodd;stroke:#ff0000;stroke-width:0.2;stroke-linecap:round;stroke-dasharray:none;stroke-opacity:1"
       d="M 388.54566,233.25537"
       id="path9250-5" /><path
       style="font-size:12px;fill:none;fill-rule:evenodd;stroke:#ff0000;stroke-width:0.2;stroke-linecap:round;stroke-dasharray:none;stroke-opacity:1"
       d="m 475.74566,162.45537 a 5.1,5.1 0 0 1 10.2,0 5.1,5.1 0 0 1 -10.2,0 z"
       id="path9248-2" /><path
       style="font-size:12px;fill:none;fill-rule:evenodd;stroke:#ff0000;stroke-width:0.2;stroke-linecap:round;stroke-dasharray:none;stroke-opacity:1"
       d="M 480.84566,162.45537"
       id="path9246-5" /><path
       style="font-size:12px;fill:none;fill-rule:evenodd;stroke:#ff0000;stroke-width:0.2;stroke-linecap:round;stroke-dasharray:none;stroke-opacity:1"
       d="m 384.94566,162.45537 a 5.1,5.1 0 0 1 10.2,0 5.1,5.1 0 0 1 -10.2,0 z"
       id="path9244-4" /><path
       style="font-size:12px;fill:none;fill-rule:evenodd;stroke:#ff0000;stroke-width:0.2;stroke-linecap:round;stroke-dasharray:none;stroke-opacity:1"
       d="M 390.04566,162.45537"
       id="path9242-7" /><path
       style="font-size:12px;fill:none;fill-rule:evenodd;stroke:#000000;stroke-width:0.2;stroke-linecap:round;stroke-dasharray:none;stroke-opacity:1"
       d="m 488.96466,196.29237 -0.019,-0.002 v -39.935 a 1,1 0 0 0 -1,-1 h -105 a 1,1 0 0 0 -1,1 v 83 a 1,1 0 0 0 1,1 h 32.076 a 22,22 0 0 1 41.704,-3.528 l 2.657,-18.911 h -13.268 v -4.25 h -17 v 8.5 h -16.819 l 1.81,12.879 -18.815,2.645 -7.237,-51.494 18.815,-2.645 3.246,23.094 v -36.479 h 18 v -8.5 h 19 v 4.25 h 18 v 4.25 h 18 v 49.111 l 13.176,1.852 a 39.9,39.9 0 0 1 -7.345,-21.852 v -2.49 a 39.9,39.9 0 0 1 0.019,-0.495 z"
       id="path9054-4" /><g
       inkscape:label="Hershey Text"
       style="fill:none;stroke:#00ff00;stroke-linecap:round;stroke-linejoin:round;stroke-opacity:1"
       id="g10546"><g
         transform="translate(434.679,159.591)"
         id="g10544"
         style="stroke:#00ff00;stroke-opacity:1"><path
           d="M 220,662 V 0 m 0,0 h 378"
           style="stroke:#00ff00;stroke-width:0.5331in;stroke-opacity:1"
           transform="scale(0.003175,-0.003175)"
           id="path10538" /><path
           d="m 284,536 62,31 95,95 V 0"
           style="stroke:#00ff00;stroke-width:0.5331in;stroke-opacity:1"
           transform="matrix(0.003175,0,0,-0.003175,1.7018,0)"
           id="path10540" /><path
           d="m 220,504 v 32 l 32,62 32,32 62,32 h 126 l 64,-32 31,-32 31,-62 V 472 L 567,410 504,315 189,0 h 441"
           style="stroke:#00ff00;stroke-width:0.5331in;stroke-opacity:1"
           transform="matrix(0.003175,0,0,-0.003175,3.70205,0)"
           id="path10542" /></g></g></g><g
     id="g11186"
     transform="rotate(-90,396.05586,228.95086)"><path
       style="font-size:12px;fill:none;fill-rule:evenodd;stroke:#ff0000;stroke-width:0.2;stroke-linecap:round;stroke-dasharray:none;stroke-opacity:1"
       d="m 502.98632,235.35141 a 5.1,5.1 0 0 1 10.2,0 5.1,5.1 0 0 1 -10.2,0 z"
       id="path9252-0" /><path
       style="font-size:12px;fill:none;fill-rule:evenodd;stroke:#ff0000;stroke-width:0.2;stroke-linecap:round;stroke-dasharray:none;stroke-opacity:1"
       d="M 508.08632,235.35141"
       id="path9250-7" /><path
       style="font-size:12px;fill:none;fill-rule:evenodd;stroke:#ff0000;stroke-width:0.2;stroke-linecap:round;stroke-dasharray:none;stroke-opacity:1"
       d="m 595.28632,164.55141 a 5.1,5.1 0 0 1 10.2,0 5.1,5.1 0 0 1 -10.2,0 z"
       id="path9248-8" /><path
       style="font-size:12px;fill:none;fill-rule:evenodd;stroke:#ff0000;stroke-width:0.2;stroke-linecap:round;stroke-dasharray:none;stroke-opacity:1"
       d="M 600.38632,164.55141"
       id="path9246-68" /><path
       style="font-size:12px;fill:none;fill-rule:evenodd;stroke:#ff0000;stroke-width:0.2;stroke-linecap:round;stroke-dasharray:none;stroke-opacity:1"
       d="m 504.48632,164.55141 a 5.1,5.1 0 0 1 10.2,0 5.1,5.1 0 0 1 -10.2,0 z"
       id="path9244-8" /><path
       style="font-size:12px;fill:none;fill-rule:evenodd;stroke:#ff0000;stroke-width:0.2;stroke-linecap:round;stroke-dasharray:none;stroke-opacity:1"
       d="M 509.58632,164.55141"
       id="path9242-4" /><path
       style="font-size:12px;fill:none;fill-rule:evenodd;stroke:#000000;stroke-width:0.2;stroke-linecap:round;stroke-dasharray:none;stroke-opacity:1"
       d="m 608.50532,198.38841 -0.019,-0.002 v -39.935 a 1,1 0 0 0 -1,-1 h -105 a 1,1 0 0 0 -1,1 v 83 a 1,1 0 0 0 1,1 h 32.076 a 22,22 0 0 1 41.704,-3.528 l 2.657,-18.911 h -13.268 v -4.25 h -17 v 8.5 h -16.819 l 1.81,12.879 -18.815,2.645 -7.237,-51.494 18.815,-2.645 3.246,23.094 v -36.479 h 18 v -8.5 h 19 v 4.25 h 18 v 4.25 h 18 v 49.111 l 13.176,1.852 a 39.9,39.9 0 0 1 -7.345,-21.852 v -2.49 a 39.9,39.9 0 0 1 0.019,-0.495 z"
       id="path9054-3" /><g
       inkscape:label="Hershey Text"
       style="fill:none;stroke:#00ff00;stroke-linecap:round;stroke-linejoin:round;stroke-opacity:1"
       id="g10556"><g
         transform="translate(554.22,161.688)"
         id="g10554"
         style="stroke:#00ff00;stroke-opacity:1"><path
           d="M 220,662 V 0 m 0,0 h 378"
           style="stroke:#00ff00;stroke-width:0.5331in;stroke-opacity:1"
           transform="scale(0.003175,-0.003175)"
           id="path10548" /><path
           d="m 284,536 62,31 95,95 V 0"
           style="stroke:#00ff00;stroke-width:0.5331in;stroke-opacity:1"
           transform="matrix(0.003175,0,0,-0.003175,1.7018,0)"
           id="path10550" /><path
           d="M 252,662 H 598 L 410,410 h 94 l 63,-32 31,-32 32,-94 V 189 L 598,94.5 536,31.5 441,0 H 346 L 252,31.5 220,63 189,126"
           style="stroke:#00ff00;stroke-width:0.5331in;stroke-opacity:1"
           transform="matrix(0.003175,0,0,-0.003175,3.70205,0)"
           id="path10552" /></g></g></g><g
     id="g11205"
     transform="rotate(90,382.30082,374.90587)"><path
       style="font-size:12px;fill:none;fill-rule:evenodd;stroke:#000000;stroke-width:0.2;stroke-linecap:round;stroke-dasharray:none;stroke-opacity:1"
       d="m 117.15178,317.65524 -0.019,-0.002 v -39.935 a 1,1 0 0 0 -1,-1 H 11.132783 a 1,1 0 0 0 -1,1 v 83 a 1,1 0 0 0 1,1 h 32.076 a 22,22 0 0 1 41.703998,-3.528 l 2.657,-18.911 h -13.268 v -4.25 H 57.301783 v 8.5 h -16.819 l 1.81,12.879 -18.815,2.645 -7.237,-51.494 18.815,-2.645 3.246,23.094 v -36.479 h 18 v -8.5 h 18.999998 v 4.25 h 18 v 4.25 h 17.999999 v 49.111 l 13.176,1.852 a 39.9,39.9 0 0 1 -7.345,-21.852 v -2.49 a 39.9,39.9 0 0 1 0.019,-0.495 z"
       id="path9177" /><g
       inkscape:label="Hershey Text"
       style="fill:none;stroke:#00ff00;stroke-linecap:round;stroke-linejoin:round;stroke-opacity:1"
       id="g10566"><g
         transform="translate(62.3808,280.493)"
         id="g10564"
         style="stroke:#00ff00;stroke-opacity:1"><path
           d="M 220,662 V 0 m 0,0 h 378"
           style="stroke:#00ff00;stroke-width:0.5331in;stroke-opacity:1"
           transform="scale(0.003175,-0.003175)"
           id="path10558" /><path
           d="m 284,536 62,31 95,95 V 0"
           style="stroke:#00ff00;stroke-width:0.5331in;stroke-opacity:1"
           transform="matrix(0.003175,0,0,-0.003175,1.7018,0)"
           id="path10560" /><path
           d="M 504,662 189,220 H 662 M 504,662 V 0"
           style="stroke:#00ff00;stroke-width:0.5331in;stroke-opacity:1"
           transform="matrix(0.003175,0,0,-0.003175,3.70205,0)"
           id="path10562" /></g></g></g><g
     id="g11197"
     transform="rotate(-90,287.64204,72.807389)"><path
       style="font-size:12px;fill:none;fill-rule:evenodd;stroke:#ff0000;stroke-width:0.2;stroke-linecap:round;stroke-dasharray:none;stroke-opacity:1"
       d="m 257.4023,283.33716 a 4,4 0 1 0 -4.026,0 l 2.013,-3.456 z"
       id="path9262" /><path
       style="font-size:12px;fill:none;fill-rule:evenodd;stroke:#ff0000;stroke-width:0.2;stroke-linecap:round;stroke-dasharray:none;stroke-opacity:1"
       d="m 257.3893,290.18116 a 4,4 0 1 0 1.987,-3.456 l 2.013,3.456 z"
       id="path9260" /><path
       style="font-size:12px;fill:none;fill-rule:evenodd;stroke:#ff0000;stroke-width:0.2;stroke-linecap:round;stroke-dasharray:none;stroke-opacity:1"
       d="m 251.4023,286.72516 a 4,4 0 1 0 1.987,3.456 h -4 z"
       id="path9258" /><path
       style="font-size:12px;fill:none;fill-rule:evenodd;stroke:#000000;stroke-width:0.2;stroke-linecap:round;stroke-dasharray:none;stroke-opacity:1"
       d="m 348.1583,310.41816 -0.019,-0.002 v -39.935 a 1,1 0 0 0 -1,-1 h -105 a 1,1 0 0 0 -1,1 v 83 a 1,1 0 0 0 1,1 h 32.076 a 22,22 0 0 1 41.704,-3.528 l 2.657,-18.911 h -13.268 v -4.25 h -17 v 8.5 h -16.819 l 1.81,12.879 -18.815,2.645 -7.237,-51.494 18.815,-2.645 3.246,23.094 v -36.479 h 18 v -8.5 h 19 v 4.25 h 18 v 4.25 h 18 v 49.111 l 13.176,1.852 a 39.9,39.9 0 0 1 -7.345,-21.852 v -2.49 a 39.9,39.9 0 0 1 0.019,-0.495 z"
       id="path9229" /></g><g
     id="g15774"
     transform="rotate(90,305.37545,-38.81488)"><path
       style="font-size:12px;fill:none;fill-rule:evenodd;stroke:#ff0000;stroke-width:0.2;stroke-linecap:round;stroke-dasharray:none;stroke-opacity:1"
       d="m 425.45485,211.12962 a 1,1 0 0 1 2,0 1,1 0 0 1 -2,0 z"
       id="path15180" /><path
       style="font-size:12px;fill:none;fill-rule:evenodd;stroke:#ff0000;stroke-width:0.2;stroke-linecap:round;stroke-dasharray:none;stroke-opacity:1"
       d="M 426.45485,211.12962"
       id="path15178" /><path
       style="font-size:12px;fill:none;fill-rule:evenodd;stroke:#ff0000;stroke-width:0.2;stroke-linecap:round;stroke-dasharray:none;stroke-opacity:1"
       d="m 386.85485,211.12962 a 1,1 0 0 1 2,0 1,1 0 0 1 -2,0 z"
       id="path15176" /><path
       style="font-size:12px;fill:none;fill-rule:evenodd;stroke:#ff0000;stroke-width:0.2;stroke-linecap:round;stroke-dasharray:none;stroke-opacity:1"
       d="M 387.85485,211.12962"
       id="path15174" /><path
       style="font-size:12px;fill:none;fill-rule:evenodd;stroke:#ff0000;stroke-width:0.2;stroke-linecap:round;stroke-dasharray:none;stroke-opacity:1"
       d="m 406.15485,231.12962 a 1,1 0 0 1 2,0 1,1 0 0 1 -2,0 z"
       id="path15172" /><path
       style="font-size:12px;fill:none;fill-rule:evenodd;stroke:#ff0000;stroke-width:0.2;stroke-linecap:round;stroke-dasharray:none;stroke-opacity:1"
       d="M 407.15485,231.12962"
       id="path15170" /><path
       style="font-size:12px;fill:none;fill-rule:evenodd;stroke:#0000ff;stroke-width:0.2;stroke-linecap:round;stroke-dasharray:none;stroke-opacity:1"
       d="m 429.08985,212.82362 a 22,22 0 0 0 -0.513,-6.702 l -0.652,-0.092 h -4.77 v 15.6 a 5,5 0 0 1 -5,5 h -22 a 5,5 0 0 1 -5,-5 v -15.6 h -5.401 a 22,22 0 0 0 -0.534,6.794 5,5 0 0 0 -0.065,0.806 v 17 a 5,5 0 0 0 5,5 h 34 a 5,5 0 0 0 5,-5 v -17 a 5,5 0 0 0 -0.065,-0.806 z"
       id="path14590" /><text
       xml:space="preserve"
       style="font-size:3.175px;fill:none;fill-opacity:0.512274;stroke:#00ff00;stroke-width:0.2;stroke-linecap:round;stroke-opacity:1;stop-color:#000000"
       x="396.07623"
       y="232.00723"
       id="text14603"><tspan
         sodipodi:role="line"
         id="tspan14601"
         style="stroke:#00ff00;stroke-width:0.2;stroke-opacity:1"
         x="396.07623"
         y="232.00723">03</tspan></text></g><g
     id="g15785"
     transform="rotate(90,293.32489,111.33114)"><path
       style="font-size:12px;fill:none;fill-rule:evenodd;stroke:#ff0000;stroke-width:0.2;stroke-linecap:round;stroke-dasharray:none;stroke-opacity:1"
       d="m 270.95113,271.34559 a 1.5,1.5 0 0 1 3,0 1.5,1.5 0 0 1 -3,0 z"
       id="path15194" /><path
       style="font-size:12px;fill:none;fill-rule:evenodd;stroke:#ff0000;stroke-width:0.2;stroke-linecap:round;stroke-dasharray:none;stroke-opacity:1"
       d="M 272.45113,271.34559"
       id="path15192" /><path
       style="font-size:12px;fill:none;fill-rule:evenodd;stroke:#ff0000;stroke-width:0.2;stroke-linecap:round;stroke-dasharray:none;stroke-opacity:1"
       d="m 232.35113,271.34559 a 1.5,1.5 0 0 1 3,0 1.5,1.5 0 0 1 -3,0 z"
       id="path15190" /><path
       style="font-size:12px;fill:none;fill-rule:evenodd;stroke:#ff0000;stroke-width:0.2;stroke-linecap:round;stroke-dasharray:none;stroke-opacity:1"
       d="M 233.85113,271.34559"
       id="path15188" /><path
       style="font-size:12px;fill:none;fill-rule:evenodd;stroke:#ff0000;stroke-width:0.2;stroke-linecap:round;stroke-dasharray:none;stroke-opacity:1"
       d="m 251.65113,291.34559 a 1.5,1.5 0 0 1 3,0 1.5,1.5 0 0 1 -3,0 z"
       id="path15186" /><path
       style="font-size:12px;fill:none;fill-rule:evenodd;stroke:#ff0000;stroke-width:0.2;stroke-linecap:round;stroke-dasharray:none;stroke-opacity:1"
       d="M 253.15113,291.34559"
       id="path15184" /><path
       style="font-size:12px;fill:none;fill-rule:evenodd;stroke:#0000ff;stroke-width:0.2;stroke-linecap:round;stroke-dasharray:none;stroke-opacity:1"
       d="m 275.08613,273.03959 a 22,22 0 0 0 -0.513,-6.702 l -0.652,-0.092 h -4.77 v 15.6 a 5,5 0 0 1 -5,5 h -22 a 5,5 0 0 1 -5,-5 v -15.6 h -5.401 a 22,22 0 0 0 -0.534,6.794 5,5 0 0 0 -0.065,0.806 v 17 a 5,5 0 0 0 5,5 h 34 a 5,5 0 0 0 5,-5 v -17 a 5,5 0 0 0 -0.065,-0.806 z"
       id="path14646" /><text
       xml:space="preserve"
       style="font-size:3.175px;fill:none;fill-opacity:0.512274;stroke:#00ff00;stroke-width:0.2;stroke-linecap:round;stroke-opacity:1;stop-color:#000000"
       x="235.96899"
       y="289.79437"
       id="text14756"><tspan
         sodipodi:role="line"
         id="tspan14754"
         style="stroke:#00ff00;stroke-width:0.2;stroke-opacity:1"
         x="235.96899"
         y="289.79437">04</tspan></text></g><g
     id="g15796"
     transform="rotate(90,366.57856,121.1719)"><path
       style="font-size:12px;fill:none;fill-rule:evenodd;stroke:#ff0000;stroke-width:0.2;stroke-linecap:round;stroke-dasharray:none;stroke-opacity:1"
       d="m 326.27121,272.6611 a 1.5,1.5 0 0 1 3,0 1.5,1.5 0 0 1 -3,0 z"
       id="path15208" /><path
       style="font-size:12px;fill:none;fill-rule:evenodd;stroke:#ff0000;stroke-width:0.2;stroke-linecap:round;stroke-dasharray:none;stroke-opacity:1"
       d="M 327.77121,272.6611"
       id="path15206" /><path
       style="font-size:12px;fill:none;fill-rule:evenodd;stroke:#ff0000;stroke-width:0.2;stroke-linecap:round;stroke-dasharray:none;stroke-opacity:1"
       d="m 287.67121,272.6611 a 1.5,1.5 0 0 1 3,0 1.5,1.5 0 0 1 -3,0 z"
       id="path15204" /><path
       style="font-size:12px;fill:none;fill-rule:evenodd;stroke:#ff0000;stroke-width:0.2;stroke-linecap:round;stroke-dasharray:none;stroke-opacity:1"
       d="M 289.17121,272.6611"
       id="path15202" /><path
       style="font-size:12px;fill:none;fill-rule:evenodd;stroke:#ff0000;stroke-width:0.2;stroke-linecap:round;stroke-dasharray:none;stroke-opacity:1"
       d="m 306.97121,292.6611 a 1.5,1.5 0 0 1 3,0 1.5,1.5 0 0 1 -3,0 z"
       id="path15200" /><path
       style="font-size:12px;fill:none;fill-rule:evenodd;stroke:#ff0000;stroke-width:0.2;stroke-linecap:round;stroke-dasharray:none;stroke-opacity:1"
       d="M 308.47121,292.6611"
       id="path15198" /><path
       style="font-size:12px;fill:none;fill-rule:evenodd;stroke:#0000ff;stroke-width:0.2;stroke-linecap:round;stroke-dasharray:none;stroke-opacity:1"
       d="m 330.40621,274.3551 a 22,22 0 0 0 -0.513,-6.702 l -0.652,-0.092 h -4.77 v 15.6 a 5,5 0 0 1 -5,5 h -22 a 5,5 0 0 1 -5,-5 v -15.6 h -5.401 a 22,22 0 0 0 -0.534,6.794 5,5 0 0 0 -0.065,0.806 v 17 a 5,5 0 0 0 5,5 h 34 a 5,5 0 0 0 5,-5 v -17 a 5,5 0 0 0 -0.065,-0.806 z"
       id="path14646-2" /><text
       xml:space="preserve"
       style="font-size:3.175px;fill:none;fill-opacity:0.512274;stroke:#00ff00;stroke-width:0.2;stroke-linecap:round;stroke-opacity:1;stop-color:#000000"
       x="292.85074"
       y="292.29605"
       id="text14760"><tspan
         sodipodi:role="line"
         id="tspan14758"
         style="stroke:#00ff00;stroke-width:0.2;stroke-opacity:1"
         x="292.85074"
         y="292.29605">05</tspan></text></g><g
     id="g15807"
     transform="rotate(90,420.63807,141.93091)"><path
       style="font-size:12px;fill:none;fill-rule:evenodd;stroke:#ff0000;stroke-width:0.2;stroke-linecap:round;stroke-dasharray:none;stroke-opacity:1"
       d="m 376.0029,271.92466 a 1.5,1.5 0 0 1 3,0 1.5,1.5 0 0 1 -3,0 z"
       id="path15222" /><path
       style="font-size:12px;fill:none;fill-rule:evenodd;stroke:#ff0000;stroke-width:0.2;stroke-linecap:round;stroke-dasharray:none;stroke-opacity:1"
       d="M 377.5029,271.92466"
       id="path15220" /><path
       style="font-size:12px;fill:none;fill-rule:evenodd;stroke:#ff0000;stroke-width:0.2;stroke-linecap:round;stroke-dasharray:none;stroke-opacity:1"
       d="m 337.4029,271.92466 a 1.5,1.5 0 0 1 3,0 1.5,1.5 0 0 1 -3,0 z"
       id="path15218" /><path
       style="font-size:12px;fill:none;fill-rule:evenodd;stroke:#ff0000;stroke-width:0.2;stroke-linecap:round;stroke-dasharray:none;stroke-opacity:1"
       d="M 338.9029,271.92466"
       id="path15216" /><path
       style="font-size:12px;fill:none;fill-rule:evenodd;stroke:#ff0000;stroke-width:0.2;stroke-linecap:round;stroke-dasharray:none;stroke-opacity:1"
       d="m 356.7029,291.92466 a 1.5,1.5 0 0 1 3,0 1.5,1.5 0 0 1 -3,0 z"
       id="path15214" /><path
       style="font-size:12px;fill:none;fill-rule:evenodd;stroke:#ff0000;stroke-width:0.2;stroke-linecap:round;stroke-dasharray:none;stroke-opacity:1"
       d="M 358.2029,291.92466"
       id="path15212" /><path
       style="font-size:12px;fill:none;fill-rule:evenodd;stroke:#0000ff;stroke-width:0.2;stroke-linecap:round;stroke-dasharray:none;stroke-opacity:1"
       d="m 380.1379,273.61866 a 22,22 0 0 0 -0.513,-6.702 l -0.652,-0.092 h -4.77 v 15.6 a 5,5 0 0 1 -5,5 h -22 a 5,5 0 0 1 -5,-5 v -15.6 h -5.401 a 22,22 0 0 0 -0.534,6.794 5,5 0 0 0 -0.065,0.806 v 17 a 5,5 0 0 0 5,5 h 34 a 5,5 0 0 0 5,-5 v -17 a 5,5 0 0 0 -0.065,-0.806 z"
       id="path14646-6" /><text
       xml:space="preserve"
       style="font-size:3.175px;fill:none;fill-opacity:0.512274;stroke:#00ff00;stroke-width:0.2;stroke-linecap:round;stroke-opacity:1;stop-color:#000000"
       x="341.71634"
       y="293.97104"
       id="text14764"><tspan
         sodipodi:role="line"
         id="tspan14762"
         style="stroke:#00ff00;stroke-width:0.2;stroke-opacity:1"
         x="341.71634"
         y="293.97104">06</tspan></text></g><g
     id="g15818"
     transform="rotate(90,495.25756,150.68189)"><path
       style="font-size:12px;fill:none;fill-rule:evenodd;stroke:#ff0000;stroke-width:0.2;stroke-linecap:round;stroke-dasharray:none;stroke-opacity:1"
       d="m 426.58861,272.0384 a 1.5,1.5 0 0 1 3,0 1.5,1.5 0 0 1 -3,0 z"
       id="path15236" /><path
       style="font-size:12px;fill:none;fill-rule:evenodd;stroke:#ff0000;stroke-width:0.2;stroke-linecap:round;stroke-dasharray:none;stroke-opacity:1"
       d="M 428.08861,272.0384"
       id="path15234" /><path
       style="font-size:12px;fill:none;fill-rule:evenodd;stroke:#ff0000;stroke-width:0.2;stroke-linecap:round;stroke-dasharray:none;stroke-opacity:1"
       d="m 387.98861,272.0384 a 1.5,1.5 0 0 1 3,0 1.5,1.5 0 0 1 -3,0 z"
       id="path15232" /><path
       style="font-size:12px;fill:none;fill-rule:evenodd;stroke:#ff0000;stroke-width:0.2;stroke-linecap:round;stroke-dasharray:none;stroke-opacity:1"
       d="M 389.48861,272.0384"
       id="path15230" /><path
       style="font-size:12px;fill:none;fill-rule:evenodd;stroke:#ff0000;stroke-width:0.2;stroke-linecap:round;stroke-dasharray:none;stroke-opacity:1"
       d="m 407.28861,292.0384 a 1.5,1.5 0 0 1 3,0 1.5,1.5 0 0 1 -3,0 z"
       id="path15228" /><path
       style="font-size:12px;fill:none;fill-rule:evenodd;stroke:#ff0000;stroke-width:0.2;stroke-linecap:round;stroke-dasharray:none;stroke-opacity:1"
       d="M 408.78861,292.0384"
       id="path15226" /><path
       style="font-size:12px;fill:none;fill-rule:evenodd;stroke:#0000ff;stroke-width:0.2;stroke-linecap:round;stroke-dasharray:none;stroke-opacity:1"
       d="m 430.72361,273.7324 a 22,22 0 0 0 -0.513,-6.702 l -0.652,-0.092 h -4.77 v 15.6 a 5,5 0 0 1 -5,5 h -22 a 5,5 0 0 1 -5,-5 v -15.6 h -5.401 a 22,22 0 0 0 -0.534,6.794 5,5 0 0 0 -0.065,0.806 v 17 a 5,5 0 0 0 5,5 h 34 a 5,5 0 0 0 5,-5 v -17 a 5,5 0 0 0 -0.065,-0.806 z"
       id="path14646-64" /><text
       xml:space="preserve"
       style="font-size:3.175px;fill:none;fill-opacity:0.512274;stroke:#00ff00;stroke-width:0.2;stroke-linecap:round;stroke-opacity:1;stop-color:#000000"
       x="391.33734"
       y="291.60016"
       id="text14768"><tspan
         sodipodi:role="line"
         id="tspan14766"
         style="stroke:#00ff00;stroke-width:0.2;stroke-opacity:1"
         x="391.33734"
         y="291.60016">07</tspan></text></g><g
     id="g15829"
     transform="rotate(90,560.21354,165.8081)"><path
       style="font-size:12px;fill:none;fill-rule:evenodd;stroke:#ff0000;stroke-width:0.2;stroke-linecap:round;stroke-dasharray:none;stroke-opacity:1"
       d="m 478.91555,271.77866 a 1.5,1.5 0 0 1 3,0 1.5,1.5 0 0 1 -3,0 z"
       id="path15250" /><path
       style="font-size:12px;fill:none;fill-rule:evenodd;stroke:#ff0000;stroke-width:0.2;stroke-linecap:round;stroke-dasharray:none;stroke-opacity:1"
       d="M 480.41555,271.77866"
       id="path15248" /><path
       style="font-size:12px;fill:none;fill-rule:evenodd;stroke:#ff0000;stroke-width:0.2;stroke-linecap:round;stroke-dasharray:none;stroke-opacity:1"
       d="m 440.31555,271.77866 a 1.5,1.5 0 0 1 3,0 1.5,1.5 0 0 1 -3,0 z"
       id="path15246" /><path
       style="font-size:12px;fill:none;fill-rule:evenodd;stroke:#ff0000;stroke-width:0.2;stroke-linecap:round;stroke-dasharray:none;stroke-opacity:1"
       d="M 441.81555,271.77866"
       id="path15244" /><path
       style="font-size:12px;fill:none;fill-rule:evenodd;stroke:#ff0000;stroke-width:0.2;stroke-linecap:round;stroke-dasharray:none;stroke-opacity:1"
       d="m 459.61555,291.77866 a 1.5,1.5 0 0 1 3,0 1.5,1.5 0 0 1 -3,0 z"
       id="path15242" /><path
       style="font-size:12px;fill:none;fill-rule:evenodd;stroke:#ff0000;stroke-width:0.2;stroke-linecap:round;stroke-dasharray:none;stroke-opacity:1"
       d="M 461.11555,291.77866"
       id="path15240" /><path
       style="font-size:12px;fill:none;fill-rule:evenodd;stroke:#0000ff;stroke-width:0.2;stroke-linecap:round;stroke-dasharray:none;stroke-opacity:1"
       d="m 483.05055,273.47266 a 22,22 0 0 0 -0.513,-6.702 l -0.652,-0.092 h -4.77 v 15.6 a 5,5 0 0 1 -5,5 h -22 a 5,5 0 0 1 -5,-5 v -15.6 h -5.401 a 22,22 0 0 0 -0.534,6.794 5,5 0 0 0 -0.065,0.806 v 17 a 5,5 0 0 0 5,5 h 34 a 5,5 0 0 0 5,-5 v -17 a 5,5 0 0 0 -0.065,-0.806 z"
       id="path14646-9" /><text
       xml:space="preserve"
       style="font-size:3.175px;fill:none;fill-opacity:0.512274;stroke:#00ff00;stroke-width:0.2;stroke-linecap:round;stroke-opacity:1;stop-color:#000000"
       x="444.4346"
       y="292.60907"
       id="text14772"><tspan
         sodipodi:role="line"
         id="tspan14770"
         style="stroke:#00ff00;stroke-width:0.2;stroke-opacity:1"
         x="444.4346"
         y="292.60907">08</tspan></text></g><g
     id="g15840"
     transform="rotate(90,626.61407,178.39115)"><path
       style="font-size:12px;fill:none;fill-rule:evenodd;stroke:#ff0000;stroke-width:0.2;stroke-linecap:round;stroke-dasharray:none;stroke-opacity:1"
       d="m 528.42411,270.7898 a 1.5,1.5 0 0 1 3,0 1.5,1.5 0 0 1 -3,0 z"
       id="path15264" /><path
       style="font-size:12px;fill:none;fill-rule:evenodd;stroke:#ff0000;stroke-width:0.2;stroke-linecap:round;stroke-dasharray:none;stroke-opacity:1"
       d="M 529.92411,270.7898"
       id="path15262" /><path
       style="font-size:12px;fill:none;fill-rule:evenodd;stroke:#ff0000;stroke-width:0.2;stroke-linecap:round;stroke-dasharray:none;stroke-opacity:1"
       d="m 489.82411,270.7898 a 1.5,1.5 0 0 1 3,0 1.5,1.5 0 0 1 -3,0 z"
       id="path15260" /><path
       style="font-size:12px;fill:none;fill-rule:evenodd;stroke:#ff0000;stroke-width:0.2;stroke-linecap:round;stroke-dasharray:none;stroke-opacity:1"
       d="M 491.32411,270.7898"
       id="path15258" /><path
       style="font-size:12px;fill:none;fill-rule:evenodd;stroke:#ff0000;stroke-width:0.2;stroke-linecap:round;stroke-dasharray:none;stroke-opacity:1"
       d="m 509.12411,290.7898 a 1.5,1.5 0 0 1 3,0 1.5,1.5 0 0 1 -3,0 z"
       id="path15256" /><path
       style="font-size:12px;fill:none;fill-rule:evenodd;stroke:#ff0000;stroke-width:0.2;stroke-linecap:round;stroke-dasharray:none;stroke-opacity:1"
       d="M 510.62411,290.7898"
       id="path15254" /><path
       style="font-size:12px;fill:none;fill-rule:evenodd;stroke:#0000ff;stroke-width:0.2;stroke-linecap:round;stroke-dasharray:none;stroke-opacity:1"
       d="m 532.55911,272.4838 a 22,22 0 0 0 -0.513,-6.702 l -0.652,-0.092 h -4.77 v 15.6 a 5,5 0 0 1 -5,5 h -22 a 5,5 0 0 1 -5,-5 v -15.6 h -5.401 a 22,22 0 0 0 -0.534,6.794 5,5 0 0 0 -0.065,0.806 v 17 a 5,5 0 0 0 5,5 h 34 a 5,5 0 0 0 5,-5 v -17 a 5,5 0 0 0 -0.065,-0.806 z"
       id="path14646-5" /><text
       xml:space="preserve"
       style="font-size:3.175px;fill:none;fill-opacity:0.512274;stroke:#00ff00;stroke-width:0.2;stroke-linecap:round;stroke-opacity:1;stop-color:#000000"
       x="493.93967"
       y="290.95966"
       id="text14776"><tspan
         sodipodi:role="line"
         id="tspan14774"
         style="stroke:#00ff00;stroke-width:0.2;stroke-opacity:1"
         x="493.93967"
         y="290.95966">09</tspan></text></g><g
     id="g15851"
     transform="rotate(-90,316.38838,305.00335)"><path
       style="font-size:12px;fill:none;fill-rule:evenodd;stroke:#ff0000;stroke-width:0.2;stroke-linecap:round;stroke-dasharray:none;stroke-opacity:1"
       d="m 577.33441,270.79858 a 1.5,1.5 0 0 1 3,0 1.5,1.5 0 0 1 -3,0 z"
       id="path15278" /><path
       style="font-size:12px;fill:none;fill-rule:evenodd;stroke:#ff0000;stroke-width:0.2;stroke-linecap:round;stroke-dasharray:none;stroke-opacity:1"
       d="M 578.83441,270.79858"
       id="path15276" /><path
       style="font-size:12px;fill:none;fill-rule:evenodd;stroke:#ff0000;stroke-width:0.2;stroke-linecap:round;stroke-dasharray:none;stroke-opacity:1"
       d="m 538.73441,270.79858 a 1.5,1.5 0 0 1 3,0 1.5,1.5 0 0 1 -3,0 z"
       id="path15274" /><path
       style="font-size:12px;fill:none;fill-rule:evenodd;stroke:#ff0000;stroke-width:0.2;stroke-linecap:round;stroke-dasharray:none;stroke-opacity:1"
       d="M 540.23441,270.79858"
       id="path15272" /><path
       style="font-size:12px;fill:none;fill-rule:evenodd;stroke:#ff0000;stroke-width:0.2;stroke-linecap:round;stroke-dasharray:none;stroke-opacity:1"
       d="m 558.03441,290.79858 a 1.5,1.5 0 0 1 3,0 1.5,1.5 0 0 1 -3,0 z"
       id="path15270" /><path
       style="font-size:12px;fill:none;fill-rule:evenodd;stroke:#ff0000;stroke-width:0.2;stroke-linecap:round;stroke-dasharray:none;stroke-opacity:1"
       d="M 559.53441,290.79858"
       id="path15268" /><path
       style="font-size:12px;fill:none;fill-rule:evenodd;stroke:#0000ff;stroke-width:0.2;stroke-linecap:round;stroke-dasharray:none;stroke-opacity:1"
       d="m 581.46941,272.49258 a 22,22 0 0 0 -0.513,-6.702 l -0.652,-0.092 h -4.77 v 15.6 a 5,5 0 0 1 -5,5 h -22 a 5,5 0 0 1 -5,-5 v -15.6 h -5.401 a 22,22 0 0 0 -0.534,6.794 5,5 0 0 0 -0.065,0.806 v 17 a 5,5 0 0 0 5,5 h 34 a 5,5 0 0 0 5,-5 v -17 a 5,5 0 0 0 -0.065,-0.806 z"
       id="path14646-0" /><text
       xml:space="preserve"
       style="font-size:3.175px;fill:none;fill-opacity:0.512274;stroke:#00ff00;stroke-width:0.2;stroke-linecap:round;stroke-opacity:1;stop-color:#000000"
       x="543.88184"
       y="290.48709"
       id="text14780"><tspan
         sodipodi:role="line"
         id="tspan14778"
         style="stroke:#00ff00;stroke-width:0.2;stroke-opacity:1"
         x="543.88184"
         y="290.48709">10</tspan></text></g></svg>
