<?xml version="1.0" encoding="UTF-8" standalone="no"?>
<!-- Created with Inkscape (http://www.inkscape.org/) -->

<svg
   inkscape:version="1.2.2 (b0a8486541, 2022-12-01)"
   sodipodi:docname="beech_01.svg"
   xml:space="preserve"
   id="svg465"
   version="1.1"
   viewBox="0 0 600 130"
   height="130mm"
   width="600mm"
   xmlns:inkscape="http://www.inkscape.org/namespaces/inkscape"
   xmlns:sodipodi="http://sodipodi.sourceforge.net/DTD/sodipodi-0.dtd"
   xmlns="http://www.w3.org/2000/svg"
   xmlns:svg="http://www.w3.org/2000/svg"><sodipodi:namedview
     id="namedview467"
     pagecolor="#ffffff"
     bordercolor="#000000"
     borderopacity="0.25"
     inkscape:showpageshadow="2"
     inkscape:pageopacity="0.0"
     inkscape:pagecheckerboard="0"
     inkscape:deskcolor="#d1d1d1"
     inkscape:document-units="mm"
     showgrid="false"
     inkscape:zoom="0.73749998"
     inkscape:cx="1585.0848"
     inkscape:cy="499.66103"
     inkscape:window-width="1920"
     inkscape:window-height="1144"
     inkscape:window-x="0"
     inkscape:window-y="0"
     inkscape:window-maximized="1"
     inkscape:current-layer="g6418" /><defs
     id="defs462"><inkscape:path-effect
       effect="bspline"
       id="path-effect18350"
       is_visible="true"
       lpeversion="1"
       weight="15"
       steps="2"
       helper_size="0"
       apply_no_weight="true"
       apply_with_weight="true"
       only_selected="false" /><inkscape:path-effect
       effect="bspline"
       id="path-effect3138"
       is_visible="true"
       lpeversion="1"
       weight="15"
       steps="2"
       helper_size="0"
       apply_no_weight="true"
       apply_with_weight="true"
       only_selected="false" /><inkscape:path-effect
       effect="bspline"
       id="path-effect3138-3"
       is_visible="true"
       lpeversion="1"
       weight="15"
       steps="2"
       helper_size="0"
       apply_no_weight="true"
       apply_with_weight="true"
       only_selected="false" /></defs><g
     id="g6027"
     transform="rotate(-90,-7.0394012,130.38767)"
     style="stroke-width:0.3;stroke-dasharray:none"><path
       style="font-size:12px;fill:none;fill-rule:evenodd;stroke:#ff0000;stroke-width:0.2;stroke-linecap:round;stroke-opacity:1;stroke-dasharray:none"
       d="m 83.620179,117.6188 a 1.8,1.8 0 0 1 0,-3.6 1.8,1.8 0 0 1 0,3.6 z"
       transform="rotate(90,-7.0394019,130.38767)"
       id="path722" /><path
       style="font-size:12px;fill:none;fill-rule:evenodd;stroke:#ff0000;stroke-width:0.2;stroke-linecap:round;stroke-opacity:1;stroke-dasharray:none"
       d="M 83.620179,115.8188"
       transform="rotate(90,-7.0394019,130.38767)"
       id="path720" /><path
       style="font-size:12px;fill:none;fill-rule:evenodd;stroke:#ff0000;stroke-width:0.2;stroke-linecap:round;stroke-opacity:1;stroke-dasharray:none"
       d="m 86.620178,27.451808 a 1.8,1.8 0 0 1 0,-3.599999 1.8,1.8 0 0 1 0,3.599999 z"
       transform="rotate(90,-7.0394019,130.38767)"
       id="path718" /><path
       style="font-size:12px;fill:none;fill-rule:evenodd;stroke:#ff0000;stroke-width:0.2;stroke-linecap:round;stroke-opacity:1;stroke-dasharray:none"
       d="M 86.620178,25.651809"
       transform="rotate(90,-7.0394019,130.38767)"
       id="path716" /><path
       style="font-size:12px;fill:none;fill-rule:evenodd;stroke:#ff0000;stroke-width:0.2;stroke-linecap:round;stroke-opacity:1;stroke-dasharray:none"
       d="m 65.320179,15.418809 a 1.8,1.8 0 0 1 0,-3.6 1.8,1.8 0 0 1 0,3.6 z"
       transform="rotate(90,-7.0394019,130.38767)"
       id="path714" /><path
       style="font-size:12px;fill:none;fill-rule:evenodd;stroke:#ff0000;stroke-width:0.2;stroke-linecap:round;stroke-opacity:1;stroke-dasharray:none"
       d="M 65.320179,13.618809"
       transform="rotate(90,-7.0394019,130.38767)"
       id="path712" /><path
       style="font-size:12px;fill:none;fill-rule:evenodd;stroke:#ff0000;stroke-width:0.2;stroke-linecap:round;stroke-opacity:1;stroke-dasharray:none"
       d="m 5.2201868,17.218809 a 1.8,1.8 0 0 1 0,-3.6 1.8,1.8 0 0 1 0,3.6 z"
       transform="rotate(90,-7.0394019,130.38767)"
       id="path710" /><path
       style="font-size:12px;fill:none;fill-rule:evenodd;stroke:#ff0000;stroke-width:0.2;stroke-linecap:round;stroke-opacity:1;stroke-dasharray:none"
       d="M 5.2201868,15.418809"
       transform="rotate(90,-7.0394019,130.38767)"
       id="path708" /><path
       style="font-size:12px;fill:none;fill-rule:evenodd;stroke:#ff0000;stroke-width:0.2;stroke-linecap:round;stroke-opacity:1;stroke-dasharray:none"
       d="m 5.2201868,117.6188 a 1.8,1.8 0 0 1 0,-3.6 1.8,1.8 0 0 1 0,3.6 z"
       transform="rotate(90,-7.0394019,130.38767)"
       id="path706" /><path
       style="font-size:12px;fill:none;fill-rule:evenodd;stroke:#ff0000;stroke-width:0.2;stroke-linecap:round;stroke-opacity:1;stroke-dasharray:none"
       d="M 5.2201868,115.8188"
       transform="rotate(90,-7.0394019,130.38767)"
       id="path704" /><path
       style="font-size:12px;fill:none;fill-rule:evenodd;stroke:#ff0000;stroke-width:0.2;stroke-linecap:round;stroke-opacity:1;stroke-dasharray:none"
       d="m 81.420179,16.118809 a 4.0000001,4.0000001 0 0 1 0,-8.0000002 4.0000001,4.0000001 0 0 1 0,8.0000002 z"
       transform="rotate(90,-7.0394019,130.38767)"
       id="path702" /><path
       style="font-size:12px;fill:none;fill-rule:evenodd;stroke:#ff0000;stroke-width:0.2;stroke-linecap:round;stroke-opacity:1;stroke-dasharray:none"
       d="M 81.420179,12.118809"
       transform="rotate(90,-7.0394019,130.38767)"
       id="path700" /><path
       style="font-size:12px;fill:none;fill-rule:evenodd;stroke:#ff0000;stroke-width:0.2;stroke-linecap:round;stroke-opacity:1;stroke-dasharray:none"
       d="m 78.120179,114.3188 a 4,4 0 0 1 0,-8 4,4 0 0 1 0,8 z"
       transform="rotate(90,-7.0394019,130.38767)"
       id="path698" /><path
       style="font-size:12px;fill:none;fill-rule:evenodd;stroke:#ff0000;stroke-width:0.2;stroke-linecap:round;stroke-opacity:1;stroke-dasharray:none"
       d="M 78.120179,110.3188"
       transform="rotate(90,-7.0394019,130.38767)"
       id="path696" /><path
       style="font-size:12px;fill:none;fill-rule:evenodd;stroke:#ff0000;stroke-width:0.2;stroke-linecap:round;stroke-opacity:1;stroke-dasharray:none"
       d="m 10.720187,24.918809 a 4,4 0 0 1 0,-8 4,4 0 0 1 0,8 z"
       transform="rotate(90,-7.0394019,130.38767)"
       id="path694" /><path
       style="font-size:12px;fill:none;fill-rule:evenodd;stroke:#ff0000;stroke-width:0.2;stroke-linecap:round;stroke-opacity:1;stroke-dasharray:none"
       d="M 10.720187,20.918809"
       transform="rotate(90,-7.0394019,130.38767)"
       id="path692" /><path
       style="font-size:12px;fill:none;fill-rule:evenodd;stroke:#ff0000;stroke-width:0.2;stroke-linecap:round;stroke-opacity:1;stroke-dasharray:none"
       d="m 10.720187,114.3188 a 4,4 0 0 1 0,-8 4,4 0 0 1 0,8 z"
       transform="rotate(90,-7.0394019,130.38767)"
       id="path690" /><path
       style="font-size:12px;fill:none;fill-rule:evenodd;stroke:#ff0000;stroke-width:0.2;stroke-linecap:round;stroke-opacity:1;stroke-dasharray:none"
       d="M 10.720187,110.3188"
       transform="rotate(90,-7.0394019,130.38767)"
       id="path688" /><path
       style="font-size:12px;fill:none;fill-rule:evenodd;stroke:#000000;stroke-width:0.2;stroke-linecap:round;stroke-opacity:1;stroke-dasharray:none"
       d="m 86.920178,43.848798 5.256,-37.3949892 a 1,1 0 0 0 -0.852,-1.13 l -12.514999,-1.759 a 1,1 0 0 0 -0.257,-0.072 l -7.827,-1.1 a 39.9,39.9 0 0 1 -24.883,9.7260002 h -2.49 a 39.9,39.9 0 0 1 -0.495,-0.019 l -0.002,0.019 H 2.9201868 a 1,1 0 0 0 -1,1 V 118.1188 a 1,1 0 0 0 1,1 H 85.920179 a 1,1 0 0 0 0.999999,-1 z"
       transform="rotate(90,-7.0394019,130.38767)"
       id="path476" /><path
       id="path3095"
       style="color:#000000;fill:none;stroke:#ff0000;stroke-width:0.3;stroke-linecap:round;stroke-linejoin:round;stroke-dasharray:none;stroke-opacity:1"
       d="m 36.31337,144.64816 c 0.984995,-1.30115 3.857895,-1.30115 4.867152,0.18536 1.009258,1.48652 7.558108,15.35508 8.046956,17.29051 0.488847,1.93543 -1.493822,6.13444 -2.735198,6.58412 -1.241377,0.44968 -10.850506,0.44968 -12.324238,-0.18459 -1.473732,-0.63428 -5.618492,-6.5595 -5.386484,-8.49569 0.232008,-1.93619 6.546816,-14.07855 7.531812,-15.37971 z m 12.3553,-0.002 c 1.126193,-1.29889 17.357244,-1.29889 18.78909,-2.4e-4 1.431847,1.29865 -1.429839,13.41605 -2.555231,14.71399 -1.125392,1.29793 -8.772833,1.29793 -10.205481,2.4e-4 -1.432647,-1.2977 -7.154572,-13.41509 -6.028378,-14.71399 z m 26.254423,0.14801 c 0.96669,-1.4469 6.796049,-1.4469 7.690449,-0.83064 0.8944,0.61626 3.414969,6.36242 3.448183,7.97925 0.03321,1.61683 -2.174093,10.96334 -3.288828,11.96439 -1.114734,1.00105 -9.317075,1.00105 -10.31684,0.83109 -0.999765,-0.16996 -2.127654,-1.7616 -1.907459,-3.37888 0.220196,-1.61727 3.407806,-15.11831 4.374495,-16.56521 z m 17.024128,11.4447 c 1.436454,-0.37484 12.839789,4.58672 14.060969,5.66379 1.22118,1.07707 1.22118,6.16596 -0.0932,6.71069 -1.31442,0.54474 -13.586999,0.54474 -15.022861,0.37482 -1.435862,-0.16993 -2.563751,-1.7612 -2.471106,-2.83824 0.09265,-1.07704 2.089785,-9.53621 3.526238,-9.91106 z m -68.956654,8.46903 c 1.609534,0.33084 5.800958,6.32442 6.160216,7.75153 0.359258,1.42711 -0.474904,8.75441 -2.083908,9.75257 -1.609004,0.99817 -15.796613,2.99169 -17.3171354,1.87701 -1.5205224,-1.11469 -1.5205224,-13.51714 -0.3597872,-15.15856 1.1607356,-1.64142 11.9910816,-4.55339 13.6006146,-4.22255 z m 32.158367,1.40045 c 1.083908,-0.4503 9.210285,-0.4503 10.201717,-0.27924 0.991432,0.17106 2.119321,1.76233 2.06748,2.66211 -0.05184,0.89978 -1.65903,7.70836 -2.650051,8.43748 -0.991021,0.72913 -8.638823,0.72913 -9.670991,0.27984 -1.032169,-0.44929 -3.015923,-4.64831 -3.016232,-5.54868 -3.08e-4,-0.90037 1.98417,-5.1012 3.068077,-5.55151 z m 17.939994,4.52942 c 1.051607,-0.72985 9.253948,-0.72985 10.253519,-0.55875 0.999571,0.1711 2.12746,1.76273 2.075618,2.66255 -0.05184,0.89982 -1.65903,7.70839 -2.709466,8.43752 -1.050436,0.72913 -9.252777,0.72913 -10.252542,0.55917 -0.999765,-0.16997 -2.127654,-1.7616 -2.076789,-2.66183 0.05087,-0.90023 1.658053,-7.70881 2.70966,-8.43866 z m -37.702715,4.27844 c 1.046494,-0.75791 10.003415,-0.75791 11.175376,-0.30725 1.17196,0.45065 3.155354,4.65112 3.155045,5.55071 -3.09e-4,0.8996 -1.982978,5.09898 -3.129709,5.5487 -1.146731,0.44972 -9.872504,0.44972 -10.918594,0.30776 -1.046089,-0.14196 -2.083184,-1.47206 -2.108508,-2.37216 -0.02533,-0.90009 0.779897,-7.96984 1.82639,-8.72776 z m 56.087833,-0.0281 c 1.43635,-0.72985 13.229274,-0.72985 14.492304,-0.0413 1.26302,0.68852 1.26302,7.11004 1.26319,7.80277 1.6e-4,0.69272 0.002,0.73651 0.0127,0.91627 0.0111,0.17977 0.11311,1.81372 0.0716,2.02038 -0.0416,0.20666 -0.53243,0.50726 -1.85807,0.53956 -1.32564,0.0323 -13.210757,0.0323 -14.605105,-0.13764 -1.394348,-0.16992 -2.522237,-1.76119 -2.471333,-2.66138 0.0509,-0.90019 1.658454,-7.70877 3.094804,-8.43862 z m -36.325112,8.2202 c 1.083908,-0.45031 9.210285,-0.45031 10.201717,-0.27924 0.991432,0.17106 2.119321,1.76233 1.794357,3.81897 -0.324965,2.05665 -4.481301,19.66266 -5.685082,19.94249 -1.203782,0.27984 -8.286191,-14.71661 -8.832784,-16.77385 -0.546593,-2.05724 1.437885,-6.25807 2.521792,-6.70837 z m 17.706055,5.51998 c 1.285546,-1.72042 9.487887,-1.72042 10.487458,-1.54932 0.999571,0.17111 2.12746,1.76274 2.026591,2.87029 -0.10087,1.10756 -2.165653,9.85504 -3.571183,11.40409 -1.40553,1.54906 -12.461599,7.26375 -13.240316,6.15645 -0.778717,-1.1073 3.011904,-17.1611 4.29745,-18.88151 z M 28.17008,188.01923 c 1.708085,-0.0981 2.635573,1.09092 2.626944,2.00089 -0.0086,0.90997 -1.012082,8.21521 -2.077971,9.13211 -1.065889,0.91691 -10.015214,2.17393 -11.615596,1.99213 -1.600382,-0.1818 -7.5896289,-3.13899 -8.2319343,-3.95745 -0.6423055,-0.81847 -0.6423055,-5.50222 0.9668162,-6.23072 1.6091221,-0.7285 16.6236571,-2.83886 18.3317411,-2.93696 z m 8.39334,3.89361 c 0.966972,-0.7548 9.019917,-0.7548 10.770912,1.12732 1.750995,1.88211 10.042686,19.4429 10.814073,21.63178 0.771387,2.18887 -0.317073,5.06069 -0.903256,5.36811 -0.586183,0.30742 -4.974391,0.30742 -6.712612,-1.12688 -1.738221,-1.43431 -13.573105,-14.8261 -14.738056,-17.01541 -1.164951,-2.18932 -0.198033,-9.23013 0.768939,-9.98492 z m 54.628008,0.0419 c 1.185436,-0.79671 10.488542,-0.79671 11.052862,0.27185 0.56432,1.06856 -3.46613,11.03943 -4.650274,11.83574 -1.184145,0.7963 -8.212295,-1.74199 -8.777909,-2.81015 -0.565614,-1.06817 1.189885,-8.50073 2.375321,-9.29744 z m -60.180245,14.01359 c 1.874544,1.05863 11.570128,12.02933 11.076004,13.20423 -0.494123,1.1749 -14.801828,1.1749 -16.676633,0.11747 -1.874804,-1.05744 -5.062413,-10.93245 -4.568029,-12.10853 0.494384,-1.1761 8.294114,-2.27179 10.168658,-1.21317 z m 53.517981,1.2499 c 2.46154,-0.44539 11.245552,2.72738 12.236642,3.15001 0.991091,0.42263 1.459538,1.19096 0.657968,2.06747 -0.80157,0.87652 -8.748165,8.29462 -10.651927,8.94157 -1.903761,0.64696 -11.730655,-0.73379 -12.804525,-0.8818 -1.073871,-0.14802 -1.269205,-0.14802 -2.018461,-0.14802 -0.749257,0 -7.546983,0 -8.193864,-0.21626 -0.646881,-0.21627 0.118912,-2.23728 0.261229,-2.521 0.142317,-0.28371 0.704092,-0.90843 2.284482,-1.76114 1.580391,-0.85271 15.766916,-8.18544 18.228456,-8.63083 z" /></g><g
     id="g6418"
     transform="rotate(-90,135.77318,527.19356)"
     style="stroke-width:0.3;stroke-dasharray:none"><path
       style="font-size:12px;fill:none;fill-rule:evenodd;stroke:#ff0000;stroke-width:0.2;stroke-linecap:round;stroke-dasharray:none;stroke-opacity:1"
       d="m 648.95554,566.56261 a 1.8,1.8 0 0 0 -3.6,0 1.8,1.8 0 0 0 3.6,0 z"
       id="path1331" /><path
       style="font-size:12px;fill:none;fill-rule:evenodd;stroke:#ff0000;stroke-width:0.2;stroke-linecap:round;stroke-dasharray:none;stroke-opacity:1"
       d="M 647.15554,566.56261"
       id="path1329" /><path
       style="font-size:12px;fill:none;fill-rule:evenodd;stroke:#ff0000;stroke-width:0.2;stroke-linecap:round;stroke-dasharray:none;stroke-opacity:1"
       d="m 558.78854,569.56261 a 1.8,1.8 0 0 0 -3.6,0 1.8,1.8 0 0 0 3.6,0 z"
       id="path1327" /><path
       style="font-size:12px;fill:none;fill-rule:evenodd;stroke:#ff0000;stroke-width:0.2;stroke-linecap:round;stroke-dasharray:none;stroke-opacity:1"
       d="M 556.98854,569.56261"
       id="path1325" /><path
       style="font-size:12px;fill:none;fill-rule:evenodd;stroke:#ff0000;stroke-width:0.2;stroke-linecap:round;stroke-dasharray:none;stroke-opacity:1"
       d="m 546.75554,548.26261 a 1.8,1.8 0 0 0 -3.6,0 1.8,1.8 0 0 0 3.6,0 z"
       id="path1323" /><path
       style="font-size:12px;fill:none;fill-rule:evenodd;stroke:#ff0000;stroke-width:0.2;stroke-linecap:round;stroke-dasharray:none;stroke-opacity:1"
       d="M 544.95554,548.26261"
       id="path1321" /><path
       style="font-size:12px;fill:none;fill-rule:evenodd;stroke:#ff0000;stroke-width:0.2;stroke-linecap:round;stroke-dasharray:none;stroke-opacity:1"
       d="m 548.55554,488.16262 a 1.8,1.8 0 0 0 -3.6,0 1.8,1.8 0 0 0 3.6,0 z"
       id="path1319" /><path
       style="font-size:12px;fill:none;fill-rule:evenodd;stroke:#ff0000;stroke-width:0.2;stroke-linecap:round;stroke-dasharray:none;stroke-opacity:1"
       d="M 546.75554,488.16262"
       id="path1317" /><path
       style="font-size:12px;fill:none;fill-rule:evenodd;stroke:#ff0000;stroke-width:0.2;stroke-linecap:round;stroke-dasharray:none;stroke-opacity:1"
       d="m 648.95554,488.16262 a 1.8,1.8 0 0 0 -3.6,0 1.8,1.8 0 0 0 3.6,0 z"
       id="path1315" /><path
       style="font-size:12px;fill:none;fill-rule:evenodd;stroke:#ff0000;stroke-width:0.2;stroke-linecap:round;stroke-dasharray:none;stroke-opacity:1"
       d="M 647.15554,488.16262"
       id="path1313" /><path
       style="font-size:12px;fill:none;fill-rule:evenodd;stroke:#ff0000;stroke-width:0.2;stroke-linecap:round;stroke-dasharray:none;stroke-opacity:1"
       d="m 547.45554,564.36261 a 4,4 0 0 0 -8,0 4,4 0 0 0 8,0 z"
       id="path1311" /><path
       style="font-size:12px;fill:none;fill-rule:evenodd;stroke:#ff0000;stroke-width:0.2;stroke-linecap:round;stroke-dasharray:none;stroke-opacity:1"
       d="M 543.45554,564.36261"
       id="path1309" /><path
       style="font-size:12px;fill:none;fill-rule:evenodd;stroke:#ff0000;stroke-width:0.2;stroke-linecap:round;stroke-dasharray:none;stroke-opacity:1"
       d="m 645.65554,561.06261 a 4,4 0 0 0 -8,0 4,4 0 0 0 8,0 z"
       id="path1307" /><path
       style="font-size:12px;fill:none;fill-rule:evenodd;stroke:#ff0000;stroke-width:0.2;stroke-linecap:round;stroke-dasharray:none;stroke-opacity:1"
       d="M 641.65554,561.06261"
       id="path1305" /><path
       style="font-size:12px;fill:none;fill-rule:evenodd;stroke:#ff0000;stroke-width:0.2;stroke-linecap:round;stroke-dasharray:none;stroke-opacity:1"
       d="m 556.25554,493.66262 a 4,4 0 0 0 -8,0 4,4 0 0 0 8,0 z"
       id="path1303" /><path
       style="font-size:12px;fill:none;fill-rule:evenodd;stroke:#ff0000;stroke-width:0.2;stroke-linecap:round;stroke-dasharray:none;stroke-opacity:1"
       d="M 552.25554,493.66262"
       id="path1301" /><path
       style="font-size:12px;fill:none;fill-rule:evenodd;stroke:#ff0000;stroke-width:0.2;stroke-linecap:round;stroke-dasharray:none;stroke-opacity:1"
       d="m 645.65554,493.66262 a 4,4 0 0 0 -8,0 4,4 0 0 0 8,0 z"
       id="path1299" /><path
       style="font-size:12px;fill:none;fill-rule:evenodd;stroke:#ff0000;stroke-width:0.2;stroke-linecap:round;stroke-dasharray:none;stroke-opacity:1"
       d="M 641.65554,493.66262"
       id="path1297" /><path
       style="font-size:12px;fill:none;fill-rule:evenodd;stroke:#000000;stroke-width:0.2;stroke-linecap:round;stroke-dasharray:none;stroke-opacity:1"
       d="m 575.18553,569.86261 -37.39499,5.256 a 1,1 0 0 1 -1.13,-0.852 l -1.759,-12.515 a 1,1 0 0 1 -0.072,-0.257 l -1.1,-7.827 a 39.9,39.9 0 0 0 9.726,-24.883 v -2.49 a 39.9,39.9 0 0 0 -0.019,-0.495 l 0.019,-0.002 v -39.93499 a 1,1 0 0 1 1,-1 h 105 a 1,1 0 0 1 1,1 v 82.99999 a 1,1 0 0 1 -1,1 z"
       id="path476-6" /><path
       id="path3095-4"
       style="color:#000000;fill:none;stroke:#ff0000;stroke-width:0.3;stroke-linecap:round;stroke-linejoin:round;stroke-dasharray:none;stroke-opacity:1"
       d="m 618.37163,490.16353 c -0.985,-1.30115 -3.8579,-1.30115 -4.86715,0.18536 -1.00926,1.48652 -7.55811,15.35508 -8.04696,17.29051 -0.48885,1.93543 1.49382,6.13444 2.7352,6.58412 1.24137,0.44968 10.8505,0.44968 12.32424,-0.18459 1.47373,-0.63428 5.61849,-6.5595 5.38648,-8.49569 -0.23201,-1.93619 -6.54682,-14.07855 -7.53181,-15.37971 z m -12.3553,-0.002 c -1.1262,-1.29889 -17.35725,-1.29889 -18.78909,-2.4e-4 -1.43185,1.29865 1.42984,13.41605 2.55523,14.71399 1.12539,1.29793 8.77283,1.29793 10.20548,2.4e-4 1.43265,-1.2977 7.15457,-13.41509 6.02838,-14.71399 z m -26.25443,0.14801 c -0.96669,-1.4469 -6.79604,-1.4469 -7.69044,-0.83064 -0.8944,0.61626 -3.41497,6.36242 -3.44819,7.97925 -0.0332,1.61683 2.1741,10.96334 3.28883,11.96439 1.11473,1.00105 9.31708,1.00105 10.31684,0.83109 0.99977,-0.16996 2.12765,-1.7616 1.90746,-3.37888 -0.2202,-1.61727 -3.40781,-15.11831 -4.3745,-16.56521 z m -17.02412,11.4447 c -1.43645,-0.37484 -12.83979,4.58672 -14.06097,5.66379 -1.22118,1.07707 -1.22118,6.16596 0.0932,6.71069 1.31442,0.54474 13.587,0.54474 15.02286,0.37482 1.43587,-0.16993 2.56375,-1.7612 2.47111,-2.83824 -0.0926,-1.07704 -2.08979,-9.53621 -3.52624,-9.91106 z m 68.95665,8.46903 c -1.60953,0.33084 -5.80096,6.32442 -6.16022,7.75153 -0.35925,1.42711 0.47491,8.75441 2.08391,9.75257 1.60901,0.99817 15.79662,2.99169 17.31714,1.87701 1.52052,-1.11469 1.52052,-13.51714 0.35979,-15.15856 -1.16074,-1.64142 -11.99109,-4.55339 -13.60062,-4.22255 z m -32.15837,1.40045 c -1.0839,-0.4503 -9.21028,-0.4503 -10.20171,-0.27924 -0.99144,0.17106 -2.11932,1.76233 -2.06748,2.66211 0.0518,0.89978 1.65903,7.70836 2.65005,8.43748 0.99102,0.72913 8.63882,0.72913 9.67099,0.27984 1.03217,-0.44929 3.01592,-4.64831 3.01623,-5.54868 3.1e-4,-0.90037 -1.98417,-5.1012 -3.06808,-5.55151 z m -17.93999,4.52942 c -1.05161,-0.72985 -9.25395,-0.72985 -10.25352,-0.55875 -0.99957,0.1711 -2.12746,1.76273 -2.07562,2.66255 0.0518,0.89982 1.65903,7.70839 2.70947,8.43752 1.05043,0.72913 9.25278,0.72913 10.25254,0.55917 0.99977,-0.16997 2.12765,-1.7616 2.07679,-2.66183 -0.0509,-0.90023 -1.65805,-7.70881 -2.70966,-8.43866 z m 37.70271,4.27844 c -1.04649,-0.75791 -10.00341,-0.75791 -11.17537,-0.30725 -1.17196,0.45065 -3.15536,4.65112 -3.15505,5.55071 3.1e-4,0.8996 1.98298,5.09898 3.12971,5.5487 1.14673,0.44972 9.87251,0.44972 10.9186,0.30776 1.04609,-0.14196 2.08318,-1.47206 2.1085,-2.37216 0.0253,-0.90009 -0.77989,-7.96984 -1.82639,-8.72776 z m -56.08782,-0.0281 c -1.43635,-0.72985 -13.22928,-0.72985 -14.49231,-0.0413 -1.26302,0.68852 -1.26302,7.11004 -1.26319,7.80277 -1.6e-4,0.69272 -0.002,0.73651 -0.0127,0.91627 -0.0111,0.17977 -0.11311,1.81372 -0.0716,2.02038 0.0416,0.20666 0.53243,0.50726 1.85807,0.53956 1.32564,0.0323 13.21076,0.0323 14.60511,-0.13764 1.39435,-0.16992 2.52223,-1.76119 2.47133,-2.66138 -0.0509,-0.90019 -1.65845,-7.70877 -3.0948,-8.43862 z m 36.3251,8.2202 c -1.0839,-0.45031 -9.21028,-0.45031 -10.20171,-0.27924 -0.99144,0.17106 -2.11932,1.76233 -1.79436,3.81897 0.32496,2.05665 4.4813,19.66266 5.68508,19.94249 1.20378,0.27984 8.28619,-14.71661 8.83279,-16.77385 0.54659,-2.05724 -1.43789,-6.25807 -2.5218,-6.70837 z m -17.70605,5.51998 c -1.28555,-1.72042 -9.48789,-1.72042 -10.48746,-1.54932 -0.99957,0.17111 -2.12746,1.76274 -2.02659,2.87029 0.10087,1.10756 2.16565,9.85504 3.57118,11.40409 1.40553,1.54906 12.4616,7.26375 13.24032,6.15645 0.77872,-1.1073 -3.01191,-17.1611 -4.29745,-18.88151 z m 44.68491,-0.60906 c -1.70809,-0.0981 -2.63558,1.09092 -2.62695,2.00089 0.009,0.90997 1.01209,8.21521 2.07797,9.13211 1.06589,0.91691 10.01522,2.17393 11.6156,1.99213 1.60038,-0.1818 7.58963,-3.13899 8.23193,-3.95745 0.64231,-0.81847 0.64231,-5.50222 -0.96681,-6.23072 -1.60912,-0.7285 -16.62366,-2.83886 -18.33174,-2.93696 z m -8.39334,3.89361 c -0.96697,-0.7548 -9.01992,-0.7548 -10.77091,1.12732 -1.751,1.88211 -10.04269,19.4429 -10.81408,21.63178 -0.77138,2.18887 0.31708,5.06069 0.90326,5.36811 0.58618,0.30742 4.97439,0.30742 6.71261,-1.12688 1.73822,-1.43431 13.57311,-14.8261 14.73806,-17.01541 1.16495,-2.18932 0.19803,-9.23013 -0.76894,-9.98492 z m -54.62801,0.0419 c -1.18543,-0.79671 -10.48854,-0.79671 -11.05286,0.27185 -0.56432,1.06856 3.46613,11.03943 4.65028,11.83574 1.18414,0.7963 8.21229,-1.74199 8.77791,-2.81015 0.56561,-1.06817 -1.18989,-8.50073 -2.37533,-9.29744 z m 60.18024,14.01359 c -1.87454,1.05863 -11.57012,12.02933 -11.076,13.20423 0.49412,1.1749 14.80183,1.1749 16.67663,0.11747 1.87481,-1.05744 5.06242,-10.93245 4.56803,-12.10853 -0.49438,-1.1761 -8.29411,-2.27179 -10.16866,-1.21317 z m -53.51798,1.2499 c -2.46154,-0.44539 -11.24554,2.72738 -12.23663,3.15001 -0.99109,0.42263 -1.45954,1.19096 -0.65797,2.06747 0.80157,0.87652 8.74816,8.29462 10.65192,8.94157 1.90376,0.64696 11.73066,-0.73379 12.80453,-0.8818 1.07387,-0.14802 1.2692,-0.14802 2.01846,-0.14802 0.74925,0 7.54698,0 8.19386,-0.21626 0.64688,-0.21627 -0.11891,-2.23728 -0.26123,-2.521 -0.14232,-0.28371 -0.70409,-0.90843 -2.28448,-1.76114 -1.58039,-0.85271 -15.76692,-8.18544 -18.22846,-8.63083 z" /></g><g
     id="g6041"
     transform="rotate(90,278.95314,144.74133)"
     style="stroke-width:0.3;stroke-dasharray:none"><path
       style="font-size:12px;fill:none;fill-rule:evenodd;stroke:#ff0000;stroke-width:0.3;stroke-linecap:round;stroke-dasharray:none;stroke-opacity:1"
       d="m 137.53673,223.00341 a 1,1 0 0 1 2,0 1,1 0 0 1 -2,0 z"
       id="path1496" /><path
       style="font-size:12px;fill:none;fill-rule:evenodd;stroke:#ff0000;stroke-width:0.3;stroke-linecap:round;stroke-dasharray:none;stroke-opacity:1"
       d="M 138.53673,223.00341"
       id="path1494" /><path
       style="font-size:12px;fill:none;fill-rule:evenodd;stroke:#ff0000;stroke-width:0.3;stroke-linecap:round;stroke-dasharray:none;stroke-opacity:1"
       d="m 137.53673,144.60341 a 1,1 0 0 1 2,0 1,1 0 0 1 -2,0 z"
       id="path1480" /><path
       style="font-size:12px;fill:none;fill-rule:evenodd;stroke:#ff0000;stroke-width:0.3;stroke-linecap:round;stroke-dasharray:none;stroke-opacity:1"
       d="M 138.53673,144.60341"
       id="path1478" /><path
       style="font-size:12px;fill:none;fill-rule:evenodd;stroke:#ff0000;stroke-width:0.3;stroke-linecap:round;stroke-dasharray:none;stroke-opacity:1"
       d="m 184.63673,216.30341 a 5.1,5.1 0 0 1 10.2,0 5.1,5.1 0 0 1 -10.2,0 z"
       id="path1476" /><path
       style="font-size:12px;fill:none;fill-rule:evenodd;stroke:#ff0000;stroke-width:0.3;stroke-linecap:round;stroke-dasharray:none;stroke-opacity:1"
       d="M 189.73673,216.30341"
       id="path1474" /><path
       style="font-size:12px;fill:none;fill-rule:evenodd;stroke:#000000;stroke-width:0.3;stroke-linecap:round;stroke-dasharray:none;stroke-opacity:1"
       d="m 136.23673,226.30342 h 60.5 v -6.99901 h 0.5 v -10 h 3.5 v -6.001 h 0.68 a 2,2 0 0 1 -1.511,-1.939 v -0.25 a 2,2 0 0 0 -2,-2 h -14 a 2,2 0 0 0 -2,2 v 4.5 a 2,2 0 0 1 -2,2 h -12.593 a 2,2 0 0 0 -1.981,2.278 l 1.222,8.695 a 2,2 0 0 1 -1.702,2.259 l -13.864,1.948 a 2,2 0 0 1 -2.259,-1.702 l -6.541,-46.542 a 2,2 0 0 1 1.702,-2.259 l 13.864,-1.949 a 2,2 0 0 1 2.259,1.703 l 3.893,27.698 v -35.19 h -3.169 v 2.75 h -23.5 v -20 h 23.5 v 3.5 h 0.6 v 5.75 h 3.9 v 0.176 a 2,2 0 0 1 0.669,-0.115 h 14 a 2,2 0 0 0 2,-2 v -4.5 a 2,2 0 0 1 2,-2 h 14 a 2,2 0 0 1 2,2 v 0.25 a 2,2 0 0 0 2,2 h 14 a 2,2 0 0 1 2,2 v 0.25 a 2,2 0 0 0 1.831,1.993 v -8.304 h -0.5 v -7 h -83 a 1,1 0 0 0 -1,1 v 83 a 1,1 0 0 0 1,1.00001 z"
       id="path544" /><g
       inkscape:label="Hershey Text"
       style="fill:none;stroke:#00ff00;stroke-width:0.3;stroke-linecap:round;stroke-linejoin:round;stroke-dasharray:none;stroke-opacity:1"
       id="g5430"><g
         transform="translate(169.129,148.756)"
         id="g5428"
         style="stroke:#00ff00;stroke-width:0.3;stroke-dasharray:none;stroke-opacity:1"><path
           d="M 220,662 V 0 m 0,0 h 378"
           style="stroke:#00ff00;stroke-width:94.4882;stroke-dasharray:none;stroke-opacity:1"
           transform="scale(0.003175,-0.003175)"
           id="path5422" /><path
           d="M 378,662 284,630 220,536 189,378 V 284 L 220,126 284,31.5 378,0 h 63 l 95,31.5 62,94.5 32,158 v 94 l -32,158 -62,94 -95,32 h -63"
           style="stroke:#00ff00;stroke-width:94.4882;stroke-dasharray:none;stroke-opacity:1"
           transform="matrix(0.003175,0,0,-0.003175,1.7018,0)"
           id="path5424" /><path
           d="M 252,662 H 598 L 410,410 h 94 l 63,-32 31,-32 32,-94 V 189 L 598,94.5 536,31.5 441,0 H 346 L 252,31.5 220,63 189,126"
           style="stroke:#00ff00;stroke-width:94.4882;stroke-dasharray:none;stroke-opacity:1"
           transform="matrix(0.003175,0,0,-0.003175,3.70205,0)"
           id="path5426" /></g></g></g><g
     id="g6069"
     transform="rotate(-90,204.59777,166.46363)"
     style="stroke-width:0.3;stroke-dasharray:none"><path
       style="font-size:12px;fill:none;fill-rule:evenodd;stroke:#ff0000;stroke-width:0.3;stroke-linecap:round;stroke-dasharray:none;stroke-opacity:1"
       d="m 276.23536,224.95596 a 1.5,1.5 0 0 1 3,0 1.5,1.5 0 0 1 -3,0 z"
       id="path1468" /><path
       style="font-size:12px;fill:none;fill-rule:evenodd;stroke:#ff0000;stroke-width:0.3;stroke-linecap:round;stroke-dasharray:none;stroke-opacity:1"
       d="M 277.73536,224.95596"
       id="path1466" /><path
       style="font-size:12px;fill:none;fill-rule:evenodd;stroke:#ff0000;stroke-width:0.3;stroke-linecap:round;stroke-dasharray:none;stroke-opacity:1"
       d="m 276.23536,146.55596 a 1.5,1.5 0 0 1 3,0 1.5,1.5 0 0 1 -3,0 z"
       id="path1452" /><path
       style="font-size:12px;fill:none;fill-rule:evenodd;stroke:#ff0000;stroke-width:0.3;stroke-linecap:round;stroke-dasharray:none;stroke-opacity:1"
       d="M 277.73536,146.55596"
       id="path1450" /><path
       style="font-size:12px;fill:none;fill-rule:evenodd;stroke:#ff0000;stroke-width:0.3;stroke-linecap:round;stroke-dasharray:none;stroke-opacity:1"
       d="m 323.83536,218.25596 a 5.1,5.1 0 0 1 10.2,0 5.1,5.1 0 0 1 -10.2,0 z"
       id="path1448" /><path
       style="font-size:12px;fill:none;fill-rule:evenodd;stroke:#ff0000;stroke-width:0.3;stroke-linecap:round;stroke-dasharray:none;stroke-opacity:1"
       d="M 328.93536,218.25596"
       id="path1446" /><path
       style="font-size:12px;fill:none;fill-rule:evenodd;stroke:#000000;stroke-width:0.3;stroke-linecap:round;stroke-dasharray:none;stroke-opacity:1"
       d="m 275.43536,228.25596 h 60.5 v -6.999 h 0.5 v -10 h 3.5 v -6.001 h 0.68 a 2,2 0 0 1 -1.511,-1.939 v -0.25 a 2,2 0 0 0 -2,-2 h -14 a 2,2 0 0 0 -2,2 v 4.5 a 2,2 0 0 1 -2,2 h -12.593 a 2,2 0 0 0 -1.981,2.278 l 1.222,8.695 a 2,2 0 0 1 -1.702,2.259 l -13.864,1.948 a 2,2 0 0 1 -2.259,-1.702 l -6.541,-46.542 a 2,2 0 0 1 1.702,-2.259 l 13.864,-1.949 a 2,2 0 0 1 2.259,1.703 l 3.893,27.698 v -35.19 h -3.169 v 2.75 h -23.5 v -20 h 23.5 v 3.5 h 0.6 v 5.75 h 3.9 v 0.176 a 2,2 0 0 1 0.669,-0.115 h 14 a 2,2 0 0 0 2,-2 v -4.5 a 2,2 0 0 1 2,-2 h 14 a 2,2 0 0 1 2,2 v 0.25 a 2,2 0 0 0 2,2 h 14 a 2,2 0 0 1 2,2 v 0.25 a 2,2 0 0 0 1.831,1.993 v -8.304 h -0.5 v -7 h -83 a 1,1 0 0 0 -1,1 v 83 a 1,1 0 0 0 1,1 z"
       id="path596" /><g
       inkscape:label="Hershey Text"
       style="fill:none;stroke:#00ff00;stroke-width:0.3;stroke-linecap:round;stroke-linejoin:round;stroke-dasharray:none;stroke-opacity:1"
       id="g5450"><g
         transform="translate(308.405,151.976)"
         id="g5448"
         style="stroke:#00ff00;stroke-width:0.3;stroke-dasharray:none;stroke-opacity:1"><path
           d="M 220,662 V 0 m 0,0 h 378"
           style="stroke:#00ff00;stroke-width:94.4882;stroke-dasharray:none;stroke-opacity:1"
           transform="scale(0.003175,-0.003175)"
           id="path5442" /><path
           d="M 378,662 284,630 220,536 189,378 V 284 L 220,126 284,31.5 378,0 h 63 l 95,31.5 62,94.5 32,158 v 94 l -32,158 -62,94 -95,32 h -63"
           style="stroke:#00ff00;stroke-width:94.4882;stroke-dasharray:none;stroke-opacity:1"
           transform="matrix(0.003175,0,0,-0.003175,1.7018,0)"
           id="path5444" /><path
           d="M 504,662 189,220 H 662 M 504,662 V 0"
           style="stroke:#00ff00;stroke-width:94.4882;stroke-dasharray:none;stroke-opacity:1"
           transform="matrix(0.003175,0,0,-0.003175,3.70205,0)"
           id="path5446" /></g></g></g><g
     id="g6097"
     transform="rotate(90,450.7609,79.102644)"
     style="stroke-width:0.3;stroke-dasharray:none"><path
       style="font-size:12px;fill:none;fill-rule:evenodd;stroke:#ff0000;stroke-width:0.3;stroke-linecap:round;stroke-dasharray:none;stroke-opacity:1"
       d="m 406.31603,225.66274 a 1.5,1.5 0 0 1 3,0 1.5,1.5 0 0 1 -3,0 z"
       id="path1440" /><path
       style="font-size:12px;fill:none;fill-rule:evenodd;stroke:#ff0000;stroke-width:0.3;stroke-linecap:round;stroke-dasharray:none;stroke-opacity:1"
       d="M 407.81603,225.66274"
       id="path1438" /><path
       style="font-size:12px;fill:none;fill-rule:evenodd;stroke:#ff0000;stroke-width:0.3;stroke-linecap:round;stroke-dasharray:none;stroke-opacity:1"
       d="m 406.31603,147.26274 a 1.5,1.5 0 0 1 3,0 1.5,1.5 0 0 1 -3,0 z"
       id="path1424" /><path
       style="font-size:12px;fill:none;fill-rule:evenodd;stroke:#ff0000;stroke-width:0.3;stroke-linecap:round;stroke-dasharray:none;stroke-opacity:1"
       d="M 407.81603,147.26274"
       id="path1422" /><path
       style="font-size:12px;fill:none;fill-rule:evenodd;stroke:#ff0000;stroke-width:0.3;stroke-linecap:round;stroke-dasharray:none;stroke-opacity:1"
       d="m 453.91603,218.96274 a 5.1,5.1 0 0 1 10.2,0 5.1,5.1 0 0 1 -10.2,0 z"
       id="path1420" /><path
       style="font-size:12px;fill:none;fill-rule:evenodd;stroke:#ff0000;stroke-width:0.3;stroke-linecap:round;stroke-dasharray:none;stroke-opacity:1"
       d="M 459.01603,218.96274"
       id="path1418" /><path
       style="font-size:12px;fill:none;fill-rule:evenodd;stroke:#000000;stroke-width:0.3;stroke-linecap:round;stroke-dasharray:none;stroke-opacity:1"
       d="m 405.51603,228.96274 h 60.5 v -6.999 h 0.5 v -10 h 3.5 v -6.001 h 0.68 a 2,2 0 0 1 -1.511,-1.939 v -0.25 a 2,2 0 0 0 -2,-2 h -14 a 2,2 0 0 0 -2,2 v 4.5 a 2,2 0 0 1 -2,2 h -12.593 a 2,2 0 0 0 -1.981,2.278 l 1.222,8.695 a 2,2 0 0 1 -1.702,2.259 l -13.864,1.948 a 2,2 0 0 1 -2.259,-1.702 l -6.541,-46.542 a 2,2 0 0 1 1.702,-2.259 l 13.864,-1.949 a 2,2 0 0 1 2.259,1.703 l 3.893,27.698 v -35.19 h -3.169 v 2.75 h -23.5 v -20 h 23.5 v 3.5 h 0.6 v 5.75 h 3.9 v 0.176 a 2,2 0 0 1 0.669,-0.115 h 14 a 2,2 0 0 0 2,-2 v -4.5 a 2,2 0 0 1 2,-2 h 14 a 2,2 0 0 1 2,2 v 0.25 a 2,2 0 0 0 2,2 h 14 a 2,2 0 0 1 2,2 v 0.25 a 2,2 0 0 0 1.831,1.993 v -8.304 h -0.5 v -7 h -83 a 1,1 0 0 0 -1,1 v 83 a 1,1 0 0 0 1,1 z"
       id="path596-5" /><g
       inkscape:label="Hershey Text"
       style="fill:none;stroke:#00ff00;stroke-width:0.3;stroke-linecap:round;stroke-linejoin:round;stroke-dasharray:none;stroke-opacity:1"
       id="g5470"><g
         transform="translate(438.282,151.575)"
         id="g5468"
         style="stroke:#00ff00;stroke-width:0.3;stroke-dasharray:none;stroke-opacity:1"><path
           d="M 220,662 V 0 m 0,0 h 378"
           style="stroke:#00ff00;stroke-width:94.4882;stroke-dasharray:none;stroke-opacity:1"
           transform="scale(0.003175,-0.003175)"
           id="path5462" /><path
           d="M 378,662 284,630 220,536 189,378 V 284 L 220,126 284,31.5 378,0 h 63 l 95,31.5 62,94.5 32,158 v 94 l -32,158 -62,94 -95,32 h -63"
           style="stroke:#00ff00;stroke-width:94.4882;stroke-dasharray:none;stroke-opacity:1"
           transform="matrix(0.003175,0,0,-0.003175,1.7018,0)"
           id="path5464" /><path
           d="M 567,662 H 252 l -32,-284 32,32 94,31 h 95 l 95,-31 62,-64 32,-94 V 189 L 598,94.5 536,31.5 441,0 H 346 L 252,31.5 220,63 189,126"
           style="stroke:#00ff00;stroke-width:94.4882;stroke-dasharray:none;stroke-opacity:1"
           transform="matrix(0.003175,0,0,-0.003175,3.70205,0)"
           id="path5466" /></g></g></g><g
     id="g6125"
     transform="rotate(-90,397.49353,259.06252)"
     style="stroke-width:0.3;stroke-dasharray:none"><path
       style="font-size:12px;fill:none;fill-rule:evenodd;stroke:#ff0000;stroke-width:0.3;stroke-linecap:round;stroke-dasharray:none;stroke-opacity:1"
       d="m 529.63497,227.72971 a 1.5,1.5 0 0 1 3,0 1.5,1.5 0 0 1 -3,0 z"
       id="path1412" /><path
       style="font-size:12px;fill:none;fill-rule:evenodd;stroke:#ff0000;stroke-width:0.3;stroke-linecap:round;stroke-dasharray:none;stroke-opacity:1"
       d="M 531.13497,227.72971"
       id="path1410" /><path
       style="font-size:12px;fill:none;fill-rule:evenodd;stroke:#ff0000;stroke-width:0.3;stroke-linecap:round;stroke-dasharray:none;stroke-opacity:1"
       d="m 529.63497,149.32971 a 1.5,1.5 0 0 1 3,0 1.5,1.5 0 0 1 -3,0 z"
       id="path1396" /><path
       style="font-size:12px;fill:none;fill-rule:evenodd;stroke:#ff0000;stroke-width:0.3;stroke-linecap:round;stroke-dasharray:none;stroke-opacity:1"
       d="M 531.13497,149.32971"
       id="path1394" /><path
       style="font-size:12px;fill:none;fill-rule:evenodd;stroke:#ff0000;stroke-width:0.3;stroke-linecap:round;stroke-dasharray:none;stroke-opacity:1"
       d="m 577.23497,221.02971 a 5.1,5.1 0 0 1 10.2,0 5.1,5.1 0 0 1 -10.2,0 z"
       id="path1392" /><path
       style="font-size:12px;fill:none;fill-rule:evenodd;stroke:#ff0000;stroke-width:0.3;stroke-linecap:round;stroke-dasharray:none;stroke-opacity:1"
       d="M 582.33497,221.02971"
       id="path1390" /><path
       style="font-size:12px;fill:none;fill-rule:evenodd;stroke:#000000;stroke-width:0.3;stroke-linecap:round;stroke-dasharray:none;stroke-opacity:1"
       d="m 528.83497,231.02971 h 60.5 v -6.999 h 0.5 v -10 h 3.5 v -6.001 h 0.68 a 2,2 0 0 1 -1.511,-1.939 v -0.25 a 2,2 0 0 0 -2,-2 h -14 a 2,2 0 0 0 -2,2 v 4.5 a 2,2 0 0 1 -2,2 h -12.593 a 2,2 0 0 0 -1.981,2.278 l 1.222,8.695 a 2,2 0 0 1 -1.702,2.259 l -13.864,1.948 a 2,2 0 0 1 -2.259,-1.702 l -6.541,-46.542 a 2,2 0 0 1 1.702,-2.259 l 13.864,-1.949 a 2,2 0 0 1 2.259,1.703 l 3.893,27.698 v -35.19 h -3.169 v 2.75 h -23.5 v -20 h 23.5 v 3.5 h 0.6 v 5.75 h 3.9 v 0.176 a 2,2 0 0 1 0.669,-0.115 h 14 a 2,2 0 0 0 2,-2 v -4.5 a 2,2 0 0 1 2,-2 h 14 a 2,2 0 0 1 2,2 v 0.25 a 2,2 0 0 0 2,2 h 14 a 2,2 0 0 1 2,2 v 0.25 a 2,2 0 0 0 1.831,1.993 v -8.304 h -0.5 v -7 h -83 a 1,1 0 0 0 -1,1 v 83 a 1,1 0 0 0 1,1 z"
       id="path596-5-3" /><g
       inkscape:label="Hershey Text"
       style="fill:none;stroke:#00ff00;stroke-width:0.3;stroke-linecap:round;stroke-linejoin:round;stroke-dasharray:none;stroke-opacity:1"
       id="g5490"><g
         transform="translate(561.732,153.176)"
         id="g5488"
         style="stroke:#00ff00;stroke-width:0.3;stroke-dasharray:none;stroke-opacity:1"><path
           d="M 220,662 V 0 m 0,0 h 378"
           style="stroke:#00ff00;stroke-width:94.4882;stroke-dasharray:none;stroke-opacity:1"
           transform="scale(0.003175,-0.003175)"
           id="path5482" /><path
           d="M 378,662 284,630 220,536 189,378 V 284 L 220,126 284,31.5 378,0 h 63 l 95,31.5 62,94.5 32,158 v 94 l -32,158 -62,94 -95,32 h -63"
           style="stroke:#00ff00;stroke-width:94.4882;stroke-dasharray:none;stroke-opacity:1"
           transform="matrix(0.003175,0,0,-0.003175,1.7018,0)"
           id="path5484" /><path
           d="m 598,567 -31,63 -95,32 H 410 L 315,630 252,536 220,378 V 220 L 252,94.5 315,31.5 410,0 h 31 l 95,31.5 62,63 32,94.5 v 31 l -32,95 -62,63 -95,32 h -31 l -95,-32 -63,-63 -32,-95"
           style="stroke:#00ff00;stroke-width:94.4882;stroke-dasharray:none;stroke-opacity:1"
           transform="matrix(0.003175,0,0,-0.003175,3.70205,0)"
           id="path5486" /></g></g></g><g
     id="g6396"
     transform="rotate(-90,277.56251,273.56169)"
     style="stroke-width:0.3;stroke-dasharray:none"><path
       style="font-size:12px;fill:none;fill-rule:evenodd;stroke:#ff0000;stroke-width:0.3;stroke-linecap:round;stroke-dasharray:none;stroke-opacity:1"
       d="m 517.14827,568.51878 a 1,1 0 0 0 -2,0 1,1 0 0 0 2,0 z"
       id="path1496-7" /><path
       style="font-size:12px;fill:none;fill-rule:evenodd;stroke:#ff0000;stroke-width:0.3;stroke-linecap:round;stroke-dasharray:none;stroke-opacity:1"
       d="M 516.14827,568.51878"
       id="path1494-8" /><path
       style="font-size:12px;fill:none;fill-rule:evenodd;stroke:#ff0000;stroke-width:0.3;stroke-linecap:round;stroke-dasharray:none;stroke-opacity:1"
       d="m 517.14827,490.11878 a 1,1 0 0 0 -2,0 1,1 0 0 0 2,0 z"
       id="path1480-0" /><path
       style="font-size:12px;fill:none;fill-rule:evenodd;stroke:#ff0000;stroke-width:0.3;stroke-linecap:round;stroke-dasharray:none;stroke-opacity:1"
       d="M 516.14827,490.11878"
       id="path1478-6" /><path
       style="font-size:12px;fill:none;fill-rule:evenodd;stroke:#ff0000;stroke-width:0.3;stroke-linecap:round;stroke-dasharray:none;stroke-opacity:1"
       d="m 470.04827,561.81878 a 5.1,5.1 0 0 0 -10.19999,0 5.1,5.1 0 0 0 10.19999,0 z"
       id="path1476-3" /><path
       style="font-size:12px;fill:none;fill-rule:evenodd;stroke:#ff0000;stroke-width:0.3;stroke-linecap:round;stroke-dasharray:none;stroke-opacity:1"
       d="M 464.94827,561.81878"
       id="path1474-2" /><path
       style="font-size:12px;fill:none;fill-rule:evenodd;stroke:#000000;stroke-width:0.3;stroke-linecap:round;stroke-dasharray:none;stroke-opacity:1"
       d="m 518.44827,571.81879 h -60.49999 v -6.99901 h -0.5 v -10 h -3.5 v -6.001 h -0.68001 a 2,2 0 0 0 1.511,-1.939 v -0.25 a 2,2 0 0 1 2,-2 h 14 a 2,2 0 0 1 2,2 v 4.5 a 2,2 0 0 0 2,2 h 12.593 a 2,2 0 0 1 1.981,2.278 l -1.222,8.695 a 2,2 0 0 0 1.702,2.259 l 13.864,1.948 a 2,2 0 0 0 2.259,-1.702 l 6.541,-46.542 a 2,2 0 0 0 -1.702,-2.259 l -13.864,-1.949 a 2,2 0 0 0 -2.259,1.703 l -3.893,27.698 v -35.19 h 3.169 v 2.75 h 23.5 v -20 h -23.5 v 3.5 h -0.6 v 5.75 h -3.9 v 0.176 a 2,2 0 0 0 -0.669,-0.115 h -14 a 2,2 0 0 1 -2,-2 v -4.5 a 2,2 0 0 0 -2,-2 h -14 a 2,2 0 0 0 -2,2 v 0.25 a 2,2 0 0 1 -2,2 h -14 a 2,2 0 0 0 -2,2 v 0.25 a 2,2 0 0 1 -1.831,1.993 v -8.304 h 0.5 v -7 h 83 a 1,1 0 0 1 1,1 v 83 a 1,1 0 0 1 -1,1.00001 z"
       id="path544-6" /><g
       inkscape:label="Hershey Text"
       style="fill:none;stroke:#00ff00;stroke-width:0.3;stroke-linecap:round;stroke-linejoin:round;stroke-dasharray:none;stroke-opacity:1"
       id="g5590"><g
         transform="translate(480.133,494.271)"
         id="g5588"
         style="stroke:#00ff00;stroke-width:0.3;stroke-dasharray:none;stroke-opacity:1"><path
           d="M 220,662 V 0 m 0,662 h 284 l 94,-32 32,-32 32,-62 V 472 L 630,410 598,378 504,346 H 220 M 441,346 662,0"
           style="stroke:#00ff00;stroke-width:94.4882;stroke-dasharray:none;stroke-opacity:1"
           transform="scale(0.003175,-0.003175)"
           id="path5582" /><path
           d="M 378,662 284,630 220,536 189,378 V 284 L 220,126 284,31.5 378,0 h 63 l 95,31.5 62,94.5 32,158 v 94 l -32,158 -62,94 -95,32 h -63"
           style="stroke:#00ff00;stroke-width:94.4882;stroke-dasharray:none;stroke-opacity:1"
           transform="matrix(0.003175,0,0,-0.003175,2.10185,0)"
           id="path5584" /><path
           d="M 252,662 H 598 L 410,410 h 94 l 63,-32 31,-32 32,-94 V 189 L 598,94.5 536,31.5 441,0 H 346 L 252,31.5 220,63 189,126"
           style="stroke:#00ff00;stroke-width:94.4882;stroke-dasharray:none;stroke-opacity:1"
           transform="matrix(0.003175,0,0,-0.003175,4.1021,0)"
           id="path5586" /></g></g></g><g
     id="g6368"
     transform="rotate(90,630.07398,347.62865)"
     style="stroke-width:0.3;stroke-dasharray:none"><path
       style="font-size:12px;fill:none;fill-rule:evenodd;stroke:#ff0000;stroke-width:0.3;stroke-linecap:round;stroke-dasharray:none;stroke-opacity:1"
       d="m 378.44964,570.47133 a 1.5,1.5 0 0 0 -3,0 1.5,1.5 0 0 0 3,0 z"
       id="path1468-1" /><path
       style="font-size:12px;fill:none;fill-rule:evenodd;stroke:#ff0000;stroke-width:0.3;stroke-linecap:round;stroke-dasharray:none;stroke-opacity:1"
       d="M 376.94964,570.47133"
       id="path1466-5" /><path
       style="font-size:12px;fill:none;fill-rule:evenodd;stroke:#ff0000;stroke-width:0.3;stroke-linecap:round;stroke-dasharray:none;stroke-opacity:1"
       d="m 378.44964,492.07133 a 1.5,1.5 0 0 0 -3,0 1.5,1.5 0 0 0 3,0 z"
       id="path1452-9" /><path
       style="font-size:12px;fill:none;fill-rule:evenodd;stroke:#ff0000;stroke-width:0.3;stroke-linecap:round;stroke-dasharray:none;stroke-opacity:1"
       d="M 376.94964,492.07133"
       id="path1450-3" /><path
       style="font-size:12px;fill:none;fill-rule:evenodd;stroke:#ff0000;stroke-width:0.3;stroke-linecap:round;stroke-dasharray:none;stroke-opacity:1"
       d="m 330.84965,563.77133 a 5.1,5.1 0 0 0 -10.2,0 5.1,5.1 0 0 0 10.2,0 z"
       id="path1448-7" /><path
       style="font-size:12px;fill:none;fill-rule:evenodd;stroke:#ff0000;stroke-width:0.3;stroke-linecap:round;stroke-dasharray:none;stroke-opacity:1"
       d="M 325.74964,563.77133"
       id="path1446-4" /><path
       style="font-size:12px;fill:none;fill-rule:evenodd;stroke:#000000;stroke-width:0.3;stroke-linecap:round;stroke-dasharray:none;stroke-opacity:1"
       d="m 379.24964,573.77133 h -60.5 v -6.999 h -0.5 v -10 h -3.5 v -6.001 h -0.68 a 2,2 0 0 0 1.51101,-1.939 v -0.25 a 2,2 0 0 1 2,-2 h 14 a 2,2 0 0 1 2,2 v 4.5 a 2,2 0 0 0 2,2 h 12.593 a 2,2 0 0 1 1.981,2.278 l -1.222,8.695 a 2,2 0 0 0 1.702,2.259 l 13.864,1.948 a 2,2 0 0 0 2.259,-1.702 l 6.541,-46.542 a 2,2 0 0 0 -1.702,-2.259 l -13.864,-1.949 a 2,2 0 0 0 -2.259,1.703 l -3.893,27.698 v -35.19 h 3.169 v 2.75 h 23.5 v -20 h -23.5 v 3.5 h -0.6 v 5.75 h -3.9 v 0.176 a 2,2 0 0 0 -0.669,-0.115 h -14 a 2,2 0 0 1 -2,-2 v -4.5 a 2,2 0 0 0 -2,-2 h -14 a 2,2 0 0 0 -2,2 v 0.25 a 2,2 0 0 1 -2,2 h -14 a 2,2 0 0 0 -2,2 v 0.25 a 2,2 0 0 1 -1.831,1.993 v -8.304 h 0.5 v -7 h 83 a 1,1 0 0 1 1,1 v 83 a 1,1 0 0 1 -1.00001,1 z"
       id="path596-2" /><g
       inkscape:label="Hershey Text"
       style="fill:none;stroke:#00ff00;stroke-width:0.3;stroke-linecap:round;stroke-linejoin:round;stroke-dasharray:none;stroke-opacity:1"
       id="g5610"><g
         transform="translate(340.74,497.491)"
         id="g5608"
         style="stroke:#00ff00;stroke-width:0.3;stroke-dasharray:none;stroke-opacity:1"><path
           d="M 220,662 V 0 m 0,662 h 284 l 94,-32 32,-32 32,-62 V 472 L 630,410 598,378 504,346 H 220 M 441,346 662,0"
           style="stroke:#00ff00;stroke-width:94.4882;stroke-dasharray:none;stroke-opacity:1"
           transform="scale(0.003175,-0.003175)"
           id="path5602" /><path
           d="M 378,662 284,630 220,536 189,378 V 284 L 220,126 284,31.5 378,0 h 63 l 95,31.5 62,94.5 32,158 v 94 l -32,158 -62,94 -95,32 h -63"
           style="stroke:#00ff00;stroke-width:94.4882;stroke-dasharray:none;stroke-opacity:1"
           transform="matrix(0.003175,0,0,-0.003175,2.10185,0)"
           id="path5604" /><path
           d="M 504,662 189,220 H 662 M 504,662 V 0"
           style="stroke:#00ff00;stroke-width:94.4882;stroke-dasharray:none;stroke-opacity:1"
           transform="matrix(0.003175,0,0,-0.003175,4.1021,0)"
           id="path5606" /></g></g></g><g
     id="g6340"
     transform="rotate(90,602.07243,479.27761)"
     style="stroke-width:0.3;stroke-dasharray:none"><path
       style="font-size:12px;fill:none;fill-rule:evenodd;stroke:#ff0000;stroke-width:0.3;stroke-linecap:round;stroke-dasharray:none;stroke-opacity:1"
       d="m 248.36897,571.17811 a 1.5,1.5 0 0 0 -3,0 1.5,1.5 0 0 0 3,0 z"
       id="path1440-5" /><path
       style="font-size:12px;fill:none;fill-rule:evenodd;stroke:#ff0000;stroke-width:0.3;stroke-linecap:round;stroke-dasharray:none;stroke-opacity:1"
       d="M 246.86897,571.17811"
       id="path1438-4" /><path
       style="font-size:12px;fill:none;fill-rule:evenodd;stroke:#ff0000;stroke-width:0.3;stroke-linecap:round;stroke-dasharray:none;stroke-opacity:1"
       d="m 248.36897,492.77811 a 1.5,1.5 0 0 0 -3,0 1.5,1.5 0 0 0 3,0 z"
       id="path1424-8" /><path
       style="font-size:12px;fill:none;fill-rule:evenodd;stroke:#ff0000;stroke-width:0.3;stroke-linecap:round;stroke-dasharray:none;stroke-opacity:1"
       d="M 246.86897,492.77811"
       id="path1422-6" /><path
       style="font-size:12px;fill:none;fill-rule:evenodd;stroke:#ff0000;stroke-width:0.3;stroke-linecap:round;stroke-dasharray:none;stroke-opacity:1"
       d="m 200.76898,564.47811 a 5.1,5.1 0 0 0 -10.2,0 5.1,5.1 0 0 0 10.2,0 z"
       id="path1420-8" /><path
       style="font-size:12px;fill:none;fill-rule:evenodd;stroke:#ff0000;stroke-width:0.3;stroke-linecap:round;stroke-dasharray:none;stroke-opacity:1"
       d="M 195.66897,564.47811"
       id="path1418-8" /><path
       style="font-size:12px;fill:none;fill-rule:evenodd;stroke:#000000;stroke-width:0.3;stroke-linecap:round;stroke-dasharray:none;stroke-opacity:1"
       d="m 249.16897,574.47811 h -60.5 v -6.999 h -0.5 v -10 h -3.5 v -6.001 h -0.68 a 2,2 0 0 0 1.51101,-1.939 v -0.25 a 2,2 0 0 1 2,-2 h 14 a 2,2 0 0 1 2,2 v 4.5 a 2,2 0 0 0 2,2 h 12.593 a 2,2 0 0 1 1.981,2.278 l -1.222,8.695 a 2,2 0 0 0 1.702,2.259 l 13.864,1.948 a 2,2 0 0 0 2.259,-1.702 l 6.541,-46.542 a 2,2 0 0 0 -1.702,-2.259 l -13.864,-1.949 a 2,2 0 0 0 -2.259,1.703 l -3.893,27.698 v -35.19 h 3.169 v 2.75 h 23.5 v -20 h -23.5 v 3.5 h -0.6 v 5.75 h -3.9 v 0.176 a 2,2 0 0 0 -0.669,-0.115 h -14 a 2,2 0 0 1 -2,-2 v -4.5 a 2,2 0 0 0 -2,-2 h -14 a 2,2 0 0 0 -2,2 v 0.25 a 2,2 0 0 1 -2,2 h -14 a 2,2 0 0 0 -2,2 v 0.25 a 2,2 0 0 1 -1.831,1.993 v -8.304 h 0.5 v -7 h 83 a 1,1 0 0 1 1,1 v 83 a 1,1 0 0 1 -1.00001,1 z"
       id="path596-5-31" /><g
       inkscape:label="Hershey Text"
       style="fill:none;stroke:#00ff00;stroke-width:0.3;stroke-linecap:round;stroke-linejoin:round;stroke-dasharray:none;stroke-opacity:1"
       id="g5630"><g
         transform="translate(210.98,497.091)"
         id="g5628"
         style="stroke:#00ff00;stroke-width:0.3;stroke-dasharray:none;stroke-opacity:1"><path
           d="M 220,662 V 0 m 0,662 h 284 l 94,-32 32,-32 32,-62 V 472 L 630,410 598,378 504,346 H 220 M 441,346 662,0"
           style="stroke:#00ff00;stroke-width:94.4882;stroke-dasharray:none;stroke-opacity:1"
           transform="scale(0.003175,-0.003175)"
           id="path5622" /><path
           d="M 378,662 284,630 220,536 189,378 V 284 L 220,126 284,31.5 378,0 h 63 l 95,31.5 62,94.5 32,158 v 94 l -32,158 -62,94 -95,32 h -63"
           style="stroke:#00ff00;stroke-width:94.4882;stroke-dasharray:none;stroke-opacity:1"
           transform="matrix(0.003175,0,0,-0.003175,2.10185,0)"
           id="path5624" /><path
           d="M 567,662 H 252 l -32,-284 32,32 94,31 h 95 l 95,-31 62,-64 32,-94 V 189 L 598,94.5 536,31.5 441,0 H 346 L 252,31.5 220,63 189,126"
           style="stroke:#00ff00;stroke-width:94.4882;stroke-dasharray:none;stroke-opacity:1"
           transform="matrix(0.003175,0,0,-0.003175,4.1021,0)"
           id="path5626" /></g></g></g><g
     id="g6312"
     transform="rotate(-90,12.296234,116.34908)"
     style="stroke-width:0.3;stroke-dasharray:none"><path
       style="font-size:12px;fill:none;fill-rule:evenodd;stroke:#ff0000;stroke-width:0.3;stroke-linecap:round;stroke-dasharray:none;stroke-opacity:1"
       d="m 125.05004,573.24508 a 1.5,1.5 0 0 0 -3,0 1.5,1.5 0 0 0 3,0 z"
       id="path1412-4" /><path
       style="font-size:12px;fill:none;fill-rule:evenodd;stroke:#ff0000;stroke-width:0.3;stroke-linecap:round;stroke-dasharray:none;stroke-opacity:1"
       d="M 123.55004,573.24508"
       id="path1410-9" /><path
       style="font-size:12px;fill:none;fill-rule:evenodd;stroke:#ff0000;stroke-width:0.3;stroke-linecap:round;stroke-dasharray:none;stroke-opacity:1"
       d="m 125.05004,494.84508 a 1.5,1.5 0 0 0 -3,0 1.5,1.5 0 0 0 3,0 z"
       id="path1396-6" /><path
       style="font-size:12px;fill:none;fill-rule:evenodd;stroke:#ff0000;stroke-width:0.3;stroke-linecap:round;stroke-dasharray:none;stroke-opacity:1"
       d="M 123.55004,494.84508"
       id="path1394-6" /><path
       style="font-size:12px;fill:none;fill-rule:evenodd;stroke:#ff0000;stroke-width:0.3;stroke-linecap:round;stroke-dasharray:none;stroke-opacity:1"
       d="m 77.450035,566.54508 a 5.100005,5.100005 0 0 0 -10.20001,0 5.100005,5.100005 0 0 0 10.20001,0 z"
       id="path1392-4" /><path
       style="font-size:12px;fill:none;fill-rule:evenodd;stroke:#ff0000;stroke-width:0.3;stroke-linecap:round;stroke-dasharray:none;stroke-opacity:1"
       d="M 72.350025,566.54508"
       id="path1390-9" /><path
       style="font-size:12px;fill:none;fill-rule:evenodd;stroke:#000000;stroke-width:0.3;stroke-linecap:round;stroke-dasharray:none;stroke-opacity:1"
       d="M 125.85003,576.54508 H 65.350025 v -6.999 h -0.5 v -10 h -3.5 v -6.001 h -0.67999 a 2,2 0 0 0 1.511,-1.939 v -0.25 a 2,2 0 0 1 2,-2 h 14 a 2,2 0 0 1 2,2 v 4.5 a 2,2 0 0 0 2,2 h 12.59299 a 2,2 0 0 1 1.981,2.278 l -1.222,8.695 a 2,2 0 0 0 1.702,2.259 l 13.864015,1.948 a 2,2 0 0 0 2.259,-1.702 l 6.541,-46.542 a 2,2 0 0 0 -1.702,-2.259 l -13.864,-1.949 a 2,2 0 0 0 -2.259,1.703 l -3.893005,27.698 v -35.19 h 3.168995 v 2.75 h 23.5 v -20 h -23.5 v 3.5 h -0.6 v 5.75 h -3.900005 v 0.176 a 2,2 0 0 0 -0.66899,-0.115 h -14 a 2,2 0 0 1 -2,-2 v -4.5 a 2,2 0 0 0 -2,-2 h -14 a 2,2 0 0 0 -2,2 v 0.25 a 2,2 0 0 1 -2,2 h -14 a 2,2 0 0 0 -2,2 v 0.25 a 2,2 0 0 1 -1.83101,1.993 v -8.304 h 0.5 v -7 h 83.000005 a 1,1 0 0 1 1,1 v 83 a 1,1 0 0 1 -1,1 z"
       id="path596-5-3-0" /><g
       inkscape:label="Hershey Text"
       style="fill:none;stroke:#00ff00;stroke-width:0.3;stroke-linecap:round;stroke-linejoin:round;stroke-dasharray:none;stroke-opacity:1"
       id="g5650"><g
         transform="translate(87.4986,498.692)"
         id="g5648"
         style="stroke:#00ff00;stroke-width:0.3;stroke-dasharray:none;stroke-opacity:1"><path
           d="M 220,662 V 0 m 0,662 h 284 l 94,-32 32,-32 32,-62 V 472 L 630,410 598,378 504,346 H 220 M 441,346 662,0"
           style="stroke:#00ff00;stroke-width:94.4882;stroke-dasharray:none;stroke-opacity:1"
           transform="scale(0.003175,-0.003175)"
           id="path5642" /><path
           d="M 378,662 284,630 220,536 189,378 V 284 L 220,126 284,31.5 378,0 h 63 l 95,31.5 62,94.5 32,158 v 94 l -32,158 -62,94 -95,32 h -63"
           style="stroke:#00ff00;stroke-width:94.4882;stroke-dasharray:none;stroke-opacity:1"
           transform="matrix(0.003175,0,0,-0.003175,2.10185,0)"
           id="path5644" /><path
           d="m 598,567 -31,63 -95,32 H 410 L 315,630 252,536 220,378 V 220 L 252,94.5 315,31.5 410,0 h 31 l 95,31.5 62,63 32,94.5 v 31 l -32,95 -62,63 -95,32 h -31 l -95,-32 -63,-63 -32,-95"
           style="stroke:#00ff00;stroke-width:94.4882;stroke-dasharray:none;stroke-opacity:1"
           transform="matrix(0.003175,0,0,-0.003175,4.1021,0)"
           id="path5646" /></g></g></g></svg>
