0
SECTION
2
HEADER
9
$INSUNITS
70
4
0
ENDSEC
0
SECTION
2
TABLES
0
TABLE
2
LTYPE
0
LTYPE
72
65
70
64
2
CONTINUOUS
3
______
73
0
40
0
0
ENDTAB
0
TABLE
2
LAYER
0
ENDTAB
0
ENDSEC
0
SECTION
2
ENTITIES
0
LINE
8
0
10
9
20
9
11
27
21
9
0
LINE
8
0
10
27
20
9
11
27
21
-9
0
LINE
8
0
10
27
20
-9
11
9
21
-9
0
LINE
8
0
10
9
20
-9
11
9
21
9
0
LINE
8
0
10
9
20
26
11
27
21
26
0
LINE
8
0
10
27
20
26
11
27
21
8
0
LINE
8
0
10
27
20
8
11
9
21
8
0
LINE
8
0
10
9
20
8
11
9
21
26
0
LINE
8
0
10
9
20
43
11
27
21
43
0
LINE
8
0
10
27
20
43
11
27
21
25
0
LINE
8
0
10
27
20
25
11
9
21
25
0
LINE
8
0
10
9
20
25
11
9
21
43
0
LINE
8
0
10
27
20
21.573
11
45
21
21.573
0
LINE
8
0
10
45
20
21.573
11
45
21
3.573
0
LINE
8
0
10
45
20
3.573
11
27
21
3.573
0
LINE
8
0
10
27
20
3.573
11
27
21
21.573
0
LINE
8
0
10
27
20
38.573
11
45
21
38.573
0
LINE
8
0
10
45
20
38.573
11
45
21
20.573
0
LINE
8
0
10
45
20
20.573
11
27
21
20.573
0
LINE
8
0
10
27
20
20.573
11
27
21
38.573
0
LINE
8
0
10
27
20
55.573
11
45
21
55.573
0
LINE
8
0
10
45
20
55.573
11
45
21
37.573
0
LINE
8
0
10
45
20
37.573
11
27
21
37.573
0
LINE
8
0
10
27
20
37.573
11
27
21
55.573
0
LINE
8
0
10
45
20
26.3355
11
63
21
26.3355
0
LINE
8
0
10
63
20
26.3355
11
63
21
8.3355
0
LINE
8
0
10
63
20
8.3355
11
45
21
8.3355
0
LINE
8
0
10
45
20
8.3355
11
45
21
26.3355
0
LINE
8
0
10
45
20
43.3355
11
63
21
43.3355
0
LINE
8
0
10
63
20
43.3355
11
63
21
25.3355
0
LINE
8
0
10
63
20
25.3355
11
45
21
25.3355
0
LINE
8
0
10
45
20
25.3355
11
45
21
43.3355
0
LINE
8
0
10
45
20
60.3355
11
63
21
60.3355
0
LINE
8
0
10
63
20
60.3355
11
63
21
42.3355
0
LINE
8
0
10
63
20
42.3355
11
45
21
42.3355
0
LINE
8
0
10
45
20
42.3355
11
45
21
60.3355
0
LINE
8
0
10
63
20
21.573
11
81
21
21.573
0
LINE
8
0
10
81
20
21.573
11
81
21
3.573
0
LINE
8
0
10
81
20
3.573
11
63
21
3.573
0
LINE
8
0
10
63
20
3.573
11
63
21
21.573
0
LINE
8
0
10
63
20
38.573
11
81
21
38.573
0
LINE
8
0
10
81
20
38.573
11
81
21
20.573
0
LINE
8
0
10
81
20
20.573
11
63
21
20.573
0
LINE
8
0
10
63
20
20.573
11
63
21
38.573
0
LINE
8
0
10
63
20
55.573
11
81
21
55.573
0
LINE
8
0
10
81
20
55.573
11
81
21
37.573
0
LINE
8
0
10
81
20
37.573
11
63
21
37.573
0
LINE
8
0
10
63
20
37.573
11
63
21
55.573
0
LINE
8
0
10
81
20
18.7155
11
99
21
18.7155
0
LINE
8
0
10
99
20
18.7155
11
99
21
0.7155
0
LINE
8
0
10
99
20
0.7155
11
81
21
0.7155
0
LINE
8
0
10
81
20
0.7155
11
81
21
18.7155
0
LINE
8
0
10
81
20
35.7155
11
99
21
35.7155
0
LINE
8
0
10
99
20
35.7155
11
99
21
17.7155
0
LINE
8
0
10
99
20
17.7155
11
81
21
17.7155
0
LINE
8
0
10
81
20
17.7155
11
81
21
35.7155
0
LINE
8
0
10
81
20
52.7155
11
99
21
52.7155
0
LINE
8
0
10
99
20
52.7155
11
99
21
34.7155
0
LINE
8
0
10
99
20
34.7155
11
81
21
34.7155
0
LINE
8
0
10
81
20
34.7155
11
81
21
52.7155
0
LINE
8
0
10
51.4522962
20
-5.828039
11
68.838961
21
-1.1692962
0
LINE
8
0
10
68.838961
20
-1.1692962
11
73.4977038
21
-18.555961
0
LINE
8
0
10
73.4977038
20
-18.555961
11
56.111039
21
-23.2147038
0
LINE
8
0
10
56.111039
20
-23.2147038
11
51.4522962
21
-5.828039
0
LINE
8
0
10
73.6514728
20
-0.6739521
11
91.6514728
21
-0.6739521
0
LINE
8
0
10
91.6514728
20
-0.6739521
11
91.6514728
21
-18.6739521
0
LINE
8
0
10
91.6514728
20
-18.6739521
11
73.6514728
21
-18.6739521
0
LINE
8
0
10
73.6514728
20
-18.6739521
11
73.6514728
21
-0.6739521
0
LINE
8
0
10
96.4282066
20
-1.4410562
11
113.8148714
21
-6.099799
0
LINE
8
0
10
113.8148714
20
-6.099799
11
109.1561286
21
-23.4864638
0
LINE
8
0
10
109.1561286
20
-23.4864638
11
91.7694638
21
-18.827721
0
LINE
8
0
10
91.7694638
20
-18.827721
11
96.4282066
21
-1.4410562
0
ENDSEC
0
EOF