0
SECTION
2
HEADER
9
$INSUNITS
70
4
0
ENDSEC
0
SECTION
2
TABLES
0
TABLE
2
LTYPE
0
LTYPE
72
65
70
64
2
CONTINUOUS
3
______
73
0
40
0
0
ENDTAB
0
TABLE
2
LAYER
0
ENDTAB
0
ENDSEC
0
SECTION
2
ENTITIES
0
LINE
8
0
10
8.1813506
20
9.750154
11
26.1128552
21
11.3189574
0
LINE
8
0
10
26.1128552
20
11.3189574
11
27.6816586
21
-6.6125472
0
LINE
8
0
10
27.6816586
20
-6.6125472
11
9.750154
21
-8.1813506
0
LINE
8
0
10
9.750154
20
-8.1813506
11
8.1813506
21
9.750154
0
LINE
8
0
10
6.6125472
20
27.6816585
11
24.5440518
21
29.2504619
0
LINE
8
0
10
24.5440518
20
29.2504619
11
26.1128552
21
11.3189573
0
LINE
8
0
10
26.1128552
20
11.3189573
11
8.1813506
21
9.7501539
0
LINE
8
0
10
8.1813506
20
9.7501539
11
6.6125472
21
27.6816585
0
LINE
8
0
10
5.0437438
20
45.6131631
11
22.9752484
21
47.1819665
0
LINE
8
0
10
22.9752484
20
47.1819665
11
24.5440518
21
29.2504619
0
LINE
8
0
10
24.5440518
20
29.2504619
11
6.6125472
21
27.6816585
0
LINE
8
0
10
6.6125472
20
27.6816585
11
5.0437438
21
45.6131631
0
LINE
8
0
10
27.5603504
20
24.819643
11
45.5603504
21
24.819643
0
LINE
8
0
10
45.5603504
20
24.819643
11
45.5603504
21
6.819643
0
LINE
8
0
10
45.5603504
20
6.819643
11
27.5603504
21
6.819643
0
LINE
8
0
10
27.5603504
20
6.819643
11
27.5603504
21
24.819643
0
LINE
8
0
10
27.5603505
20
42.819643
11
45.5603505
21
42.819643
0
LINE
8
0
10
45.5603505
20
42.819643
11
45.5603505
21
24.819643
0
LINE
8
0
10
45.5603505
20
24.819643
11
27.5603505
21
24.819643
0
LINE
8
0
10
27.5603505
20
24.819643
11
27.5603505
21
42.819643
0
LINE
8
0
10
27.5603504
20
60.819643
11
45.5603504
21
60.819643
0
LINE
8
0
10
45.5603504
20
60.819643
11
45.5603504
21
42.819643
0
LINE
8
0
10
45.5603504
20
42.819643
11
27.5603504
21
42.819643
0
LINE
8
0
10
27.5603504
20
42.819643
11
27.5603504
21
60.819643
0
LINE
8
0
10
45.5603505
20
29.582143
11
63.5603505
21
29.582143
0
LINE
8
0
10
63.5603505
20
29.582143
11
63.5603505
21
11.582143
0
LINE
8
0
10
63.5603505
20
11.582143
11
45.5603505
21
11.582143
0
LINE
8
0
10
45.5603505
20
11.582143
11
45.5603505
21
29.582143
0
LINE
8
0
10
45.5603504
20
47.582143
11
63.5603504
21
47.582143
0
LINE
8
0
10
63.5603504
20
47.582143
11
63.5603504
21
29.582143
0
LINE
8
0
10
63.5603504
20
29.582143
11
45.5603504
21
29.582143
0
LINE
8
0
10
45.5603504
20
29.582143
11
45.5603504
21
47.582143
0
LINE
8
0
10
45.5603504
20
65.582143
11
63.5603504
21
65.582143
0
LINE
8
0
10
63.5603504
20
65.582143
11
63.5603504
21
47.582143
0
LINE
8
0
10
63.5603504
20
47.582143
11
45.5603504
21
47.582143
0
LINE
8
0
10
45.5603504
20
47.582143
11
45.5603504
21
65.582143
0
LINE
8
0
10
63.5603505
20
24.8196431
11
81.5603505
21
24.8196431
0
LINE
8
0
10
81.5603505
20
24.8196431
11
81.5603505
21
6.8196431
0
LINE
8
0
10
81.5603505
20
6.8196431
11
63.5603505
21
6.8196431
0
LINE
8
0
10
63.5603505
20
6.8196431
11
63.5603505
21
24.8196431
0
LINE
8
0
10
63.5603504
20
42.819643
11
81.5603504
21
42.819643
0
LINE
8
0
10
81.5603504
20
42.819643
11
81.5603504
21
24.819643
0
LINE
8
0
10
81.5603504
20
24.819643
11
63.5603504
21
24.819643
0
LINE
8
0
10
63.5603504
20
24.819643
11
63.5603504
21
42.819643
0
LINE
8
0
10
63.5603504
20
60.819643
11
81.5603504
21
60.819643
0
LINE
8
0
10
81.5603504
20
60.819643
11
81.5603504
21
42.819643
0
LINE
8
0
10
81.5603504
20
42.819643
11
63.5603504
21
42.819643
0
LINE
8
0
10
63.5603504
20
42.819643
11
63.5603504
21
60.819643
0
LINE
8
0
10
81.5603505
20
21.962143
11
99.5603505
21
21.962143
0
LINE
8
0
10
99.5603505
20
21.962143
11
99.5603505
21
3.962143
0
LINE
8
0
10
99.5603505
20
3.962143
11
81.5603505
21
3.962143
0
LINE
8
0
10
81.5603505
20
3.962143
11
81.5603505
21
21.962143
0
LINE
8
0
10
81.5603504
20
39.962143
11
99.5603504
21
39.962143
0
LINE
8
0
10
99.5603504
20
39.962143
11
99.5603504
21
21.962143
0
LINE
8
0
10
99.5603504
20
21.962143
11
81.5603504
21
21.962143
0
LINE
8
0
10
81.5603504
20
21.962143
11
81.5603504
21
39.962143
0
LINE
8
0
10
81.5603504
20
57.962143
11
99.5603504
21
57.962143
0
LINE
8
0
10
99.5603504
20
57.962143
11
99.5603504
21
39.962143
0
LINE
8
0
10
99.5603504
20
39.962143
11
81.5603504
21
39.962143
0
LINE
8
0
10
81.5603504
20
39.962143
11
81.5603504
21
57.962143
0
LINE
8
0
10
50.9873505
20
1.0071431
11
68.9873505
21
1.0071431
0
LINE
8
0
10
68.9873505
20
1.0071431
11
68.9873505
21
-16.9928569
0
LINE
8
0
10
68.9873505
20
-16.9928569
11
50.9873505
21
-16.9928569
0
LINE
8
0
10
50.9873505
20
-16.9928569
11
50.9873505
21
1.0071431
0
LINE
8
0
10
73.7779838
20
0.3698616
11
91.1646486
21
-4.2888812
0
LINE
8
0
10
91.1646486
20
-4.2888812
11
86.5059058
21
-21.675546
0
LINE
8
0
10
86.5059058
20
-21.675546
11
69.119241
21
-17.0168032
0
LINE
8
0
10
69.119241
20
-17.0168032
11
73.7779838
21
0.3698616
0
LINE
8
0
10
95.6754008
20
-6.1572959
11
111.263858
21
-15.1572959
0
LINE
8
0
10
111.263858
20
-15.1572959
11
102.263858
21
-30.7457531
0
LINE
8
0
10
102.263858
20
-30.7457531
11
86.6754008
21
-21.7457531
0
LINE
8
0
10
86.6754008
20
-21.7457531
11
95.6754008
21
-6.1572959
0
ENDSEC
0
EOF