<svg width="104.815mm" height="83.822mm" viewBox="0 0 104.815 83.822" xmlns="http://www.w3.org/2000/svg"><g id="svgGroup" stroke-linecap="round" fill-rule="evenodd" font-size="9pt" stroke="#000" stroke-width="0.25mm" fill="none" style="stroke:#000;stroke-width:0.25mm;fill:none"><path d="M 0 51.336 L 18 51.336 L 18 69.336 L 0 69.336 L 0 51.336 Z M 0 34.336 L 18 34.336 L 18 52.336 L 0 52.336 L 0 34.336 Z M 0 17.336 L 18 17.336 L 18 35.336 L 0 35.336 L 0 17.336 Z M 18 38.763 L 36 38.763 L 36 56.763 L 18 56.763 L 18 38.763 Z M 18 21.763 L 36 21.763 L 36 39.763 L 18 39.763 L 18 21.763 Z M 18 4.763 L 36 4.763 L 36 22.763 L 18 22.763 L 18 4.763 Z M 36 34 L 54 34 L 54 52 L 36 52 L 36 34 Z M 36 17 L 54 17 L 54 35 L 36 35 L 36 17 Z M 36 0 L 54 0 L 54 18 L 36 18 L 36 0 Z M 54 38.763 L 72 38.763 L 72 56.763 L 54 56.763 L 54 38.763 Z M 54 21.763 L 72 21.763 L 72 39.763 L 54 39.763 L 54 21.763 Z M 54 4.763 L 72 4.763 L 72 22.763 L 54 22.763 L 54 4.763 Z M 72 41.62 L 90 41.62 L 90 59.62 L 72 59.62 L 72 41.62 Z M 72 24.62 L 90 24.62 L 90 42.62 L 72 42.62 L 72 24.62 Z M 72 7.62 L 90 7.62 L 90 25.62 L 72 25.62 L 72 7.62 Z M 64.651 61.009 L 82.651 61.009 L 82.651 79.009 L 64.651 79.009 L 64.651 61.009 Z M 87.428 61.777 L 104.815 66.435 L 100.156 83.822 L 82.769 79.163 L 87.428 61.777 Z M 42.452 66.164 L 59.839 61.505 L 64.498 78.891 L 47.111 83.55 L 42.452 66.164 Z" vector-effect="non-scaling-stroke"/></g></svg>