<svg width="106.22mm" height="96.328mm" viewBox="0 0 106.22 96.328" xmlns="http://www.w3.org/2000/svg"><g id="svgGroup" stroke-linecap="round" fill-rule="evenodd" font-size="9pt" stroke="#000" stroke-width="0.25mm" fill="none" style="stroke:#000;stroke-width:0.25mm;fill:none"><path d="M 3.138 55.832 L 21.069 54.263 L 22.638 72.195 L 4.706 73.763 L 3.138 55.832 Z M 1.569 37.9 L 19.5 36.332 L 21.069 54.263 L 3.138 55.832 L 1.569 37.9 Z M 0 19.969 L 17.932 18.4 L 19.5 36.332 L 1.569 37.9 L 0 19.969 Z M 22.517 40.763 L 40.517 40.763 L 40.517 58.763 L 22.517 58.763 L 22.517 40.763 Z M 22.517 22.763 L 40.517 22.763 L 40.517 40.763 L 22.517 40.763 L 22.517 22.763 Z M 22.517 4.763 L 40.517 4.763 L 40.517 22.763 L 22.517 22.763 L 22.517 4.763 Z M 40.517 36 L 58.517 36 L 58.517 54 L 40.517 54 L 40.517 36 Z M 40.517 18 L 58.517 18 L 58.517 36 L 40.517 36 L 40.517 18 Z M 58.517 18 L 58.517 0 L 40.517 0 L 40.517 18 L 58.517 18 Z M 58.517 40.762 L 76.517 40.762 L 76.517 58.762 L 58.517 58.762 L 58.517 40.762 Z M 58.517 22.763 L 76.517 22.763 L 76.517 40.763 L 58.517 40.763 L 58.517 22.763 Z M 76.517 22.763 L 76.517 4.763 L 58.517 4.763 L 58.517 22.763 L 76.517 22.763 Z M 76.517 43.62 L 94.517 43.62 L 94.517 61.62 L 76.517 61.62 L 76.517 43.62 Z M 76.517 25.62 L 94.517 25.62 L 94.517 43.62 L 76.517 43.62 L 76.517 25.62 Z M 94.517 25.62 L 94.517 7.62 L 76.517 7.62 L 76.517 25.62 L 94.517 25.62 Z M 45.944 64.575 L 63.944 64.575 L 63.944 82.575 L 45.944 82.575 L 45.944 64.575 Z M 90.632 71.739 L 106.22 80.739 L 97.22 96.328 L 81.632 87.328 L 90.632 71.739 Z M 68.734 65.212 L 86.121 69.871 L 81.462 87.258 L 64.075 82.599 L 68.734 65.212 Z" vector-effect="non-scaling-stroke"/></g></svg>