<?xml version="1.0" encoding="UTF-8" standalone="no"?>
<!-- Created with Inkscape (http://www.inkscape.org/) -->

<svg
   width="600mm"
   height="130mm"
   viewBox="0 0 600 130"
   version="1.1"
   id="svg465"
   xml:space="preserve"
   sodipodi:docname="spoilboard_20240614.svg"
   inkscape:version="1.2.2 (b0a8486541, 2022-12-01)"
   xmlns:inkscape="http://www.inkscape.org/namespaces/inkscape"
   xmlns:sodipodi="http://sodipodi.sourceforge.net/DTD/sodipodi-0.dtd"
   xmlns="http://www.w3.org/2000/svg"
   xmlns:svg="http://www.w3.org/2000/svg"><sodipodi:namedview
     id="namedview467"
     pagecolor="#ffffff"
     bordercolor="#000000"
     borderopacity="0.25"
     inkscape:showpageshadow="2"
     inkscape:pageopacity="0.0"
     inkscape:pagecheckerboard="0"
     inkscape:deskcolor="#d1d1d1"
     inkscape:document-units="mm"
     showgrid="false"
     inkscape:zoom="1"
     inkscape:cx="333"
     inkscape:cy="122.5"
     inkscape:window-width="1920"
     inkscape:window-height="1144"
     inkscape:window-x="0"
     inkscape:window-y="0"
     inkscape:window-maximized="1"
     inkscape:current-layer="svg465" /><defs
     id="defs462"><inkscape:path-effect
       effect="bspline"
       id="path-effect18350"
       is_visible="true"
       lpeversion="1"
       weight="15"
       steps="2"
       helper_size="0"
       apply_no_weight="true"
       apply_with_weight="true"
       only_selected="false" /></defs><rect
     style="display:inline;fill:none;fill-opacity:0.512274;stroke:#00ff00;stroke-width:0.258475;stroke-linecap:round;stroke-opacity:1;stop-color:#000000"
     id="rect41912"
     width="129.74153"
     height="599.74152"
     x="0.1292375"
     y="-599.87073"
     transform="rotate(90)" /><rect
     style="display:inline;fill:none;fill-opacity:0.512274;stroke:#00ff00;stroke-width:0.246251;stroke-linecap:round;stroke-opacity:1;stop-color:#000000"
     id="rect41912-9"
     width="119.75375"
     height="589.75372"
     x="5.1231256"
     y="-594.87689"
     transform="rotate(90)" /><g
     inkscape:label="Hershey Text"
     style="fill:none;stroke:#00ff00;stroke-linecap:round;stroke-linejoin:round;stroke-opacity:1"
     id="g48354"
     transform="translate(-0.51619104,-0.19148944)"><g
       transform="translate(5.19554,7.76757)"
       id="g48352"
       style="stroke:#00ff00;stroke-opacity:1"><path
         d="M 567,662 H 252 l -32,-284 32,32 94,31 h 95 l 95,-31 62,-64 32,-94 V 189 L 598,94.5 536,31.5 441,0 H 346 L 252,31.5 220,63 189,126"
         style="stroke-width:0.5331in;stroke:#00ff00;stroke-opacity:1"
         transform="scale(0.003175,-0.003175)"
         id="path48338" /><path
         d="m 598,441 -31,-95 -63,-62 -94,-32 h -32 l -94,32 -64,62 -31,95 v 31 l 31,95 64,63 94,32 h 32 l 94,-32 63,-63 31,-126 V 284 L 567,126 504,31.5 410,0 h -64 l -94,31.5 -32,63"
         style="stroke-width:0.5331in;stroke:#00ff00;stroke-opacity:1"
         transform="matrix(0.003175,0,0,-0.003175,2.00025,0)"
         id="path48340" /><path
         d="M 378,662 284,630 220,536 189,378 V 284 L 220,126 284,31.5 378,0 h 63 l 95,31.5 62,94.5 32,158 v 94 l -32,158 -62,94 -95,32 h -63"
         style="stroke-width:0.5331in;stroke:#00ff00;stroke-opacity:1"
         transform="matrix(0.003175,0,0,-0.003175,4.0005,0)"
         id="path48342" /><path
         d="M 189,441 536,0 M 536,441 189,0"
         style="stroke-width:0.5331in;stroke:#00ff00;stroke-opacity:1"
         transform="matrix(0.003175,0,0,-0.003175,6.00075,0)"
         id="path48344" /><path
         d="m 284,536 62,31 95,95 V 0"
         style="stroke-width:0.5331in;stroke:#00ff00;stroke-opacity:1"
         transform="matrix(0.003175,0,0,-0.003175,7.70255,0)"
         id="path48346" /><path
         d="m 220,504 v 32 l 32,62 32,32 62,32 h 126 l 64,-32 31,-32 31,-62 V 472 L 567,410 504,315 189,0 h 441"
         style="stroke-width:0.5331in;stroke:#00ff00;stroke-opacity:1"
         transform="matrix(0.003175,0,0,-0.003175,9.7028,0)"
         id="path48348" /><path
         d="M 378,662 284,630 220,536 189,378 V 284 L 220,126 284,31.5 378,0 h 63 l 95,31.5 62,94.5 32,158 v 94 l -32,158 -62,94 -95,32 h -63"
         style="stroke-width:0.5331in;stroke:#00ff00;stroke-opacity:1"
         transform="matrix(0.003175,0,0,-0.003175,11.703,0)"
         id="path48350" /></g></g><g
     inkscape:label="Hershey Text"
     style="fill:none;stroke:#00ff00;stroke-linecap:round;stroke-linejoin:round;stroke-opacity:1"
     id="g48372"
     transform="translate(-0.52870239,-0.21461061)"><g
       transform="translate(0.226718,2.81738)"
       id="g48370"
       style="stroke:#00ff00;stroke-opacity:1"><path
         d="m 598,567 -31,63 -95,32 H 410 L 315,630 252,536 220,378 V 220 L 252,94.5 315,31.5 410,0 h 31 l 95,31.5 62,63 32,94.5 v 31 l -32,95 -62,63 -95,32 h -31 l -95,-32 -63,-63 -32,-95"
         style="stroke-width:0.5331in;stroke:#00ff00;stroke-opacity:1"
         transform="scale(0.003175,-0.003175)"
         id="path48356" /><path
         d="M 378,662 284,630 220,536 189,378 V 284 L 220,126 284,31.5 378,0 h 63 l 95,31.5 62,94.5 32,158 v 94 l -32,158 -62,94 -95,32 h -63"
         style="stroke-width:0.5331in;stroke:#00ff00;stroke-opacity:1"
         transform="matrix(0.003175,0,0,-0.003175,2.00025,0)"
         id="path48358" /><path
         d="M 378,662 284,630 220,536 189,378 V 284 L 220,126 284,31.5 378,0 h 63 l 95,31.5 62,94.5 32,158 v 94 l -32,158 -62,94 -95,32 h -63"
         style="stroke-width:0.5331in;stroke:#00ff00;stroke-opacity:1"
         transform="matrix(0.003175,0,0,-0.003175,4.0005,0)"
         id="path48360" /><path
         d="M 189,441 536,0 M 536,441 189,0"
         style="stroke-width:0.5331in;stroke:#00ff00;stroke-opacity:1"
         transform="matrix(0.003175,0,0,-0.003175,6.00075,0)"
         id="path48362" /><path
         d="m 284,536 62,31 95,95 V 0"
         style="stroke-width:0.5331in;stroke:#00ff00;stroke-opacity:1"
         transform="matrix(0.003175,0,0,-0.003175,7.70255,0)"
         id="path48364" /><path
         d="M 252,662 H 598 L 410,410 h 94 l 63,-32 31,-32 32,-94 V 189 L 598,94.5 536,31.5 441,0 H 346 L 252,31.5 220,63 189,126"
         style="stroke-width:0.5331in;stroke:#00ff00;stroke-opacity:1"
         transform="matrix(0.003175,0,0,-0.003175,9.7028,0)"
         id="path48366" /><path
         d="M 378,662 284,630 220,536 189,378 V 284 L 220,126 284,31.5 378,0 h 63 l 95,31.5 62,94.5 32,158 v 94 l -32,158 -62,94 -95,32 h -63"
         style="stroke-width:0.5331in;stroke:#00ff00;stroke-opacity:1"
         transform="matrix(0.003175,0,0,-0.003175,11.703,0)"
         id="path48368" /></g></g></svg>
