<?xml version="1.0" encoding="UTF-8" standalone="no"?>
<!-- Created with Inkscape (http://www.inkscape.org/) -->

<svg
   width="130mm"
   height="600mm"
   viewBox="0 0 130 600"
   version="1.1"
   id="svg465"
   xml:space="preserve"
   sodipodi:docname="walnut_01_20240614.svg"
   inkscape:version="1.2.2 (b0a8486541, 2022-12-01)"
   xmlns:inkscape="http://www.inkscape.org/namespaces/inkscape"
   xmlns:sodipodi="http://sodipodi.sourceforge.net/DTD/sodipodi-0.dtd"
   xmlns="http://www.w3.org/2000/svg"
   xmlns:svg="http://www.w3.org/2000/svg"><sodipodi:namedview
     id="namedview467"
     pagecolor="#ffffff"
     bordercolor="#000000"
     borderopacity="0.25"
     inkscape:showpageshadow="2"
     inkscape:pageopacity="0.0"
     inkscape:pagecheckerboard="0"
     inkscape:deskcolor="#d1d1d1"
     inkscape:document-units="mm"
     showgrid="false"
     inkscape:zoom="1"
     inkscape:cx="-10"
     inkscape:cy="6.5"
     inkscape:window-width="1920"
     inkscape:window-height="1144"
     inkscape:window-x="0"
     inkscape:window-y="0"
     inkscape:window-maximized="1"
     inkscape:current-layer="svg465" /><defs
     id="defs462"><inkscape:path-effect
       effect="bspline"
       id="path-effect18350"
       is_visible="true"
       lpeversion="1"
       weight="15"
       steps="2"
       helper_size="0"
       apply_no_weight="true"
       apply_with_weight="true"
       only_selected="false" /></defs><path
     d="m 31.094032,13.159193 v 73.499 l -5.073997,36.100997 a 1,1 0 0 0 0.850997,1.13 l 16.884,2.373 a 1,1 0 0 0 1.13,-0.852 l 1.159,-8.251 h 66.049998 a 1,1 0 0 0 1,-1 V 81.898193 a 4,4 0 0 1 0.896,-2.523 8,8 0 0 0 1.793,-5.047 v -14 a 8,8 0 0 0 -1.793,-5.047 4,4 0 0 1 -0.896,-2.524 v -39.598 a 1,1 0 0 0 -1,-1 H 32.094032 a 1,1 0 0 0 -1,1 z m 78.949998,2.05 m 0,-1 a 1,1 0 0 1 0,2 1,1 0 0 1 0,-2 z m 0,99.899997 m 0,-1 a 1.0000005,1.0000005 0 0 1 0,2 1.0000005,1.0000005 0 0 1 0,-2 z m -62.549998,1 m 0,-1 a 1.0000005,1.0000005 0 0 1 0,2 1.0000005,1.0000005 0 0 1 0,-2 z m -13.35,-7.65 m 0,-1 a 1,1 0 0 1 0,2 1,1 0 0 1 0,-2 z m 0,-89.249997 m 0,-1 a 1,1 0 0 1 0,2 1,1 0 0 1 0,-2 z"
     vector-effect="non-scaling-stroke"
     id="path38677"
     style="font-size:12px;fill:none;fill-rule:evenodd;stroke:#000000;stroke-width:0.25mm;stroke-linecap:round" /><path
     d="m 20.731474,58.32316 a 4.25,4.25 0 1 0 -4.278,0 l 2.139,-3.672 z m -0.339,6.628 a 4.2,4.2 0 1 0 2.086,-3.629 l 2.114,3.629 z m -5.711,-3.586 a 4.15,4.15 0 1 0 2.061,3.586 h -4.15 z"
     vector-effect="non-scaling-stroke"
     id="path39455"
     style="font-size:12px;fill:none;fill-rule:evenodd;stroke:#000000;stroke-width:0.25mm;stroke-linecap:round" /><path
     id="path39606"
     style="fill:none;fill-opacity:0.512274;stroke:#00ff00;stroke-width:0.068419;stroke-linecap:round;stop-color:#000000;stroke-opacity:1"
     d="m 18.447537,51.682675 -0.749327,0.96422 m 0.807408,1.463689 -0.04401,-2.412768 0.822725,0.946472" /><path
     id="path39606-5"
     style="fill:none;fill-opacity:0.512274;stroke:#00ff00;stroke-width:0.068419;stroke-linecap:round;stroke-opacity:1;stop-color:#000000"
     d="m 10.724354,64.157325 -0.7493266,0.96422 m 0.8074076,1.463689 -0.04401,-2.412768 0.822725,0.946472" /><path
     id="path39606-52"
     style="fill:none;fill-opacity:0.512274;stroke:#00ff00;stroke-width:0.068419;stroke-linecap:round;stroke-opacity:1;stop-color:#000000"
     d="m 26.18629,63.672108 -0.749327,0.96422 m 0.807408,1.463689 -0.04401,-2.412768 0.822725,0.946472" /></svg>
